<svg width="30" height="31" viewBox="0 0 30 31" fill="none" xmlns="http://www.w3.org/2000/svg">
<g clip-path="url(#clip0_474_2832)">
<path fill-rule="evenodd" clip-rule="evenodd" d="M15 0.5C23.2849 0.5 30 7.21514 30 15.5C30 23.7849 23.2849 30.5 15 30.5C6.71514 30.5 0 23.7849 0 15.5C0 7.21514 6.71514 0.5 15 0.5Z" fill="#2A3447"/>
<path d="M5.98828 11.1882V19.8122C5.98828 20.3666 6.27868 20.8682 6.76268 21.1498L14.2339 25.4618C14.7091 25.7346 15.2987 25.7346 15.7739 25.4618L23.2451 21.1498C23.7203 20.877 24.0195 20.3666 24.0195 19.8122V11.1882C24.0195 10.6338 23.7291 10.1322 23.2451 9.85058L15.7739 5.53858C15.2987 5.26578 14.7091 5.26578 14.2339 5.53858L6.76268 9.85058C6.28748 10.1234 5.99708 10.6338 5.99708 11.1882H5.98828Z" fill="#213147"/>
<path d="M16.6276 17.1715L15.5628 20.0931C15.5364 20.1723 15.5364 20.2603 15.5628 20.3483L17.3932 25.3731L19.514 24.1499L16.9708 17.1715C16.9092 17.0131 16.6892 17.0131 16.6276 17.1715Z" fill="#12AAFF"/>
<path d="M18.7657 12.2614C18.7041 12.103 18.4841 12.103 18.4225 12.2614L17.3577 15.183C17.3313 15.2622 17.3313 15.3502 17.3577 15.4382L20.3585 23.6662L22.4793 22.443L18.7657 12.2702V12.2614Z" fill="#12AAFF"/>
<path d="M15.0004 5.864C15.0532 5.864 15.106 5.8816 15.15 5.908L23.2284 10.572C23.3252 10.6248 23.378 10.7304 23.378 10.836V20.164C23.378 20.2696 23.3164 20.3752 23.2284 20.428L15.15 25.092C15.106 25.1184 15.0532 25.136 15.0004 25.136C14.9476 25.136 14.8948 25.1184 14.8508 25.092L6.7724 20.428C6.6756 20.3752 6.6228 20.2696 6.6228 20.164V10.8272C6.6228 10.7216 6.6844 10.616 6.7724 10.5632L14.8508 5.8992C14.8948 5.8728 14.9476 5.8552 15.0004 5.8552V5.864ZM15.0004 4.5C14.71 4.5 14.4284 4.5704 14.1644 4.72L6.086 9.384C5.5668 9.6832 5.25 10.2288 5.25 10.8272V20.1552C5.25 20.7536 5.5668 21.2992 6.086 21.5984L14.1644 26.2624C14.4196 26.412 14.71 26.4824 15.0004 26.4824C15.2908 26.4824 15.5724 26.412 15.8364 26.2624L23.9148 21.5984C24.434 21.2992 24.7508 20.7536 24.7508 20.1552V10.8272C24.7508 10.2288 24.434 9.6832 23.9148 9.384L15.8276 4.72C15.5724 4.5704 15.282 4.5 14.9916 4.5H15.0004Z" fill="#9DCCED"/>
<path d="M9.65039 23.6744L10.3984 21.6328L11.8944 22.8736L10.4952 24.1584L9.65039 23.6744Z" fill="#213147"/>
<path d="M14.3141 10.167H12.2637C12.1141 10.167 11.9733 10.2638 11.9205 10.4046L7.5293 22.443L9.6501 23.6662L14.4901 10.4046C14.5341 10.2814 14.4461 10.1582 14.3229 10.1582L14.3141 10.167Z" fill="white"/>
<path d="M17.9037 10.167H15.8533C15.7037 10.167 15.5629 10.2638 15.5101 10.4046L10.4941 24.1502L12.6149 25.3734L18.0709 10.4046C18.1149 10.2814 18.0269 10.1582 17.9037 10.1582V10.167Z" fill="white"/>
</g>
<defs>
<clipPath id="clip0_474_2832">
<rect width="30" height="30" fill="white" transform="translate(0 0.5)"/>
</clipPath>
</defs>
</svg>
