<svg width="30" height="31" viewBox="0 0 30 31" fill="none" xmlns="http://www.w3.org/2000/svg">
<g clip-path="url(#clip0_474_2823)">
<path fill-rule="evenodd" clip-rule="evenodd" d="M15 0.5C23.2849 0.5 30 7.21514 30 15.5C30 23.7849 23.2849 30.5 15 30.5C6.71514 30.5 0 23.7849 0 15.5C0 7.21514 6.71514 0.5 15 0.5Z" fill="#F0B90B"/>
<path d="M8.24399 15.4994L8.25481 19.4657L11.625 21.4489V23.771L6.28245 20.6376V14.3395L8.24399 15.4994ZM8.24399 11.5331V13.8444L6.28125 12.6833V10.372L8.24399 9.21094L10.2163 10.372L8.24399 11.5331ZM13.0325 10.372L14.9952 9.21094L16.9675 10.372L14.9952 11.5331L13.0325 10.372Z" fill="white"/>
<path d="M9.66211 18.6436V16.3215L11.6248 17.4826V19.7939L9.66211 18.6436ZM13.0323 22.2806L14.995 23.4417L16.9674 22.2806V24.5919L14.995 25.753L13.0323 24.5919V22.2806ZM19.7823 10.372L21.745 9.21094L23.7174 10.372V12.6833L21.745 13.8444V11.5331L19.7823 10.372ZM21.745 19.4657L21.7559 15.4994L23.7186 14.3383V20.6364L18.3761 23.7698V21.4477L21.745 19.4657Z" fill="white"/>
<path d="M20.3377 18.6444L18.375 19.7946V17.4833L20.3377 16.3223V18.6444Z" fill="white"/>
<path d="M20.3376 12.3555L20.3484 14.6776L16.9686 16.6608V20.6367L15.0059 21.787L13.0431 20.6367V16.6608L9.66331 14.6776V12.3555L11.6345 11.1944L14.9938 13.1872L18.3736 11.1944L20.346 12.3555H20.3376ZM9.66211 8.39032L14.995 5.24609L20.3376 8.39032L18.3748 9.55138L14.995 7.55859L11.6248 9.55138L9.66211 8.39032Z" fill="white"/>
</g>
<defs>
<clipPath id="clip0_474_2823">
<rect width="30" height="30" fill="white" transform="translate(0 0.5)"/>
</clipPath>
</defs>
</svg>
