<svg width="30" height="31" viewBox="0 0 30 31" fill="none" xmlns="http://www.w3.org/2000/svg">
<g clip-path="url(#clip0_474_2894)">
<path fill-rule="evenodd" clip-rule="evenodd" d="M15 0.5C23.2849 0.5 30 7.21514 30 15.5C30 23.7849 23.2849 30.5 15 30.5C6.71514 30.5 0 23.7849 0 15.5C0 7.21514 6.71514 0.5 15 0.5Z" fill="#0052FE"/>
<path fill-rule="evenodd" clip-rule="evenodd" d="M26 15.5C26 9.42444 21.0756 4.5 15 4.5C8.92444 4.5 4 9.42444 4 15.5C4 21.5756 8.92444 26.5 15 26.5C21.0756 26.5 26 21.5756 26 15.5ZM12 11.5C11.4477 11.5 11 11.9477 11 12.5V18.5C11 19.0523 11.4477 19.5 12 19.5H18C18.5523 19.5 19 19.0523 19 18.5V12.5C19 11.9477 18.5523 11.5 18 11.5H12Z" fill="white"/>
</g>
<defs>
<clipPath id="clip0_474_2894">
<rect width="30" height="30" fill="white" transform="translate(0 0.5)"/>
</clipPath>
</defs>
</svg>
