<svg width="30" height="31" viewBox="0 0 30 31" fill="none" xmlns="http://www.w3.org/2000/svg">
<g clip-path="url(#clip0_474_2811)">
<path d="M15 30.5C23.2843 30.5 30 23.7843 30 15.5C30 7.21573 23.2843 0.5 15 0.5C6.71573 0.5 0 7.21573 0 15.5C0 23.7843 6.71573 30.5 15 30.5Z" fill="#627EEA"/>
<path d="M15.4668 4.25V12.5656L22.4952 15.7062L15.4668 4.25Z" fill="white" fill-opacity="0.602"/>
<path d="M15.4669 4.25L8.4375 15.7062L15.4669 12.5656V4.25Z" fill="white"/>
<path d="M15.4668 21.0956V26.7459L22.4999 17.0156L15.4668 21.0956Z" fill="white" fill-opacity="0.602"/>
<path d="M15.4669 26.7459V21.0947L8.4375 17.0156L15.4669 26.7459Z" fill="white"/>
<path d="M15.4668 19.788L22.4952 15.7071L15.4668 12.5684V19.788Z" fill="white" fill-opacity="0.2"/>
<path d="M8.4375 15.7071L15.4669 19.788V12.5684L8.4375 15.7071Z" fill="white" fill-opacity="0.602"/>
</g>
<defs>
<clipPath id="clip0_474_2811">
<rect width="30" height="30" fill="white" transform="translate(0 0.5)"/>
</clipPath>
</defs>
</svg>
