<svg width="34" height="31" viewBox="0 0 34 31" fill="none" xmlns="http://www.w3.org/2000/svg">
<path d="M29.6055 2.52148L18.6797 10.6359L20.7005 5.84833L29.6055 2.52148Z" fill="#E2761B"/>
<path d="M4.38281 2.52148L15.2208 10.7126L13.2988 5.84833L4.38281 2.52148Z" fill="#E4761B"/>
<path d="M25.6734 21.3301L22.7637 25.7883L28.9898 27.5009L30.7797 21.429L25.6734 21.3301Z" fill="#E4761B"/>
<path d="M3.23047 21.429L5.00935 27.5009L11.2355 25.7883L8.32571 21.3301L3.23047 21.429Z" fill="#E4761B"/>
<path d="M10.8837 13.7986L9.14844 16.4233L15.3303 16.6979L15.111 10.0547L10.8837 13.7986Z" fill="#E4761B"/>
<path d="M23.1048 13.7973L18.8228 9.97656L18.6797 16.6966L24.8511 16.422L23.1048 13.7973Z" fill="#E4761B"/>
<path d="M11.2344 25.7884L14.9457 23.9764L11.7393 21.4727L11.2344 25.7884Z" fill="#E4761B"/>
<path d="M19.043 23.9764L22.7654 25.7884L22.2494 21.4727L19.043 23.9764Z" fill="#E4761B"/>
<path d="M22.7654 25.7886L19.043 23.9766L19.3396 26.4035L19.3065 27.4244L22.7654 25.7886Z" fill="#D7C1B3"/>
<path d="M11.2344 25.7886L14.6933 27.4244L14.6712 26.4035L14.9457 23.9766L11.2344 25.7886Z" fill="#D7C1B3"/>
<path d="M14.7488 19.8699L11.6523 18.9584L13.8373 17.959L14.7488 19.8699Z" fill="#233447"/>
<path d="M19.2402 19.8699L20.1518 17.959L22.3478 18.9584L19.2402 19.8699Z" fill="#233447"/>
<path d="M11.2359 25.7883L11.763 21.3301L8.32617 21.429L11.2359 25.7883Z" fill="#CD6116"/>
<path d="M22.2363 21.3301L22.7634 25.7883L25.6731 21.429L22.2363 21.3301Z" fill="#CD6116"/>
<path d="M24.8511 16.4219L18.6797 16.6964L19.2509 19.8697L20.1625 17.9588L22.3584 18.9582L24.8511 16.4219Z" fill="#CD6116"/>
<path d="M11.6521 18.9582L13.8481 17.9588L14.7486 19.8697L15.3303 16.6964L9.14844 16.4219L11.6521 18.9582Z" fill="#CD6116"/>
<path d="M9.14844 16.4219L11.74 21.4724L11.6521 18.9582L9.14844 16.4219Z" fill="#E4751F"/>
<path d="M22.358 18.9582L22.248 21.4724L24.8506 16.4219L22.358 18.9582Z" fill="#E4751F"/>
<path d="M15.3298 16.6973L14.748 19.8705L15.4729 23.6145L15.6375 18.6844L15.3298 16.6973Z" fill="#E4751F"/>
<path d="M18.6789 16.6973L18.3828 18.6734L18.5143 23.6145L19.2502 19.8705L18.6789 16.6973Z" fill="#E4751F"/>
<path d="M19.2515 19.8705L18.5156 23.6145L19.0427 23.9769L22.2491 21.4732L22.359 18.959L19.2515 19.8705Z" fill="#F6851B"/>
<path d="M11.6523 18.959L11.7402 21.4732L14.9466 23.9769L15.4736 23.6145L14.7488 19.8705L11.6523 18.959Z" fill="#F6851B"/>
<path d="M19.3046 27.4249L19.3377 26.4039L19.0631 26.162H14.9236L14.6712 26.4039L14.6933 27.4249L11.2344 25.7891L12.442 26.7768L14.8905 28.4789H19.0963L21.5558 26.7768L22.7634 25.7891L19.3046 27.4249Z" fill="#C0AD9E"/>
<path d="M19.0417 23.9776L18.5147 23.6152H15.4735L14.9464 23.9776L14.6719 26.4045L14.9243 26.1626H19.0638L19.3384 26.4045L19.0417 23.9776Z" fill="#161616"/>
<path d="M30.0676 11.1629L31.0007 6.68308L29.6063 2.52148L19.043 10.3613L23.1057 13.7981L28.8484 15.4781L30.1223 13.9959L29.5732 13.6009L30.4516 12.7992L29.771 12.2722L30.6494 11.6021L30.0676 11.1629Z" fill="#763D16"/>
<path d="M3 6.68308L3.93309 11.1629L3.34031 11.6021L4.2187 12.2722L3.54913 12.7992L4.42753 13.6009L3.87839 13.9959L5.14129 15.4781L10.884 13.7981L14.9467 10.3613L4.38333 2.52148L3 6.68308Z" fill="#763D16"/>
<path d="M28.8471 15.4788L23.1043 13.7988L24.8506 16.4235L22.248 21.474L25.6738 21.4304H30.7801L28.8471 15.4788Z" fill="#F6851B"/>
<path d="M10.8841 13.7988L5.14139 15.4788L3.23047 21.4304H8.32571L11.7404 21.474L9.14886 16.4235L10.8841 13.7988Z" fill="#F6851B"/>
<path d="M18.6791 16.6967L19.0415 10.3606L20.711 5.84766H13.2988L14.9462 10.3606L15.3302 16.6967L15.4622 18.6949L15.4733 23.6139H18.5145L18.5366 18.6949L18.6791 16.6967Z" fill="#F6851B"/>
</svg>
