<svg width="30" height="31" viewBox="0 0 30 31" fill="none" xmlns="http://www.w3.org/2000/svg">
<path d="M6.14162 9.71227C11.034 4.76258 18.966 4.76258 23.8584 9.71227L24.4472 10.308C24.6919 10.5555 24.6919 10.9567 24.4472 11.2042L22.4331 13.242C22.3107 13.3657 22.1124 13.3657 21.9902 13.242L21.1799 12.4222C17.7669 8.96919 12.2332 8.96919 8.82017 12.4222L7.95247 13.3001C7.83011 13.4239 7.63185 13.4239 7.50954 13.3001L5.49536 11.2623C5.25074 11.0148 5.25074 10.6136 5.49536 10.3661L6.14162 9.71227ZM28.0239 13.9266L29.8165 15.7403C30.0612 15.9877 30.0612 16.389 29.8165 16.6365L21.7335 24.8144C21.4889 25.0619 21.0923 25.0619 20.8476 24.8144L15.1108 19.0103C15.0497 18.9485 14.9505 18.9485 14.8893 19.0103L9.15257 24.8144C8.90794 25.0619 8.51138 25.0619 8.26675 24.8144L0.183463 16.6363C-0.0611543 16.3889 -0.0611543 15.9876 0.183463 15.7401L1.97609 13.9265C2.22071 13.679 2.61731 13.679 2.86193 13.9265L8.59884 19.7307C8.66005 19.7925 8.75919 19.7925 8.82033 19.7307L14.557 13.9265C14.8016 13.679 15.1982 13.679 15.4428 13.9265L21.1798 19.7307C21.2409 19.7925 21.3401 19.7925 21.4012 19.7307L27.1381 13.9266C27.3827 13.6791 27.7793 13.6791 28.0239 13.9266Z" fill="#3B99FC"/>
</svg>
