<svg width="10" height="10" viewBox="0 0 10 10" fill="none" xmlns="http://www.w3.org/2000/svg">
<path d="M7.938 6.71H7.616C7.41067 6.71 7.27067 6.752 7.196 6.836C7.12133 6.91067 7.084 7.046 7.084 7.242V8.46C7.084 8.66533 7.12133 8.81 7.196 8.894C7.27067 8.96867 7.41067 9.006 7.616 9.006H7.938C8.134 9.006 8.26933 8.964 8.344 8.88C8.428 8.796 8.47 8.656 8.47 8.46V7.242C8.47 7.046 8.43267 6.91067 8.358 6.836C8.28333 6.752 8.14333 6.71 7.938 6.71ZM7.35 5.716H8.176C8.66133 5.716 9.03 5.842 9.282 6.094C9.534 6.346 9.66 6.71 9.66 7.186V8.53C9.66 9.006 9.534 9.37 9.282 9.622C9.03 9.874 8.66133 10 8.176 10H7.35C6.874 10 6.50533 9.874 6.244 9.622C5.992 9.37 5.866 9.006 5.866 8.53V7.186C5.866 6.71 5.992 6.346 6.244 6.094C6.50533 5.842 6.874 5.716 7.35 5.716ZM2.758 1.978H2.436C2.23067 1.978 2.09067 2.02 2.016 2.104C1.94133 2.17867 1.904 2.31867 1.904 2.524V3.742C1.904 3.938 1.94133 4.078 2.016 4.162C2.09067 4.23667 2.23067 4.274 2.436 4.274H2.758C2.96333 4.274 3.10333 4.23667 3.178 4.162C3.25267 4.078 3.29 3.938 3.29 3.742V2.524C3.29 2.328 3.248 2.188 3.164 2.104C3.08933 2.02 2.954 1.978 2.758 1.978ZM2.184 0.983999H3.01C3.49533 0.983999 3.864 1.11 4.116 1.362C4.368 1.614 4.494 1.978 4.494 2.454V3.798C4.494 4.274 4.368 4.638 4.116 4.89C3.864 5.142 3.49533 5.268 3.01 5.268H2.184C1.708 5.268 1.33933 5.142 1.078 4.89C0.826 4.638 0.7 4.274 0.7 3.798V2.454C0.7 1.978 0.826 1.614 1.078 1.362C1.33933 1.11 1.708 0.983999 2.184 0.983999ZM3.794 10H3.066C2.85133 10 2.78133 9.902 2.856 9.706C3.15467 8.94067 3.71 7.54067 4.522 5.506C5.334 3.462 5.88933 2.05733 6.188 1.292C6.272 1.096 6.39333 0.998 6.552 0.998H7.294C7.50867 0.998 7.57867 1.096 7.504 1.292L4.172 9.706C4.09733 9.902 3.97133 10 3.794 10Z" fill="#4C9540"/>
</svg>
