<svg width="14" height="14" viewBox="0 0 14 14" fill="none" xmlns="http://www.w3.org/2000/svg">
<path d="M12.8333 4.95768C12.8333 6.85935 11.4333 8.42852 9.6133 8.70268V8.66768C9.43246 6.40435 7.59496 4.56685 5.31413 4.38602H5.29663C5.5708 2.56602 7.13996 1.16602 9.04163 1.16602C11.1358 1.16602 12.8333 2.86352 12.8333 4.95768Z" fill="#4C9540"/>
<path d="M8.73841 8.73833C8.59258 6.88917 7.11092 5.4075 5.26175 5.26167C5.16258 5.25583 5.05758 5.25 4.95842 5.25C2.86425 5.25 1.16675 6.9475 1.16675 9.04167C1.16675 11.1358 2.86425 12.8333 4.95842 12.8333C7.05258 12.8333 8.75008 11.1358 8.75008 9.04167C8.75008 8.9425 8.74425 8.8375 8.73841 8.73833ZM5.47175 9.555L4.95842 10.5L4.44508 9.555L3.50008 9.04167L4.44508 8.52833L4.95842 7.58333L5.47175 8.52833L6.41675 9.04167L5.47175 9.555Z" fill="#4C9540"/>
</svg>
