<svg width="14" height="14" viewBox="0 0 14 14" fill="none" xmlns="http://www.w3.org/2000/svg">
<path d="M9.15836 8.57477C9.39169 8.34143 9.39169 7.99143 9.15836 7.7581L7.40836 6.0081C7.17502 5.77477 6.82502 5.77477 6.59169 6.0081L4.84169 7.7581C4.60836 7.99143 4.60836 8.34143 4.84169 8.57477C5.07502 8.8081 5.42502 8.8081 5.65836 8.57477L6.41669 7.81643V11.0831C6.41669 11.4331 6.65002 11.6664 7.00002 11.6664C7.35002 11.6664 7.58336 11.4331 7.58336 11.0831V7.81643L8.34169 8.57477C8.57502 8.8081 8.92502 8.8081 9.15836 8.57477ZM10.7334 4.7831C9.85836 2.74143 7.46669 1.74977 5.36669 2.6831C4.02502 3.26643 3.09169 4.49143 2.91669 5.94977C1.69169 6.24143 0.875024 7.52477 1.16669 8.74977C1.45836 9.74143 2.45002 10.4998 3.50002 10.4998H5.54169V9.56643C5.07502 9.6831 4.55002 9.5081 4.20002 9.1581C3.61669 8.57477 3.61669 7.64143 4.20002 7.11643L5.95002 5.36643C6.24169 5.07477 6.59169 4.9581 7.00002 4.9581C7.40836 4.9581 7.75836 5.1331 8.05002 5.36643L9.80002 7.11643C10.3834 7.69977 10.3834 8.6331 9.80002 9.1581C9.45002 9.5081 8.98336 9.6831 8.45836 9.56643V10.4998H9.91669C11.55 10.4998 12.8334 9.21643 12.8334 7.5831C12.8334 6.29977 12.0167 5.19143 10.7334 4.7831Z" fill="#4C9540"/>
</svg>
