<svg width="100" height="100" viewBox="0 0 100 100" fill="none" xmlns="http://www.w3.org/2000/svg">
<g clip-path="url(#clip0_474_38059)">
<path d="M50 0C22.3867 0 0 22.3789 0 50C0 77.6211 22.3867 100 50 100C77.6133 100 100 77.6074 100 50C100 22.3926 77.6133 0 50 0Z" fill="#4C9540"/>
<path d="M4.64337e-05 50.0001C-0.0112405 58.2646 2.03534 66.4019 5.95512 73.6778C10.949 75.144 16.1274 75.8866 21.3321 75.8829C51.3907 75.8829 75.7579 51.5157 75.7579 21.4571C75.7623 16.1699 74.9965 10.9102 73.4844 5.84382C66.2562 1.99367 58.1897 -0.013569 50 6.90353e-05C22.3868 6.90353e-05 4.64337e-05 22.379 4.64337e-05 50.0001Z" fill="#5DB04F"/>
<path d="M78.5158 41.7145L48.4631 73.275C47.6441 74.1342 46.6601 74.8192 45.57 75.2891C44.48 75.7589 43.3063 76.0039 42.1193 76.0094H42.0803C40.8999 76.0097 39.7315 75.7728 38.6444 75.3129C37.5573 74.8529 36.5738 74.1791 35.7522 73.3316L19.8049 56.9059C18.9809 56.0788 18.3294 55.0963 17.8882 54.0154C17.447 52.9345 17.2249 51.7767 17.2347 50.6092C17.2445 49.4418 17.4861 48.2879 17.9455 47.2146C18.4049 46.1413 19.0728 45.1699 19.9106 44.3568C20.7484 43.5437 21.7393 42.9051 22.8259 42.4781C23.9125 42.051 25.0731 41.844 26.2403 41.8691C27.4075 41.8942 28.5581 42.1509 29.6254 42.6243C30.6926 43.0976 31.6552 43.7782 32.4572 44.6266L42.0178 54.4742L65.7463 29.5563C66.5412 28.7039 67.4972 28.0177 68.5589 27.5372C69.6207 27.0566 70.7673 26.7914 71.9322 26.7568C73.0971 26.7222 74.2574 26.9189 75.3458 27.3356C76.4343 27.7523 77.4293 28.3806 78.2734 29.1842C79.1174 29.9879 79.7938 30.9509 80.2633 32.0176C80.7328 33.0843 80.9861 34.2335 81.0087 35.3988C81.0312 36.564 80.8225 37.7221 80.3946 38.8062C79.9667 39.8903 79.3282 40.8788 78.5158 41.7145Z" fill="white"/>
</g>
<defs>
<clipPath id="clip0_474_38059">
<rect width="100" height="100" fill="white"/>
</clipPath>
</defs>
</svg>
