<svg width="30" height="30" viewBox="0 0 30 30" fill="none" xmlns="http://www.w3.org/2000/svg">
<path d="M19.0695 9.55751C19.0219 9.19097 19.0169 8.82015 19.0546 8.45246H3.72768C3.07063 8.4527 2.44056 8.71381 1.97596 9.17842C1.51135 9.64302 1.25024 10.2731 1.25 10.9301V12.2483H20.1646C19.5633 11.4667 19.1849 10.5368 19.0695 9.55751ZM24.5104 4.42871C23.8773 4.43057 23.2516 4.5661 22.6744 4.82643C22.0972 5.08676 21.5815 5.46601 21.161 5.93939C20.7405 6.41277 20.4246 6.9696 20.2341 7.57345C20.0437 8.1773 19.9828 8.81457 20.0556 9.44356C20.8608 14.9928 28.8379 14.5394 29 8.9182C28.9994 7.7277 28.5262 6.58614 27.6843 5.74433C26.8425 4.90252 25.7009 4.42933 24.5104 4.42871ZM24.5104 5.41978C25.3517 5.42078 26.1644 5.72491 26.7997 6.27644C27.4349 6.82796 27.8502 7.58994 27.9693 8.42273H25.9178C25.8137 8.13355 25.6229 7.88353 25.3715 7.70679C25.1201 7.53006 24.8202 7.43522 24.5129 7.43523C24.2056 7.43523 23.9057 7.53008 23.6543 7.70683C23.4029 7.88357 23.2121 8.1336 23.1081 8.42278L21.0516 8.42273C21.1707 7.58994 21.5859 6.82796 22.2212 6.27644C22.8565 5.72491 23.6692 5.42078 24.5104 5.41978ZM24.0149 12.3771C23.2669 12.2702 22.5737 11.9236 22.0394 11.3893C21.5051 10.855 21.1585 10.1618 21.0516 9.4138H23.1081C23.1794 9.62446 23.2983 9.81586 23.4556 9.97313C23.6129 10.1304 23.8042 10.2493 24.0149 10.3206V12.3771ZM24.5104 9.41876C24.3792 9.41551 24.2544 9.36109 24.1628 9.26712C24.0711 9.17314 24.0198 9.04706 24.0198 8.91577C24.0198 8.78449 24.0711 8.65841 24.1628 8.56444C24.2545 8.47047 24.3792 8.41606 24.5105 8.41282C24.6417 8.41607 24.7665 8.47048 24.8582 8.56446C24.9498 8.65843 25.0012 8.78452 25.0012 8.9158C25.0011 9.04708 24.9498 9.17317 24.8581 9.26714C24.7665 9.3611 24.6417 9.41552 24.5104 9.41876ZM25.006 12.3771V10.3206C25.2169 10.2487 25.4086 10.1296 25.5666 9.97248C25.7246 9.81535 25.8447 9.62429 25.9178 9.4138H27.9693C27.8628 10.162 27.5163 10.8554 26.9819 11.3898C26.4476 11.9241 25.7542 12.2706 25.006 12.3771Z" fill="#4C9540"/>
<path d="M23.9009 14.3641C22.8956 14.2535 21.9413 13.8638 21.1458 13.2393H1.25V23.0905C1.25024 23.7476 1.51135 24.3776 1.97596 24.8422C2.44056 25.3068 3.07063 25.5679 3.72768 25.5682H22.5283C23.1854 25.5679 23.8154 25.3068 24.28 24.8422C24.7446 24.3776 25.0057 23.7476 25.006 23.0905V14.374C24.6384 14.4111 24.2678 14.4078 23.9009 14.3641ZM11.0715 23.1351C10.9608 23.2762 10.8193 23.3902 10.6579 23.4683C10.4964 23.5464 10.3193 23.5867 10.1399 23.586H4.9021C4.72685 23.5864 4.55378 23.5473 4.39565 23.4718C4.23752 23.3962 4.09837 23.2861 3.98849 23.1496C3.87861 23.0131 3.8008 22.8536 3.76081 22.683C3.72081 22.5124 3.71965 22.335 3.75741 22.1639C3.89529 21.6036 4.15692 21.0813 4.52307 20.6354C4.88923 20.1895 5.35062 19.8313 5.87335 19.5871C4.10875 18.1363 5.21247 15.1306 7.52352 15.1619C8.03527 15.1676 8.53328 15.3282 8.95196 15.6225C9.37065 15.9169 9.69036 16.3311 9.86899 16.8107C10.0476 17.2903 10.0768 17.8127 9.95263 18.3092C9.82849 18.8057 9.55686 19.2529 9.17353 19.592C10.2627 20.0589 11.9043 21.8903 11.0715 23.1351ZM21.0962 22.595H13.128C12.9978 22.593 12.8737 22.54 12.7823 22.4473C12.691 22.3545 12.6398 22.2296 12.6398 22.0994C12.6398 21.9693 12.691 21.8443 12.7823 21.7516C12.8737 21.6589 12.9979 21.6058 13.128 21.6039H21.0962C21.2264 21.6058 21.3505 21.6589 21.4419 21.7516C21.5332 21.8443 21.5844 21.9693 21.5844 22.0994C21.5844 22.2296 21.5332 22.3545 21.4419 22.4473C21.3505 22.54 21.2264 22.593 21.0962 22.595ZM12.6325 19.374C12.6328 19.2427 12.6852 19.1169 12.778 19.024C12.8709 18.9312 12.9967 18.8788 13.128 18.8785H19.1141C19.2455 18.8785 19.3715 18.9307 19.4645 19.0236C19.5574 19.1165 19.6096 19.2426 19.6096 19.374C19.6096 19.5054 19.5574 19.6315 19.4645 19.7244C19.3715 19.8173 19.2455 19.8695 19.1141 19.8695H13.128C13.0629 19.8698 12.9983 19.8571 12.9381 19.8323C12.8779 19.8074 12.8231 19.771 12.7771 19.7249C12.731 19.6788 12.6945 19.6241 12.6697 19.5639C12.6449 19.5037 12.6322 19.4391 12.6325 19.374ZM21.0962 17.1441H13.128C12.9978 17.1421 12.8737 17.0891 12.7823 16.9964C12.691 16.9036 12.6398 16.7787 12.6398 16.6485C12.6398 16.5184 12.691 16.3934 12.7823 16.3007C12.8737 16.208 12.9979 16.1549 13.128 16.153H21.0962C21.2264 16.1549 21.3505 16.208 21.4419 16.3007C21.5332 16.3934 21.5844 16.5184 21.5844 16.6485C21.5844 16.7787 21.5332 16.9036 21.4419 16.9964C21.3505 17.0891 21.2264 17.1421 21.0962 17.1441Z" fill="#4C9540"/>
<path d="M7.5235 20.2108C6.87858 20.2081 6.25157 20.4228 5.74361 20.8202C5.23565 21.2175 4.87637 21.7744 4.72373 22.401C4.71978 22.426 4.72155 22.4516 4.7289 22.4758C4.73624 22.5 4.74897 22.5223 4.76614 22.5409C4.7833 22.5595 4.80445 22.5739 4.828 22.5832C4.85155 22.5924 4.87689 22.5962 4.90212 22.5943H10.1399C10.169 22.5944 10.1978 22.5883 10.2243 22.5763C10.2508 22.5643 10.2744 22.5468 10.2935 22.5249C10.2084 21.1931 8.82236 20.2036 7.5235 20.2108ZM7.5235 19.2197C7.92682 19.2145 8.31184 19.0506 8.59519 18.7635C8.87854 18.4765 9.03742 18.0894 9.03741 17.686C9.03741 17.2827 8.87852 16.8955 8.59516 16.6085C8.3118 16.3214 7.92677 16.1576 7.52346 16.1523C7.12014 16.1576 6.73512 16.3215 6.45177 16.6085C6.16842 16.8956 6.00954 17.2827 6.00955 17.686C6.00955 18.0894 6.16844 18.4765 6.4518 18.7636C6.73516 19.0506 7.12019 19.2145 7.5235 19.2197Z" fill="#4C9540"/>
</svg>
