<svg width="100" height="100" viewBox="0 0 100 100" fill="none" xmlns="http://www.w3.org/2000/svg">
<g clip-path="url(#clip0_474_36880)">
<path d="M6.99274 0C3.13078 0 0 3.13078 0 6.99275V15.4775C0 16.9629 1.20412 18.1671 2.68961 18.1671C4.1751 18.1671 5.37922 16.9629 5.37922 15.4775V6.98922C5.37922 6.1 6.1002 5.37902 6.98941 5.37902H15.4812C16.9667 5.37902 18.1708 4.1749 18.1708 2.68941C18.1706 1.20412 16.9665 0 15.481 0L6.99274 0Z" fill="url(#paint0_linear_474_36880)"/>
<path d="M93.0071 100C96.8691 100 99.9999 96.8693 99.9999 93.0073V84.5226C99.9999 83.0371 98.7958 81.833 97.3103 81.833C95.8248 81.833 94.6207 83.0371 94.6207 84.5226V93.0109C94.6207 93.9001 93.8999 94.621 93.0105 94.621H84.5187C83.0332 94.621 81.8291 95.8252 81.8291 97.3107C81.8291 98.7961 83.0332 100 84.5187 100H93.0071V100Z" fill="url(#paint1_linear_474_36880)"/>
<path d="M100 6.99274C100 3.13078 96.8693 0 93.0073 0H84.5226C83.0371 0 81.833 1.20412 81.833 2.68961C81.833 4.1751 83.0371 5.37922 84.5226 5.37922H93.0109C93.9001 5.37922 94.621 6.1002 94.621 6.98941V15.4812C94.621 16.9667 95.8252 18.1708 97.3107 18.1708C98.7961 18.1708 100 16.9667 100 15.4812V6.99274H100Z" fill="url(#paint2_linear_474_36880)"/>
<path d="M0 93.0071C0 96.8691 3.13078 99.9999 6.99275 99.9999H15.4775C16.9629 99.9999 18.1671 98.7958 18.1671 97.3103C18.1671 95.8248 16.9629 94.6207 15.4775 94.6207H6.98922C6.1 94.6207 5.37902 93.8999 5.37902 93.0105V84.5187C5.37902 83.0332 4.1749 81.8291 2.68941 81.8291C1.20412 81.8293 0 83.0334 0 84.5189L0 93.0071Z" fill="url(#paint3_linear_474_36880)"/>
<path d="M12.4712 54.698C12.4712 49.7886 15.879 45.6753 20.4583 44.5943C21.6822 44.3053 22.8524 45.2519 22.8524 46.5096V62.8864C22.8524 64.1441 21.6824 65.0907 20.4583 64.8017C15.879 63.7207 12.4712 59.6074 12.4712 54.698Z" fill="url(#paint4_linear_474_36880)"/>
<path d="M87.5291 54.698C87.5291 49.7886 84.1213 45.6753 79.5421 44.5943C78.3181 44.3053 77.1479 45.2519 77.1479 46.5096V62.8864C77.1479 64.1441 78.3179 65.0907 79.5421 64.8017C84.1213 63.7207 87.5291 59.6074 87.5291 54.698Z" fill="url(#paint5_linear_474_36880)"/>
<path d="M87.5291 54.698C87.5291 49.7886 84.1213 45.6753 79.5421 44.5943C78.3181 44.3053 77.1479 45.2519 77.1479 46.5096V62.8864C77.1479 64.1441 78.3179 65.0907 79.5421 64.8017C84.1213 63.7207 87.5291 59.6074 87.5291 54.698Z" fill="url(#paint6_linear_474_36880)"/>
<path d="M50.0003 92.9397C33.416 92.9397 19.9717 79.4956 19.9717 62.9112V47.5118C19.9717 30.9275 33.416 17.4834 50.0001 17.4834C66.5844 17.4834 80.0285 30.9277 80.0285 47.5118V62.911C80.0287 79.4956 66.5846 92.9397 50.0003 92.9397Z" fill="url(#paint7_linear_474_36880)"/>
<path d="M51.6591 74.8229H48.3415C45.5764 74.8229 43.4831 72.3243 43.9674 69.6019L45.5262 60.8392C45.7246 59.7231 46.695 58.9102 47.8286 58.9102H52.1723C53.3058 58.9102 54.2762 59.7231 54.4746 60.8392L56.0335 69.6019C56.5176 72.3243 54.4242 74.8229 51.6591 74.8229Z" fill="url(#paint8_linear_474_36880)"/>
<path d="M51.6591 74.8229H48.3415C45.5764 74.8229 43.4831 72.3243 43.9674 69.6019L45.5262 60.8392C45.7246 59.7231 46.695 58.9102 47.8286 58.9102H52.1723C53.3058 58.9102 54.2762 59.7231 54.4746 60.8392L56.0335 69.6019C56.5176 72.3243 54.4242 74.8229 51.6591 74.8229Z" fill="url(#paint9_linear_474_36880)"/>
<path d="M48.3415 74.8229H51.6593C54.4244 74.8229 56.5178 72.3243 56.0335 69.6019L54.4746 60.8392C54.2762 59.7231 53.3058 58.9102 52.1723 58.9102H47.8286C46.695 58.9102 45.7246 59.7231 45.5262 60.8392L43.9674 69.6019C43.4831 72.3243 45.5764 74.8229 48.3415 74.8229Z" fill="url(#paint10_linear_474_36880)"/>
<path d="M36.6886 65.5165C34.2784 65.5165 32.3247 63.5627 32.3247 61.1525V58.9147C32.3247 56.5045 34.2784 54.5508 36.6886 54.5508C39.0988 54.5508 41.0525 56.5045 41.0525 58.9147V61.1525C41.0525 63.5627 39.0988 65.5165 36.6886 65.5165Z" fill="url(#paint11_linear_474_36880)"/>
<path d="M63.3112 65.5165C60.901 65.5165 58.9473 63.5627 58.9473 61.1525V58.9147C58.9473 56.5045 60.901 54.5508 63.3112 54.5508C65.7214 54.5508 67.6751 56.5045 67.6751 58.9147V61.1525C67.6751 63.5627 65.7214 65.5165 63.3112 65.5165Z" fill="url(#paint12_linear_474_36880)"/>
<path d="M90.8828 38.4912C90.8828 44.5092 89.2033 48.4457 86.8941 51.0139C82.5382 55.8584 74.6088 54.1357 72.3026 48.0428C69.5906 40.8781 63.1837 35.8445 55.7143 35.8445C55.5084 35.8445 55.3026 35.8479 55.0967 35.8577C56.2632 26.1433 63.7949 18.6475 72.9114 18.6475C82.838 18.6473 90.8828 27.5318 90.8828 38.4912Z" fill="url(#paint13_linear_474_36880)"/>
<path d="M79.5732 22.0166C79.2828 17.9827 77.104 14.2943 73.7445 12.0423C69.6792 9.31702 62.7226 7.06055 50.8324 7.06055C43.2414 7.06055 37.6618 7.98035 33.5614 9.35466C30.7869 10.2847 27.9873 11.1419 25.1389 11.8113C15.94 13.9727 9.11768 21.8927 9.11768 31.3341C9.11768 42.4394 18.5561 51.4421 30.199 51.4421C38.7628 51.4421 53.5524 36.0782 66.7292 36.0782C68.3655 36.0782 69.6718 34.6506 71.1673 33.9864C74.43 32.5374 80.0759 29.0021 79.5732 22.0166Z" fill="url(#paint14_linear_474_36880)"/>
<path d="M90.7218 41.5684H12.0508C13.2184 43.448 14.6965 45.1313 16.4198 46.5521C14.0153 48.4535 12.4712 51.3946 12.4712 54.698C12.4712 59.4513 15.6661 63.4584 20.0255 64.6895C20.2571 68.6544 21.2586 72.4123 22.8816 75.8168H77.1188C78.7418 72.4123 79.7431 68.6544 79.9749 64.6895C84.3343 63.4586 87.5292 59.4515 87.5292 54.698C87.5292 53.4113 87.2931 52.1803 86.8653 51.0433C86.8747 51.0329 86.8847 51.0237 86.8941 51.0133C88.7835 48.9117 90.2508 45.8931 90.7218 41.5684Z" fill="url(#paint15_linear_474_36880)"/>
<path d="M2.24588 43.5406H97.7539C98.9943 43.5406 99.9998 42.5351 99.9998 41.2947C99.9998 40.0543 98.9943 39.0488 97.7539 39.0488H2.24588C1.00549 39.0486 0 40.0541 0 41.2945C0 42.5349 1.00549 43.5406 2.24588 43.5406Z" fill="url(#paint16_linear_474_36880)"/>
</g>
<defs>
<linearGradient id="paint0_linear_474_36880" x1="1.66667" y1="5.77548e-08" x2="14.5897" y2="15.8282" gradientUnits="userSpaceOnUse">
<stop stop-color="#4C9540"/>
<stop offset="1" stop-color="#69C05A"/>
</linearGradient>
<linearGradient id="paint1_linear_474_36880" x1="83.4958" y1="81.833" x2="96.4189" y2="97.6612" gradientUnits="userSpaceOnUse">
<stop stop-color="#69C05A"/>
<stop offset="1" stop-color="#4C9540"/>
</linearGradient>
<linearGradient id="paint2_linear_474_36880" x1="103.979" y1="-3.97686" x2="82.6409" y2="17.361" gradientUnits="userSpaceOnUse">
<stop stop-color="#4C9540"/>
<stop offset="1" stop-color="#69C05A"/>
</linearGradient>
<linearGradient id="paint3_linear_474_36880" x1="22.1454" y1="77.8522" x2="-0.000250474" y2="101.666" gradientUnits="userSpaceOnUse">
<stop stop-color="#69C05A"/>
<stop offset="1" stop-color="#4C9540"/>
</linearGradient>
<linearGradient id="paint4_linear_474_36880" x1="15.5259" y1="50.2098" x2="23.8757" y2="58.5596" gradientUnits="userSpaceOnUse">
<stop stop-color="#FFDFCF"/>
<stop offset="1" stop-color="#FFA78F"/>
</linearGradient>
<linearGradient id="paint5_linear_474_36880" x1="73.9119" y1="48.6237" x2="85.596" y2="60.3078" gradientUnits="userSpaceOnUse">
<stop stop-color="#FFDFCF"/>
<stop offset="1" stop-color="#FFA78F"/>
</linearGradient>
<linearGradient id="paint6_linear_474_36880" x1="84.7915" y1="55.7723" x2="78.1144" y2="54.5125" gradientUnits="userSpaceOnUse">
<stop stop-color="#F89580" stop-opacity="0"/>
<stop offset="0.9972" stop-color="#C5715A"/>
</linearGradient>
<linearGradient id="paint7_linear_474_36880" x1="29.8407" y1="41.6589" x2="69.8972" y2="68.5877" gradientUnits="userSpaceOnUse">
<stop stop-color="#FFDFCF"/>
<stop offset="1" stop-color="#FFA78F"/>
</linearGradient>
<linearGradient id="paint8_linear_474_36880" x1="50.0003" y1="66.0266" x2="50.0003" y2="76.4627" gradientUnits="userSpaceOnUse">
<stop stop-color="#F89580" stop-opacity="0"/>
<stop offset="0.2616" stop-color="#F1907B" stop-opacity="0.262"/>
<stop offset="0.6357" stop-color="#DE826C" stop-opacity="0.638"/>
<stop offset="0.9972" stop-color="#C5715A"/>
</linearGradient>
<linearGradient id="paint9_linear_474_36880" x1="51.8013" y1="67.2737" x2="57.9591" y2="68.7715" gradientUnits="userSpaceOnUse">
<stop stop-color="#F89580" stop-opacity="0"/>
<stop offset="0.2616" stop-color="#F1907B" stop-opacity="0.262"/>
<stop offset="0.6357" stop-color="#DE826C" stop-opacity="0.638"/>
<stop offset="0.9972" stop-color="#C5715A"/>
</linearGradient>
<linearGradient id="paint10_linear_474_36880" x1="48.1993" y1="67.2737" x2="42.0417" y2="68.7715" gradientUnits="userSpaceOnUse">
<stop stop-color="#FFDDCD" stop-opacity="0"/>
<stop offset="0.9972" stop-color="#FFDDCD"/>
</linearGradient>
<linearGradient id="paint11_linear_474_36880" x1="33.8426" y1="57.9384" x2="39.9014" y2="62.3986" gradientUnits="userSpaceOnUse">
<stop stop-color="#5A5A5A"/>
<stop offset="1" stop-color="#444444"/>
</linearGradient>
<linearGradient id="paint12_linear_474_36880" x1="60.1694" y1="57.6773" x2="65.5553" y2="61.7167" gradientUnits="userSpaceOnUse">
<stop stop-color="#5A5A5A"/>
<stop offset="1" stop-color="#444444"/>
</linearGradient>
<linearGradient id="paint13_linear_474_36880" x1="68.5916" y1="28.3755" x2="81.9445" y2="41.7284" gradientUnits="userSpaceOnUse">
<stop stop-color="#5A5A5A"/>
<stop offset="1" stop-color="#444444"/>
</linearGradient>
<linearGradient id="paint14_linear_474_36880" x1="31.0612" y1="15.1668" x2="51.1383" y2="35.2439" gradientUnits="userSpaceOnUse">
<stop stop-color="#5A5A5A"/>
<stop offset="1" stop-color="#444444"/>
</linearGradient>
<linearGradient id="paint15_linear_474_36880" x1="51.3863" y1="55.1631" x2="51.3863" y2="40.508" gradientUnits="userSpaceOnUse">
<stop stop-color="#0593FC" stop-opacity="0"/>
<stop offset="0.6831" stop-color="#0389FC" stop-opacity="0.683"/>
<stop offset="1" stop-color="#0182FC"/>
</linearGradient>
<linearGradient id="paint16_linear_474_36880" x1="50" y1="38.6277" x2="50" y2="43.592" gradientUnits="userSpaceOnUse">
<stop stop-color="#62DBFB"/>
<stop offset="0.1912" stop-color="#57D5FA"/>
<stop offset="0.5232" stop-color="#3BC5F7"/>
<stop offset="0.954" stop-color="#0DABF2"/>
<stop offset="1" stop-color="#08A9F1"/>
</linearGradient>
<clipPath id="clip0_474_36880">
<rect width="100" height="100" fill="white"/>
</clipPath>
</defs>
</svg>
