<svg width="34" height="34" viewBox="0 0 34 34" fill="none" xmlns="http://www.w3.org/2000/svg">
<path d="M18.2866 4.56055H15.712C13.0781 4.56055 10.9399 6.6987 10.9399 9.33996V11.049H23.0586V9.33996C23.0586 6.6987 20.9205 4.56055 18.2866 4.56055Z" fill="#4C9540"/>
<path d="M10.9399 14.2383C10.9399 16.8722 13.0781 19.0104 15.712 19.0104H18.2866C20.9205 19.0104 23.0586 16.8722 23.0586 14.2383V12.5293H10.9399V14.2383Z" fill="#4C9540"/>
<path d="M10.4013 0.824219H5.86973C5.46059 0.824219 5.12988 1.15567 5.12988 1.56407V5.52446C5.12988 5.93286 5.46059 6.26431 5.86973 6.26431C6.27887 6.26431 6.60958 5.93286 6.60958 5.52446V2.30391H10.4013C10.8104 2.30391 11.1411 1.97246 11.1411 1.56407C11.1411 1.15567 10.8104 0.824219 10.4013 0.824219Z" fill="#4C9540"/>
<path d="M5.12988 19.2952C5.12988 19.7036 5.46059 20.0351 5.86973 20.0351H10.4005C10.8097 20.0351 11.1404 19.7036 11.1404 19.2952C11.1404 18.8868 10.8097 18.5554 10.4005 18.5554H6.60958V15.3355C6.60958 14.9272 6.27887 14.5957 5.86973 14.5957C5.46059 14.5957 5.12988 14.9272 5.12988 15.3355V19.2952Z" fill="#4C9540"/>
<path d="M28.1291 14.5957C27.7199 14.5957 27.3892 14.9272 27.3892 15.3355V18.5554H23.3785C22.9694 18.5554 22.6387 18.8868 22.6387 19.2952C22.6387 19.7036 22.9694 20.0351 23.3785 20.0351H28.1291C28.5382 20.0351 28.8689 19.7036 28.8689 19.2952V15.3355C28.8689 14.9272 28.5382 14.5957 28.1291 14.5957Z" fill="#4C9540"/>
<path d="M28.8699 1.56407C28.8699 1.15567 28.5392 0.824219 28.13 0.824219H23.5992C23.1901 0.824219 22.8594 1.15567 22.8594 1.56407C22.8594 1.97246 23.1901 2.30391 23.5992 2.30391H27.3902V5.52446C27.3902 5.93286 27.7209 6.26431 28.13 6.26431C28.5392 6.26431 28.8699 5.93286 28.8699 5.52446V1.56407Z" fill="#4C9540"/>
<path d="M4.99951 33.1787H29.0001V29.5609C29.0001 27.4819 28.1567 25.6027 26.7954 24.2414C25.4341 22.8801 23.5549 22.0366 21.4759 22.0366C20.5881 22.0366 19.8704 21.319 19.8704 20.4312V20.2832C19.3673 20.4164 18.8346 20.4904 18.2872 20.4904H15.7125C15.165 20.4904 14.6323 20.4164 14.1292 20.2832V20.4312C14.1292 20.8751 13.9517 21.2746 13.6557 21.5705C13.3672 21.8591 12.9677 22.0366 12.5238 22.0366C8.37321 22.0366 4.99951 25.4029 4.99951 29.5609V33.1787Z" fill="#4C9540"/>
<path d="M6.59092 11.0488C6.17661 11.0488 5.85107 11.3818 5.85107 11.7887C5.85107 12.1956 6.17661 12.5285 6.59092 12.5285H10.9412V11.0488H6.59092Z" fill="#4C9540"/>
<path d="M27.4094 12.5285C27.8237 12.5285 28.1492 12.1956 28.1492 11.7887C28.1492 11.3818 27.8237 11.0488 27.4094 11.0488H23.0591V12.5285H27.4094Z" fill="#4C9540"/>
</svg>
