<svg width="34" height="34" viewBox="0 0 34 34" fill="none" xmlns="http://www.w3.org/2000/svg">
<g clip-path="url(#clip0_474_34475)">
<path d="M30.1041 4.25H3.89592C1.7468 4.25 0 5.9968 0 8.14592V25.8541C0 28.0032 1.7468 29.75 3.89592 29.75H30.1041C32.2532 29.75 34 28.0032 34 25.8541V8.14592C34 5.9968 32.2532 4.25 30.1041 4.25ZM10.625 9.91658C12.5772 9.91658 14.1666 11.5062 14.1666 13.4584C14.1666 15.4104 12.5772 17 10.625 17C8.67276 17 7.08342 15.4104 7.08342 13.4584C7.08342 11.5062 8.67276 9.91658 10.625 9.91658ZM17 23.0209C17 23.6074 16.524 24.0834 15.9375 24.0834H5.3125C4.726 24.0834 4.25 23.6074 4.25 23.0209V22.3125C4.25 20.1634 5.9968 18.4166 8.14592 18.4166H13.1041C15.2532 18.4166 17 20.1634 17 22.3125V23.0209ZM28.6875 24.0834H20.8959C20.3094 24.0834 19.8334 23.6074 19.8334 23.0209C19.8334 22.4344 20.3094 21.9584 20.8959 21.9584H28.6875C29.274 21.9584 29.75 22.4344 29.75 23.0209C29.75 23.6074 29.274 24.0834 28.6875 24.0834ZM28.6875 18.4166H20.8959C20.3094 18.4166 19.8334 17.9406 19.8334 17.3541C19.8334 16.7676 20.3094 16.2916 20.8959 16.2916H28.6875C29.274 16.2916 29.75 16.7676 29.75 17.3541C29.75 17.9406 29.274 18.4166 28.6875 18.4166ZM28.6875 12.75H20.8959C20.3094 12.75 19.8334 12.274 19.8334 11.6875C19.8334 11.101 20.3094 10.625 20.8959 10.625H28.6875C29.274 10.625 29.75 11.101 29.75 11.6875C29.75 12.274 29.274 12.75 28.6875 12.75Z" fill="#4C9540"/>
</g>
<defs>
<clipPath id="clip0_474_34475">
<rect width="34" height="34" fill="white"/>
</clipPath>
</defs>
</svg>
