<svg width="30" height="30" viewBox="0 0 30 30" fill="none" xmlns="http://www.w3.org/2000/svg">
<path d="M25.0208 6H4.97923C3.33578 6 2 7.30153 2 8.90284V22.0972C2 23.6985 3.33578 25 4.97923 25H25.0208C26.6642 25 28 23.6985 28 22.0972V8.90284C28 7.30153 26.6642 6 25.0208 6ZM10.125 10.2222C11.6179 10.2222 12.8333 11.4066 12.8333 12.8612C12.8333 14.3156 11.6179 15.5 10.125 15.5C8.63211 15.5 7.41673 14.3156 7.41673 12.8612C7.41673 11.4066 8.63211 10.2222 10.125 10.2222ZM15 19.9862C15 20.4232 14.636 20.7778 14.1875 20.7778H6.0625C5.614 20.7778 5.25 20.4232 5.25 19.9862V19.4583C5.25 17.857 6.58578 16.5555 8.22923 16.5555H12.0208C13.6642 16.5555 15 17.857 15 19.4583V19.9862ZM23.9375 20.7778H17.9792C17.5307 20.7778 17.1667 20.4232 17.1667 19.9862C17.1667 19.5492 17.5307 19.1945 17.9792 19.1945H23.9375C24.386 19.1945 24.75 19.5492 24.75 19.9862C24.75 20.4232 24.386 20.7778 23.9375 20.7778ZM23.9375 16.5555H17.9792C17.5307 16.5555 17.1667 16.2008 17.1667 15.7638C17.1667 15.3268 17.5307 14.9722 17.9792 14.9722H23.9375C24.386 14.9722 24.75 15.3268 24.75 15.7638C24.75 16.2008 24.386 16.5555 23.9375 16.5555ZM23.9375 12.3333H17.9792C17.5307 12.3333 17.1667 11.9787 17.1667 11.5417C17.1667 11.1047 17.5307 10.75 17.9792 10.75H23.9375C24.386 10.75 24.75 11.1047 24.75 11.5417C24.75 11.9787 24.386 12.3333 23.9375 12.3333Z" fill="#4C9540"/>
</svg>
