<svg width="100" height="100" viewBox="0 0 100 100" fill="none" xmlns="http://www.w3.org/2000/svg">
<path d="M86.591 50.0002C86.591 70.2088 70.2087 86.591 50.0001 86.591C29.7915 86.591 13.4092 70.2088 13.4092 50.0002C13.4092 29.7916 29.7915 13.4092 50.0001 13.4092C70.2087 13.4092 86.591 29.7916 86.591 50.0002Z" fill="#20242A"/>
<path d="M86.5912 52.3871C86.5912 71.2778 71.2773 86.5916 52.3867 86.5916C33.496 86.5916 18.1821 71.2778 18.1821 52.3871C18.1821 33.4965 33.496 18.1826 52.3867 18.1826C71.2773 18.1826 86.5912 33.4965 86.5912 52.3871Z" fill="#2D3137"/>
<path fill-rule="evenodd" clip-rule="evenodd" d="M40.1506 33.8549C40.8244 32.5373 42.2016 31.7051 43.708 31.7051H54.701C56.2074 31.7051 57.5846 32.5373 58.2584 33.8549L61.1363 39.4828H69.0908C71.2875 39.4828 73.0682 41.224 73.0682 43.3717V62.8162C73.0682 64.0779 72.4537 65.1992 71.5016 65.9096L60.3408 66.7051H29.3182C27.1215 66.7051 25.3408 64.9641 25.3408 62.8162V43.3717C25.3408 41.224 27.1215 39.4828 29.3182 39.4828H33.2953L40.1506 33.8549ZM62.7271 45.2277C62.7271 44.3492 63.4395 43.6369 64.3182 43.6369H66.7045C67.5832 43.6369 68.2953 44.3492 68.2953 45.2277C68.2953 46.1064 67.5832 46.8188 66.7045 46.8188H64.3182C63.4395 46.8188 62.7271 46.1064 62.7271 45.2277ZM49.2045 60.3414C54.4764 60.3414 58.75 56.0678 58.75 50.7961C58.75 45.5242 54.4764 41.2506 49.2045 41.2506C43.9326 41.2506 39.659 45.5242 39.659 50.7961C39.659 56.0678 43.9326 60.3414 49.2045 60.3414Z" fill="url(#paint0_linear_474_36294)"/>
<path fill-rule="evenodd" clip-rule="evenodd" d="M27.6568 22.0322C33.7807 17.1337 41.5482 14.2046 50 14.2046C69.7693 14.2046 85.7955 30.2307 85.7955 50C85.7955 58.4518 82.8662 66.2193 77.9678 72.343L27.6568 22.0322ZM22.0322 27.6568C17.1337 33.7807 14.2046 41.5482 14.2046 50C14.2046 69.7693 30.2307 85.7955 50 85.7955C58.4518 85.7955 66.2193 82.8662 72.343 77.9678L22.0322 27.6568ZM50 6.25C25.8375 6.25 6.25 25.8375 6.25 50C6.25 74.1625 25.8375 93.75 50 93.75C74.1625 93.75 93.75 74.1625 93.75 50C93.75 25.8375 74.1625 6.25 50 6.25Z" fill="url(#paint1_linear_474_36294)"/>
<defs>
<linearGradient id="paint0_linear_474_36294" x1="49.2045" y1="31.7051" x2="40.8332" y2="76.2504" gradientUnits="userSpaceOnUse">
<stop stop-color="#C8EFFE"/>
<stop offset="1" stop-color="#36C4FB"/>
</linearGradient>
<linearGradient id="paint1_linear_474_36294" x1="50" y1="6.25" x2="50" y2="93.75" gradientUnits="userSpaceOnUse">
<stop stop-color="#FF4545"/>
<stop offset="1" stop-color="#D90D0D"/>
</linearGradient>
</defs>
</svg>
