<svg width="30" height="30" viewBox="0 0 30 30" fill="none" xmlns="http://www.w3.org/2000/svg">
<path d="M22.7407 21.5186C22.0961 21.5186 21.4659 21.7097 20.93 22.0678C20.394 22.426 19.9762 22.935 19.7295 23.5306C19.4829 24.1261 19.4183 24.7814 19.5441 25.4137C19.6698 26.0459 19.9802 26.6266 20.4361 27.0825C20.8919 27.5383 21.4726 27.8487 22.1049 27.9744C22.7371 28.1002 23.3924 28.0357 23.988 27.789C24.5835 27.5423 25.0925 27.1245 25.4507 26.5886C25.8088 26.0526 26 25.4224 26 24.7778C25.999 23.9137 25.6553 23.0853 25.0443 22.4743C24.4332 21.8632 23.6048 21.5195 22.7407 21.5186ZM24.251 24.251L22.6213 25.8807C22.5835 25.9185 22.5386 25.9485 22.4892 25.969C22.4398 25.9895 22.3868 26 22.3333 26C22.2798 26 22.2268 25.9895 22.1774 25.969C22.128 25.9485 22.0831 25.9185 22.0452 25.8807L21.2304 25.0659C21.1548 24.9893 21.1126 24.8859 21.1129 24.7783C21.1133 24.6707 21.1562 24.5677 21.2322 24.4916C21.3083 24.4155 21.4114 24.3726 21.519 24.3723C21.6266 24.3719 21.73 24.4142 21.8065 24.4898L22.3333 25.0165L23.6749 23.6749C23.7515 23.5993 23.8548 23.5571 23.9624 23.5574C24.07 23.5578 24.1731 23.6007 24.2492 23.6768C24.3253 23.7528 24.3681 23.8559 24.3685 23.9635C24.3688 24.0711 24.3266 24.1745 24.251 24.251Z" fill="#4C9540"/>
<path d="M4.81481 2.77734C4.59871 2.77734 4.39146 2.86319 4.23865 3.016C4.08585 3.1688 4 3.37606 4 3.59216V10.5181C4 10.6261 4.04292 10.7298 4.11933 10.8062C4.19573 10.8826 4.29936 10.9255 4.40741 10.9255H5.62963V3.59216C5.62963 3.37606 5.54378 3.1688 5.39098 3.016C5.23817 2.86319 5.03092 2.77734 4.81481 2.77734Z" fill="#4C9540"/>
<path d="M13.3705 7.66699C13.3705 7.55894 13.4134 7.45532 13.4898 7.37891C13.5662 7.30251 13.6698 7.25958 13.7779 7.25958H15.4075C15.5156 7.25958 15.6192 7.30251 15.6956 7.37891C15.772 7.45532 15.8149 7.55894 15.8149 7.66699V9.70403H16.6297V6.44475L14.5927 4.91699L12.5557 6.44475V9.70403H13.3705V7.66699Z" fill="#4C9540"/>
<path d="M22.7409 20.7036V3.59252C22.7409 3.3785 22.6988 3.16656 22.6169 2.96882C22.5351 2.77107 22.415 2.5914 22.2637 2.44006C22.1124 2.28873 21.9327 2.16869 21.7349 2.08682C21.5372 2.00494 21.3253 1.96283 21.1112 1.96289H4.81494C5.02896 1.96283 5.2409 2.00494 5.43865 2.08682C5.63639 2.16869 5.81606 2.28873 5.9674 2.44006C6.11874 2.5914 6.23877 2.77107 6.32065 2.96882C6.40252 3.16656 6.44463 3.3785 6.44457 3.59252V24.3703C6.44489 24.4783 6.48792 24.5817 6.56425 24.658C6.64059 24.7344 6.74403 24.7774 6.85198 24.7777H18.6668C18.6686 23.6977 19.0984 22.6625 19.862 21.8989C20.6257 21.1352 21.6609 20.7054 22.7409 20.7036ZM20.7038 18.6666H10.5186C10.4106 18.6666 10.307 18.6237 10.2306 18.5473C10.1542 18.4709 10.1112 18.3672 10.1112 18.2592C10.1112 18.1511 10.1542 18.0475 10.2306 17.9711C10.307 17.8947 10.4106 17.8518 10.5186 17.8518H20.7038C20.8119 17.8518 20.9155 17.8947 20.9919 17.9711C21.0683 18.0475 21.1112 18.1511 21.1112 18.2592C21.1112 18.3672 21.0683 18.4709 20.9919 18.5473C20.9155 18.6237 20.8119 18.6666 20.7038 18.6666ZM20.7038 16.6296H10.5186C10.4106 16.6296 10.307 16.5866 10.2306 16.5102C10.1542 16.4338 10.1112 16.3302 10.1112 16.2222C10.1112 16.1141 10.1542 16.0105 10.2306 15.9341C10.307 15.8577 10.4106 15.8147 10.5186 15.8147H20.7038C20.8119 15.8147 20.9155 15.8577 20.9919 15.9341C21.0683 16.0105 21.1112 16.1141 21.1112 16.2222C21.1112 16.3302 21.0683 16.4338 20.9919 16.5102C20.9155 16.5866 20.8119 16.6296 20.7038 16.6296ZM20.7038 14.5925H10.5186C10.4106 14.5925 10.307 14.5496 10.2306 14.4732C10.1542 14.3968 10.1112 14.2932 10.1112 14.1851C10.1112 14.0771 10.1542 13.9734 10.2306 13.897C10.307 13.8206 10.4106 13.7777 10.5186 13.7777H20.7038C20.8119 13.7777 20.9155 13.8206 20.9919 13.897C21.0683 13.9734 21.1112 14.0771 21.1112 14.1851C21.1112 14.2932 21.0683 14.3968 20.9919 14.4732C20.9155 14.5496 20.8119 14.5925 20.7038 14.5925ZM11.089 6.52594L12.1483 5.73146V4.81474C12.1483 4.70669 12.1912 4.60307 12.2676 4.52666C12.344 4.45026 12.4476 4.40734 12.5557 4.40734C12.6637 4.40734 12.7674 4.45026 12.8438 4.52666C12.9202 4.60307 12.9631 4.70669 12.9631 4.81474V5.12035L14.3482 4.08149C14.4188 4.02861 14.5046 4.00003 14.5927 4.00003C14.6809 4.00003 14.7667 4.02861 14.8372 4.08149L18.0965 6.52594C18.1393 6.55804 18.1753 6.59826 18.2025 6.6443C18.2298 6.69034 18.2477 6.74129 18.2553 6.79425C18.2628 6.84721 18.2599 6.90114 18.2466 6.95296C18.2333 7.00478 18.2099 7.05347 18.1778 7.09626C18.1457 7.13906 18.1055 7.1751 18.0595 7.20235C18.0134 7.2296 17.9625 7.24751 17.9095 7.25506C17.8565 7.26262 17.8026 7.25967 17.7508 7.24638C17.699 7.23309 17.6503 7.20973 17.6075 7.17762L17.4446 7.05543V10.111C17.4446 10.2191 17.4016 10.3227 17.3252 10.3991C17.2488 10.4755 17.1452 10.5184 17.0372 10.5184H12.1483C12.0402 10.5184 11.9366 10.4755 11.8602 10.3991C11.7838 10.3227 11.7409 10.2191 11.7409 10.111V7.05543L11.5779 7.17762C11.4915 7.24247 11.3829 7.27032 11.2759 7.25506C11.169 7.23981 11.0725 7.18268 11.0076 7.09626C10.9428 7.00985 10.9149 6.90121 10.9302 6.79425C10.9454 6.68729 11.0026 6.59078 11.089 6.52594ZM8.48161 11.7407H20.7038C20.8119 11.7407 20.9155 11.7836 20.9919 11.86C21.0683 11.9364 21.1112 12.04 21.1112 12.1481C21.1112 12.2561 21.0683 12.3598 20.9919 12.4362C20.9155 12.5126 20.8119 12.5555 20.7038 12.5555H8.48161C8.37356 12.5555 8.26993 12.5126 8.19353 12.4362C8.11712 12.3598 8.0742 12.2561 8.0742 12.1481C8.0742 12.04 8.11712 11.9364 8.19353 11.86C8.26993 11.7836 8.37356 11.7407 8.48161 11.7407ZM9.29642 22.7407H8.48161C8.37356 22.7407 8.26993 22.6977 8.19353 22.6213C8.11712 22.5449 8.0742 22.4413 8.0742 22.3333C8.0742 22.2252 8.11712 22.1216 8.19353 22.0452C8.26993 21.9688 8.37356 21.9259 8.48161 21.9259H9.29642C9.40447 21.9259 9.5081 21.9688 9.5845 22.0452C9.66091 22.1216 9.70383 22.2252 9.70383 22.3333C9.70383 22.4413 9.66091 22.5449 9.5845 22.6213C9.5081 22.6977 9.40447 22.7407 9.29642 22.7407ZM9.29642 20.7036H8.48161C8.37356 20.7036 8.26993 20.6607 8.19353 20.5843C8.11712 20.5079 8.0742 20.4043 8.0742 20.2962C8.0742 20.1882 8.11712 20.0845 8.19353 20.0081C8.26993 19.9317 8.37356 19.8888 8.48161 19.8888H9.29642C9.40447 19.8888 9.5081 19.9317 9.5845 20.0081C9.66091 20.0845 9.70383 20.1882 9.70383 20.2962C9.70383 20.4043 9.66091 20.5079 9.5845 20.5843C9.5081 20.6607 9.40447 20.7036 9.29642 20.7036ZM9.29642 18.6666H8.48161C8.37356 18.6666 8.26993 18.6237 8.19353 18.5473C8.11712 18.4709 8.0742 18.3672 8.0742 18.2592C8.0742 18.1511 8.11712 18.0475 8.19353 17.9711C8.26993 17.8947 8.37356 17.8518 8.48161 17.8518H9.29642C9.40447 17.8518 9.5081 17.8947 9.5845 17.9711C9.66091 18.0475 9.70383 18.1511 9.70383 18.2592C9.70383 18.3672 9.66091 18.4709 9.5845 18.5473C9.5081 18.6237 9.40447 18.6666 9.29642 18.6666ZM9.29642 16.6296H8.48161C8.37356 16.6296 8.26993 16.5866 8.19353 16.5102C8.11712 16.4338 8.0742 16.3302 8.0742 16.2222C8.0742 16.1141 8.11712 16.0105 8.19353 15.9341C8.26993 15.8577 8.37356 15.8147 8.48161 15.8147H9.29642C9.40447 15.8147 9.5081 15.8577 9.5845 15.9341C9.66091 16.0105 9.70383 16.1141 9.70383 16.2222C9.70383 16.3302 9.66091 16.4338 9.5845 16.5102C9.5081 16.5866 9.40447 16.6296 9.29642 16.6296ZM9.29642 14.5925H8.48161C8.37356 14.5925 8.26993 14.5496 8.19353 14.4732C8.11712 14.3968 8.0742 14.2932 8.0742 14.1851C8.0742 14.0771 8.11712 13.9734 8.19353 13.897C8.26993 13.8206 8.37356 13.7777 8.48161 13.7777H9.29642C9.40447 13.7777 9.5081 13.8206 9.5845 13.897C9.66091 13.9734 9.70383 14.0771 9.70383 14.1851C9.70383 14.2932 9.66091 14.3968 9.5845 14.4732C9.5081 14.5496 9.40447 14.5925 9.29642 14.5925ZM17.4446 22.7407H10.5186C10.4106 22.7407 10.307 22.6977 10.2306 22.6213C10.1542 22.5449 10.1112 22.4413 10.1112 22.3333C10.1112 22.2252 10.1542 22.1216 10.2306 22.0452C10.307 21.9688 10.4106 21.9259 10.5186 21.9259H17.4446C17.5526 21.9259 17.6562 21.9688 17.7327 22.0452C17.8091 22.1216 17.852 22.2252 17.852 22.3333C17.852 22.4413 17.8091 22.5449 17.7327 22.6213C17.6562 22.6977 17.5526 22.7407 17.4446 22.7407ZM19.0742 20.7036H10.5186C10.4106 20.7036 10.307 20.6607 10.2306 20.5843C10.1542 20.5079 10.1112 20.4043 10.1112 20.2962C10.1112 20.1882 10.1542 20.0845 10.2306 20.0081C10.307 19.9317 10.4106 19.8888 10.5186 19.8888H19.0742C19.1823 19.8888 19.2859 19.9317 19.3623 20.0081C19.4387 20.0845 19.4816 20.1882 19.4816 20.2962C19.4816 20.4043 19.4387 20.5079 19.3623 20.5843C19.2859 20.6607 19.1823 20.7036 19.0742 20.7036Z" fill="#4C9540"/>
<path d="M14.9999 8.07422H14.1851V9.70385H14.9999V8.07422Z" fill="#4C9540"/>
</svg>
