<svg width="30" height="30" viewBox="0 0 30 30" fill="none" xmlns="http://www.w3.org/2000/svg">
<path d="M27.0099 7.19723L21.7555 5.67578V25.9649C21.7555 26.0663 21.7496 26.1661 21.7388 26.2647C22.3829 26.3282 23.0011 25.9272 23.1876 25.2829L27.9449 8.89407C28.1554 8.1674 27.7368 7.4075 27.0099 7.19723Z" fill="#4C9540"/>
<path d="M9.72521 7.93262C9.1638 8.17756 8.66161 8.53283 8.24512 8.97077H9.25966C9.39113 8.58329 9.54775 8.23513 9.72521 7.93262Z" fill="#4C9540"/>
<path d="M9.01165 9.88477H7.5701C7.27351 10.4142 7.07911 11.0082 7.01562 11.6405H8.80198C8.82576 11.0147 8.89767 10.4247 9.01165 9.88477Z" fill="#4C9540"/>
<path d="M14.8262 8.97069C14.4097 8.53283 13.9076 8.17756 13.3462 7.93262C13.5237 8.23504 13.6803 8.58321 13.8117 8.97069H14.8262Z" fill="#4C9540"/>
<path d="M8.24512 15.2246C8.66161 15.6625 9.1638 16.0178 9.72521 16.2628C9.54775 15.9603 9.39113 15.6121 9.25966 15.2246H8.24512Z" fill="#4C9540"/>
<path d="M13.3545 11.6405C13.3262 11.0009 13.2399 10.4086 13.1127 9.88477H9.95957C9.83235 10.4086 9.74598 11.0009 9.71777 11.6405H13.3545Z" fill="#4C9540"/>
<path d="M11.5364 7.55469C11.0843 7.55469 10.6043 8.08857 10.2495 8.97011H12.8236C12.4687 8.08857 11.9887 7.55469 11.5364 7.55469Z" fill="#4C9540"/>
<path d="M8.80194 12.5557H7.01562C7.07911 13.188 7.2735 13.7821 7.5701 14.3114H9.01165C8.89771 13.7715 8.8258 13.1815 8.80194 12.5557Z" fill="#4C9540"/>
<path d="M14.2703 11.6405H16.0565C15.993 11.0082 15.7986 10.4141 15.502 9.88477H14.0605C14.1744 10.4248 14.2465 11.0147 14.2703 11.6405Z" fill="#4C9540"/>
<path d="M11.5355 16.64C11.9877 16.64 12.4678 16.1061 12.8226 15.2246H10.2485C10.6034 16.1061 11.0834 16.64 11.5355 16.64Z" fill="#4C9540"/>
<path d="M14.0605 14.3114H15.502C15.7986 13.782 15.993 13.188 16.0565 12.5557H14.2703C14.2465 13.1815 14.1745 13.7715 14.0605 14.3114Z" fill="#4C9540"/>
<path d="M6.79022 20.5791H6.00586V22.0722H6.79022C7.41086 22.0722 7.7255 21.8168 7.7255 21.3131C7.7255 20.826 7.4109 20.5791 6.79022 20.5791Z" fill="#4C9540"/>
<path d="M9.31689 22.2079H10.4004L9.85333 21.0254L9.31689 22.2079Z" fill="#4C9540"/>
<path d="M19.0163 1.98047H4.05512C2.92196 1.98047 2 2.90239 2 4.03559V25.9644C2 27.0976 2.92196 28.0195 4.05512 28.0195H19.0163C20.1495 28.0195 21.0714 27.0976 21.0714 25.9644V4.03559C21.0713 2.90239 20.1495 1.98047 19.0163 1.98047ZM11.5356 6.63949C14.5452 6.63949 16.9937 9.08797 16.9937 12.0976C16.9937 15.1071 14.5452 17.5557 11.5356 17.5557C8.52609 17.5557 6.0777 15.1072 6.0777 12.0976C6.0777 9.0881 8.52609 6.63949 11.5356 6.63949ZM6.00584 22.7895V23.6555C6.00584 23.8446 5.8525 23.998 5.66333 23.998H5.63112C5.442 23.998 5.28862 23.8447 5.28862 23.6555V20.2044C5.28862 20.0153 5.44196 19.8619 5.63112 19.8619H6.79024C7.80955 19.8619 8.44278 20.4181 8.44278 21.3133C8.44278 22.2239 7.80955 22.7895 6.79024 22.7895H6.00584V22.7895ZM11.7731 23.8398C11.7101 23.9384 11.6012 23.998 11.4844 23.998H11.4442C11.3105 23.998 11.189 23.9202 11.1331 23.7987L10.7313 22.9254H8.99224L8.59527 23.7974C8.53962 23.9195 8.41781 23.9979 8.28357 23.9979H8.23809C8.12147 23.9979 8.01288 23.9386 7.94983 23.8405C7.88686 23.7424 7.87809 23.6189 7.92664 23.5129L9.50651 20.0618C9.56233 19.9399 9.68398 19.8619 9.81796 19.8619H9.85076C9.85093 19.8619 9.85119 19.8619 9.85136 19.8619H9.88488C10.0183 19.8619 10.1395 19.9393 10.1957 20.0603L11.7952 23.5115C11.8443 23.6175 11.8359 23.7413 11.7731 23.8398ZM13.2954 23.998C12.7913 23.998 12.2576 23.7852 11.9028 23.4426C11.8367 23.3787 11.7989 23.2909 11.7982 23.1991C11.7975 23.1071 11.8337 23.0188 11.8987 22.9539L11.9204 22.9322C12.054 22.7988 12.2703 22.7987 12.404 22.9319C12.6137 23.1406 12.972 23.2809 13.2955 23.2809C13.6574 23.2809 14.0798 23.164 14.0798 22.8343C14.0826 22.5166 13.8906 22.4079 13.2724 22.2204C12.7246 22.0548 11.9752 21.8282 11.9752 20.9508C11.9752 20.2995 12.5504 19.862 13.4063 19.862C13.7747 19.862 14.1832 19.9704 14.4725 20.145C14.5509 20.1923 14.6071 20.2691 14.6286 20.3582C14.65 20.4473 14.6347 20.5413 14.5864 20.6191L14.5724 20.6416C14.4737 20.8002 14.266 20.8506 14.1057 20.7546C13.9306 20.6498 13.6496 20.5795 13.4063 20.5795C13.0771 20.5795 12.6925 20.6767 12.6925 20.9508C12.6925 21.2476 12.8809 21.352 13.4862 21.5351C14.0428 21.7034 14.804 21.9335 14.7972 22.8366C14.7972 23.5302 14.1937 23.998 13.2954 23.998ZM16.2812 23.998C15.777 23.998 15.2433 23.7852 14.8885 23.4425C14.8224 23.3787 14.7847 23.2911 14.784 23.1993C14.7831 23.1075 14.8192 23.0192 14.884 22.9542L14.9056 22.9326C15.0392 22.7988 15.2558 22.7985 15.3897 22.9318C15.5994 23.1406 15.9578 23.2808 16.2813 23.2808C16.6431 23.2808 17.0655 23.1639 17.0655 22.8342C17.0681 22.5165 16.8761 22.4078 16.258 22.2203C15.7103 22.0547 14.9609 21.828 14.9609 20.9508C14.9609 20.2995 15.5361 19.862 16.392 19.862C16.7603 19.862 17.1689 19.9704 17.4583 20.1449C17.537 20.1924 17.5934 20.2696 17.6146 20.359C17.6359 20.4485 17.6202 20.5427 17.5712 20.6206L17.5571 20.6431C17.4579 20.8007 17.2509 20.8501 17.0913 20.7546C16.9163 20.6498 16.6353 20.5794 16.392 20.5794C16.0626 20.5794 15.6781 20.6767 15.6781 20.9508C15.6781 21.2475 15.8665 21.352 16.4717 21.535C17.0284 21.7033 17.7896 21.9334 17.7826 22.8366C17.7827 23.5302 17.1793 23.998 16.2812 23.998Z" fill="#4C9540"/>
<path d="M9.71777 12.5557C9.74607 13.1953 9.8324 13.7877 9.95957 14.3114H13.1127C13.2398 13.7876 13.3262 13.1954 13.3545 12.5557H9.71777Z" fill="#4C9540"/>
<path d="M13.3462 16.2627C13.9076 16.0177 14.4098 15.6625 14.8262 15.2246H13.8117C13.6803 15.6121 13.5237 15.9602 13.3462 16.2627Z" fill="#4C9540"/>
</svg>
