<svg width="100" height="101" viewBox="0 0 100 101" fill="none" xmlns="http://www.w3.org/2000/svg">
<g clip-path="url(#clip0_474_41017)">
<path d="M62.5002 97.4818C62.5002 99.1486 61.149 100.5 59.482 100.5H3.12461C1.45781 100.5 0.106445 99.1488 0.106445 97.4818V22.2682C0.106445 20.6012 1.45781 19.25 3.12461 19.25H27.5467C34.2172 19.25 41.7125 23.4623 46.4291 28.1791L53.5711 35.3211C58.2879 40.0379 62.5002 47.5332 62.5002 54.2035V97.4818Z" fill="#01D0FB"/>
<path d="M71.8752 88.1068C71.8752 89.7736 70.524 91.125 68.857 91.125H12.4996C10.8328 91.125 9.48145 89.7738 9.48145 88.1068V12.8932C9.48145 11.2262 10.8328 9.875 12.4996 9.875H36.9217C43.5922 9.875 51.0875 14.0873 55.8041 18.8041L62.9461 25.9461C67.6629 30.6629 71.8752 38.1582 71.8752 44.8285V88.1068Z" fill="#62DBFB"/>
<path d="M81.1437 78.7318C81.1437 80.3986 79.7926 81.75 78.1256 81.75H21.7682C20.1012 81.75 18.75 80.3988 18.75 78.7318V3.51816C18.75 1.85117 20.1012 0.5 21.7682 0.5H46.1902C52.8607 0.5 60.3561 4.7123 65.0727 9.4291L72.2147 16.5711C76.9314 21.2879 81.1437 28.7832 81.1437 35.4535V78.7318Z" fill="#C8EFFE"/>
<path d="M31.0002 20.5C32.611 20.5 33.9168 19.1942 33.9168 17.5834C33.9168 15.9725 32.611 14.6667 31.0002 14.6667C29.3893 14.6667 28.0835 15.9725 28.0835 17.5834C28.0835 19.1942 29.3893 20.5 31.0002 20.5Z" fill="#62DBFB"/>
<path d="M30.9998 21.9583C28.0773 21.9583 25.6973 23.9183 25.6973 26.3333C25.6973 26.4966 25.8256 26.625 25.9889 26.625H36.0106C36.1739 26.625 36.3023 26.4966 36.3023 26.3333C36.3023 23.9183 33.9223 21.9583 30.9998 21.9583Z" fill="#62DBFB"/>
<rect x="24" y="30.5" width="46" height="4" rx="2" fill="#62DBFB" fill-opacity="0.3"/>
<rect x="24" y="36.5" width="38" height="4" rx="2" fill="#62DBFB" fill-opacity="0.3"/>
<rect x="24" y="42.5" width="28" height="4" rx="2" fill="#62DBFB" fill-opacity="0.3"/>
<rect x="24" y="53.5" width="21" height="4" rx="2" fill="#62DBFB" fill-opacity="0.3"/>
<rect x="24" y="66.5" width="21" height="4" rx="2" fill="#62DBFB" fill-opacity="0.3"/>
<path d="M73.0955 17.4904V62.5107C73.0955 70.9138 66.2834 77.7258 57.8805 77.7258H18.75V78.7318C18.75 80.3986 20.1012 81.75 21.7682 81.75H78.1258C79.7926 81.75 81.1439 80.3988 81.1439 78.7318V35.4535C81.1437 29.2014 77.4434 22.2248 73.0955 17.4904Z" fill="#99E6FC"/>
<path d="M66.6354 7.8666C61.9186 3.1498 55.5213 0.5 48.851 0.5H46.1904C53.4135 0.5 59.2689 6.35547 59.2689 13.5785V19.357C59.2689 21.0238 60.6201 22.3752 62.2871 22.3752H68.0656C75.2887 22.3752 81.1441 28.2307 81.1441 35.4537V32.7932C81.1441 26.1227 78.4943 19.7256 73.7775 15.0088L66.6354 7.8666Z" fill="#DFF6FD"/>
<circle cx="79" cy="57.5" r="21" fill="#C20707"/>
<mask id="mask0_474_41017" style="mask-type:alpha" maskUnits="userSpaceOnUse" x="58" y="36" width="42" height="43">
<circle cx="79" cy="57.5" r="21" fill="#4C9540"/>
</mask>
<g mask="url(#mask0_474_41017)">
<circle cx="75" cy="53.5" r="21" fill="#E01919"/>
</g>
<path d="M83.915 57.5093C83.915 57.5093 88.1943 53.2215 88.1976 53.2182C89.31 52.1036 89.2526 50.2321 88.0821 49.1834C86.9879 48.2028 85.2831 48.2874 84.2005 49.3732L79.9977 53.5845L75.7948 49.3732C74.7111 48.2874 73.0069 48.2028 71.9133 49.1833C70.744 50.2317 70.6888 52.1074 71.7978 53.2179L76.0804 57.5088C76.0804 57.5088 71.8041 61.7936 71.7978 61.7999C70.7132 62.8866 70.7602 64.7778 71.8869 65.8108C72.9634 66.7985 74.7271 66.7147 75.8169 65.6229L79.9977 61.434L84.1785 65.6229C85.2529 66.7003 87.0787 66.8197 88.1915 65.7315C89.2756 64.6713 89.2613 62.8657 88.1976 61.7999L83.915 57.5093Z" fill="white"/>
</g>
<defs>
<clipPath id="clip0_474_41017">
<rect width="100" height="100" fill="white" transform="translate(0 0.5)"/>
</clipPath>
</defs>
</svg>
