<svg width="36" height="36" viewBox="0 0 36 36" fill="none" xmlns="http://www.w3.org/2000/svg">
<g clip-path="url(#clip0_474_41631)">
<path d="M27.2331 12.6498C26.3332 10.971 25.0261 9.544 23.4212 8.49564C21.575 7.28974 19.4291 6.65234 17.2152 6.65234C11.7115 6.65234 7.04728 10.5753 6.04939 15.9028C2.87789 16.4908 0.5 19.2777 0.5 22.5825C0.5 26.3292 3.54813 29.3773 7.29482 29.3773H16.9746V20.776L14.8021 22.9486C14.4015 23.3489 13.7524 23.3489 13.3518 22.9486C12.9513 22.548 12.9513 21.8989 13.3518 21.4983L17.275 17.5754C17.6753 17.1749 18.3244 17.1749 18.725 17.5754L22.6482 21.4983C23.0487 21.8989 23.0487 22.548 22.6482 22.9486C22.4479 23.1488 22.1854 23.249 21.9232 23.249C21.6607 23.249 21.3982 23.1488 21.1979 22.9486L19.0254 20.776V29.3773H27.1359C31.748 29.3773 35.5 25.6253 35.5 21.0132C35.5 16.4336 31.8006 12.7019 27.2331 12.6498Z" fill="#4D5055"/>
</g>
<defs>
<clipPath id="clip0_474_41631">
<rect width="35" height="35" fill="white" transform="translate(0.5 0.5)"/>
</clipPath>
</defs>
</svg>
