<svg width="100" height="100" viewBox="0 0 100 100" fill="none" xmlns="http://www.w3.org/2000/svg">
<g clip-path="url(#clip0_474_40415)">
<path d="M62.5002 96.9818C62.5002 98.6486 61.149 100 59.482 100H3.12461C1.45781 100 0.106445 98.6488 0.106445 96.9818V21.7682C0.106445 20.1012 1.45781 18.75 3.12461 18.75H27.5467C34.2172 18.75 41.7125 22.9623 46.4291 27.6791L53.5711 34.8211C58.2879 39.5379 62.5002 47.0332 62.5002 53.7035V96.9818Z" fill="#01D0FB"/>
<path d="M71.8752 87.6068C71.8752 89.2736 70.524 90.625 68.857 90.625H12.4996C10.8328 90.625 9.48145 89.2738 9.48145 87.6068V12.3932C9.48145 10.7262 10.8328 9.375 12.4996 9.375H36.9217C43.5922 9.375 51.0875 13.5873 55.8041 18.3041L62.9461 25.4461C67.6629 30.1629 71.8752 37.6582 71.8752 44.3285V87.6068Z" fill="#62DBFB"/>
<path d="M81.1437 78.2318C81.1437 79.8986 79.7926 81.25 78.1256 81.25H21.7682C20.1012 81.25 18.75 79.8988 18.75 78.2318V3.01816C18.75 1.35117 20.1012 0 21.7682 0H46.1902C52.8607 0 60.3561 4.2123 65.0727 8.9291L72.2147 16.0711C76.9314 20.7879 81.1437 28.2832 81.1437 34.9535V78.2318Z" fill="#C8EFFE"/>
<path d="M31.0002 20C32.611 20 33.9168 18.6942 33.9168 17.0834C33.9168 15.4725 32.611 14.1667 31.0002 14.1667C29.3893 14.1667 28.0835 15.4725 28.0835 17.0834C28.0835 18.6942 29.3893 20 31.0002 20Z" fill="#62DBFB"/>
<path d="M30.9998 21.4583C28.0773 21.4583 25.6973 23.4183 25.6973 25.8333C25.6973 25.9966 25.8256 26.125 25.9889 26.125H36.0106C36.1739 26.125 36.3023 25.9966 36.3023 25.8333C36.3023 23.4183 33.9223 21.4583 30.9998 21.4583Z" fill="#62DBFB"/>
<rect x="24" y="30" width="46" height="4" rx="2" fill="#62DBFB" fill-opacity="0.3"/>
<rect x="24" y="36" width="38" height="4" rx="2" fill="#62DBFB" fill-opacity="0.3"/>
<rect x="24" y="42" width="28" height="4" rx="2" fill="#62DBFB" fill-opacity="0.3"/>
<rect x="24" y="53" width="21" height="4" rx="2" fill="#62DBFB" fill-opacity="0.3"/>
<rect x="24" y="66" width="21" height="4" rx="2" fill="#62DBFB" fill-opacity="0.3"/>
<path d="M73.0955 16.9904V62.0107C73.0955 70.4138 66.2834 77.2258 57.8805 77.2258H18.75V78.2318C18.75 79.8986 20.1012 81.25 21.7682 81.25H78.1258C79.7926 81.25 81.1439 79.8988 81.1439 78.2318V34.9535C81.1437 28.7014 77.4434 21.7248 73.0955 16.9904Z" fill="#99E6FC"/>
<path d="M66.6354 7.3666C61.9186 2.6498 55.5213 0 48.851 0H46.1904C53.4135 0 59.2689 5.85547 59.2689 13.0785V18.857C59.2689 20.5238 60.6201 21.8752 62.2871 21.8752H68.0656C75.2887 21.8752 81.1441 27.7307 81.1441 34.9537V32.2932C81.1441 25.6227 78.4943 19.2256 73.7775 14.5088L66.6354 7.3666Z" fill="#DFF6FD"/>
<circle cx="79" cy="57" r="21" fill="#35762A"/>
<mask id="mask0_474_40415" style="mask-type:alpha" maskUnits="userSpaceOnUse" x="58" y="36" width="42" height="42">
<circle cx="79" cy="57" r="21" fill="#4C9540"/>
</mask>
<g mask="url(#mask0_474_40415)">
<circle cx="75" cy="53" r="21" fill="#4C9540"/>
</g>
<path d="M77.5085 55.8558L75.2117 53.5379C73.7906 52.1037 71.4867 52.1037 70.0658 53.5379C68.6447 54.972 68.6447 57.2971 70.0658 58.7311L75.2117 63.9244C76.6328 65.3585 78.9367 65.3585 80.3576 63.9244L88.9342 55.2689C90.3553 53.8347 90.3553 51.5096 88.9342 50.0756C87.5131 48.6415 85.2092 48.6415 83.7883 50.0756L78.0608 55.8558C77.9083 56.0097 77.661 56.0097 77.5085 55.8558Z" fill="white"/>
</g>
<defs>
<clipPath id="clip0_474_40415">
<rect width="100" height="100" fill="white"/>
</clipPath>
</defs>
</svg>
