<svg width="20" height="20" viewBox="0 0 20 20" fill="none" xmlns="http://www.w3.org/2000/svg">
<path d="M10.0003 1.66663C5.40033 1.66663 1.66699 5.39996 1.66699 9.99996C1.66699 14.6 5.40033 18.3333 10.0003 18.3333C14.6003 18.3333 18.3337 14.6 18.3337 9.99996C18.3337 5.39996 14.6003 1.66663 10.0003 1.66663ZM9.10866 14.2916C9.10866 14.375 9.09199 14.45 9.05866 14.5333C8.99199 14.6833 8.87533 14.8083 8.71699 14.875C8.64199 14.9083 8.55866 14.925 8.47533 14.925C8.39199 14.925 8.31699 14.9083 8.23366 14.875C8.15866 14.8416 8.09199 14.8 8.03366 14.7416L5.50033 12.2083C5.25866 11.9666 5.25866 11.5666 5.50033 11.325C5.74199 11.0833 6.14199 11.0833 6.38366 11.325L7.85033 12.7916V5.70829C7.85033 5.36663 8.13366 5.08329 8.47533 5.08329C8.81699 5.08329 9.10033 5.36663 9.10033 5.70829V14.2916H9.10866ZM14.492 8.68329C14.367 8.80829 14.2087 8.86663 14.0503 8.86663C13.892 8.86663 13.7337 8.80829 13.6087 8.68329L12.142 7.21663V14.3C12.142 14.6416 11.8587 14.925 11.517 14.925C11.1753 14.925 10.892 14.6416 10.892 14.3V5.70829C10.892 5.62496 10.9087 5.54996 10.942 5.46663C11.0087 5.31663 11.1253 5.19163 11.2837 5.12496C11.4337 5.05829 11.6087 5.05829 11.7587 5.12496C11.8337 5.15829 11.9003 5.19996 11.9587 5.25829L14.492 7.79163C14.7337 8.04163 14.7337 8.43329 14.492 8.68329Z" fill="#4C9540"/>
</svg>
