<svg width="30" height="30" viewBox="0 0 30 30" fill="none" xmlns="http://www.w3.org/2000/svg">
<g clip-path="url(#clip0_236_2802)">
<path d="M29.5478 18.6286C27.5445 26.6644 19.4055 31.5548 11.3688 29.5509C3.33541 27.5476 -1.55501 19.4081 0.449228 11.373C2.45171 3.33629 10.5907 -1.5545 18.6249 0.448859C26.6611 2.45222 31.5512 10.5926 29.5476 18.6287L29.5478 18.6286H29.5478Z" fill="#F7931A"/>
<path d="M21.6128 12.8629C21.9114 10.8667 20.3916 9.79368 18.3135 9.07787L18.9876 6.37388L17.3416 5.96374L16.6854 8.59653C16.2526 8.48861 15.8083 8.38692 15.3666 8.2861L16.0276 5.63593L14.3827 5.22578L13.7081 7.9289C13.35 7.84737 12.9983 7.76679 12.6571 7.68188L12.659 7.67338L10.3891 7.10655L9.95128 8.86459C9.95128 8.86459 11.1725 9.14452 11.1467 9.16175C11.8133 9.32811 11.9338 9.76934 11.9138 10.1191L11.1459 13.1996C11.1918 13.2112 11.2513 13.2281 11.317 13.2545C11.2621 13.2408 11.2036 13.2259 11.143 13.2114L10.0666 17.5267C9.98515 17.7292 9.77839 18.0332 9.31238 17.9178C9.32887 17.9417 8.11604 17.6192 8.11604 17.6192L7.29883 19.5033L9.44083 20.0373C9.83932 20.1373 10.2298 20.2418 10.6144 20.3401L9.93324 23.0751L11.5773 23.4853L12.2519 20.7793C12.701 20.9012 13.1369 21.0137 13.5636 21.1197L12.8914 23.8129L14.5374 24.2231L15.2185 21.4932C18.0253 22.0244 20.1357 21.8102 21.0241 19.2715C21.7399 17.2275 20.9884 16.0486 19.5118 15.2797C20.5873 15.0317 21.3974 14.3243 21.6134 12.8631L21.6129 12.8627L21.6128 12.8629ZM17.8521 18.1364C17.3434 20.1804 13.902 19.0755 12.7862 18.7984L13.6901 15.175C14.8058 15.4535 18.3837 16.0047 17.8522 18.1364H17.8521ZM18.3611 12.8333C17.8971 14.6925 15.0328 13.7479 14.1036 13.5163L14.9231 10.2301C15.8523 10.4617 18.8445 10.894 18.3613 12.8333H18.3611Z" fill="white"/>
</g>
<defs>
<clipPath id="clip0_236_2802">
<rect width="29.9966" height="30" fill="white"/>
</clipPath>
</defs>
</svg>
