<svg width="20" height="20" viewBox="0 0 20 20" fill="none" xmlns="http://www.w3.org/2000/svg">
<g clip-path="url(#clip0_220_9316)">
<circle cx="10" cy="10" r="10" fill="#4C9540"/>
<path d="M10.6057 14.4545V15.6121C10.6057 15.7927 10.4651 15.9241 10.2841 15.9241H9.51251C9.33148 15.9241 9.18569 15.7927 9.18569 15.6121V14.5563C8.47548 14.5241 7.75917 14.3727 7.21694 14.1664C6.92319 14.055 6.75957 13.7403 6.83746 13.4357L6.96323 12.9457C7.00718 12.7738 7.12207 12.6302 7.27917 12.5497C7.43627 12.4679 7.62079 12.4596 7.78572 12.5227C8.30228 12.7225 8.9124 12.8678 9.56387 12.8678C10.3933 12.8678 10.9612 12.5475 10.9612 11.9653C10.9612 11.4121 10.4956 11.0627 9.41808 10.6984C7.86057 10.1745 6.79395 9.44686 6.79395 8.0347C6.79395 6.75397 7.70042 5.74958 9.2501 5.44364V4.3879C9.2501 4.2073 9.40459 4.04541 9.58562 4.04541H10.3572C10.5382 4.04541 10.671 4.2073 10.671 4.3879V5.34138C11.3485 5.37053 11.8377 5.47106 12.2467 5.60423C12.5562 5.70519 12.7389 6.0294 12.6576 6.34534L12.547 6.784C12.5039 6.95111 12.3934 7.09298 12.242 7.17479C12.0905 7.2566 11.9117 7.2714 11.748 7.21526C11.3764 7.08775 10.8916 6.972 10.2771 6.972C9.33104 6.972 9.02511 7.37976 9.02511 7.78752C9.02511 8.26796 9.53471 8.57346 10.7719 9.03954C12.5039 9.65096 13.1998 10.4517 13.1998 11.7612C13.1994 13.0567 12.2842 14.1638 10.6057 14.4545Z" fill="white"/>
</g>
<defs>
<clipPath id="clip0_220_9316">
<rect width="20" height="20" fill="white"/>
</clipPath>
</defs>
</svg>
