<svg width="13" height="12" viewBox="0 0 13 12" fill="none" xmlns="http://www.w3.org/2000/svg">
<path d="M10.5389 3.4807V4.3957C10.5389 4.7157 10.3889 5.0157 10.1289 5.2007L4.62891 9.2307C4.27391 9.4907 3.78891 9.4907 3.43891 9.2257L2.71891 8.6857C2.39391 8.4407 2.12891 7.9107 2.12891 7.5057V3.4807C2.12891 2.9207 2.55891 2.3007 3.08391 2.1057L5.81891 1.0807C6.10391 0.975703 6.56391 0.975703 6.84891 1.0807L9.58391 2.1057C10.1089 2.3007 10.5389 2.9207 10.5389 3.4807Z" fill="#A819DA"/>
<path d="M9.74477 6.1707C10.0748 5.9307 10.5398 6.1657 10.5398 6.5757V7.5157C10.5398 7.9207 10.2748 8.4457 9.94977 8.6907L7.21477 10.7357C6.97477 10.9107 6.65477 11.0007 6.33477 11.0007C6.01477 11.0007 5.69477 10.9107 5.45477 10.7307L5.03977 10.4207C4.76977 10.2207 4.76977 9.8157 5.04477 9.6157L9.74477 6.1707Z" fill="#A819DA"/>
</svg>
