<svg width="22" height="22" viewBox="0 0 22 22" fill="none" xmlns="http://www.w3.org/2000/svg">
<path d="M13.7506 20.855H8.25058C7.04058 20.855 6.03225 20.7359 5.17975 20.4792C4.86808 20.3875 4.66641 20.085 4.68475 19.7642C4.91391 17.0233 7.69141 14.8691 11.0006 14.8691C14.3097 14.8691 17.0781 17.0142 17.3164 19.7642C17.3439 20.0942 17.1422 20.3875 16.8214 20.4792C15.9689 20.7359 14.9606 20.855 13.7506 20.855ZM6.16058 19.3058C6.76558 19.425 7.45308 19.48 8.25058 19.48H13.7506C14.5481 19.48 15.2356 19.425 15.8406 19.3058C15.3547 17.5458 13.3472 16.2441 11.0006 16.2441C8.65391 16.2441 6.64642 17.5458 6.16058 19.3058Z" fill="#4C9540"/>
<path d="M13.7497 1.83398H8.24967C3.66634 1.83398 1.83301 3.66732 1.83301 8.25065V13.7507C1.83301 17.2157 2.87801 19.1131 5.37134 19.819C5.57301 17.4356 8.02051 15.5565 10.9997 15.5565C13.9788 15.5565 16.4263 17.4356 16.628 19.819C19.1213 19.1131 20.1663 17.2157 20.1663 13.7507V8.25065C20.1663 3.66732 18.333 1.83398 13.7497 1.83398ZM10.9997 12.9898C9.18467 12.9898 7.71801 11.514 7.71801 9.699C7.71801 7.884 9.18467 6.41732 10.9997 6.41732C12.8147 6.41732 14.2813 7.884 14.2813 9.699C14.2813 11.514 12.8147 12.9898 10.9997 12.9898Z" stroke="#4C9540" stroke-width="1.5" stroke-linecap="round" stroke-linejoin="round"/>
<path d="M11.0004 13.676C8.80958 13.676 7.03125 11.8885 7.03125 9.6977C7.03125 7.50686 8.80958 5.72852 11.0004 5.72852C13.1913 5.72852 14.9696 7.50686 14.9696 9.6977C14.9696 11.8885 13.1913 13.676 11.0004 13.676ZM11.0004 7.10352C9.57042 7.10352 8.40625 8.2677 8.40625 9.6977C8.40625 11.1369 9.57042 12.301 11.0004 12.301C12.4304 12.301 13.5946 11.1369 13.5946 9.6977C13.5946 8.2677 12.4304 7.10352 11.0004 7.10352Z" fill="#4C9540"/>
</svg>
