<svg width="22" height="22" viewBox="0 0 22 22" fill="none" xmlns="http://www.w3.org/2000/svg">
<path d="M11.1464 10.6523C11.1189 10.6523 11.1005 10.6523 11.073 10.6523C11.0272 10.6432 10.963 10.6432 10.908 10.6523C8.24969 10.5698 6.24219 8.47982 6.24219 5.90398C6.24219 3.28232 8.37802 1.14648 10.9997 1.14648C13.6214 1.14648 15.7572 3.28232 15.7572 5.90398C15.748 8.47982 13.7314 10.5698 11.1739 10.6523C11.1647 10.6523 11.1555 10.6523 11.1464 10.6523ZM10.9997 2.52148C9.13885 2.52148 7.61719 4.04315 7.61719 5.90398C7.61719 7.73732 9.04719 9.21315 10.8714 9.27732C10.9172 9.26815 11.0455 9.26815 11.1647 9.27732C12.9614 9.19482 14.373 7.71898 14.3822 5.90398C14.3822 4.04315 12.8605 2.52148 10.9997 2.52148Z" fill="#4C9540"/>
<path d="M11.156 20.6702C9.3593 20.6702 7.55346 20.2118 6.18763 19.2952C4.91346 18.4518 4.2168 17.2968 4.2168 16.041C4.2168 14.7852 4.91346 13.621 6.18763 12.7685C8.93763 10.9443 13.3926 10.9443 16.1243 12.7685C17.3893 13.6118 18.0951 14.7668 18.0951 16.0227C18.0951 17.2785 17.3985 18.4427 16.1243 19.2952C14.7493 20.2118 12.9526 20.6702 11.156 20.6702ZM6.94846 13.9235C6.06846 14.5102 5.5918 15.2618 5.5918 16.0502C5.5918 16.8293 6.07763 17.581 6.94846 18.1585C9.23096 19.6893 13.081 19.6893 15.3635 18.1585C16.2435 17.5718 16.7201 16.8202 16.7201 16.0318C16.7201 15.2527 16.2343 14.501 15.3635 13.9235C13.081 12.4018 9.23096 12.4018 6.94846 13.9235Z" fill="#4C9540"/>
</svg>
