<svg width="22" height="22" viewBox="0 0 22 22" fill="none" xmlns="http://www.w3.org/2000/svg">
<path d="M9.15786 20.8551C8.97452 20.8551 8.82786 20.8184 8.71786 20.7726C8.35119 20.6351 7.72786 20.1859 7.72786 18.7651V12.8526H5.58286C4.35452 12.8526 3.91452 12.2751 3.75869 11.9359C3.60286 11.5876 3.46536 10.8817 4.27202 9.95589L11.2112 2.07256C12.1462 1.00922 12.907 1.08256 13.2737 1.22006C13.6404 1.35756 14.2637 1.80672 14.2637 3.22756V9.14006H16.4087C17.637 9.14006 18.077 9.71756 18.2329 10.0567C18.3887 10.4051 18.5262 11.1109 17.7195 12.0367L10.7804 19.9201C10.1295 20.6626 9.56119 20.8551 9.15786 20.8551ZM12.7695 2.51256C12.742 2.54922 12.5495 2.64089 12.247 2.98922L5.30786 10.8726C5.05119 11.1659 5.01452 11.3492 5.01452 11.3859C5.03286 11.3951 5.19786 11.4867 5.58286 11.4867H8.41536C8.79119 11.4867 9.10286 11.7984 9.10286 12.1742V18.7742C9.10286 19.2326 9.18536 19.4342 9.22202 19.4892C9.24952 19.4526 9.44202 19.3609 9.74452 19.0126L16.6837 11.1292C16.9404 10.8359 16.977 10.6526 16.977 10.6159C16.9587 10.6067 16.7937 10.5151 16.4087 10.5151H13.5762C13.2004 10.5151 12.8887 10.2034 12.8887 9.82756V3.22756C12.8979 2.76922 12.8062 2.57672 12.7695 2.51256Z" fill="#4C9540"/>
</svg>
