<svg width="12" height="12" viewBox="0 0 12 12" fill="none" xmlns="http://www.w3.org/2000/svg">
<path d="M8.76453 3.885C8.72953 3.88 8.69453 3.88 8.65953 3.885C7.88453 3.86 7.26953 3.225 7.26953 2.445C7.26953 1.65 7.91453 1 8.71453 1C9.50953 1 10.1595 1.645 10.1595 2.445C10.1545 3.225 9.53953 3.86 8.76453 3.885Z" fill="#4C9540"/>
<path d="M10.3958 7.3502C9.83578 7.7252 9.05078 7.8652 8.32578 7.7702C8.51578 7.3602 8.61578 6.9052 8.62078 6.4252C8.62078 5.9252 8.51078 5.4502 8.30078 5.0352C9.04078 4.9352 9.82578 5.0752 10.3908 5.4502C11.1808 5.9702 11.1808 6.8252 10.3958 7.3502Z" fill="#4C9540"/>
<path d="M3.22008 3.885C3.25508 3.88 3.29008 3.88 3.32508 3.885C4.10008 3.86 4.71508 3.225 4.71508 2.445C4.71508 1.645 4.07008 1 3.27008 1C2.47508 1 1.83008 1.645 1.83008 2.445C1.83008 3.225 2.44508 3.86 3.22008 3.885Z" fill="#4C9540"/>
<path d="M3.27555 6.4253C3.27555 6.9103 3.38055 7.3703 3.57055 7.7853C2.86555 7.8603 2.13055 7.7103 1.59055 7.3553C0.800547 6.8303 0.800547 5.9753 1.59055 5.4503C2.12555 5.0903 2.88055 4.9453 3.59055 5.0253C3.38555 5.4453 3.27555 5.9203 3.27555 6.4253Z" fill="#4C9540"/>
<path d="M6.06039 7.935C6.02039 7.93 5.97539 7.93 5.93039 7.935C5.01039 7.905 4.27539 7.15 4.27539 6.22C4.28039 5.27 5.04539 4.5 6.00039 4.5C6.95039 4.5 7.72039 5.27 7.72039 6.22C7.71539 7.15 6.98539 7.905 6.06039 7.935Z" fill="#4C9540"/>
<path d="M4.43539 8.97031C3.68039 9.47531 3.68039 10.3053 4.43539 10.8053C5.29539 11.3803 6.70539 11.3803 7.56539 10.8053C8.32039 10.3003 8.32039 9.47031 7.56539 8.97031C6.71039 8.39531 5.30039 8.39531 4.43539 8.97031Z" fill="#4C9540"/>
</svg>
