<svg width="75" height="59" viewBox="0 0 75 59" fill="none" xmlns="http://www.w3.org/2000/svg">
<g clip-path="url(#clip0_200_3381)">
<path fill-rule="evenodd" clip-rule="evenodd" d="M32.4152 11.6853C34.0597 10.5865 35.9931 10 37.9709 10V0C34.0153 0 30.1485 1.17298 26.8595 3.37061C23.5705 5.56823 21.0071 8.69181 19.4933 12.3463C17.9796 16.0008 17.5835 20.0222 18.3552 23.9018C19.1269 27.7814 21.0317 31.3451 23.8288 34.1421C26.6258 36.9392 30.1895 38.844 34.0691 39.6157C37.9487 40.3874 41.9701 39.9913 45.6246 38.4776C49.2791 36.9638 52.4027 34.4004 54.6003 31.1114C56.798 27.8224 57.9709 23.9556 57.9709 20H47.9709C47.9709 21.9778 47.3844 23.9112 46.2856 25.5557C45.1868 27.2002 43.625 28.4819 41.7977 29.2388C39.9705 29.9957 37.9598 30.1937 36.02 29.8078C34.0802 29.422 32.2984 28.4696 30.8998 27.0711C29.5013 25.6725 28.5489 23.8907 28.1631 21.9509C27.7772 20.0111 27.9752 18.0004 28.7321 16.1732C29.489 14.3459 30.7707 12.7841 32.4152 11.6853Z" fill="#4C9540"/>
<path fill-rule="evenodd" clip-rule="evenodd" d="M32.4152 11.6853C34.0597 10.5865 35.9931 10 37.9709 10V0C34.0153 0 30.1485 1.17298 26.8595 3.37061C23.5705 5.56823 21.0071 8.69181 19.4933 12.3463C17.9796 16.0008 17.5835 20.0222 18.3552 23.9018C19.1269 27.7814 21.0317 31.3451 23.8288 34.1421C26.6258 36.9392 30.1895 38.844 34.0691 39.6157C37.9487 40.3874 41.9701 39.9913 45.6246 38.4776C49.2791 36.9638 52.4027 34.4004 54.6003 31.1114C56.798 27.8224 57.9709 23.9556 57.9709 20H47.9709C47.9709 21.9778 47.3844 23.9112 46.2856 25.5557C45.1868 27.2002 43.625 28.4819 41.7977 29.2388C39.9705 29.9957 37.9598 30.1937 36.02 29.8078C34.0802 29.422 32.2984 28.4696 30.8998 27.0711C29.5013 25.6725 28.5489 23.8907 28.1631 21.9509C27.7772 20.0111 27.9752 18.0004 28.7321 16.1732C29.489 14.3459 30.7707 12.7841 32.4152 11.6853Z" fill="url(#paint0_linear_200_3381)"/>
<path fill-rule="evenodd" clip-rule="evenodd" d="M47.971 4.33125e-06C47.971 1.31322 48.2296 2.61358 48.7322 3.82683C49.2347 5.04009 49.9713 6.14248 50.8999 7.07107C51.8285 7.99966 52.9309 8.73625 54.1441 9.2388C55.3574 9.74134 56.6577 10 57.9709 10L57.9709 20C55.3445 20 52.7438 19.4827 50.3173 18.4776C47.8908 17.4725 45.686 15.9993 43.8289 14.1421C41.9717 12.285 40.4985 10.0802 39.4934 7.65367C38.4883 5.22715 37.971 2.62643 37.971 0L47.971 4.33125e-06Z" fill="#4C9540"/>
<path fill-rule="evenodd" clip-rule="evenodd" d="M47.971 4.33125e-06C47.971 1.31322 48.2296 2.61358 48.7322 3.82683C49.2347 5.04009 49.9713 6.14248 50.8999 7.07107C51.8285 7.99966 52.9309 8.73625 54.1441 9.2388C55.3574 9.74134 56.6577 10 57.9709 10L57.9709 20C55.3445 20 52.7438 19.4827 50.3173 18.4776C47.8908 17.4725 45.686 15.9993 43.8289 14.1421C41.9717 12.285 40.4985 10.0802 39.4934 7.65367C38.4883 5.22715 37.971 2.62643 37.971 0L47.971 4.33125e-06Z" fill="url(#paint1_linear_200_3381)"/>
</g>
<path d="M4.88147 59H2.97211C2.02344 59 1.29092 58.7605 0.774551 58.2815C0.258184 57.8025 0 57.1125 0 56.2115V50.7885C0 49.8875 0.258184 49.1975 0.774551 48.7185C1.29092 48.2395 2.02344 48 2.97211 48H4.88147C5.81814 48 6.54466 48.2452 7.06102 48.7356C7.57739 49.2146 7.83557 49.8989 7.83557 50.7885V51.3017C7.83557 51.5526 7.70948 51.6781 7.4573 51.6781H5.92622C5.67404 51.6781 5.54795 51.5526 5.54795 51.3017V50.8911C5.54795 50.5262 5.46989 50.2696 5.31378 50.1213C5.15767 49.9616 4.88748 49.8818 4.5032 49.8818H3.33237C2.96011 49.8818 2.68991 49.9616 2.52179 50.1213C2.36568 50.2696 2.28763 50.5262 2.28763 50.8911V56.1089C2.28763 56.4738 2.36568 56.7361 2.52179 56.8958C2.68991 57.0441 2.96011 57.1182 3.33237 57.1182H4.5032C4.88748 57.1182 5.15767 57.0441 5.31378 56.8958C5.46989 56.7361 5.54795 56.4738 5.54795 56.1089V55.0311C5.54795 54.9057 5.4819 54.8429 5.34981 54.8429H4.26904C4.01686 54.8429 3.89077 54.7232 3.89077 54.4837V53.3204C3.89077 53.0809 4.01686 52.9611 4.26904 52.9611H7.42128C7.69747 52.9611 7.83557 53.0923 7.83557 53.3546V56.2115C7.83557 57.1011 7.57739 57.7911 7.06102 58.2815C6.54466 58.7605 5.81814 59 4.88147 59Z" fill="white"/>
<path d="M11.9051 59H10.374C10.1218 59 9.9957 58.8802 9.9957 58.6407V48.3593C9.9957 48.1198 10.1218 48 10.374 48H14.661C15.5977 48 16.3302 48.2452 16.8586 48.7356C17.387 49.226 17.6511 49.916 17.6511 50.8056V52.14C17.6511 53.4287 17.1168 54.2841 16.048 54.7061V54.7745L17.9754 58.5894C18.0835 58.8631 17.9814 59 17.6692 59H16.2101C15.994 59 15.8379 58.9772 15.7418 58.9316C15.6457 58.886 15.5677 58.789 15.5076 58.6407L13.7063 54.9456H12.4995C12.3554 54.9456 12.2833 55.0083 12.2833 55.1337V58.6407C12.2833 58.8802 12.1572 59 11.9051 59ZM12.4815 53.2006H14.2467C14.631 53.2006 14.9132 53.1265 15.0933 52.9782C15.2735 52.8186 15.3635 52.5677 15.3635 52.2255V50.8911C15.3635 50.5376 15.2735 50.281 15.0933 50.1213C14.9132 49.9616 14.631 49.8818 14.2467 49.8818H12.4815C12.3494 49.8818 12.2833 49.9445 12.2833 50.07V53.0124C12.2833 53.1379 12.3494 53.2006 12.4815 53.2006Z" fill="white"/>
<path d="M26.1149 59H20.2247C19.9726 59 19.8465 58.8802 19.8465 58.6407V48.3593C19.8465 48.1198 19.9726 48 20.2247 48H26.1149C26.3551 48 26.4752 48.1198 26.4752 48.3593V49.5226C26.4752 49.7621 26.3551 49.8818 26.1149 49.8818H22.3502C22.2061 49.8818 22.1341 49.9445 22.1341 50.07V52.2939C22.1341 52.4194 22.2061 52.4821 22.3502 52.4821H25.4304C25.6826 52.4821 25.8087 52.6019 25.8087 52.8414V54.0047C25.8087 54.2442 25.6826 54.3639 25.4304 54.3639H22.3502C22.2061 54.3639 22.1341 54.4266 22.1341 54.5521V56.93C22.1341 57.0555 22.2061 57.1182 22.3502 57.1182H26.1149C26.3551 57.1182 26.4752 57.2379 26.4752 57.4774V58.6407C26.4752 58.8802 26.3551 59 26.1149 59Z" fill="white"/>
<path d="M34.7343 59H28.8441C28.592 59 28.4659 58.8802 28.4659 58.6407V48.3593C28.4659 48.1198 28.592 48 28.8441 48H34.7343C34.9745 48 35.0946 48.1198 35.0946 48.3593V49.5226C35.0946 49.7621 34.9745 49.8818 34.7343 49.8818H30.9697C30.8256 49.8818 30.7535 49.9445 30.7535 50.07V52.2939C30.7535 52.4194 30.8256 52.4821 30.9697 52.4821H34.0498C34.302 52.4821 34.4281 52.6019 34.4281 52.8414V54.0047C34.4281 54.2442 34.302 54.3639 34.0498 54.3639H30.9697C30.8256 54.3639 30.7535 54.4266 30.7535 54.5521V56.93C30.7535 57.0555 30.8256 57.1182 30.9697 57.1182H34.7343C34.9745 57.1182 35.0946 57.2379 35.0946 57.4774V58.6407C35.0946 58.8802 34.9745 59 34.7343 59Z" fill="white"/>
<path d="M38.9586 59H37.4636C37.2114 59 37.0853 58.8802 37.0853 58.6407V48.3593C37.0853 48.1198 37.2114 48 37.4636 48H38.8145C39.0667 48 39.2348 48.0798 39.3189 48.2395L42.9575 54.7232H43.0295V48.3593C43.0295 48.1198 43.1556 48 43.4078 48H44.9028C45.155 48 45.2811 48.1198 45.2811 48.3593V58.6407C45.2811 58.8802 45.155 59 44.9028 59H43.5879C43.3237 59 43.1316 58.886 43.0115 58.6579L39.4089 52.2939H39.3369V58.6407C39.3369 58.8802 39.2108 59 38.9586 59Z" fill="white"/>
<path d="M49.5314 59H48.0003C47.7482 59 47.6221 58.8802 47.6221 58.6407V48.3593C47.6221 48.1198 47.7482 48 48.0003 48H52.3955C53.3321 48 54.0587 48.2452 54.575 48.7356C55.0914 49.2146 55.3496 49.8989 55.3496 50.7885V52.4308C55.3496 53.3204 55.0914 54.0104 54.575 54.5008C54.0587 54.9798 53.3321 55.2193 52.3955 55.2193H50.1259C49.9818 55.2193 49.9097 55.282 49.9097 55.4075V58.6407C49.9097 58.8802 49.7836 59 49.5314 59ZM50.1078 53.3204H52.0172C52.4015 53.3204 52.6717 53.2462 52.8278 53.098C52.9839 52.9383 53.0619 52.6817 53.0619 52.3281V50.8911C53.0619 50.5262 52.9839 50.2696 52.8278 50.1213C52.6717 49.9616 52.4015 49.8818 52.0172 49.8818H50.1078C49.9757 49.8818 49.9097 49.9445 49.9097 50.07V53.1322C49.9097 53.2576 49.9757 53.3204 50.1078 53.3204Z" fill="white"/>
<path d="M58.3807 59H56.6514C56.4353 59 56.3632 58.8802 56.4353 58.6407L59.2813 48.3593C59.3653 48.1198 59.5455 48 59.8217 48H62.2174C62.5176 48 62.6977 48.1198 62.7578 48.3593L65.6038 58.6407C65.6758 58.8802 65.6038 59 65.3876 59H63.6584C63.5263 59 63.4362 58.9772 63.3882 58.9316C63.3402 58.8745 63.3042 58.7776 63.2801 58.6407L62.7758 56.7589H59.2633L58.7589 58.6407C58.7349 58.7776 58.6929 58.8745 58.6328 58.9316C58.5848 58.9772 58.5007 59 58.3807 59ZM60.9925 50.07L59.6956 55.014H62.3615L61.0646 50.07H60.9925Z" fill="white"/>
<path d="M69.6862 57.1182H71.6496C72.0339 57.1182 72.3041 57.0441 72.4602 56.8958C72.6283 56.7361 72.7124 56.4738 72.7124 56.1089V50.8911C72.7124 50.5262 72.6283 50.2696 72.4602 50.1213C72.3041 49.9616 72.0339 49.8818 71.6496 49.8818H69.6862C69.5541 49.8818 69.4881 49.9445 69.4881 50.07V56.93C69.4881 57.0555 69.5541 57.1182 69.6862 57.1182ZM67.2005 58.6407V48.3593C67.2005 48.1198 67.3265 48 67.5787 48H72.0279C72.9646 48 73.6911 48.2452 74.2074 48.7356C74.7358 49.2146 75 49.8989 75 50.7885V56.2115C75 57.1011 74.7358 57.7911 74.2074 58.2815C73.6911 58.7605 72.9646 59 72.0279 59H67.5787C67.3265 59 67.2005 58.8802 67.2005 58.6407Z" fill="white"/>
<defs>
<linearGradient id="paint0_linear_200_3381" x1="37.971" y1="0" x2="37.971" y2="40" gradientUnits="userSpaceOnUse">
<stop stop-color="#69C05A"/>
<stop offset="1" stop-color="#469239"/>
</linearGradient>
<linearGradient id="paint1_linear_200_3381" x1="47.971" y1="0" x2="47.971" y2="20" gradientUnits="userSpaceOnUse">
<stop stop-color="#69C05A"/>
<stop offset="1" stop-color="#469239"/>
</linearGradient>
<clipPath id="clip0_200_3381">
<rect width="40" height="40" fill="white" transform="translate(17.9709)"/>
</clipPath>
</defs>
</svg>
