<svg width="120" height="32" viewBox="0 0 120 32" fill="none" xmlns="http://www.w3.org/2000/svg">
<g clip-path="url(#clip0_474_90932)">
<path fill-rule="evenodd" clip-rule="evenodd" d="M11.5554 9.34824C12.871 8.4692 14.4178 8 16 8V0C12.8355 0 9.74208 0.938384 7.11088 2.69649C4.47968 4.45458 2.42896 6.95345 1.21792 9.87704C0.00696182 12.8006 -0.309917 16.0178 0.307442 19.1214C0.924803 22.2251 2.44864 25.0761 4.68632 27.3137C6.92392 29.5514 9.77488 31.0752 12.8786 31.6926C15.9822 32.3099 19.1994 31.993 22.123 30.7821C25.0466 29.571 27.5454 27.5203 29.3035 24.8891C31.0616 22.2579 32 19.1645 32 16H24C24 17.5822 23.5308 19.129 22.6518 20.4446C21.7727 21.7602 20.5233 22.7855 19.0614 23.391C17.5997 23.9966 15.9911 24.155 14.4393 23.8462C12.8874 23.5376 11.462 22.7757 10.3431 21.6569C9.22432 20.538 8.4624 19.1126 8.15376 17.5607C7.84504 16.0089 8.00344 14.4003 8.60896 12.9386C9.21448 11.4767 10.2398 10.2273 11.5554 9.34824Z" fill="#4C9540"/>
<path fill-rule="evenodd" clip-rule="evenodd" d="M11.5554 9.34824C12.871 8.4692 14.4178 8 16 8V0C12.8355 0 9.74208 0.938384 7.11088 2.69649C4.47968 4.45458 2.42896 6.95345 1.21792 9.87704C0.00696182 12.8006 -0.309917 16.0178 0.307442 19.1214C0.924803 22.2251 2.44864 25.0761 4.68632 27.3137C6.92392 29.5514 9.77488 31.0752 12.8786 31.6926C15.9822 32.3099 19.1994 31.993 22.123 30.7821C25.0466 29.571 27.5454 27.5203 29.3035 24.8891C31.0616 22.2579 32 19.1645 32 16H24C24 17.5822 23.5308 19.129 22.6518 20.4446C21.7727 21.7602 20.5233 22.7855 19.0614 23.391C17.5997 23.9966 15.9911 24.155 14.4393 23.8462C12.8874 23.5376 11.462 22.7757 10.3431 21.6569C9.22432 20.538 8.4624 19.1126 8.15376 17.5607C7.84504 16.0089 8.00344 14.4003 8.60896 12.9386C9.21448 11.4767 10.2398 10.2273 11.5554 9.34824Z" fill="url(#paint0_linear_474_90932)"/>
<path fill-rule="evenodd" clip-rule="evenodd" d="M24 3.465e-06C24 1.05058 24.2069 2.09087 24.609 3.06147C25.011 4.03207 25.6003 4.91399 26.3431 5.65686C27.086 6.39973 27.9679 6.989 28.9385 7.39104C29.9091 7.79308 30.9494 8 32 8L32 16C29.8989 16 27.8183 15.5862 25.8771 14.7821C23.9358 13.978 22.172 12.7994 20.6863 11.3137C19.2006 9.828 18.022 8.06416 17.2179 6.12294C16.4138 4.18172 16 2.10115 16 0L24 3.465e-06Z" fill="#4C9540"/>
<path fill-rule="evenodd" clip-rule="evenodd" d="M24 3.465e-06C24 1.05058 24.2069 2.09087 24.609 3.06147C25.011 4.03207 25.6003 4.91399 26.3431 5.65686C27.086 6.39973 27.9679 6.989 28.9385 7.39104C29.9091 7.79308 30.9494 8 32 8L32 16C29.8989 16 27.8183 15.5862 25.8771 14.7821C23.9358 13.978 22.172 12.7994 20.6863 11.3137C19.2006 9.828 18.022 8.06416 17.2179 6.12294C16.4138 4.18172 16 2.10115 16 0L24 3.465e-06Z" fill="url(#paint1_linear_474_90932)"/>
</g>
<path d="M44.7814 22.5266H42.7332C41.7155 22.5266 40.9297 22.2696 40.3758 21.7558C39.8219 21.242 39.5449 20.5018 39.5449 19.5353V13.7179C39.5449 12.7513 39.8219 12.0112 40.3758 11.4973C40.9297 10.9835 41.7155 10.7266 42.7332 10.7266H44.7814C45.7862 10.7266 46.5656 10.9896 47.1195 11.5157C47.6734 12.0295 47.9504 12.7636 47.9504 13.7179V14.2684C47.9504 14.5376 47.8151 14.6721 47.5446 14.6721H45.9021C45.6316 14.6721 45.4964 14.5376 45.4964 14.2684V13.828C45.4964 13.4365 45.4126 13.1612 45.2452 13.0021C45.0777 12.8309 44.7879 12.7452 44.3756 12.7452H43.1196C42.7203 12.7452 42.4305 12.8309 42.2501 13.0021C42.0827 13.1612 41.9989 13.4365 41.9989 13.828V19.4252C41.9989 19.8167 42.0827 20.098 42.2501 20.2693C42.4305 20.4284 42.7203 20.5079 43.1196 20.5079H44.3756C44.7879 20.5079 45.0777 20.4284 45.2452 20.2693C45.4126 20.098 45.4964 19.8167 45.4964 19.4252V18.269C45.4964 18.1344 45.4255 18.0672 45.2838 18.0672H44.1244C43.8539 18.0672 43.7187 17.9387 43.7187 17.6818V16.4339C43.7187 16.177 43.8539 16.0485 44.1244 16.0485H47.5059C47.8022 16.0485 47.9504 16.1892 47.9504 16.4706V19.5353C47.9504 20.4895 47.6734 21.2297 47.1195 21.7558C46.5656 22.2696 45.7862 22.5266 44.7814 22.5266Z" fill="white"/>
<path d="M52.3158 22.5266H50.6734C50.4028 22.5266 50.2676 22.3981 50.2676 22.1412V11.1119C50.2676 10.855 50.4028 10.7266 50.6734 10.7266H55.2722C56.277 10.7266 57.0628 10.9896 57.6296 11.5157C58.1964 12.0418 58.4798 12.7819 58.4798 13.7362V15.1676C58.4798 16.5501 57.9065 17.4677 56.7601 17.9203V17.9937L58.8276 22.0861C58.9435 22.3798 58.834 22.5266 58.4991 22.5266H56.934C56.7021 22.5266 56.5346 22.5021 56.4316 22.4532C56.3285 22.4042 56.2448 22.3002 56.1804 22.1412L54.2481 18.1773H52.9535C52.7989 18.1773 52.7216 18.2446 52.7216 18.3791V22.1412C52.7216 22.3981 52.5863 22.5266 52.3158 22.5266ZM52.9341 16.3054H54.8278C55.24 16.3054 55.5427 16.2259 55.7359 16.0668C55.9292 15.8956 56.0258 15.6264 56.0258 15.2594V13.828C56.0258 13.4487 55.9292 13.1734 55.7359 13.0021C55.5427 12.8309 55.24 12.7452 54.8278 12.7452H52.9341C52.7924 12.7452 52.7216 12.8125 52.7216 12.9471V16.1035C52.7216 16.2381 52.7924 16.3054 52.9341 16.3054Z" fill="white"/>
<path d="M67.5591 22.5266H61.2405C60.97 22.5266 60.8348 22.3981 60.8348 22.1412V11.1119C60.8348 10.855 60.97 10.7266 61.2405 10.7266H67.5591C67.8167 10.7266 67.9456 10.855 67.9456 11.1119V12.3598C67.9456 12.6168 67.8167 12.7452 67.5591 12.7452H63.5206C63.366 12.7452 63.2888 12.8125 63.2888 12.9471V15.3328C63.2888 15.4674 63.366 15.5346 63.5206 15.5346H66.8248C67.0954 15.5346 67.2306 15.6631 67.2306 15.92V17.1679C67.2306 17.4249 67.0954 17.5533 66.8248 17.5533H63.5206C63.366 17.5533 63.2888 17.6206 63.2888 17.7552V20.306C63.2888 20.4406 63.366 20.5079 63.5206 20.5079H67.5591C67.8167 20.5079 67.9456 20.6364 67.9456 20.8933V22.1412C67.9456 22.3981 67.8167 22.5266 67.5591 22.5266Z" fill="white"/>
<path d="M76.8054 22.5266H70.4868C70.2163 22.5266 70.081 22.3981 70.081 22.1412V11.1119C70.081 10.855 70.2163 10.7266 70.4868 10.7266H76.8054C77.063 10.7266 77.1918 10.855 77.1918 11.1119V12.3598C77.1918 12.6168 77.063 12.7452 76.8054 12.7452H72.7669C72.6123 12.7452 72.535 12.8125 72.535 12.9471V15.3328C72.535 15.4674 72.6123 15.5346 72.7669 15.5346H76.0711C76.3416 15.5346 76.4769 15.6631 76.4769 15.92V17.1679C76.4769 17.4249 76.3416 17.5533 76.0711 17.5533H72.7669C72.6123 17.5533 72.535 17.6206 72.535 17.7552V20.306C72.535 20.4406 72.6123 20.5079 72.7669 20.5079H76.8054C77.063 20.5079 77.1918 20.6364 77.1918 20.8933V22.1412C77.1918 22.3981 77.063 22.5266 76.8054 22.5266Z" fill="white"/>
<path d="M81.3369 22.5266H79.7331C79.4626 22.5266 79.3273 22.3981 79.3273 22.1412V11.1119C79.3273 10.855 79.4626 10.7266 79.7331 10.7266H81.1823C81.4528 10.7266 81.6332 10.8122 81.7233 10.9835L85.6266 17.9387H85.7038V11.1119C85.7038 10.855 85.8391 10.7266 86.1096 10.7266H87.7134C87.9839 10.7266 88.1192 10.855 88.1192 11.1119V22.1412C88.1192 22.3981 87.9839 22.5266 87.7134 22.5266H86.3029C86.0195 22.5266 85.8133 22.4042 85.6845 22.1595L81.82 15.3328H81.7427V22.1412C81.7427 22.3981 81.6074 22.5266 81.3369 22.5266Z" fill="white"/>
<path d="M92.6786 22.5266H91.0362C90.7657 22.5266 90.6304 22.3981 90.6304 22.1412V11.1119C90.6304 10.855 90.7657 10.7266 91.0362 10.7266H95.751C96.7558 10.7266 97.5351 10.9896 98.089 11.5157C98.643 12.0295 98.9199 12.7636 98.9199 13.7179V15.4796C98.9199 16.4339 98.643 17.174 98.089 17.7001C97.5351 18.214 96.7558 18.4709 95.751 18.4709H93.3163C93.1617 18.4709 93.0844 18.5382 93.0844 18.6728V22.1412C93.0844 22.3981 92.9492 22.5266 92.6786 22.5266ZM93.297 16.4339H95.3452C95.7574 16.4339 96.0473 16.3543 96.2147 16.1953C96.3822 16.024 96.4659 15.7487 96.4659 15.3695V13.828C96.4659 13.4365 96.3822 13.1612 96.2147 13.0021C96.0473 12.8309 95.7574 12.7452 95.3452 12.7452H93.297C93.1553 12.7452 93.0844 12.8125 93.0844 12.9471V16.232C93.0844 16.3666 93.1553 16.4339 93.297 16.4339Z" fill="white"/>
<path d="M102.171 22.5266H100.316C100.085 22.5266 100.007 22.3981 100.085 22.1412L103.138 11.1119C103.228 10.855 103.421 10.7266 103.717 10.7266H106.287C106.609 10.7266 106.802 10.855 106.867 11.1119L109.92 22.1412C109.997 22.3981 109.92 22.5266 109.688 22.5266H107.833C107.691 22.5266 107.595 22.5021 107.543 22.4532C107.492 22.392 107.453 22.288 107.427 22.1412L106.886 20.1225H103.118L102.577 22.1412C102.551 22.288 102.506 22.392 102.442 22.4532C102.39 22.5021 102.3 22.5266 102.171 22.5266ZM104.973 12.9471L103.582 18.2507H106.442L105.051 12.9471H104.973Z" fill="white"/>
<path d="M114.299 20.5079H116.405C116.818 20.5079 117.107 20.4284 117.275 20.2693C117.455 20.098 117.545 19.8167 117.545 19.4252V13.828C117.545 13.4365 117.455 13.1612 117.275 13.0021C117.107 12.8309 116.818 12.7452 116.405 12.7452H114.299C114.158 12.7452 114.087 12.8125 114.087 12.9471V20.306C114.087 20.4406 114.158 20.5079 114.299 20.5079ZM111.633 22.1412V11.1119C111.633 10.855 111.768 10.7266 112.038 10.7266H116.811C117.816 10.7266 118.595 10.9896 119.149 11.5157C119.716 12.0295 119.999 12.7636 119.999 13.7179V19.5353C119.999 20.4895 119.716 21.2297 119.149 21.7558C118.595 22.2696 117.816 22.5266 116.811 22.5266H112.038C111.768 22.5266 111.633 22.3981 111.633 22.1412Z" fill="white"/>
<defs>
<linearGradient id="paint0_linear_474_90932" x1="16" y1="0" x2="16" y2="32" gradientUnits="userSpaceOnUse">
<stop stop-color="#69C05A"/>
<stop offset="1" stop-color="#469239"/>
</linearGradient>
<linearGradient id="paint1_linear_474_90932" x1="24" y1="0" x2="24" y2="16" gradientUnits="userSpaceOnUse">
<stop stop-color="#69C05A"/>
<stop offset="1" stop-color="#469239"/>
</linearGradient>
<clipPath id="clip0_474_90932">
<rect width="32" height="32" fill="white"/>
</clipPath>
</defs>
</svg>
