<svg width="16" height="16" viewBox="0 0 16 16" fill="none" xmlns="http://www.w3.org/2000/svg">
<path d="M8.00033 15.3327C3.95505 15.3327 0.666992 12.0446 0.666992 7.99935C0.666992 3.95408 3.95505 0.666016 8.00033 0.666016C12.0456 0.666016 15.3337 3.95408 15.3337 7.99935C15.3337 12.0446 12.0456 15.3327 8.00033 15.3327ZM8.00033 1.68927C4.52126 1.68927 1.69025 4.52028 1.69025 7.99935C1.69025 11.4784 4.52126 14.3094 8.00033 14.3094C11.4794 14.3094 14.3104 11.4784 14.3104 7.99935C14.3104 4.52028 11.4794 1.68927 8.00033 1.68927Z" fill="#D91C1C"/>
<path d="M5.89019 10.6673C5.74857 10.6673 5.60694 10.6152 5.49513 10.5034C5.27897 10.2873 5.27897 9.92963 5.49513 9.71354L9.71409 5.49605C9.93026 5.27996 10.2881 5.27996 10.5042 5.49605C10.7204 5.71214 10.7204 6.06981 10.5042 6.2859L6.28526 10.5034C6.1809 10.6152 6.03182 10.6673 5.89019 10.6673Z" fill="#D91C1C"/>
<path d="M10.1092 10.6673C9.96753 10.6673 9.8259 10.6152 9.71409 10.5034L5.49513 6.2859C5.27897 6.06981 5.27897 5.71214 5.49513 5.49605C5.7113 5.27996 6.06909 5.27996 6.28526 5.49605L10.5042 9.71354C10.7204 9.92963 10.7204 10.2873 10.5042 10.5034C10.3924 10.6152 10.2508 10.6673 10.1092 10.6673Z" fill="#D91C1C"/>
</svg>
