<svg width="16" height="16" viewBox="0 0 16 16" fill="none" xmlns="http://www.w3.org/2000/svg">
<path d="M8.00033 15.3327C3.95505 15.3327 0.666992 12.0446 0.666992 7.99935C0.666992 3.95408 3.95505 0.666016 8.00033 0.666016C12.0456 0.666016 15.3337 3.95408 15.3337 7.99935C15.3337 12.0446 12.0456 15.3327 8.00033 15.3327ZM8.00033 1.68927C4.52126 1.68927 1.69025 4.52028 1.69025 7.99935C1.69025 11.4784 4.52126 14.3094 8.00033 14.3094C11.4794 14.3094 14.3104 11.4784 14.3104 7.99935C14.3104 4.52028 11.4794 1.68927 8.00033 1.68927Z" fill="#4DD337"/>
<path d="M7.05319 10.6673C6.91979 10.6673 6.79306 10.6078 6.69968 10.5036L4.81206 8.39781C4.61863 8.18203 4.61863 7.82486 4.81206 7.60907C5.00549 7.39328 5.32565 7.39328 5.51908 7.60907L7.05319 9.3205L10.4816 5.49583C10.675 5.28004 10.9952 5.28004 11.1886 5.49583C11.382 5.71161 11.382 6.06878 11.1886 6.28457L7.4067 10.5036C7.31332 10.6078 7.18659 10.6673 7.05319 10.6673Z" fill="#4DD337"/>
</svg>
