<svg width="22" height="22" viewBox="0 0 22 22" fill="none" xmlns="http://www.w3.org/2000/svg">
<path d="M11.0003 21.0833C5.43808 21.0833 0.916992 16.5622 0.916992 11C0.916992 5.43771 5.43808 0.916626 11.0003 0.916626C16.5626 0.916626 21.0837 5.43771 21.0837 11C21.0837 16.5622 16.5626 21.0833 11.0003 21.0833ZM11.0003 2.3236C6.2166 2.3236 2.32397 6.21624 2.32397 11C2.32397 15.7837 6.2166 19.6763 11.0003 19.6763C15.784 19.6763 19.6767 15.7837 19.6767 11C19.6767 6.21624 15.784 2.3236 11.0003 2.3236Z" fill="#4DD337"/>
<path d="M9.69801 14.6667C9.51458 14.6667 9.34033 14.5849 9.21193 14.4416L6.61647 11.5461C6.3505 11.2494 6.3505 10.7583 6.61647 10.4616C6.88243 10.1649 7.32265 10.1649 7.58862 10.4616L9.69801 12.8148L14.412 7.55591C14.678 7.2592 15.1182 7.2592 15.3842 7.55591C15.6502 7.85262 15.6502 8.34372 15.3842 8.64043L10.1841 14.4416C10.0557 14.5849 9.88143 14.6667 9.69801 14.6667Z" fill="#4DD337"/>
</svg>
