<svg width="21" height="20" viewBox="0 0 21 20" fill="none" xmlns="http://www.w3.org/2000/svg">
<path d="M13.8334 10.7503V14.2503C13.8334 17.167 12.6667 18.3337 9.75008 18.3337H6.25008C3.33341 18.3337 2.16675 17.167 2.16675 14.2503V10.7503C2.16675 7.83366 3.33341 6.66699 6.25008 6.66699H9.75008C12.6667 6.66699 13.8334 7.83366 13.8334 10.7503Z" stroke="#4C9540" stroke-width="1.5" stroke-linecap="round" stroke-linejoin="round"/>
<path d="M18.8334 5.75033V9.25033C18.8334 12.167 17.6667 13.3337 14.7501 13.3337H13.8334V10.7503C13.8334 7.83366 12.6667 6.66699 9.75008 6.66699H7.16675V5.75033C7.16675 2.83366 8.33341 1.66699 11.2501 1.66699H14.7501C17.6667 1.66699 18.8334 2.83366 18.8334 5.75033Z" stroke="#4C9540" stroke-width="1.5" stroke-linecap="round" stroke-linejoin="round"/>
</svg>
