<svg width="14" height="14" viewBox="0 0 14 14" fill="none" xmlns="http://www.w3.org/2000/svg">
<path d="M12.8335 4.95829C12.8335 6.85996 11.4335 8.42913 9.61354 8.70329V8.66829C9.43271 6.40496 7.59521 4.56746 5.31437 4.38663H5.29688C5.57104 2.56663 7.14021 1.16663 9.04188 1.16663C11.136 1.16663 12.8335 2.86413 12.8335 4.95829Z" fill="#4C9540"/>
<path d="M8.73866 8.73833C8.59283 6.88917 7.11116 5.4075 5.26199 5.26167C5.16283 5.25583 5.05783 5.25 4.95866 5.25C2.86449 5.25 1.16699 6.9475 1.16699 9.04167C1.16699 11.1358 2.86449 12.8333 4.95866 12.8333C7.05283 12.8333 8.75033 11.1358 8.75033 9.04167C8.75033 8.9425 8.74449 8.8375 8.73866 8.73833ZM5.47199 9.555L4.95866 10.5L4.44533 9.555L3.50033 9.04167L4.44533 8.52833L4.95866 7.58333L5.47199 8.52833L6.41699 9.04167L5.47199 9.555Z" fill="#4C9540"/>
</svg>
