<svg width="22" height="22" viewBox="0 0 22 22" fill="none" xmlns="http://www.w3.org/2000/svg">
<path d="M11.0003 21.0833C5.43808 21.0833 0.916992 16.5622 0.916992 11C0.916992 5.43771 5.43808 0.916626 11.0003 0.916626C16.5626 0.916626 21.0837 5.43771 21.0837 11C21.0837 16.5622 16.5626 21.0833 11.0003 21.0833ZM11.0003 2.3236C6.2166 2.3236 2.32397 6.21624 2.32397 11C2.32397 15.7837 6.2166 19.6763 11.0003 19.6763C15.784 19.6763 19.6767 15.7837 19.6767 11C19.6767 6.21624 15.784 2.3236 11.0003 2.3236Z" fill="#D91C1C"/>
<path d="M8.09914 14.6666C7.9044 14.6666 7.70967 14.5949 7.55593 14.4412C7.2587 14.1441 7.2587 13.6523 7.55593 13.3552L13.357 7.55616C13.6542 7.25903 14.1462 7.25903 14.4434 7.55616C14.7406 7.85328 14.7406 8.34507 14.4434 8.6422L8.64235 14.4412C8.49886 14.5949 8.29387 14.6666 8.09914 14.6666Z" fill="#D91C1C"/>
<path d="M13.9002 14.6666C13.7055 14.6666 13.5107 14.5949 13.357 14.4412L7.55593 8.6422C7.2587 8.34507 7.2587 7.85328 7.55593 7.55616C7.85316 7.25903 8.34512 7.25903 8.64235 7.55616L14.4434 13.3552C14.7406 13.6523 14.7406 14.1441 14.4434 14.4412C14.2897 14.5949 14.0949 14.6666 13.9002 14.6666Z" fill="#D91C1C"/>
</svg>
