<svg width="80" height="80" viewBox="0 0 80 80" fill="none" xmlns="http://www.w3.org/2000/svg">
<path d="M76.4907 45.896C71.675 66.5786 50.6629 79.1188 30.1494 73.5417C10.8209 68.2888 -1.02544 48.4614 3.51276 28.9722C8.32841 8.28961 29.3405 -4.25056 49.8494 1.3265C69.1778 6.57937 81.0289 26.4021 76.4907 45.896Z" fill="#559248"/>
<path d="M40.0769 68.4163C57.2119 68.4163 71.0899 54.5281 71.0744 37.3961C71.0588 20.2642 57.1556 6.37598 40.0207 6.37598C22.8857 6.37598 9.00771 20.2642 9.02324 37.3961C9.03877 54.5281 22.942 68.4163 40.0769 68.4163Z" fill="#316423"/>
<path d="M62.582 65.9892C62.2628 65.3951 62.0104 64.7417 61.602 64.2145C60.4587 62.7666 59.3896 61.2295 57.7043 60.3088C57.3108 60.0935 56.9247 59.8856 56.5387 59.6628C56.3902 59.5811 56.2194 59.4995 56.1155 59.3732C55.7369 58.9203 55.4919 58.8015 56.0858 58.2149C56.5832 57.7248 57.0064 57.1531 57.0955 56.4402C57.1475 56.0393 57.0658 55.616 57.0584 55.2002C57.0584 55.0294 57.0435 54.8215 57.1252 54.6953C57.3479 54.3537 57.6152 54.0419 57.8676 53.7226C58.3576 53.0914 58.3947 52.4454 57.9344 51.8143C57.8082 51.6361 57.8008 51.5098 57.927 51.3613C58.2017 51.0272 58.4838 50.7005 58.7585 50.3738C58.8699 50.2401 59.011 50.1287 59.1075 49.9951C59.887 48.911 59.7682 48.5768 58.959 47.3294C58.714 46.9507 58.469 46.5869 58.2463 46.1933C57.927 45.6216 57.4816 45.1092 57.051 44.6043C56.8579 44.3815 56.8134 44.2553 57.051 44.0326C58.1497 43.0079 58.521 41.7456 58.2982 40.2679C58.224 39.7779 58.3131 39.2581 58.3279 38.7532C58.3354 38.5675 58.3279 38.3819 58.3279 38.2037C58.8476 37.9364 58.9516 37.528 58.4913 37.1345C57.9419 36.6592 57.3108 36.288 56.7169 35.8647C56.6129 35.7905 56.4719 35.7162 56.4199 35.6123C55.7443 34.2163 54.5713 33.3253 53.3091 32.5159C53.1755 32.4342 53.0864 32.256 53.0196 32.1075C52.886 31.8179 52.8117 31.4912 52.6484 31.2239C52.0396 30.2364 51.3937 29.2711 50.7775 28.2835C50.2429 27.4222 49.3891 26.9915 48.5576 26.494C47.5999 25.9223 46.5679 25.952 45.5434 25.9223C44.9717 25.9074 44.3777 25.952 43.8284 26.1079C43.3977 26.2341 43.0117 26.546 42.633 26.8133C42.1727 27.14 41.7347 27.5038 41.2893 27.8454C41.1037 27.9865 40.9774 27.9419 40.829 27.7563C39.8712 26.5905 38.6759 25.8777 37.1391 25.7441C35.8918 25.6327 34.652 25.5584 33.4047 25.6772C32.8108 25.7366 32.2614 25.8926 31.7045 26.1376C30.1677 26.8059 29.2026 28.0088 28.475 29.427C28.0666 30.2141 27.4579 30.8155 26.9085 31.4764C25.4904 33.1842 24.065 34.8772 23.0627 36.8894C22.1124 38.7903 21.0581 40.6318 20.0856 42.5252C19.3134 44.0251 18.5339 45.5325 18.1107 47.1883C17.8806 48.0719 17.5687 48.9333 17.398 49.8243C17.1827 50.9455 17.0787 52.089 16.908 53.2176C16.8115 53.8859 16.663 54.5542 16.5739 55.2225C16.4848 55.9056 16.4328 56.5962 16.3586 57.2793C16.2695 58.1258 16.1284 58.9648 16.0839 59.8113C16.0468 60.5093 16.0765 61.2147 16.1433 61.9052C16.2472 63.0116 16.6333 64.0512 17.1084 65.0387C17.7247 66.3159 18.6824 67.3034 19.9519 67.9569C21.4071 68.7068 22.8771 69.4048 24.4882 69.828C25.7577 70.1622 27.0347 70.4072 28.3339 70.5037C29.9895 70.6225 31.6526 70.6968 33.3156 70.7265C34.0135 70.7414 34.7039 70.5928 35.4018 70.526C35.9141 70.4815 36.4338 70.4369 36.9535 70.4295C38.03 70.4146 39.1065 70.4592 40.183 70.4221C41.3041 70.3849 42.4326 70.3627 43.5314 70.177C44.3035 70.0508 45.0608 69.7167 45.7735 69.3602C46.1373 69.182 46.3749 68.7662 46.6793 68.4618C46.7609 68.3801 46.85 68.3133 46.9391 68.2316C46.9985 68.3207 47.0876 68.4024 47.1173 68.4989C47.2435 68.9593 47.5479 69.2414 47.9488 69.4865C48.7655 69.9765 49.545 70.5186 50.332 71.0532C51.1858 71.6324 52.1361 71.8774 53.1606 71.922C54.6232 71.9888 56.0932 72.0779 57.5558 72.1522C58.766 72.2116 59.887 71.818 61.0229 71.4765C61.0823 71.1869 60.8002 71.3651 60.726 71.2611C60.6517 71.2686 60.5775 71.2611 60.5107 71.2834C59.1891 71.6547 57.8602 71.8923 56.4644 71.7289C55.1949 71.5878 53.9105 71.5878 52.6335 71.4839C51.9282 71.4319 51.2526 71.2314 50.6512 70.8305C49.8272 70.2884 49.0179 69.7241 48.1715 69.2192C47.7781 68.9816 47.5108 68.6771 47.4514 68.2539C47.3623 67.6153 47.3549 66.9545 47.2881 66.3085C47.2584 65.9817 47.2806 65.5956 47.1173 65.3432C46.6718 64.6526 46.1447 64.0215 45.6399 63.368C45.5359 63.2344 45.3874 63.1304 45.2909 62.9819C44.6227 61.9869 44.7638 61.5266 45.729 61.0736C46.3897 60.7618 47.1025 61.1998 47.2138 61.8384C47.3771 62.7295 47.7335 63.1973 48.6318 63.2641C49.1367 63.3012 49.2406 63.5611 49.3075 63.9398C49.3297 64.0734 49.3668 64.2071 49.3594 64.3407C49.3297 65.0462 49.6267 65.6179 50.1315 66.0783C50.6141 66.5164 51.1635 66.8876 51.6164 67.3554C52.3069 68.0682 53.079 68.5063 54.1184 68.3727C54.2149 69.1672 54.7123 69.5013 55.4399 69.531C55.9967 69.5533 56.5535 69.5385 57.1326 69.5385C57.3479 70.1548 57.5558 70.2958 58.2611 70.3701C59.1966 70.4592 59.6866 69.8132 60.2137 69.234C60.622 68.7885 60.9784 68.2984 61.3719 67.8381C61.4907 67.7044 61.6614 67.5707 61.4684 67.4148C61.3941 67.3554 61.1937 67.4519 61.0601 67.4965C61.0007 67.5188 60.9561 67.593 60.9041 67.6524C60.3919 68.2539 59.8722 68.8479 59.3748 69.4568C59.0926 69.8058 58.7288 69.9394 58.2982 69.9171C58.0235 69.9023 57.7414 69.8874 57.6226 69.5756C57.3999 69.0038 57.4444 68.8925 57.8082 68.536C58.4244 67.9272 59.011 67.296 59.5975 66.6574C59.6643 66.5832 59.6198 66.3976 59.6272 66.2713C59.5232 66.2862 59.3748 66.2713 59.3154 66.3307C58.6026 67.0658 57.8454 67.7638 57.2143 68.5657C56.8802 68.989 56.561 69.1523 56.0635 69.0855C55.774 69.0484 55.477 69.0187 55.1875 68.9667C54.6678 68.8702 54.4376 68.4172 54.6603 67.9272C55.1578 66.8579 55.7294 65.8407 56.7837 65.1947C56.8876 65.1278 56.9025 64.9199 56.9619 64.7788C56.8208 64.7937 56.6575 64.7714 56.5387 64.8308C55.4696 65.4248 54.8756 66.4273 54.3708 67.4668C54.1852 67.8455 53.9476 67.9272 53.5913 67.9123C53.1235 67.89 52.6929 67.7341 52.3885 67.4148C52.0322 67.051 51.6981 66.6352 51.4902 66.1748C51.312 65.7813 51.7426 65.4991 51.9282 65.1724C51.9579 65.1204 51.9876 65.061 52.0247 65.0164C52.3069 64.6378 52.6187 64.3185 53.0716 64.1106C53.6952 63.821 54.304 63.472 54.8682 63.0933C55.4473 62.6998 55.9893 62.2394 56.5238 61.7939C56.6129 61.7196 56.6129 61.5414 56.6575 61.4078C56.5164 61.4226 56.3457 61.3855 56.2491 61.4597C55.7369 61.831 55.2469 62.2245 54.7569 62.6107C54.7197 62.6107 54.6826 62.6107 54.6455 62.6107C54.6603 62.581 54.6752 62.5587 54.69 62.529C54.846 62.2617 55.0241 62.0018 55.1503 61.7196C55.1875 61.6379 55.1281 61.4375 55.0538 61.4003C54.6752 61.2073 54.2891 60.9994 53.8808 60.888C53.2275 60.7172 52.6187 60.8286 52.0767 61.2889C51.6387 61.6676 51.1487 61.9795 50.6958 62.3508C50.0202 62.9077 49.2555 62.9596 48.4537 62.7666C47.9265 62.6404 47.6964 62.3211 47.7187 61.8458C47.7409 61.3929 48.0453 60.9919 48.5947 60.8731C49.0031 60.784 49.3 61.0885 49.5673 61.3632C49.7232 61.5266 49.7232 61.6973 49.5822 61.8533C49.4559 61.9869 49.3 62.0909 49.1812 62.232C49.1218 62.2988 49.0996 62.4399 49.1219 62.5215C49.1367 62.5735 49.2852 62.6329 49.3594 62.6181C49.9979 62.4918 50.3394 61.5488 49.9088 61.0736C49.6935 60.836 49.4262 60.6429 49.1812 60.4276C49.3 60.3237 49.4114 60.2271 49.5153 60.1232C50.4211 59.2247 51.3788 58.4005 52.5741 57.8882C53.0122 57.7025 53.517 57.4723 53.9253 57.7322C54.4896 58.0961 54.9944 58.5861 55.4547 59.0836C55.7814 59.44 56.0413 59.8187 56.509 60.0266C56.9544 60.2271 57.3628 60.5167 57.7934 60.7543C59.3079 61.6008 60.236 63.0339 61.2976 64.3259C61.6911 64.8011 61.9213 65.41 62.2257 65.952C62.3296 65.9966 62.4558 65.9966 62.582 65.9892ZM20.1598 43.2677C20.1821 43.238 20.2118 43.2158 20.2341 43.1861H20.2266C20.3009 43.0376 20.3751 42.8891 20.4494 42.748C20.4791 42.6737 20.5088 42.592 20.5385 42.5178C20.5533 42.4955 20.5681 42.4732 20.583 42.451C20.5904 42.4287 20.6053 42.4064 20.6127 42.3841C20.88 41.8421 21.1398 41.3 21.4219 40.7654C22.0678 39.5477 22.7583 38.3448 23.3671 37.1122C24.3619 35.0999 25.7726 33.3995 27.2129 31.714C27.7771 31.0531 28.4379 30.4591 28.7794 29.6201C28.9204 29.2785 29.158 28.9889 29.3436 28.6696C30.1083 27.3331 31.3111 26.5163 32.7439 26.1821C33.9095 25.9148 35.142 25.9 36.3595 26.0782C36.9461 26.1599 37.5549 26.1673 38.1191 26.3306C39.7302 26.8059 40.7547 27.9271 41.3115 29.4864C41.3932 29.7092 41.4006 29.9542 41.4452 30.2289C41.2224 30.2067 41.0814 30.1992 40.9329 30.1844C39.5371 30.0136 38.1414 29.9245 36.7233 29.9616C34.7262 30.0136 33.2117 30.9863 31.8233 32.2635C31.7639 32.3154 31.7268 32.4862 31.7714 32.5382C31.8159 32.605 31.957 32.6273 32.0535 32.6273C32.1277 32.6199 32.2094 32.553 32.2762 32.5011C32.6771 32.1744 33.0854 31.8476 33.4789 31.5135C34.4515 30.6967 35.6468 30.5111 36.8421 30.4517C37.8741 30.3997 38.9135 30.4443 39.9455 30.5408C40.8067 30.6225 41.7124 30.6076 42.44 31.2091C42.8187 31.5209 43.227 31.8031 43.5982 32.1224C44.8084 33.1471 45.5285 34.5133 46.2115 35.9019C46.2784 36.0355 46.2784 36.2063 46.3081 36.3622C46.2635 36.3919 46.2115 36.4142 46.167 36.4439C46.0853 36.3399 46.0185 36.2211 45.9294 36.1246C45.5137 35.6865 45.0459 35.3227 44.4074 35.3004C43.9323 35.2856 43.4497 35.2856 42.9746 35.2781C42.1579 35.2633 41.3412 35.2262 40.532 35.241C39.1585 35.2633 37.7924 35.3672 36.4189 35.345C34.8895 35.3301 33.4641 35.5232 32.3579 36.7186C32.1129 36.9785 31.8456 37.2236 31.6154 37.4983C31.2962 37.877 30.8879 38.1888 30.8507 38.768C30.8062 39.4214 31.1403 39.7556 31.7862 39.6145C31.9273 39.5848 32.1054 39.5625 32.2391 39.6145C33.0186 39.9264 33.7908 40.2382 34.5555 40.5946C35.0083 40.8026 35.4389 41.0699 35.8547 41.3446C36.1739 41.5525 36.4264 41.8866 36.7605 42.0352C38.2824 42.696 39.8489 43.2009 41.4897 43.4905C42.6627 43.6984 43.8284 43.8321 45.0014 43.446C45.5359 43.2677 46.0927 43.1415 46.6124 42.941C46.8129 42.8668 46.9837 42.7777 47.0728 42.9856C47.1321 43.1341 47.1247 43.4237 47.0282 43.5054C46.3229 44.1142 45.5508 44.582 44.5559 44.4781C44.1847 44.4409 43.8209 44.4261 43.4497 44.4112C43.0637 44.3964 42.6776 44.4187 42.299 44.3815C41.074 44.2553 39.849 44.1142 38.6165 43.9806C37.5177 43.8618 36.5303 43.5202 35.7359 42.7034C35.335 42.2876 34.8747 41.9312 34.4218 41.5674C34.3476 41.508 34.1694 41.5822 34.0432 41.5971C34.0877 41.7159 34.1026 41.8644 34.1842 41.9535C34.3253 42.102 34.5109 42.2134 34.6668 42.347C35.142 42.7628 35.5726 43.2306 36.0774 43.5945C36.7976 44.1217 37.6365 44.3667 38.5274 44.4335C40.2499 44.5672 41.9723 44.7157 43.6947 44.8568C44.1253 44.8939 44.5559 44.931 45.0831 44.9756C44.5856 45.4656 44.155 45.9037 43.7096 46.327C43.1379 46.869 42.4549 47.1883 41.6976 47.3665C40.7547 47.5893 39.9455 48.2353 38.9283 48.2353C38.8541 48.2353 38.7799 48.3912 38.713 48.4803C38.8021 48.5471 38.8912 48.6808 38.9729 48.6734C39.2773 48.6585 39.5965 48.6437 39.8786 48.5471C40.6136 48.3021 41.3264 47.9754 42.0688 47.7526C43.1379 47.4333 43.9768 46.8096 44.7193 46.0077C45.2538 45.4285 45.7215 44.7528 46.5159 44.4484C46.7981 44.3444 47.0431 44.1217 47.2658 43.9138C47.83 43.4014 47.7632 42.7925 47.1099 42.3916C47.0208 42.3396 46.9243 42.2653 46.8871 42.1762C46.6718 41.6639 46.4565 41.1515 46.2784 40.6243C45.9071 39.5254 45.135 38.8571 44.1105 38.3819C43.3829 38.0478 42.6924 37.6394 42.0094 37.231C41.3932 36.8597 40.7696 36.481 40.0494 36.3994C38.1117 36.1914 36.2111 36.4365 34.3476 37.0231C33.5161 37.283 32.8553 37.773 32.3579 38.4859C32.2391 38.6566 32.1277 38.8571 31.9718 38.9759C31.8308 39.0799 31.6154 39.1022 31.4373 39.1541C31.4076 38.9908 31.3333 38.8274 31.363 38.6789C31.3853 38.5156 31.4744 38.3448 31.5857 38.226C32.0015 37.7656 32.447 37.3349 32.8627 36.882C33.5977 36.0875 34.5851 35.8796 35.58 35.7979C36.4635 35.7236 37.3544 35.7831 38.2453 35.7831C39.4926 35.6717 40.725 35.6048 41.8832 36.2211C42.4326 36.4662 43.0637 36.6073 43.5091 36.9711C44.5262 37.8027 45.4468 38.7532 46.4268 39.6368C47.0356 40.1863 47.3623 40.8545 47.4514 41.6639C47.4588 41.7604 47.6073 41.8347 47.689 41.9238C47.7558 41.8198 47.882 41.7084 47.8671 41.6193C47.83 41.2629 47.7484 40.9139 47.689 40.5649C47.6815 40.5352 47.6741 40.513 47.6593 40.4833C47.6964 40.4907 47.7335 40.4981 47.7632 40.5055C47.8671 40.409 48.0528 40.3051 48.0528 40.216C48.0305 39.6368 47.9785 39.0576 47.9043 38.4859C47.8152 37.8027 47.1915 37.476 46.8426 36.9562C46.7758 36.8523 46.7535 36.7038 46.7387 36.5776C46.7015 36.2805 46.7387 35.9538 46.6347 35.6791C46.5011 35.3004 46.3006 34.9366 46.0779 34.6024C45.5582 33.8228 45.0088 33.0654 44.4743 32.3006C44.4223 32.2263 44.3629 32.1595 44.3035 32.0853C46.4417 31.261 48.5799 31.1051 50.7478 31.7882C52.8859 32.4639 54.6975 33.6 56.0264 35.5603C55.8631 35.5677 55.8185 35.5751 55.7666 35.5751C54.7569 35.5826 53.7472 35.5677 52.7375 35.59C52.1138 35.6048 51.5125 35.7682 50.9853 36.1172C50.8962 36.1766 50.8814 36.3474 50.8369 36.4736C50.9556 36.4885 51.1115 36.5553 51.1932 36.5107C51.7575 36.184 52.3737 36.1023 53.0047 36.0355C54.1258 35.9019 55.2469 35.9019 56.3531 36.1543C56.7985 36.2583 57.14 36.533 57.4444 36.8671C57.1846 36.8449 56.9544 36.7409 56.7243 36.7186C55.3953 36.585 54.0738 36.4068 52.7375 36.5404C51.3417 36.6815 50.2503 37.3721 49.3372 38.3819C49.2703 38.4562 49.3149 38.6344 49.3075 38.7606C49.4262 38.7383 49.5747 38.7532 49.6564 38.6863C49.8123 38.5675 49.9237 38.3968 50.0722 38.2631C51.0893 37.3572 52.2623 36.882 53.6284 36.9711C54.6529 37.0379 55.6775 37.0676 56.6872 37.2236C57.0881 37.283 57.6004 37.5354 57.7934 37.8621C58.0384 38.2854 58.0532 38.8645 57.8825 39.4437C57.6449 39.1022 57.4147 38.82 57.2291 38.5007C56.9396 38.0106 56.4867 37.7805 55.9596 37.6914C54.9573 37.5206 53.9476 37.4537 52.9379 37.6394C52.6187 37.6988 52.2846 37.773 51.995 37.9141C50.577 38.6047 49.7381 39.9041 48.7581 41.055C48.6244 41.2109 48.4982 41.3966 48.4314 41.5896C48.1418 42.4138 48.1715 42.8891 49.1738 43.0673C49.7306 43.1638 50.2875 43.3049 50.8517 43.3272C52.1806 43.3717 53.517 43.394 54.846 43.3643C55.7517 43.342 56.5684 43.0301 57.2143 42.3693C57.4444 42.1317 57.6597 41.8718 57.8825 41.6193C57.9196 41.6416 57.9641 41.6565 58.0013 41.6787C57.8751 42.0426 57.8008 42.4361 57.6152 42.7703C57.1104 43.691 56.457 44.4187 55.2617 44.285C55.1281 44.2702 54.9796 44.2479 54.8534 44.285C54.7197 44.3221 54.6084 44.4261 54.4896 44.4929C54.6084 44.5672 54.7197 44.7083 54.846 44.7157C55.284 44.7454 55.722 44.7231 56.1897 44.7231C55.9596 45.1092 55.6626 45.3246 55.2543 45.3543C54.9573 45.3765 54.6603 45.3617 54.3708 45.4062C54.2817 45.4211 54.1778 45.5325 54.1406 45.629C54.1258 45.6661 54.2594 45.8295 54.3337 45.8295C55.18 45.9037 56.0041 45.874 56.5535 45.0647C56.6055 44.983 56.6649 44.9162 56.7391 44.8122C57.2514 45.332 57.7785 45.8072 57.9938 46.5052C58.2611 47.3517 57.9938 48.1387 57.6152 48.8961C56.9173 50.3069 55.9299 51.3465 54.2446 51.4207C52.8414 51.4801 51.4308 51.5395 50.0276 51.4876C48.2161 51.4207 46.4046 51.2722 44.5931 51.1089C43.4052 50.9975 42.2173 50.8267 41.0368 50.6188C39.8118 50.4035 38.5942 50.1287 37.3767 49.854C36.2705 49.6015 35.1717 49.3194 34.0729 49.0446C33.078 48.7922 32.0906 48.5249 31.0957 48.2798C30.7617 48.1981 30.4201 48.2427 30.1751 48.5174C29.6183 49.1337 29.6257 50.1807 30.2568 50.7302C30.7394 51.1534 31.2665 51.5321 31.8159 51.8588C32.6103 52.334 33.4418 52.7424 34.2585 53.1731C34.4886 53.2919 34.7188 53.4181 34.9489 53.5295C35.7136 53.9008 36.4858 54.2646 37.2505 54.6359C38.3047 55.1482 39.3367 55.7125 40.532 55.8388C41.267 55.913 42.0317 55.9279 42.7296 56.1432C43.4868 56.3808 44.2367 56.3734 44.994 56.3883C45.3281 56.3957 45.6621 56.418 45.9962 56.4254C47.095 56.4551 48.1938 56.5442 49.2926 56.4996C50.822 56.4328 52.3514 56.2769 53.8808 56.3957C54.8311 56.4699 55.6552 56.1729 56.3976 55.6086C56.4867 55.5418 56.5832 55.4749 56.7243 55.3784C56.9916 56.7224 56.3011 57.5837 55.4696 58.4302C55.2097 58.2149 54.9573 58.0218 54.7272 57.7991C54.2446 57.3238 53.6878 57.1605 53.0344 57.3313C51.9802 57.606 51.1041 58.1926 50.28 58.8609C49.3223 59.6405 48.3868 60.4499 47.4217 61.2667C47.3029 61.133 47.2584 61.0736 47.2064 61.0216C46.7535 60.5687 46.1893 60.4722 45.6324 60.6801C45.0682 60.8954 44.5411 61.2147 44.4297 61.9127C44.3332 62.5141 44.6227 62.9968 44.9865 63.3903C45.5285 63.9695 46.0334 64.5635 46.4714 65.2244C46.7312 65.6253 46.8352 66.0263 46.8352 66.4792C46.8352 66.6129 46.7609 66.754 46.7906 66.8802C46.9762 67.6599 46.5308 68.187 46.1002 68.7217C46.0185 68.8256 45.9368 68.9667 45.8255 69.0113C45.0831 69.3008 44.3481 69.687 43.5759 69.8132C42.4771 69.9988 41.3486 70.0211 40.2276 70.0582C39.1436 70.0954 38.0523 70.0582 36.9609 70.0731C36.4561 70.0805 35.9512 70.1176 35.4464 70.1548C34.6371 70.2216 33.8279 70.3404 33.0186 70.3627C32.2465 70.3849 31.467 70.3255 30.6948 70.2884C29.9079 70.2513 29.1209 70.1993 28.3339 70.1399C26.8936 70.0359 25.4904 69.7389 24.1021 69.3528C22.6544 68.9519 21.318 68.2984 20.0039 67.593C18.8754 66.9916 18.0142 66.0931 17.4722 64.9273C17.049 64.0215 16.7075 63.0859 16.5665 62.0909C16.4922 61.5785 16.3883 61.0588 16.4328 60.5538C16.5368 59.2544 16.715 57.9624 16.8634 56.6704C16.9674 55.7868 17.049 54.9106 17.1678 54.027C17.3015 53.0766 17.4574 52.1261 17.6133 51.1831C17.7395 50.4332 17.8434 49.6758 18.0216 48.9333C18.1627 48.3244 18.3631 47.7229 18.5859 47.1363C18.9497 46.1562 19.3506 45.1983 19.7292 44.2256C19.7589 44.1662 19.7886 44.1142 19.8183 44.0548H19.8109C19.8554 43.9583 19.9 43.8543 19.9519 43.7578C19.9742 43.7133 20.0039 43.6613 20.0262 43.6167C20.0559 43.4608 20.1078 43.3643 20.1598 43.2677ZM57.5335 51.9925C57.9567 52.4751 57.9641 53.0172 57.5855 53.4998C57.385 53.7597 57.1326 53.9973 56.9693 54.2795C56.3457 55.3264 54.8088 56.0987 53.4947 55.8759C53.0122 55.7942 52.5073 55.772 52.0173 55.7868C51.1338 55.8239 50.2503 55.9576 49.3594 55.965C47.5331 55.9724 45.6993 55.9205 43.8729 55.8908C43.7615 55.8908 43.6576 55.8536 43.5462 55.8314C42.685 55.6754 41.8238 55.5343 40.97 55.371C40.3167 55.2448 39.6411 55.1631 39.0323 54.918C37.8889 54.4502 36.7827 53.9008 35.6839 53.3439C34.9267 52.9652 34.2214 52.4603 33.4418 52.1261C32.4544 51.6955 31.5635 51.146 30.7245 50.4851C30.5538 50.3515 30.3979 50.1659 30.3236 49.9728C30.1751 49.5867 30.1974 49.1931 30.4721 48.8516C30.7097 48.562 31.0141 48.6734 31.2888 48.7476C32.3653 49.0446 33.4344 49.3862 34.5183 49.6535C35.58 49.9134 36.6565 50.1139 37.733 50.3292C39.4629 50.6708 41.1853 51.0346 42.9226 51.3168C44.1253 51.5098 45.3429 51.6064 46.5605 51.7103C47.5331 51.792 48.5131 51.792 49.4782 51.9034C51.0596 52.0816 52.6335 52.0296 54.2075 51.8588C54.9573 51.7771 55.722 51.6361 56.3605 51.146C57.1029 50.5742 57.6375 49.8391 58.0235 49.0001C58.2537 48.5026 58.417 47.9828 58.6175 47.4482C58.6769 47.5299 58.7437 47.619 58.8031 47.7081C59.4193 48.7031 59.3525 49.2377 58.5432 50.0767C58.2685 50.3589 58.0161 50.6633 57.7414 50.9529C57.385 51.3242 57.0213 51.688 56.6575 52.0445C56.4793 52.2152 56.264 52.3489 56.1007 52.5345C55.7294 52.9578 55.2394 53.1137 54.7123 53.1285C53.3314 53.1731 51.9505 53.1954 50.577 53.1954C49.4708 53.1954 48.3646 53.2102 47.2658 53.1211C46.2115 53.0394 45.1647 52.8612 44.1179 52.6905C43.5388 52.6013 42.9671 52.4083 42.3806 52.3266C41.1111 52.1484 39.8118 52.3786 38.5571 52.0222C38.0152 51.8662 37.4583 51.7623 36.9164 51.5915C36.2259 51.3687 35.5651 51.0272 34.8598 50.8564C33.9095 50.6336 33.0112 50.3515 32.2539 49.6981C32.1797 49.6387 32.0164 49.6758 31.8976 49.6758C31.9273 49.7946 31.9124 49.9728 31.9792 50.0248C32.4767 50.3589 32.9592 50.745 33.5086 50.9604C34.5035 51.3539 35.5503 51.6138 36.56 51.9776C37.8964 52.4528 39.255 52.7647 40.673 52.7499C41.5862 52.7424 42.492 52.7796 43.3903 53.0246C44.0214 53.1954 44.6599 53.3513 45.3058 53.4107C46.7758 53.5444 48.2384 53.8117 49.7306 53.6706C50.3914 53.6112 51.0596 53.7374 51.7278 53.7226C52.7375 53.7003 53.7472 53.6186 54.7569 53.5889C55.3656 53.5666 55.8853 53.381 56.3382 52.9652C56.7317 52.6311 57.14 52.3192 57.5335 51.9925ZM52.6261 31.9293C52.0099 31.714 51.4976 31.5135 50.9705 31.3501C48.9659 30.7264 46.9614 30.6819 44.9643 31.3576C44.6821 31.4541 44.4 31.5358 44.103 31.5878C43.962 31.61 43.7838 31.5803 43.665 31.4987C43.1527 31.1719 42.6553 30.8304 42.1653 30.474C42.054 30.3923 41.9723 30.2438 41.9277 30.1101C41.8015 29.724 41.7199 29.3305 41.6011 28.9444C41.5268 28.7142 41.408 28.4988 41.319 28.2984C41.8164 27.9197 42.3212 27.6004 42.7444 27.1994C43.3384 26.6277 43.9991 26.2935 44.8306 26.3084C45.3652 26.3158 45.8923 26.3455 46.4268 26.3381C47.8152 26.3158 48.9734 26.9469 49.9014 27.838C50.6438 28.5508 51.1412 29.5161 51.7278 30.3923C52.0396 30.8675 52.3069 31.3799 52.6261 31.9293ZM43.3903 38.6641C43.3977 38.6938 43.4126 38.7309 43.42 38.7606C42.5143 38.7606 41.6085 38.768 40.6953 38.7606C38.7799 38.7383 36.8644 38.7012 34.9638 38.9759C34.4441 39.0502 33.8947 39.1022 33.4121 39.2952C33.0186 39.4511 32.7662 39.3769 32.4767 39.169C32.7365 38.5527 33.4492 37.8621 34.058 37.6171C35.7508 36.9488 37.5177 36.7855 39.3218 36.7929C40.0643 36.8003 40.7324 37.0082 41.3561 37.3795C42.0465 37.7953 42.7147 38.2334 43.3903 38.6641ZM41.95 39.1616C42.8038 39.1616 43.5908 39.1616 44.3703 39.1616C44.4743 39.1616 44.6005 39.1838 44.6821 39.2432C45.0979 39.5625 45.4765 39.9115 45.6696 40.4164C45.8774 40.9585 46.1002 41.4931 46.3081 42.0352C46.36 42.1762 46.3674 42.3322 46.3823 42.399C44.89 43.0004 43.4349 43.4534 41.8683 43.0004C42.7221 41.6268 42.7815 40.2902 41.95 39.1616ZM42.0836 35.8053C42.0911 35.7831 42.0985 35.7534 42.1059 35.7311C42.8187 35.7311 43.524 35.7236 44.2367 35.7311C44.7564 35.7385 45.1721 35.9761 45.5285 36.3548C46.0259 36.882 46.5456 37.3943 47.0653 37.8993C47.5034 38.3299 47.6964 39.4808 47.4959 40.1863C47.2509 39.9115 47.0134 39.6145 46.7387 39.3472C46.0334 38.6641 45.2761 38.0181 44.6005 37.3052C44.014 36.6889 43.3532 36.2286 42.544 35.9761C42.3955 35.9316 42.2396 35.8647 42.0836 35.8053ZM57.9047 40.3645C57.8751 40.3867 57.8528 40.409 57.8231 40.4313C57.1326 40.0823 56.457 39.711 55.7517 39.3917C55.4028 39.2284 55.0167 39.0947 54.6306 39.0502C53.8214 38.9611 53.0047 38.9388 52.1955 38.8794C51.9876 38.8645 51.7723 38.8274 51.5644 38.8051C51.557 38.7606 51.5422 38.716 51.5347 38.6789C51.9134 38.4859 52.2697 38.1814 52.6632 38.1146C53.6729 37.9364 54.7049 37.929 55.722 38.1072C56.2194 38.1963 56.6426 38.3745 56.9247 38.872C57.1549 39.2878 57.5038 39.6368 57.786 40.0229C57.8602 40.112 57.8676 40.2457 57.9047 40.3645ZM54.5787 39.4808C54.6975 39.4957 54.7494 39.4957 54.7866 39.518C55.4102 39.8076 56.0264 40.1046 56.6426 40.3942C56.9322 40.5278 57.2291 40.6466 57.5187 40.7803C57.7191 40.8694 57.734 41.0253 57.6004 41.1664C57.2291 41.5599 56.8654 41.9683 56.4496 42.3099C55.9447 42.7183 55.3211 42.8148 54.6529 42.8445C55.5364 41.6862 55.3582 40.6021 54.5787 39.4808ZM53.569 61.3409C52.4925 62.7517 51.2006 63.8433 49.8717 65.0016C49.7975 64.3927 49.7306 63.8804 49.6712 63.4349C50.087 63.2121 50.4953 63.0413 50.8517 62.7963C51.3937 62.4324 51.9059 62.0241 52.4182 61.6157C52.73 61.3706 53.0641 61.2518 53.569 61.3409ZM50.1167 65.4545C50.1315 65.3877 50.1315 65.3729 50.139 65.3654C51.4828 64.1774 52.8859 63.0413 53.9328 61.5563C53.9773 61.4894 54.1703 61.4597 54.2446 61.4969C54.3411 61.5488 54.4525 61.6825 54.4525 61.7939C54.4599 61.9275 54.3931 62.0909 54.3114 62.2023C53.8066 62.8408 53.4279 63.6131 52.5444 63.8581C52.4628 63.8804 52.3959 63.9472 52.3291 63.9992C51.6461 64.5932 51.119 65.2912 50.9037 66.2342C50.629 65.9595 50.3617 65.6996 50.1167 65.4545ZM33.6942 39.711C33.6942 39.6813 33.6942 39.6516 33.7017 39.6145C34.793 39.4883 35.8918 39.362 36.9683 39.2358C36.6491 39.7704 36.3373 40.2902 36.07 40.7283C35.3127 40.409 34.5035 40.06 33.6942 39.711ZM40.532 41.6342C40.1162 41.6342 39.7821 41.352 39.7896 41.003C39.797 40.6021 40.287 40.1937 40.7473 40.1937C41.1408 40.1937 41.4452 40.4536 41.4377 40.7951C41.4303 41.3223 41.0962 41.6268 40.532 41.6342ZM50.0722 40.2976C49.842 41.0921 49.5747 41.8718 49.894 42.7331C49.545 42.644 49.2629 42.5772 48.9808 42.4955C48.81 42.451 48.7135 42.3619 48.7581 42.1465C48.9214 41.3372 49.4708 40.81 50.0722 40.2976ZM54.3114 41.1664C54.3114 41.5896 54.1258 41.7901 53.7249 41.7901C53.3388 41.7901 53.1309 41.5896 53.1235 41.2109C53.1161 40.8545 53.324 40.5501 53.5764 40.5575C54.1184 40.5724 54.3114 40.7357 54.3114 41.1664ZM38.1636 40.3867C38.1042 40.3867 38.0449 40.3942 37.9855 40.3942C37.8815 40.2605 37.6885 40.112 37.7033 39.9932C37.733 39.8447 37.9112 39.6294 38.0523 39.6145C38.1711 39.5997 38.4161 39.8076 38.4309 39.9338C38.4532 40.0749 38.2602 40.2382 38.1636 40.3867ZM38.7724 41.2555C38.5497 41.4263 38.4161 41.6045 38.2973 41.5971C38.1711 41.5896 38.0523 41.3966 37.9335 41.2852C38.0597 41.159 38.1711 40.9882 38.327 40.9288C38.4012 40.9065 38.5497 41.0921 38.7724 41.2555ZM51.4382 40.8917C51.2823 40.654 51.119 40.5055 51.1412 40.3942C51.1635 40.2531 51.3343 40.1269 51.4382 40.0006C51.557 40.1046 51.7723 40.216 51.7649 40.3199C51.7575 40.4833 51.6015 40.6318 51.4382 40.8917ZM51.5422 41.404C51.6758 41.6193 51.8094 41.7381 51.7946 41.8347C51.7723 41.9535 51.6238 42.0426 51.5273 42.1465C51.4234 42.0352 51.26 41.946 51.2303 41.8198C51.2081 41.7381 51.3788 41.6045 51.5422 41.404Z" fill="#040703"/>
<path d="M60.7114 71.276C60.7856 71.3873 61.0677 71.2017 61.0083 71.4913C61.9215 71.2388 62.7307 70.7562 63.4806 70.1919C63.9558 69.8355 64.1785 69.3305 63.9261 68.692C63.5474 67.7564 63.2579 66.7837 62.5897 65.9966C62.4635 65.9966 62.3298 65.9966 62.2036 66.004C62.3818 66.2936 62.6045 66.5683 62.7382 66.8728C63.05 67.593 63.3395 68.3207 63.592 69.0632C63.6514 69.2489 63.5845 69.5533 63.4583 69.7018C63.243 69.9543 62.9609 70.177 62.6639 70.333C62.0254 70.6671 61.3647 70.9641 60.7114 71.276Z" fill="#080D05"/>
<path d="M19.7074 44.1811C19.3213 45.1464 18.9278 46.1117 18.564 47.0918C18.3487 47.6784 18.1409 48.2799 17.9998 48.8887C17.829 49.6313 17.7177 50.3887 17.5915 51.1386C17.4356 52.089 17.2796 53.0321 17.146 53.9825C17.0272 54.8587 16.9381 55.7423 16.8416 56.6259C16.6931 57.9179 16.5149 59.2099 16.411 60.5093C16.3665 61.0143 16.4778 61.534 16.5446 62.0464C16.6857 63.0414 17.0272 63.9844 17.4504 64.8828C17.9924 66.0486 18.8536 66.9396 19.9821 67.5485C21.2962 68.2539 22.6325 68.9073 24.0803 69.3083C25.4686 69.6944 26.8718 69.9989 28.3121 70.0954C29.0991 70.1474 29.886 70.1993 30.673 70.2439C31.4451 70.281 32.2247 70.3479 32.9968 70.3182C33.806 70.2959 34.6153 70.1696 35.4245 70.1102C35.9294 70.0657 36.4342 70.0286 36.9391 70.0286C38.0304 70.0137 39.1144 70.0508 40.2057 70.0137C41.3268 69.9766 42.4553 69.9543 43.5541 69.7687C44.3262 69.635 45.0612 69.2563 45.8036 68.9667C45.915 68.9222 45.9967 68.7811 46.0783 68.6772C46.5164 68.1425 46.9618 67.6153 46.7688 66.8357C46.7391 66.7095 46.8133 66.5684 46.8133 66.4347C46.8133 65.9818 46.7094 65.5808 46.4496 65.1798C46.0115 64.5116 45.5141 63.9175 44.9647 63.3458C44.6009 62.9597 44.3114 62.477 44.4079 61.8682C44.5267 61.1702 45.0538 60.8435 45.6106 60.6356C46.16 60.4277 46.7317 60.5168 47.1846 60.9771C47.2365 61.0291 47.2811 61.0885 47.3999 61.2222C48.365 60.4054 49.3005 59.596 50.2582 58.8164C51.0823 58.1481 51.9584 57.5541 53.0126 57.2868C53.6734 57.116 54.2227 57.2868 54.7053 57.7546C54.9355 57.9773 55.1879 58.1704 55.4478 58.3857C56.2793 57.5392 56.9697 56.6779 56.7025 55.3339C56.5688 55.4304 56.4723 55.4898 56.3758 55.5641C55.6259 56.1284 54.8018 56.4254 53.859 56.3512C52.3296 56.2324 50.8002 56.3883 49.2708 56.4551C48.172 56.4997 47.0732 56.4106 45.9744 56.3809C45.6403 56.3734 45.3062 56.3512 44.9721 56.3437C44.2074 56.3289 43.465 56.3437 42.7077 56.0987C42.0098 55.876 41.2451 55.8685 40.5101 55.7943C39.3074 55.6755 38.2754 55.1037 37.2286 54.5914C36.4639 54.2201 35.6918 53.8563 34.9271 53.485C34.697 53.3736 34.4668 53.2474 34.2366 53.1286C33.42 52.6905 32.5885 52.2821 31.7941 51.8143C31.2447 51.4876 30.7175 51.1089 30.235 50.6857C29.6113 50.1362 29.5965 49.0892 30.1533 48.4729C30.4057 48.1982 30.7398 48.1536 31.0739 48.2353C32.0688 48.4804 33.0562 48.7477 34.051 49.0001C35.1498 49.2749 36.2486 49.557 37.3548 49.8095C38.5724 50.0842 39.79 50.359 41.015 50.5743C42.1955 50.7822 43.3759 50.953 44.5712 51.0644C46.3753 51.2351 48.1868 51.3762 50.0058 51.443C51.409 51.495 52.8196 51.4356 54.2227 51.3762C55.9006 51.302 56.8955 50.2624 57.5934 48.8516C57.972 48.0942 58.2393 47.3146 57.972 46.4607C57.7567 45.7701 57.2296 45.2875 56.7173 44.7677C56.6431 44.8642 56.5837 44.9385 56.5317 45.0202C55.9823 45.8295 55.1582 45.8592 54.3118 45.785C54.2376 45.7775 54.104 45.6216 54.1188 45.5845C54.1559 45.488 54.2599 45.3766 54.349 45.3617C54.6385 45.3246 54.9429 45.332 55.2325 45.3098C55.6408 45.2801 55.9378 45.0647 56.1679 44.6786C55.7002 44.6786 55.2621 44.6935 54.8241 44.6712C54.6979 44.6638 54.5865 44.5301 54.4678 44.4484C54.5865 44.3742 54.7053 44.2702 54.8315 44.2405C54.9578 44.2034 55.1062 44.2257 55.2399 44.2405C56.4352 44.3816 57.0885 43.6465 57.5934 42.7258C57.779 42.3916 57.8532 41.9981 57.9794 41.6342C57.9423 41.612 57.8978 41.5971 57.8606 41.5748C57.6379 41.8273 57.43 42.0872 57.1925 42.3248C56.5465 42.9856 55.7299 43.3049 54.8241 43.3198C53.4952 43.3495 52.1588 43.3346 50.8299 43.2826C50.2656 43.2604 49.7088 43.1193 49.152 43.0228C48.1497 42.852 48.12 42.3693 48.4096 41.5451C48.4764 41.3521 48.6026 41.1664 48.7362 41.0105C49.7088 39.8596 50.5552 38.5602 51.9732 37.8696C52.2627 37.7285 52.5968 37.6543 52.9161 37.5949C53.9258 37.4167 54.9355 37.4761 55.9378 37.6468C56.4649 37.736 56.9178 37.9661 57.2073 38.4562C57.3929 38.7755 57.6231 39.0577 57.8606 39.3992C58.0314 38.8275 58.0165 38.2409 57.7715 37.8176C57.5785 37.4909 57.0662 37.2385 56.6653 37.1791C55.6556 37.0231 54.6237 36.9934 53.6065 36.9266C52.233 36.8375 51.06 37.3201 50.0503 38.2186C49.9018 38.3523 49.7905 38.523 49.6346 38.6418C49.5455 38.7087 49.4044 38.6938 49.2856 38.7161C49.293 38.5899 49.2485 38.4117 49.3153 38.3374C50.2359 37.3276 51.3199 36.6444 52.7156 36.4959C54.0594 36.3623 55.3809 36.5405 56.7025 36.6741C56.94 36.6964 57.1702 36.8004 57.4226 36.8226C57.1182 36.4959 56.7767 36.2138 56.3312 36.1098C55.225 35.8574 54.104 35.8574 52.9829 35.991C52.3593 36.0653 51.7356 36.1395 51.1714 36.4662C51.0897 36.5182 50.9338 36.4439 50.815 36.4291C50.8596 36.3103 50.8744 36.1321 50.9635 36.0727C51.4906 35.7237 52.092 35.5603 52.7156 35.5455C53.7253 35.5158 54.735 35.5306 55.7447 35.5306C55.7893 35.5306 55.8412 35.5232 56.0046 35.5158C54.6756 33.5555 52.8641 32.412 50.7259 31.7437C48.558 31.0606 46.4199 31.2165 44.2817 32.0407C44.3411 32.115 44.4005 32.1893 44.4524 32.2561C44.987 33.0209 45.5364 33.7783 46.0561 34.5579C46.2788 34.8921 46.4792 35.2559 46.6129 35.6346C46.7094 35.9093 46.6797 36.2286 46.7168 36.5331C46.7317 36.6667 46.7465 36.8078 46.8208 36.9117C47.1623 37.4315 47.7859 37.7582 47.8824 38.4414C47.9567 39.0131 48.0086 39.5923 48.0309 40.1714C48.0383 40.268 47.8453 40.3645 47.7414 40.461C47.7117 40.4833 47.6894 40.5056 47.6597 40.5204C47.7265 40.8694 47.8008 41.2184 47.8379 41.5748C47.8453 41.6714 47.7191 41.7827 47.6597 41.8793C47.578 41.7902 47.4296 41.7159 47.4221 41.6194C47.333 40.81 47.0064 40.1417 46.3976 39.5923C45.4176 38.7087 44.497 37.7582 43.4799 36.9266C43.027 36.5628 42.3959 36.4142 41.8539 36.1766C41.802 36.1915 41.7351 36.2286 41.6906 36.2063C40.718 35.7311 39.6712 35.7979 38.6392 35.8054C38.4982 35.8054 38.3571 35.7608 38.216 35.7385C37.3251 35.7385 36.4342 35.6791 35.5507 35.7534C34.5559 35.8351 33.5685 36.0504 32.8335 36.8375C32.4103 37.2904 31.9722 37.7211 31.5565 38.1815C31.4451 38.3003 31.356 38.4785 31.3338 38.6344C31.3115 38.7829 31.3783 38.9537 31.408 39.1096C31.5862 39.0502 31.8015 39.0354 31.9426 38.9314C32.1059 38.8126 32.2098 38.6121 32.3286 38.4414C32.826 37.7211 33.4868 37.2385 34.3183 36.9786C36.1744 36.392 38.075 36.1469 40.0201 36.3548C40.7403 36.4291 41.3639 36.8152 41.9802 37.1865C42.6632 37.5949 43.3611 38.0033 44.0812 38.3374C45.1058 38.8126 45.8779 39.4883 46.2491 40.5798C46.4273 41.107 46.6426 41.6194 46.8579 42.1317C46.895 42.2208 46.9915 42.2951 47.0806 42.3471C47.7265 42.748 47.8008 43.3569 47.2365 43.8692C47.0064 44.0772 46.7614 44.2999 46.4867 44.4039C45.6849 44.7009 45.2246 45.3766 44.69 45.9632C43.9476 46.7725 43.1086 47.3888 42.0395 47.7081C41.2971 47.9309 40.5844 48.2576 39.8494 48.5026C39.5598 48.5992 39.248 48.614 38.9436 48.6289C38.862 48.6363 38.7729 48.5026 38.6838 48.4358C38.758 48.3541 38.8323 48.1908 38.8991 48.1908C39.9162 48.1908 40.7254 47.5448 41.6683 47.322C42.4256 47.1438 43.1161 46.8171 43.6803 46.2825C44.1258 45.8592 44.5564 45.4286 45.0538 44.9311C44.5267 44.8865 44.0961 44.842 43.6655 44.8123C41.943 44.6712 40.2206 44.5227 38.4982 44.389C37.6073 44.3222 36.7683 44.0697 36.0482 43.55C35.5433 43.1787 35.1053 42.7183 34.6376 42.3025C34.4816 42.1614 34.296 42.0575 34.155 41.909C34.0733 41.8199 34.0585 41.6788 34.0139 41.5526C34.1401 41.5377 34.3183 41.4634 34.3926 41.5229C34.8454 41.8793 35.3057 42.2431 35.7067 42.6589C36.501 43.4757 37.4885 43.8173 38.5873 43.9361C39.8123 44.0697 41.0373 44.2182 42.2697 44.337C42.6483 44.3742 43.0344 44.3519 43.4205 44.3667C43.7917 44.3816 44.1629 44.3964 44.5267 44.4336C45.5215 44.5375 46.2936 44.0697 46.9989 43.4609C47.0955 43.3792 47.1029 43.0896 47.0435 42.9411C46.9544 42.7332 46.7836 42.8149 46.5832 42.8965C46.0561 43.097 45.5067 43.2307 44.9721 43.4015C43.8065 43.7801 42.6335 43.6465 41.4605 43.446C39.8271 43.1638 38.2532 42.6515 36.7312 41.9906C36.3971 41.8421 36.1447 41.508 35.8254 41.3001C35.4097 41.0254 34.9791 40.758 34.5262 40.5501C33.7689 40.1937 32.9894 39.8819 32.2098 39.57C32.0762 39.518 31.9054 39.5329 31.7569 39.57C31.111 39.7111 30.7769 39.3769 30.8215 38.7235C30.8586 38.1443 31.2669 37.8399 31.5862 37.4538C31.8163 37.1791 32.0836 36.9414 32.3286 36.6741C33.4348 35.4787 34.8603 35.2856 36.3897 35.3005C37.7557 35.3153 39.1292 35.2188 40.5027 35.1965C41.3194 35.1817 42.1361 35.2188 42.9453 35.2336C43.4205 35.2411 43.903 35.2411 44.3782 35.2559C45.0167 35.2782 45.4844 35.6346 45.9002 36.0801C45.9892 36.1766 46.0635 36.2954 46.1377 36.3994C46.1823 36.3697 46.2342 36.3474 46.2788 36.3177C46.2491 36.1618 46.2491 35.9984 46.1823 35.8574C45.5067 34.4688 44.7791 33.1026 43.5689 32.0779C43.1903 31.7586 42.7894 31.4764 42.4108 31.1646C41.6758 30.5631 40.77 30.5705 39.9162 30.4963C38.8842 30.3998 37.8448 30.3552 36.8129 30.4072C35.6176 30.4666 34.4223 30.6522 33.4497 31.469C33.0562 31.8031 32.6479 32.1299 32.2469 32.4566C32.1801 32.5085 32.1059 32.5828 32.0242 32.5828C31.9277 32.5902 31.7866 32.5605 31.7421 32.4937C31.705 32.4417 31.7347 32.2709 31.7941 32.219C33.1898 30.9418 34.7044 29.9765 36.6941 29.9171C38.1121 29.88 39.5079 29.9691 40.9036 30.1399C41.0521 30.1547 41.1932 30.1696 41.4159 30.1844C41.3639 29.9097 41.3565 29.6647 41.2823 29.4419C40.7254 27.8826 39.7009 26.7688 38.0898 26.2861C37.5256 26.1228 36.9168 26.1154 36.3303 26.0337C35.1201 25.8629 33.8877 25.8703 32.7147 26.1376C31.2818 26.4718 30.0791 27.2886 29.3144 28.6251C29.1288 28.9444 28.8838 29.2414 28.7501 29.5756C28.4086 30.4146 27.7478 31.0012 27.1836 31.6695C25.7433 33.3625 24.3327 35.0628 23.3378 37.0677C22.729 38.3077 22.0386 39.5032 21.3927 40.7209C21.1106 41.2555 20.8507 41.7976 20.5834 42.3396C20.576 42.3619 20.5612 42.3842 20.5537 42.4065C20.5389 42.4287 20.524 42.451 20.5092 42.4733C20.4795 42.5475 20.4498 42.6292 20.4201 42.7035C20.3459 42.852 20.2716 43.0005 20.1974 43.1416H20.2048C20.1825 43.1713 20.1528 43.1935 20.1306 43.2232C20.0786 43.3198 20.0266 43.4237 19.9672 43.5203C19.945 43.5648 19.9153 43.6168 19.893 43.6613C20.0786 43.8692 19.9524 43.9286 19.7519 43.9584H19.7593C19.7668 44.0623 19.7371 44.1217 19.7074 44.1811ZM51.5723 45.4434C51.5946 45.488 51.6243 45.5399 51.654 45.5919C51.6688 45.6142 51.6911 45.6365 51.7059 45.6587C51.7356 45.6959 51.7653 45.7256 51.795 45.7627C51.9435 45.9335 52.092 46.0894 52.2256 46.2676C52.5003 46.6315 52.775 46.9953 53.02 47.374C53.0646 47.4482 52.9755 47.6042 52.9458 47.7304C52.8344 47.6784 52.7231 47.6413 52.6191 47.5745C52.582 47.5522 52.5746 47.4854 52.5449 47.4482C51.8841 46.5572 51.2456 45.6439 50.2805 45.0424C49.8944 44.8048 49.4787 44.6118 49.0926 44.3742C49.0109 44.3222 48.9961 44.1588 48.9515 44.0475C49.0703 44.0252 49.204 43.9509 49.3079 43.9806C49.6346 44.0772 49.9538 44.2257 50.273 44.3445C51.1046 44.6341 51.9509 44.7529 52.8196 44.5746C52.9977 44.5375 53.2279 44.4187 53.2576 44.6935C53.2724 44.7974 53.0571 44.9385 52.9309 45.0499C52.8938 45.087 52.8121 45.0721 52.7527 45.087C52.6043 45.1093 52.4558 45.1241 52.3073 45.1464C52.0846 45.1464 51.8618 45.1464 51.6391 45.139C51.5871 45.2206 51.5277 45.2949 51.4758 45.3766V45.3692C51.5203 45.3914 51.5426 45.4137 51.5723 45.4434ZM32.1727 47.1809C32.1727 47.1958 32.1727 47.2106 32.1801 47.2255C32.3063 47.2255 32.44 47.1884 32.5439 47.2329C32.6553 47.2849 32.7369 47.4111 32.8335 47.5076C32.7295 47.567 32.633 47.6784 32.5216 47.6858C32.2172 47.7155 31.9054 47.6784 31.601 47.7155C30.6285 47.8269 29.6856 48.0126 29.1436 48.9704C29.0991 49.0521 28.9283 49.067 28.8169 49.1115C28.8021 48.9853 28.7353 48.8293 28.7872 48.7328C29.1585 48.0423 29.7598 47.619 30.5097 47.4408C31.0516 47.3146 31.6159 47.27 32.1727 47.1809ZM31.705 45.5845C31.846 45.681 32.1059 45.7627 32.1207 45.8815C32.1579 46.2082 31.8386 46.1043 31.6604 46.1488C31.2595 46.2453 30.8512 46.327 30.4354 46.3938C30.2869 46.4161 30.0419 46.4384 29.9974 46.3641C29.8712 46.1562 30.0494 46.0152 30.235 45.9558C30.6953 45.8221 31.163 45.7181 31.705 45.5845Z" fill="#559248"/>
<path d="M60.7113 71.2759C61.3647 70.9641 62.0254 70.6671 62.6565 70.3329C62.9535 70.177 63.2356 69.9542 63.4509 69.7018C63.5771 69.5533 63.6439 69.2414 63.5845 69.0632C63.3395 68.3207 63.0425 67.593 62.7307 66.8727C62.5971 66.5609 62.3744 66.2936 62.1962 66.004C61.8918 65.4545 61.6542 64.8531 61.2681 64.3778C60.2065 63.0858 59.2859 61.6528 57.7639 60.8063C57.3333 60.5687 56.925 60.2791 56.4795 60.0786C56.0118 59.8707 55.7519 59.4846 55.4253 59.1356C54.965 58.6381 54.4675 58.1406 53.8959 57.7842C53.495 57.5243 52.9901 57.7545 52.5446 57.9401C51.3493 58.445 50.3916 59.2767 49.4859 60.1751C49.3819 60.2791 49.2705 60.3756 49.1518 60.4796C49.3968 60.6949 49.664 60.888 49.8793 61.1256C50.3099 61.6008 49.9759 62.5438 49.3299 62.67C49.2557 62.6849 49.1072 62.6255 49.0924 62.5735C49.0627 62.4918 49.0924 62.3507 49.1518 62.2839C49.2705 62.1428 49.4265 62.0389 49.5527 61.9052C49.7012 61.7493 49.7012 61.5711 49.5378 61.4152C49.2631 61.1404 48.9736 60.836 48.5652 60.9251C48.0233 61.0439 47.7115 61.4449 47.6892 61.8978C47.6669 62.373 47.8971 62.6849 48.4242 62.8185C49.226 63.0116 49.9907 62.9596 50.6663 62.4027C51.1118 62.0315 51.6018 61.7196 52.0472 61.3409C52.5892 60.8805 53.198 60.7692 53.8513 60.9399C54.2596 61.0439 54.6457 61.2592 55.0243 61.4523C55.0986 61.4894 55.158 61.6973 55.1209 61.7716C54.9947 62.0537 54.8165 62.3136 54.6606 62.5809C54.6828 62.6106 54.7051 62.6329 54.7274 62.6626C55.2248 62.2765 55.7148 61.8829 56.2197 61.5117C56.3162 61.4449 56.4869 61.4746 56.628 61.4597C56.5834 61.5934 56.5834 61.7716 56.4944 61.8458C55.9524 62.2988 55.4178 62.7517 54.8387 63.1452C54.2671 63.5314 53.6657 63.8729 53.0421 64.1625C52.5892 64.3704 52.2774 64.6897 51.9952 65.0684C51.9581 65.1204 51.9284 65.1724 51.8987 65.2243C51.7206 65.551 51.2825 65.8406 51.4607 66.2267C51.6686 66.6797 52.0027 67.1029 52.359 67.4668C52.6709 67.7861 53.1015 67.942 53.5618 67.9643C53.9256 67.9791 54.1631 67.8974 54.3413 67.5188C54.8536 66.4718 55.4401 65.4694 56.5092 64.8828C56.628 64.8159 56.7913 64.8456 56.9324 64.8308C56.873 64.9719 56.8581 65.1798 56.7542 65.2466C55.7 65.8926 55.1283 66.9099 54.6309 67.9791C54.4007 68.4692 54.6309 68.9221 55.158 69.0187C55.4475 69.0706 55.7445 69.1003 56.034 69.1375C56.524 69.2043 56.8507 69.0335 57.1848 68.6177C57.8159 67.8158 58.5731 67.1104 59.2859 66.3827C59.3453 66.3233 59.4938 66.3381 59.5977 66.3233C59.5903 66.4569 59.6348 66.6351 59.568 66.7094C58.9889 67.348 58.395 67.9791 57.7787 68.588C57.415 68.9444 57.3704 69.0558 57.5931 69.6275C57.7119 69.9394 57.9941 69.9542 58.2688 69.9691C58.6994 69.9839 59.0557 69.8503 59.3453 69.5087C59.8427 68.8999 60.3624 68.3058 60.8747 67.7044C60.9192 67.645 60.9638 67.5707 61.0306 67.5485C61.1642 67.5039 61.3647 67.4074 61.4389 67.4668C61.6319 67.6227 61.4612 67.7489 61.3424 67.89C60.9489 68.3504 60.5851 68.833 60.1842 69.286C59.6571 69.8651 59.1671 70.5111 58.2316 70.422C57.5263 70.3552 57.311 70.2141 57.1031 69.5904C56.524 69.5904 55.9672 69.6127 55.4104 69.583C54.6828 69.5533 54.1854 69.2191 54.0889 68.4246C53.0495 68.5583 52.2774 68.1276 51.5869 67.4074C51.134 66.9396 50.5846 66.5683 50.1021 66.1302C49.5972 65.6698 49.3002 65.1055 49.3299 64.3927C49.3374 64.259 49.3002 64.1254 49.278 63.9917C49.2112 63.613 49.1072 63.3606 48.6024 63.316C47.704 63.2492 47.3477 62.774 47.1843 61.8904C47.073 61.2518 46.3602 60.8211 45.6995 61.1256C44.7343 61.5785 44.5933 62.0389 45.2614 63.0339C45.358 63.1749 45.5064 63.2789 45.6104 63.42C46.1078 64.0734 46.6424 64.7046 47.0878 65.3951C47.2512 65.6476 47.2289 66.0337 47.2586 66.3604C47.318 67.0064 47.3254 67.6598 47.4219 68.3058C47.4813 68.7291 47.7486 69.0335 48.1421 69.2711C48.9884 69.776 49.8051 70.3329 50.6218 70.8824C51.2231 71.2834 51.8987 71.4839 52.604 71.5358C53.881 71.6398 55.1654 71.6398 56.435 71.7809C57.8307 71.9368 59.1597 71.7066 60.4812 71.3354C60.5628 71.276 60.6371 71.2834 60.7113 71.2759Z" fill="#549248"/>
<path d="M57.5334 51.9924C57.14 52.3192 56.7316 52.631 56.353 52.98C55.9001 53.3958 55.3804 53.5815 54.7716 53.6037C53.7619 53.6334 52.7522 53.7151 51.7425 53.7374C51.0743 53.7522 50.4062 53.626 49.7454 53.6854C48.2531 53.8265 46.7905 53.5592 45.3205 53.4255C44.6746 53.3661 44.0287 53.2102 43.4051 53.0394C42.5142 52.7944 41.6084 52.7498 40.6878 52.7647C39.2623 52.7795 37.9037 52.4677 36.5748 51.9924C35.5651 51.636 34.5182 51.3687 33.5234 50.9752C32.974 50.7598 32.4914 50.3737 31.994 50.0396C31.9198 49.9876 31.9346 49.8094 31.9123 49.6906C32.0311 49.698 32.1945 49.6535 32.2687 49.7129C33.0185 50.3663 33.9169 50.6485 34.8746 50.8712C35.5799 51.0346 36.2407 51.3761 36.9311 51.6063C37.4657 51.7771 38.0299 51.8811 38.5719 52.037C39.8266 52.3934 41.1333 52.1632 42.3954 52.3414C42.9819 52.4231 43.5461 52.6162 44.1327 52.7053C45.1795 52.8686 46.2263 53.0543 47.2805 53.1359C48.3793 53.2176 49.4855 53.2102 50.5918 53.2102C51.9727 53.2102 53.3536 53.1805 54.7271 53.1434C55.2542 53.1285 55.7442 52.9726 56.1154 52.5493C56.2787 52.3637 56.494 52.2301 56.6722 52.0593C57.0434 51.7029 57.3998 51.339 57.7562 50.9678C58.0309 50.6856 58.2833 50.3812 58.558 50.0916C59.3672 49.2525 59.4341 48.7179 58.8178 47.7229C58.7584 47.6338 58.6916 47.5447 58.6322 47.463C58.4318 47.9902 58.2684 48.5174 58.0383 49.0149C57.6522 49.854 57.1177 50.5816 56.3753 51.1608C55.7368 51.6509 54.9721 51.792 54.2222 51.8736C52.6483 52.0444 51.0743 52.0964 49.493 51.9182C48.5278 51.8068 47.5478 51.8142 46.5752 51.7251C45.3577 51.6212 44.1401 51.5247 42.9374 51.3316C41.2001 51.0494 39.4776 50.6856 37.7478 50.344C36.6713 50.1287 35.5948 49.9282 34.5331 49.6683C33.4492 49.401 32.3801 49.0595 31.3035 48.7624C31.0288 48.6882 30.7245 48.5694 30.4869 48.8664C30.2122 49.208 30.1899 49.6015 30.3384 49.9876C30.4126 50.1807 30.576 50.3663 30.7393 50.5C31.5708 51.1608 32.4692 51.7103 33.4566 52.1409C34.2361 52.4751 34.934 52.98 35.6987 53.3587C36.8049 53.9082 37.9111 54.4651 39.047 54.9329C39.6558 55.1779 40.3314 55.2596 40.9848 55.3858C41.8386 55.5566 42.6998 55.6977 43.561 55.8462C43.6724 55.8684 43.7763 55.9056 43.8877 55.9056C45.714 55.9353 47.5478 55.9873 49.3742 55.9798C50.2577 55.9724 51.1412 55.8387 52.0321 55.8016C52.5221 55.7793 53.0269 55.8016 53.5095 55.8907C54.8236 56.1209 56.3604 55.3413 56.984 54.2943C57.1548 54.0121 57.3998 53.7819 57.6003 53.5146C57.9641 53.0171 57.9566 52.4751 57.5334 51.9924Z" fill="#316423"/>
<path d="M52.626 31.9293C52.3067 31.3798 52.0395 30.8675 51.7202 30.3923C51.1411 29.5235 50.6363 28.5508 49.8939 27.8379C48.9584 26.9469 47.8002 26.3158 46.4193 26.338C45.8848 26.3455 45.3576 26.3158 44.8231 26.3083C43.999 26.2935 43.3308 26.6276 42.7369 27.1994C42.3137 27.6078 41.8088 27.9196 41.3114 28.2983C41.4005 28.5062 41.5193 28.7141 41.5935 28.9443C41.7197 29.3304 41.8014 29.724 41.9202 30.1101C41.9647 30.2437 42.0464 30.3923 42.1578 30.4739C42.6478 30.8303 43.1452 31.1719 43.6575 31.4986C43.7763 31.5729 43.9544 31.61 44.0955 31.5877C44.3851 31.5432 44.6746 31.4541 44.9567 31.3575C46.9613 30.6818 48.9658 30.7264 50.9629 31.3501C51.4975 31.5209 52.0098 31.714 52.626 31.9293Z" fill="#549248"/>
<path d="M43.3906 38.6641C42.715 38.2408 42.0468 37.8027 41.3638 37.3943C40.7402 37.0231 40.072 36.8077 39.3295 36.8077C37.5254 36.8003 35.7585 36.9637 34.0657 37.6319C33.457 37.8696 32.7442 38.5601 32.4844 39.1838C32.7739 39.3992 33.0338 39.466 33.4198 39.3101C33.9024 39.117 34.4444 39.065 34.9715 38.9908C36.8721 38.7086 38.7876 38.7457 40.703 38.7754C41.6088 38.7903 42.5146 38.7754 43.4277 38.7754C43.4129 38.7309 43.4055 38.6938 43.3906 38.6641Z" fill="#549248"/>
<path d="M41.9505 39.1616C42.782 40.2903 42.7227 41.6268 41.8689 43.0005C43.4354 43.4609 44.8905 43.0005 46.3828 42.3991C46.368 42.3322 46.3605 42.1763 46.3086 42.0352C46.1007 41.4932 45.878 40.9585 45.6701 40.4165C45.4771 39.9116 45.0984 39.5626 44.6827 39.2433C44.601 39.1839 44.4748 39.1616 44.3708 39.1616C43.5913 39.1542 42.8043 39.1616 41.9505 39.1616Z" fill="#F6F9F8"/>
<path d="M42.0841 35.8054C42.24 35.8648 42.3959 35.9316 42.5518 35.9836C43.361 36.2435 44.0218 36.6964 44.6083 37.3127C45.2913 38.0255 46.0412 38.6715 46.7465 39.3547C47.0212 39.6145 47.2588 39.919 47.5038 40.1937C47.7042 39.4883 47.5112 38.33 47.0732 37.9067C46.5535 37.4018 46.0338 36.8895 45.5363 36.3623C45.18 35.9836 44.7642 35.746 44.2445 35.7385C43.5318 35.7237 42.8265 35.7385 42.1138 35.7385C42.0989 35.7534 42.0915 35.7831 42.0841 35.8054Z" fill="#549248"/>
<path d="M57.9053 40.3644C57.8682 40.2456 57.8533 40.112 57.7865 40.0155C57.5044 39.6293 57.1554 39.2804 56.9253 38.8645C56.6506 38.367 56.22 38.1888 55.7225 38.0997C54.7054 37.9215 53.6734 37.9289 52.6637 38.1072C52.2628 38.174 51.9065 38.4784 51.5353 38.6715C51.5427 38.716 51.5575 38.7606 51.565 38.7977C51.7728 38.82 51.9881 38.8571 52.196 38.872C53.0053 38.9314 53.8219 38.9536 54.6312 39.0427C55.0098 39.0873 55.3959 39.2209 55.7522 39.3843C56.4501 39.7036 57.1332 40.0749 57.8236 40.4238C57.8533 40.409 57.883 40.3867 57.9053 40.3644Z" fill="#549248"/>
<path d="M54.5791 39.4808C55.3587 40.5946 55.5369 41.6787 54.6608 42.8371C55.329 42.8074 55.9526 42.7108 56.4575 42.3024C56.8732 41.9609 57.237 41.5525 57.6082 41.159C57.7419 41.0179 57.727 40.8619 57.5266 40.7728C57.237 40.6392 56.94 40.5204 56.6505 40.3867C56.0269 40.0971 55.4107 39.8001 54.7944 39.5105C54.7499 39.4957 54.6979 39.5031 54.5791 39.4808Z" fill="#F4F7F5"/>
<path d="M53.5693 61.341C53.0645 61.2519 52.7378 61.3707 52.426 61.6083C51.9137 62.0093 51.4015 62.4177 50.8595 62.7889C50.4957 63.034 50.0948 63.2122 49.679 63.4275C49.7384 63.873 49.7978 64.3854 49.8795 64.9942C51.201 63.8433 52.4854 62.7518 53.5693 61.341Z" fill="#549248"/>
<path d="M50.1171 65.4544C50.3621 65.6995 50.6294 65.9594 50.9115 66.2341C51.1268 65.2911 51.6539 64.5931 52.337 63.9991C52.4038 63.9397 52.4706 63.8803 52.5523 63.858C53.4358 63.6204 53.8144 62.8407 54.3193 62.2022C54.4083 62.0908 54.4677 61.9274 54.4603 61.7938C54.4529 61.6898 54.3489 61.5487 54.2524 61.4968C54.1708 61.4596 53.9852 61.4893 53.9406 61.5562C52.8938 63.0487 51.4906 64.1773 50.1468 65.3653C50.132 65.3802 50.132 65.395 50.1171 65.4544Z" fill="#5E914A"/>
<path d="M33.6943 39.7111C34.5035 40.0601 35.3128 40.4091 36.0626 40.7358C36.3299 40.2903 36.6343 39.7779 36.9609 39.2433C35.8844 39.3695 34.7931 39.4957 33.6943 39.622C33.6943 39.6517 33.6943 39.6814 33.6943 39.7111Z" fill="#EFF5F0"/>
<path d="M40.5326 41.6341C41.0968 41.6341 41.4309 41.3297 41.4383 40.7951C41.4458 40.4535 41.1414 40.1936 40.7479 40.1936C40.2876 40.1936 39.805 40.6094 39.7902 41.003C39.7827 41.3519 40.1094 41.6341 40.5326 41.6341Z" fill="#EFF5F0"/>
<path d="M50.0723 40.2976C49.4709 40.81 48.9215 41.3371 48.7582 42.1465C48.7136 42.3618 48.8101 42.4509 48.9809 42.4955C49.263 42.5772 49.5451 42.644 49.8941 42.7331C49.5748 41.8718 49.8421 41.0921 50.0723 40.2976Z" fill="#EFF5F0"/>
<path d="M54.3113 41.1664C54.3113 40.7357 54.1183 40.5798 53.5763 40.565C53.3239 40.5575 53.116 40.862 53.1234 41.2184C53.1309 41.5971 53.3387 41.7976 53.7248 41.7976C54.1257 41.7901 54.3187 41.5822 54.3113 41.1664Z" fill="#EFF5F0"/>
<path d="M38.2156 35.7756C38.3567 35.7979 38.4978 35.8425 38.6388 35.8425C39.6782 35.835 40.7176 35.7682 41.6902 36.2434C41.7273 36.2657 41.7941 36.2212 41.8535 36.2137C40.6953 35.6049 39.4629 35.6643 38.2156 35.7756Z" fill="#5E914A"/>
<path d="M38.1635 40.3868C38.26 40.2383 38.4456 40.0749 38.4308 39.9338C38.416 39.8002 38.1709 39.5997 38.0522 39.6145C37.9111 39.6294 37.7329 39.8447 37.7032 39.9932C37.6809 40.1046 37.8814 40.2606 37.9853 40.3942C38.0447 40.3942 38.1041 40.3868 38.1635 40.3868Z" fill="#EFF5F0"/>
<path d="M38.7725 41.2554C38.5572 41.0921 38.4012 40.9064 38.327 40.9287C38.1711 40.9881 38.0597 41.1589 37.9335 41.2851C38.0523 41.3965 38.1711 41.5821 38.2973 41.597C38.4161 41.6044 38.5497 41.4262 38.7725 41.2554Z" fill="#EFF5F0"/>
<path d="M51.4388 40.8916C51.6021 40.6318 51.758 40.4758 51.7654 40.3199C51.7729 40.2159 51.5576 40.1046 51.4388 40.0006C51.3348 40.1343 51.1641 40.2531 51.1418 40.3942C51.1195 40.513 51.2829 40.654 51.4388 40.8916Z" fill="#EFF5F0"/>
<path d="M51.5423 41.4041C51.379 41.6045 51.2082 41.7382 51.2305 41.8124C51.2676 41.9387 51.4235 42.0352 51.5275 42.1392C51.624 42.0352 51.7725 41.9461 51.7948 41.8273C51.8096 41.7382 51.676 41.6194 51.5423 41.4041Z" fill="#EFF5F0"/>
<path d="M19.7893 44.0103C19.9897 43.9806 20.1085 43.9137 19.9304 43.7133C19.8858 43.8098 19.8338 43.9063 19.7893 44.0103Z" fill="#5E914A"/>
<path d="M20.0037 43.5648C20.0556 43.4683 20.1076 43.3644 20.167 43.2678C20.1076 43.3644 20.0556 43.4609 20.0037 43.5648Z" fill="#5E914A"/>
<path d="M20.45 42.748C20.4797 42.6738 20.5094 42.5921 20.5391 42.5178C20.5094 42.5921 20.4797 42.6663 20.45 42.748Z" fill="#5E914A"/>
<path d="M19.7068 44.181C19.7365 44.1216 19.7662 44.0697 19.7959 44.0103C19.7662 44.0622 19.7365 44.1216 19.7068 44.181Z" fill="#5E914A"/>
<path d="M20.1601 43.2677C20.1824 43.238 20.2121 43.2157 20.2344 43.186C20.2121 43.2157 20.1898 43.238 20.1601 43.2677Z" fill="#5E914A"/>
<path d="M20.5836 42.451C20.5984 42.4287 20.6059 42.4064 20.6133 42.3842C20.6059 42.4064 20.591 42.4213 20.5836 42.451Z" fill="#5E914A"/>
<path d="M47.749 40.4981C47.7119 40.4907 47.6748 40.4833 47.6451 40.4758C47.6525 40.5055 47.6599 40.5278 47.6674 40.5575C47.6971 40.5352 47.7193 40.513 47.749 40.4981Z" fill="#559248"/>
<path d="M54.6676 62.5513C54.6527 62.581 54.6379 62.6032 54.623 62.633C54.6601 62.633 54.6973 62.633 54.7344 62.633C54.7047 62.6032 54.6824 62.5735 54.6676 62.5513Z" fill="#549248"/>
<path d="M52.7679 45.0795C52.8273 45.0721 52.9089 45.0795 52.946 45.0424C53.0723 44.931 53.2876 44.7899 53.2727 44.686C53.2356 44.4112 53.0129 44.53 52.8347 44.5672C51.966 44.7454 51.1197 44.6266 50.2882 44.337C49.9615 44.2256 49.6497 44.0771 49.323 43.9731C49.2191 43.9434 49.0854 44.0103 48.9666 44.04C49.0112 44.1513 49.026 44.3147 49.1077 44.3667C49.4938 44.6043 49.9095 44.7973 50.2956 45.035C51.2607 45.6364 51.8992 46.5497 52.56 47.4408C52.5897 47.4779 52.5971 47.5447 52.6342 47.567C52.7382 47.6264 52.8495 47.6709 52.9609 47.7229C52.9906 47.6041 53.0797 47.4408 53.0351 47.3665C52.7901 46.9878 52.5154 46.624 52.2407 46.2601C52.1071 46.0819 51.9512 45.926 51.8101 45.7552C51.7804 45.7181 51.7507 45.6884 51.721 45.6513C51.7062 45.629 51.6839 45.6067 51.6691 45.5844C51.6394 45.5325 51.6097 45.4805 51.58 45.4359L51.5874 45.4433C51.5651 45.4136 51.5354 45.3914 51.5132 45.3617V45.3691C51.4092 45.2874 51.3127 45.1983 51.2088 45.1166C51.2236 45.0944 51.2385 45.0721 51.2533 45.0498C51.3944 45.0795 51.5354 45.1018 51.6765 45.1315C51.8992 45.1315 52.1219 45.1315 52.3447 45.1389C52.4709 45.1166 52.6194 45.0944 52.7679 45.0795Z" fill="#040703"/>
<path d="M32.1724 47.1809C31.6156 47.27 31.044 47.3146 30.4946 47.4482C29.7447 47.6264 29.1434 48.0422 28.7721 48.7402C28.7202 48.8367 28.7944 48.9927 28.8018 49.1189C28.9132 49.0744 29.084 49.0595 29.1285 48.9778C29.6779 48.0125 30.6134 47.8343 31.5859 47.723C31.8903 47.6858 32.2021 47.723 32.5065 47.6933C32.6179 47.6858 32.7144 47.5744 32.8184 47.515C32.7218 47.4185 32.6476 47.2923 32.5288 47.2403C32.4249 47.1958 32.2838 47.2329 32.165 47.2329C32.1799 47.2106 32.1799 47.1958 32.1724 47.1809Z" fill="#040703"/>
<path d="M31.7047 45.5844C31.1627 45.718 30.695 45.822 30.2421 45.9556C30.0565 46.0076 29.8783 46.1561 30.0045 46.364C30.0491 46.4383 30.2941 46.416 30.4426 46.3937C30.8509 46.3269 31.2592 46.2526 31.6676 46.1487C31.8458 46.1041 32.165 46.2081 32.1279 45.8814C32.1056 45.7626 31.8458 45.6735 31.7047 45.5844Z" fill="#040703"/>
<path d="M51.6533 45.1315C51.5123 45.1018 51.3712 45.0795 51.2301 45.0498C51.2153 45.0721 51.2004 45.0944 51.1856 45.1166C51.2895 45.1983 51.386 45.2874 51.49 45.3691C51.542 45.2874 51.6014 45.2057 51.6533 45.1315Z" fill="#5E914A"/>
<path d="M52.7676 45.0796C52.6191 45.1019 52.4706 45.1167 52.3221 45.139C52.4706 45.1167 52.6191 45.0944 52.7676 45.0796Z" fill="#5E914A"/>
<path d="M51.4902 45.3617C51.5125 45.3914 51.5422 45.4137 51.5645 45.4434C51.5422 45.4137 51.5199 45.3914 51.4902 45.3617Z" fill="#5E914A"/>
<path d="M51.7058 45.6587C51.7355 45.6958 51.7652 45.7255 51.7949 45.7626C51.7652 45.7255 51.7355 45.6884 51.7058 45.6587Z" fill="#5E914A"/>
<path d="M40.0454 7.78274C56.3287 7.78274 69.6224 21.0158 69.6778 37.2841C69.7332 53.6076 56.4879 66.9375 40.1492 66.9997H40.0385C23.7552 66.9997 10.4615 53.7666 10.4061 37.4984C10.3508 21.1748 23.5961 7.84497 39.9347 7.78274H40.0454ZM40.0454 3.96631H39.9209C21.4439 4.03545 6.51697 19.0523 6.58618 37.5122C6.65538 55.9307 21.6169 70.8161 40.0385 70.8161H40.1631C58.6401 70.747 73.567 55.7302 73.4978 37.2702C73.4286 18.8518 58.467 3.96631 40.0454 3.96631Z" fill="#255119"/>
<g clip-path="url(#clip0_327_2633)">
<path d="M61.8516 77.0359V80L65.7525 77.0359H61.8516Z" fill="#397D2B"/>
<path d="M18.07 80V77.0359H14.1709L18.07 80Z" fill="#397D2B"/>
<path d="M61.8511 73.7013H18.0693V77.0359H61.8511V73.7013Z" fill="#A20E30"/>
<path d="M73.2645 66.4233H6.66016L10.3112 73.2135L6.66016 80H18.0695L14.1705 77.0359H18.0695V73.7013H61.8513V77.0359H65.7523L61.8513 80H73.2645L69.6135 73.2135L73.2645 66.4233Z" fill="#559248"/>
<path d="M65.7527 63.4612H14.1709V77.0359H65.7527V63.4612Z" fill="#316423"/>
<path d="M21.4593 69.216V68.724C21.4593 68.656 21.4893 68.604 21.5493 68.568L22.0953 68.226C22.1873 68.17 22.2653 68.142 22.3293 68.142H22.8093C22.8933 68.142 22.9353 68.184 22.9353 68.268V71.874C22.9353 71.922 22.9253 71.956 22.9053 71.976C22.8893 71.992 22.8593 72 22.8153 72H22.2993C22.2153 72 22.1733 71.958 22.1733 71.874V68.952L21.5853 69.288C21.5013 69.324 21.4593 69.3 21.4593 69.216ZM24.3212 71.136V71.604C24.3212 71.712 24.2752 71.836 24.1832 71.976L23.7692 72.582C23.7412 72.622 23.7032 72.642 23.6552 72.642C23.5872 72.642 23.5532 72.602 23.5532 72.522V71.142C23.5532 71.062 23.5932 71.022 23.6732 71.022H24.2072C24.2832 71.022 24.3212 71.06 24.3212 71.136ZM25.9838 71.34H26.3378C26.4658 71.34 26.5558 71.314 26.6078 71.262C26.6598 71.206 26.6858 71.114 26.6858 70.986V69.156C26.6858 69.028 26.6598 68.938 26.6078 68.886C26.5558 68.83 26.4658 68.802 26.3378 68.802H25.9838C25.8558 68.802 25.7658 68.83 25.7138 68.886C25.6618 68.938 25.6358 69.028 25.6358 69.156V70.986C25.6358 71.114 25.6618 71.206 25.7138 71.262C25.7658 71.314 25.8558 71.34 25.9838 71.34ZM26.4578 72H25.8578C25.5418 72 25.2978 71.916 25.1258 71.748C24.9538 71.58 24.8678 71.338 24.8678 71.022V69.12C24.8678 68.804 24.9538 68.562 25.1258 68.394C25.2978 68.226 25.5418 68.142 25.8578 68.142H26.4578C26.7698 68.142 27.0118 68.228 27.1838 68.4C27.3558 68.568 27.4418 68.808 27.4418 69.12V71.022C27.4418 71.334 27.3558 71.576 27.1838 71.748C27.0118 71.916 26.7698 72 26.4578 72ZM29.2006 71.34H29.5546C29.6826 71.34 29.7726 71.314 29.8246 71.262C29.8766 71.206 29.9026 71.114 29.9026 70.986V69.156C29.9026 69.028 29.8766 68.938 29.8246 68.886C29.7726 68.83 29.6826 68.802 29.5546 68.802H29.2006C29.0726 68.802 28.9826 68.83 28.9306 68.886C28.8786 68.938 28.8526 69.028 28.8526 69.156V70.986C28.8526 71.114 28.8786 71.206 28.9306 71.262C28.9826 71.314 29.0726 71.34 29.2006 71.34ZM29.6746 72H29.0746C28.7586 72 28.5146 71.916 28.3426 71.748C28.1706 71.58 28.0846 71.338 28.0846 71.022V69.12C28.0846 68.804 28.1706 68.562 28.3426 68.394C28.5146 68.226 28.7586 68.142 29.0746 68.142H29.6746C29.9866 68.142 30.2286 68.228 30.4006 68.4C30.5726 68.568 30.6586 68.808 30.6586 69.12V71.022C30.6586 71.334 30.5726 71.576 30.4006 71.748C30.2286 71.916 29.9866 72 29.6746 72ZM32.4174 71.34H32.7714C32.8994 71.34 32.9894 71.314 33.0414 71.262C33.0934 71.206 33.1194 71.114 33.1194 70.986V69.156C33.1194 69.028 33.0934 68.938 33.0414 68.886C32.9894 68.83 32.8994 68.802 32.7714 68.802H32.4174C32.2894 68.802 32.1994 68.83 32.1474 68.886C32.0954 68.938 32.0694 69.028 32.0694 69.156V70.986C32.0694 71.114 32.0954 71.206 32.1474 71.262C32.1994 71.314 32.2894 71.34 32.4174 71.34ZM32.8914 72H32.2914C31.9754 72 31.7314 71.916 31.5594 71.748C31.3874 71.58 31.3014 71.338 31.3014 71.022V69.12C31.3014 68.804 31.3874 68.562 31.5594 68.394C31.7314 68.226 31.9754 68.142 32.2914 68.142H32.8914C33.2034 68.142 33.4454 68.228 33.6174 68.4C33.7894 68.568 33.8754 68.808 33.8754 69.12V71.022C33.8754 71.334 33.7894 71.576 33.6174 71.748C33.4454 71.916 33.2034 72 32.8914 72ZM36.2162 69.762H37.0322C37.0842 69.762 37.1202 69.774 37.1402 69.798C37.1602 69.818 37.1702 69.854 37.1702 69.906V70.242C37.1702 70.334 37.1242 70.38 37.0322 70.38H36.2162V71.208C36.2162 71.304 36.1682 71.352 36.0722 71.352H35.7182C35.6222 71.352 35.5742 71.304 35.5742 71.208V70.38H34.7582C34.6662 70.38 34.6202 70.334 34.6202 70.242V69.906C34.6202 69.854 34.6302 69.818 34.6502 69.798C34.6702 69.774 34.7062 69.762 34.7582 69.762H35.5742V68.94C35.5742 68.844 35.6222 68.796 35.7182 68.796H36.0722C36.1682 68.796 36.2162 68.844 36.2162 68.94V69.762ZM39.2051 71.016V70.896C39.2051 70.812 39.2471 70.77 39.3311 70.77H39.8411C39.9251 70.77 39.9671 70.812 39.9671 70.896V70.944C39.9671 71.096 39.9971 71.2 40.0571 71.256C40.1171 71.312 40.2271 71.34 40.3871 71.34H40.6691C40.8251 71.34 40.9331 71.31 40.9931 71.25C41.0571 71.19 41.0891 71.078 41.0891 70.914V70.842C41.0891 70.726 41.0411 70.638 40.9451 70.578C40.8531 70.514 40.7371 70.476 40.5971 70.464C40.4571 70.452 40.3051 70.43 40.1411 70.398C39.9811 70.362 39.8311 70.318 39.6911 70.266C39.5511 70.21 39.4331 70.104 39.3371 69.948C39.2451 69.788 39.1991 69.584 39.1991 69.336V69.126C39.1991 68.814 39.2871 68.572 39.4631 68.4C39.6391 68.228 39.8831 68.142 40.1951 68.142H40.7951C41.1111 68.142 41.3571 68.228 41.5331 68.4C41.7091 68.572 41.7971 68.814 41.7971 69.126V69.24C41.7971 69.324 41.7551 69.366 41.6711 69.366H41.1611C41.0771 69.366 41.0351 69.324 41.0351 69.24V69.204C41.0351 69.048 41.0051 68.942 40.9451 68.886C40.8851 68.83 40.7751 68.802 40.6151 68.802H40.3811C40.2171 68.802 40.1051 68.834 40.0451 68.898C39.9891 68.958 39.9611 69.078 39.9611 69.258V69.372C39.9611 69.56 40.1251 69.668 40.4531 69.696C40.7931 69.724 41.0951 69.792 41.3591 69.9C41.4991 69.96 41.6151 70.068 41.7071 70.224C41.8031 70.376 41.8511 70.572 41.8511 70.812V71.016C41.8511 71.328 41.7631 71.57 41.5871 71.742C41.4111 71.914 41.1671 72 40.8551 72H40.2011C39.8891 72 39.6451 71.914 39.4691 71.742C39.2931 71.57 39.2051 71.328 39.2051 71.016ZM43.7295 72H43.2255C43.1375 72 43.0935 71.958 43.0935 71.874V68.868C43.0935 68.824 43.0715 68.802 43.0275 68.802H42.3435C42.2595 68.802 42.2175 68.76 42.2175 68.676V68.268C42.2175 68.184 42.2595 68.142 42.3435 68.142H44.6115C44.6955 68.142 44.7375 68.184 44.7375 68.268V68.676C44.7375 68.76 44.6955 68.802 44.6115 68.802H43.9275C43.8795 68.802 43.8555 68.824 43.8555 68.868V71.874C43.8555 71.958 43.8135 72 43.7295 72ZM45.5977 72H45.0217C44.9497 72 44.9257 71.958 44.9497 71.874L45.8977 68.268C45.9257 68.184 45.9857 68.142 46.0777 68.142H46.8757C46.9757 68.142 47.0357 68.184 47.0557 68.268L48.0037 71.874C48.0277 71.958 48.0037 72 47.9317 72H47.3557C47.3117 72 47.2817 71.992 47.2657 71.976C47.2497 71.956 47.2377 71.922 47.2297 71.874L47.0617 71.214H45.8917L45.7237 71.874C45.7157 71.922 45.7017 71.956 45.6817 71.976C45.6657 71.992 45.6377 72 45.5977 72ZM46.4677 68.868L46.0357 70.602H46.9237L46.4917 68.868H46.4677ZM49.1715 72H48.6615C48.5775 72 48.5355 71.958 48.5355 71.874V68.268C48.5355 68.184 48.5775 68.142 48.6615 68.142H49.1715C49.2555 68.142 49.2975 68.184 49.2975 68.268V69.978H49.3095C49.3415 69.882 49.4035 69.758 49.4955 69.606L50.4075 68.268C50.4595 68.184 50.5375 68.142 50.6415 68.142H51.2295C51.2735 68.142 51.2995 68.156 51.3075 68.184C51.3195 68.208 51.3095 68.24 51.2775 68.28L50.1375 69.858L51.4095 71.85C51.4375 71.898 51.4415 71.936 51.4215 71.964C51.4055 71.988 51.3695 72 51.3135 72H50.8755C50.7355 72 50.6415 71.958 50.5935 71.874L49.6755 70.404L49.2975 70.848V71.874C49.2975 71.958 49.2555 72 49.1715 72ZM53.9692 72H52.0072C51.9232 72 51.8812 71.958 51.8812 71.874V68.268C51.8812 68.184 51.9232 68.142 52.0072 68.142H53.9692C54.0492 68.142 54.0892 68.184 54.0892 68.268V68.676C54.0892 68.76 54.0492 68.802 53.9692 68.802H52.7152C52.6672 68.802 52.6432 68.824 52.6432 68.868V69.648C52.6432 69.692 52.6672 69.714 52.7152 69.714H53.7412C53.8252 69.714 53.8672 69.756 53.8672 69.84V70.248C53.8672 70.332 53.8252 70.374 53.7412 70.374H52.7152C52.6672 70.374 52.6432 70.396 52.6432 70.44V71.274C52.6432 71.318 52.6672 71.34 52.7152 71.34H53.9692C54.0492 71.34 54.0892 71.382 54.0892 71.466V71.874C54.0892 71.958 54.0492 72 53.9692 72ZM55.5803 71.34H56.2343C56.3623 71.34 56.4523 71.314 56.5043 71.262C56.5603 71.206 56.5883 71.114 56.5883 70.986V69.156C56.5883 69.028 56.5603 68.938 56.5043 68.886C56.4523 68.83 56.3623 68.802 56.2343 68.802H55.5803C55.5363 68.802 55.5143 68.824 55.5143 68.868V71.274C55.5143 71.318 55.5363 71.34 55.5803 71.34ZM54.7523 71.874V68.268C54.7523 68.184 54.7943 68.142 54.8783 68.142H56.3603C56.6723 68.142 56.9143 68.228 57.0863 68.4C57.2623 68.568 57.3503 68.808 57.3503 69.12V71.022C57.3503 71.334 57.2623 71.576 57.0863 71.748C56.9143 71.916 56.6723 72 56.3603 72H54.8783C54.7943 72 54.7523 71.958 54.7523 71.874Z" fill="#030C00"/>
</g>
<defs>
<clipPath id="clip0_327_2633">
<rect width="66.6043" height="16.5388" fill="white" transform="translate(6.66016 63.4612)"/>
</clipPath>
</defs>
</svg>
