<svg width="66" height="66" viewBox="0 0 66 66" fill="none" xmlns="http://www.w3.org/2000/svg">
<g clip-path="url(#clip0_474_10112)">
<path d="M33.3999 0.626953C20.9175 0.626953 13.2283 7.66781 13.207 7.67964C13.207 7.67964 12.8874 8.07867 12.8276 8.34389C12.3419 10.4997 11.8882 13.3891 11.8882 15.4975C11.8882 33.4116 26.995 47.9303 44.9092 47.9303C51.8075 47.9303 59.4824 44.6241 64.619 40.6489C64.7338 40.56 65.0984 39.9625 65.0984 39.9625C65.121 39.8242 65.8361 36.9762 65.8361 33.0632C65.8363 15.1492 51.3141 0.626953 33.3999 0.626953Z" fill="#52BA41"/>
<path d="M44.9063 47.0147C26.9921 47.0147 12.4699 32.4925 12.4699 14.5783C12.4699 12.2105 12.7252 9.9033 13.207 7.67969C5.7473 13.6225 0.963379 22.7845 0.963379 33.0634C0.963379 40.8764 3.72569 48.0442 8.32708 53.6435L58.4715 53.6454C61.67 49.7553 63.986 45.0971 65.0984 39.9627C59.5575 44.3759 52.5405 47.0147 44.9063 47.0147Z" fill="#4C9540"/>
<path d="M46.3011 30.6823L45.8853 27.3741L46.3011 22.8809C48.0006 22.8809 49.6329 24.2587 49.6329 25.9582V27.605C49.6329 29.3044 48.0006 30.6823 46.3011 30.6823Z" fill="#FF965A"/>
<path d="M46.4349 28.3575L46.2671 27.0224L46.4349 25.209C47.1207 25.209 47.7795 25.765 47.7795 26.451V27.1155C47.7795 27.8015 47.1207 28.3575 46.4349 28.3575Z" fill="#EF6A30"/>
<path d="M20.3967 29.9909L20.8126 26.6827L20.3967 22.1895C18.6972 22.1895 17.0649 23.5673 17.0649 25.2668V26.9136C17.0649 28.613 18.6972 29.9909 20.3967 29.9909Z" fill="#FF965A"/>
<path d="M20.2631 27.6661L20.4309 26.331L20.2631 24.5176C19.5772 24.5176 18.9185 25.0736 18.9185 25.7596V26.4241C18.9186 27.1101 19.5772 27.6661 20.2631 27.6661Z" fill="#EF6A30"/>
<path d="M51.6169 48.0925L33.3607 44.0527L24.0142 46.1273V64.118C26.3114 64.8115 28.7153 65.2594 31.1966 65.4258L33.0308 64.461L35.2701 65.4461C44.5591 64.9156 52.8677 60.4578 58.4703 53.644C57.2162 50.8889 54.7243 48.7802 51.6169 48.0925Z" fill="#39AE96"/>
<path d="M8.32764 53.6427C12.3748 58.5676 17.845 62.2772 24.1091 64.1469V57.7249C24.1091 53.0975 27.3237 49.0914 31.841 48.0887L41.7053 45.8993L33.3605 44.0527L15.1764 48.0887C12.0705 48.7783 9.58032 50.8878 8.32764 53.6427Z" fill="#1C9585"/>
<path d="M33.4346 57.7708C38.3177 57.7708 42.2762 53.8123 42.2762 48.9291V46.0256L33.3604 44.0527L24.5928 45.9988V48.9293C24.5928 53.8122 28.5514 57.7708 33.4346 57.7708Z" fill="#1C9585"/>
<path d="M28.8259 44.9453H22.2644C21.6632 44.9453 21.2779 45.5849 21.559 46.1163L25.1763 52.956C25.7395 54.0209 26.9639 54.5553 28.1277 54.2439L33.5574 52.7912L28.8259 44.9453Z" fill="white"/>
<path d="M38.0108 44.9453H44.5724C45.1735 44.9453 45.5588 45.5849 45.2777 46.1163L41.6605 52.956C41.0972 54.0209 39.8728 54.5553 38.709 54.2439L33.2793 52.7912L38.0108 44.9453Z" fill="white"/>
<path d="M28.8071 48.1694C28.8071 50.7227 30.877 52.7924 33.4301 52.7924C35.9833 52.7924 38.0532 50.7226 38.0532 48.1694V37.8145L28.8071 48.1694Z" fill="#FF965A"/>
<path d="M45.9718 21.5925C45.9718 17.3735 43.2652 13.5156 39.0464 13.5156H27.8147C26.6109 13.5156 25.5083 13.8307 24.5464 14.3777V36.6773C24.5464 41.5445 28.4611 45.5276 33.3281 45.5644C33.3622 45.5647 33.3964 45.5648 33.4305 45.5648C40.6794 45.5648 46.5556 39.6885 46.5556 32.4398V28.2962L45.9718 21.5925Z" fill="#FFBE82"/>
<path d="M28.8071 37.8145V48.1694C33.9477 49.1678 37.0694 47.4567 38.0533 44.8829V37.8145H28.8071Z" fill="#EF6A30"/>
<path d="M45.9718 21.5925C45.9718 17.3735 43.2652 13.5156 39.0464 13.5156H27.8147C26.6109 13.5156 25.5083 13.8307 24.5464 14.3777V36.6773C24.5464 41.5445 28.4611 45.5276 33.3281 45.5644C33.3622 45.5647 33.3964 45.5648 33.4305 45.5648C40.6794 45.5648 46.5556 39.6885 46.5556 32.4398V28.2962L45.9718 21.5925Z" fill="#FFBE82"/>
<path d="M27.7598 27.5352V28.4607C27.7598 29.0644 28.2492 29.5538 28.8529 29.5538C29.4566 29.5538 29.9461 29.0644 29.9461 28.4607V27.5352H27.7598Z" fill="#FF965A"/>
<path d="M36.6665 27.5352V28.4607C36.6665 29.0644 37.156 29.5538 37.7597 29.5538C38.3634 29.5538 38.8528 29.0644 38.8528 28.4607V27.5352H36.6665Z" fill="#FF965A"/>
<path d="M28.8529 28.678C28.2492 28.678 27.7598 28.1886 27.7598 27.5849V26.1787L28.1627 25.5685L27.7598 24.9583V24.5951C27.7598 23.9914 28.2492 23.502 28.8529 23.502C29.4566 23.502 29.9461 23.9914 29.9461 24.5951V27.5849C29.946 28.1886 29.4566 28.678 28.8529 28.678Z" fill="#373C41"/>
<path d="M37.7597 28.678C37.156 28.678 36.6665 28.1886 36.6665 27.5849V26.1787L37.0695 25.5685L36.6665 24.9583V24.5951C36.6665 23.9914 37.156 23.502 37.7597 23.502C38.3634 23.502 38.8528 23.9914 38.8528 24.5951V27.5849C38.8528 28.1886 38.3634 28.678 37.7597 28.678Z" fill="#373C41"/>
<path d="M44.423 17.0265C44.5484 17.0266 44.6723 17.0205 44.7954 17.0114C43.617 14.944 41.6122 13.5156 39.0462 13.5156H27.8144C26.6105 13.5156 25.508 13.8307 24.5461 14.3777V14.657C22.0767 15.8092 20.4645 18.276 20.4645 21.3033L20.1753 28.2961V32.3098C20.1753 39.8854 26.5227 45.9492 34.1416 45.5456C28.6235 43.9431 24.59 38.8508 24.59 32.8157C24.6228 32.0699 24.59 24.8434 24.59 22.0984C24.59 22.0788 24.5901 22.0594 24.5902 22.0398C24.6112 19.248 26.9115 17.0091 29.7033 17.0119L44.423 17.0265Z" fill="#FF965A"/>
<path d="M30.2928 22.9559H27.1049C26.5012 22.9559 26.0117 22.4664 26.0117 21.8627C26.0117 21.259 26.5012 20.7695 27.1049 20.7695H30.2928C30.8965 20.7695 31.386 21.259 31.386 21.8627C31.386 22.4664 30.8965 22.9559 30.2928 22.9559Z" fill="#B22E06"/>
<path d="M39.4027 22.9559H36.2148C35.6111 22.9559 35.1216 22.4664 35.1216 21.8627C35.1216 21.259 35.6111 20.7695 36.2148 20.7695H39.4027C40.0064 20.7695 40.4958 21.259 40.4958 21.8627C40.4958 22.4664 40.0064 22.9559 39.4027 22.9559Z" fill="#B22E06"/>
<path d="M37.4557 34.7266H36.3301L33.3657 35.342L30.4012 34.7266H29.4055C29.0715 34.7266 28.8046 35.0181 28.8491 35.3492C28.9343 35.9825 29.1479 36.5752 29.4626 37.1003L35.4651 38.8791C36.8207 38.2137 37.8028 36.9039 38.0121 35.3492C38.0566 35.0181 37.7897 34.7266 37.4557 34.7266Z" fill="#BE1423"/>
<path d="M31.6592 30.2299C31.3874 31.3151 31.8812 32.4971 32.8257 32.8534C33.0158 32.9252 33.219 32.964 33.4304 32.964C33.6417 32.964 33.8451 32.9252 34.0351 32.8534C34.9796 32.4971 35.4735 31.3151 35.2017 30.2299L34.3009 26.6324C34.0741 25.7267 32.7869 25.7267 32.5601 26.6324L31.6592 30.2299Z" fill="#FF965A"/>
<path d="M46.5553 14.3105V21.6618V21.6622V28.2961C45.5843 28.2961 44.7972 27.509 44.7972 26.538V18.7754C44.7972 17.0609 43.8323 15.4805 42.2905 14.7306C42.2527 14.7121 42.2149 14.6942 42.1772 14.6768V14.3107L46.5553 14.3105Z" fill="#B22E06"/>
<path d="M29.4629 37.0994C30.2707 38.4469 31.745 39.3491 33.4303 39.3491C34.1604 39.3491 34.8506 39.1793 35.4645 38.878C35.2006 37.2224 33.7668 35.957 32.0369 35.957C31.016 35.957 30.0981 36.3978 29.4629 37.0994Z" fill="#FF3C3C"/>
<path d="M35.6777 35.9575H31.053C30.6929 35.9575 30.4009 35.6656 30.4009 35.3053V34.7266H36.3299V35.3053C36.3297 35.6654 36.0378 35.9575 35.6777 35.9575Z" fill="white"/>
<path d="M27.6551 4.31893C23.523 4.32274 20.1753 7.67361 20.1753 11.8056V21.6629V21.6632V28.2972C21.1462 28.2972 21.9333 27.5101 21.9333 26.5391V18.7765C21.9333 18.7662 21.9333 18.7559 21.9335 18.7457C21.9439 17.2133 23.2186 15.989 24.7511 15.9906L44.4231 16.0099C47.1457 16.0126 49.3542 13.8063 49.3542 11.0836V4.29883L27.6551 4.31893Z" fill="#CD5014"/>
<path d="M28.8256 11.8056C28.8256 7.67349 32.1733 4.32274 36.3055 4.31893L49.3541 4.30684V4.29883L27.6551 4.31893C23.523 4.32274 20.1753 7.67361 20.1753 11.8056V21.6629V21.6632V28.2972C21.1462 28.2972 21.9333 27.5101 21.9333 26.5391V18.7765C21.9333 18.7662 21.9333 18.7559 21.9335 18.7457C21.9439 17.2133 23.2186 15.989 24.7511 15.9906L28.8256 15.9945V11.8056Z" fill="#B22E06"/>
<path d="M21.9224 25.7617C21.9224 26.8317 22.2586 27.8233 22.831 28.6363L24.1121 29.8975C24.6141 30.2392 25.1814 30.4918 25.7913 30.6328L27.2455 30.7507C29.8557 30.5838 31.9209 28.4139 31.9209 25.7617H21.9224Z" fill="#0540E5"/>
<path d="M25.7059 25.7617L22.832 28.6356C23.1794 29.1291 23.613 29.5574 24.1123 29.8972L28.2478 25.7617H25.7059Z" fill="#2896FF"/>
<path d="M31.9208 25.7617H30.661L25.7915 30.6312C26.1548 30.7152 26.5327 30.7611 26.9214 30.7611C27.0303 30.7611 27.1381 30.7564 27.2453 30.7495L31.9093 26.0856C31.9161 25.9783 31.9208 25.8706 31.9208 25.7617Z" fill="#2896FF"/>
<path d="M34.9019 25.7617C34.9019 26.8317 35.238 27.8233 35.8105 28.6363L37.0565 29.8734C37.567 30.2273 38.1465 30.4885 38.7709 30.6328L40.2251 30.7507C42.8353 30.5838 44.9005 28.4139 44.9005 25.7617H34.9019Z" fill="#0540E5"/>
<path d="M38.6854 25.7617L35.8115 28.6356C36.1589 29.1291 36.5925 29.5574 37.0918 29.8972L41.2273 25.7617H38.6854Z" fill="#2896FF"/>
<path d="M44.9008 25.7617H43.641L38.7715 30.6312C39.1348 30.7152 39.5127 30.7611 39.9014 30.7611C40.0103 30.7611 40.118 30.7564 40.2253 30.7495L44.8892 26.0856C44.8961 25.9783 44.9008 25.8706 44.9008 25.7617Z" fill="#2896FF"/>
<path d="M45.3055 25.8649H35.1502C34.8692 25.8649 34.6414 25.6371 34.6414 25.3561C34.6414 24.7119 34.1172 24.1875 33.4727 24.1875C32.8284 24.1875 32.3041 24.7117 32.3041 25.3561C32.3041 25.6371 32.0763 25.8649 31.7953 25.8649H21.3169C21.0359 25.8649 20.8081 25.6371 20.8081 25.3561C20.8081 25.0751 21.0359 24.8473 21.3169 24.8473H31.3464C31.5764 23.8864 32.4425 23.1699 33.4728 23.1699C34.5033 23.1699 35.3694 23.8864 35.5994 24.8473H45.3056C45.5866 24.8473 45.8144 25.0751 45.8144 25.3561C45.8144 25.6371 45.5865 25.8649 45.3055 25.8649Z" fill="#1E2D64"/>
<path d="M31.1968 65.4232C31.925 65.472 32.6592 65.4992 33.3998 65.4992C34.0583 65.4992 34.7121 65.478 35.3616 65.4391V52.791H31.1968V65.4232Z" fill="white"/>
<path d="M33.2792 61.0145C33.8598 61.0145 34.3304 60.5439 34.3304 59.9633C34.3304 59.3827 33.8598 58.9121 33.2792 58.9121C32.6987 58.9121 32.228 59.3827 32.228 59.9633C32.228 60.5439 32.6987 61.0145 33.2792 61.0145Z" fill="#55C7A6"/>
<path d="M45.647 12.857C46.183 14.3157 46.4777 15.89 46.4777 17.5323V20.579H49.9122V17.5323C49.9122 15.9116 49.6845 14.3431 49.2596 12.857L48.9077 11.5762L45.647 12.857Z" fill="#373C41"/>
<path d="M35.5518 0.693219C34.7146 0.566145 33.8575 0.5 32.9853 0.5C23.5937 0.5 15.9531 8.14062 15.9531 17.5323V20.579H19.3876V17.5323C19.3876 10.0344 25.4875 3.93444 32.9854 3.93444C33.8626 3.93444 34.7204 4.01903 35.5518 4.17842V0.693219Z" fill="#373C41"/>
<path d="M14.9775 18.166H20.3625V23.1896H14.9775V18.166Z" fill="#232628"/>
<path d="M46.498 18.166H51.883V23.1896H46.498V18.166Z" fill="#232628"/>
<path d="M46.6255 29.4772V21.6758C48.325 21.6758 49.7029 23.0536 49.7029 24.7532V26.3999C49.7029 28.0993 48.325 29.4772 46.6255 29.4772Z" fill="#FF965A"/>
<path d="M46.6255 26.8603V24.293C47.1848 24.293 47.6381 24.7463 47.6381 25.3056V25.8475C47.6381 26.4069 47.1848 26.8603 46.6255 26.8603Z" fill="#EF6A30"/>
<path d="M19.2803 25.8348C19.2803 26.3678 19.7122 26.7997 20.2452 26.7997V24.3535C19.7122 24.3535 19.2803 24.7855 19.2803 25.3185V25.8348Z" fill="#EF6A30"/>
<path d="M13.7645 27.5762V23.3809H12.1354C11.4614 23.3809 10.915 23.9273 10.915 24.6012V27.5761L13.7645 27.5762Z" fill="#DC1428"/>
<path d="M13.7645 30.6523H12.1354C11.4614 30.6523 10.915 30.1059 10.915 29.4319V27.5332H13.7645V30.6523Z" fill="#BE1423"/>
<path d="M13.9438 31.6973H12.0616V22.3376H13.9438V31.6973Z" fill="#373C41"/>
<path d="M13.5396 22.3379H17.2068V27.7685H13.5396V22.3379Z" fill="#DC1428"/>
<path d="M13.5396 27.6816H17.2068V31.6959H13.5396V27.6816Z" fill="#BE1423"/>
<path d="M18.1689 29.0889V21.1719H16.2339C15.54 21.1719 14.9775 21.7344 14.9775 22.4282V29.0889H18.1689Z" fill="#FF3C3C"/>
<path d="M18.1689 32.8628H16.2339C15.54 32.8628 14.9775 32.3003 14.9775 31.6064V29.002H18.1689V32.8628Z" fill="#DC1428"/>
<path d="M20.3625 29.2487V21.1825C20.3625 20.2134 19.6178 19.3796 18.6498 19.3341C17.6163 19.2854 16.7632 20.1089 16.7632 21.1317V29.2488C16.7632 30.1966 17.5315 30.9649 18.4793 30.9649H18.6464C19.5942 30.9648 20.3625 30.1965 20.3625 29.2487Z" fill="#373C41"/>
<path d="M18.5628 30.8582C17.5689 30.8582 16.7632 30.0525 16.7632 29.0586V32.9346C16.7632 33.9284 17.5689 34.7342 18.5628 34.7342C19.5568 34.7342 20.3625 33.9285 20.3625 32.9346V29.0586C20.3625 30.0525 19.5567 30.8582 18.5628 30.8582Z" fill="#232628"/>
<path d="M55.9456 27.5753V24.6012C55.9456 23.9272 55.3992 23.3809 54.7253 23.3809H53.0962V27.5755H55.9456V27.5753Z" fill="#DC1428"/>
<path d="M53.0962 30.6523H54.7253C55.3993 30.6523 55.9456 30.1059 55.9456 29.4319V27.5332H53.0962V30.6523Z" fill="#BE1423"/>
<path d="M52.917 22.3379H54.7992V31.6975H52.917V22.3379Z" fill="#373C41"/>
<path d="M53.3208 27.748H49.6536V22.3384H53.3208V27.748Z" fill="#DC1428"/>
<path d="M53.3208 31.6953H49.6536V27.6811H53.3208V31.6953Z" fill="#BE1423"/>
<path d="M51.8828 29.0671V22.4282C51.8828 21.7344 51.3203 21.1719 50.6264 21.1719H48.6914V29.0671H51.8828Z" fill="#FF3C3C"/>
<path d="M48.6914 32.8628H50.6264C51.3203 32.8628 51.8828 32.3003 51.8828 31.6064V29.002H48.6914V32.8628Z" fill="#DC1428"/>
<path d="M48.2977 30.9571C49.2916 30.9571 50.0973 30.1514 50.0973 29.1575V21.1317C50.0973 20.1377 49.2916 19.332 48.2977 19.332C47.3037 19.332 46.498 20.1377 46.498 21.1317V29.1575C46.498 30.1514 47.3037 30.9571 48.2977 30.9571Z" fill="#373C41"/>
<path d="M48.2977 30.8582C49.2916 30.8582 50.0973 30.0525 50.0973 29.0586V32.9346C50.0973 33.9284 49.2916 34.7342 48.2977 34.7342C47.3037 34.7342 46.498 33.9285 46.498 32.9346V29.0586C46.498 30.0525 47.3037 30.8582 48.2977 30.8582Z" fill="#232628"/>
<path d="M19.3876 18.1667H15.9531V17.5326C15.9531 13.7567 17.1634 10.1798 19.4531 7.18849C21.6688 4.29389 24.8097 2.15079 28.2972 1.1543L29.2407 4.45658C23.4394 6.1144 19.3876 11.4915 19.3876 17.5328V18.1667Z" fill="#373C41"/>
<path d="M39.3609 1.73683C38.1456 1.24583 36.864 0.88916 35.534 0.689453L35.0239 4.08573C36.5659 4.31737 38.0273 4.81091 39.3609 5.51955V1.73683Z" fill="#50555A"/>
<path d="M43.7532 9.22843C42.2643 7.30107 40.2883 5.80607 38.0386 4.90485L39.3157 1.7168C42.1336 2.84558 44.6078 4.71697 46.4711 7.12871L43.7532 9.22843Z" fill="#696E73"/>
<path d="M35.105 4.31206V16.0006L44.4229 16.0098C47.1455 16.0124 49.354 13.8061 49.354 11.0835V4.29883L35.105 4.31206Z" fill="#CD5014"/>
</g>
<defs>
<clipPath id="clip0_474_10112">
<rect width="65" height="65" fill="white" transform="translate(0.899902 0.5)"/>
</clipPath>
</defs>
</svg>
