<svg width="70" height="70" viewBox="0 0 70 70" fill="none" xmlns="http://www.w3.org/2000/svg">
<g clip-path="url(#clip0_474_6809)">
<path d="M34.9999 0.136719C21.5573 0.136719 13.2766 7.71918 13.2538 7.73192C13.2538 7.73192 12.9095 8.16165 12.8451 8.44726C12.3221 10.7689 11.8335 13.8806 11.8335 16.1511C11.8335 35.4433 28.1024 51.0788 47.3946 51.0788C54.8235 51.0788 63.0888 47.5182 68.6205 43.2373C68.7442 43.1415 69.1368 42.4981 69.1368 42.4981C69.1612 42.3492 69.9313 39.2821 69.9313 35.0681C69.9314 15.776 54.2921 0.136719 34.9999 0.136719Z" fill="#52BA41"/>
<path d="M47.3915 50.0933C28.0993 50.0933 12.46 34.4539 12.46 15.1617C12.46 12.6117 12.7349 10.1271 13.2538 7.73242C5.22028 14.1324 0.0683594 23.9991 0.0683594 35.0687C0.0683594 43.4827 3.04315 51.2019 7.9985 57.2319L62.0002 57.2339C65.4447 53.0446 67.9389 48.028 69.1369 42.4987C63.1697 47.2515 55.6129 50.0933 47.3915 50.0933Z" fill="#4C9540"/>
<path d="M48.8936 32.505L48.4458 28.9424L48.8936 24.1035C50.7239 24.1035 52.4817 25.5874 52.4817 27.4176V29.191C52.4817 31.0212 50.7239 32.505 48.8936 32.505Z" fill="#FF965A"/>
<path d="M49.0376 30.0001L48.8569 28.5623L49.0376 26.6094C49.7762 26.6094 50.4857 27.2081 50.4857 27.9469V28.6625C50.4857 29.4013 49.7762 30.0001 49.0376 30.0001Z" fill="#EF6A30"/>
<path d="M20.9968 31.7609L21.4446 28.1983L20.9968 23.3594C19.1665 23.3594 17.4087 24.8432 17.4087 26.6735V28.4469C17.4087 30.277 19.1665 31.7609 20.9968 31.7609Z" fill="#FF965A"/>
<path d="M20.8529 29.254L21.0336 27.8162L20.8529 25.8633C20.1142 25.8633 19.4048 26.462 19.4048 27.2008V27.9164C19.4049 28.6552 20.1142 29.254 20.8529 29.254Z" fill="#EF6A30"/>
<path d="M54.6181 51.2548L34.9576 46.9043L24.8921 49.1384V68.5131C27.3661 69.2599 29.9548 69.7422 32.627 69.9214L34.6024 68.8824L37.0139 69.9433C47.0174 69.372 55.9651 64.5713 61.9987 57.2333C60.6481 54.2664 57.9646 51.9954 54.6181 51.2548Z" fill="#39AE96"/>
<path d="M7.99902 57.232C12.3575 62.5357 18.2485 66.5306 24.9945 68.5442V61.6281C24.9945 56.6448 28.4563 52.3306 33.3211 51.2507L43.9442 48.8929L34.9575 46.9043L15.3746 51.2507C12.0298 51.9933 9.34806 54.2651 7.99902 57.232Z" fill="#1C9585"/>
<path d="M35.0375 61.6776C40.2963 61.6776 44.5593 57.4146 44.5593 52.1558V49.029L34.9577 46.9043L25.5156 49.0001V52.1559C25.5156 57.4144 29.7788 61.6776 35.0375 61.6776Z" fill="#1C9585"/>
<path d="M30.0743 47.8652H23.008C22.3606 47.8652 21.9456 48.554 22.2484 49.1263L26.1438 56.4921C26.7504 57.6389 28.069 58.2144 29.3223 57.8791L35.1697 56.3147L30.0743 47.8652Z" fill="white"/>
<path d="M39.9656 47.8652H47.0319C47.6793 47.8652 48.0942 48.554 47.7915 49.1263L43.896 56.4921C43.2894 57.6389 41.9708 58.2144 40.7175 57.8791L34.8701 56.3147L39.9656 47.8652Z" fill="white"/>
<path d="M30.0542 51.3351C30.0542 54.0848 32.2832 56.3137 35.0328 56.3137C37.7824 56.3137 40.0115 54.0847 40.0115 51.3351V40.1836L30.0542 51.3351Z" fill="#FF965A"/>
<path d="M48.5389 22.7158C48.5389 18.1722 45.6241 14.0176 41.0807 14.0176H28.9851C27.6886 14.0176 26.5012 14.3569 25.4653 14.9459V38.9609C25.4653 44.2025 29.6812 48.492 34.9226 48.5317C34.9593 48.532 34.9962 48.5321 35.0329 48.5321C42.8393 48.5321 49.1675 42.2037 49.1675 34.3974V29.9351L48.5389 22.7158Z" fill="#FFBE82"/>
<path d="M30.0542 40.1836V51.3351C35.5902 52.4103 38.952 50.5676 40.0116 47.7958V40.1836H30.0542Z" fill="#EF6A30"/>
<path d="M48.5389 22.7158C48.5389 18.1722 45.6241 14.0176 41.0807 14.0176H28.9851C27.6886 14.0176 26.5012 14.3569 25.4653 14.9459V38.9609C25.4653 44.2025 29.6812 48.492 34.9226 48.5317C34.9593 48.532 34.9962 48.5321 35.0329 48.5321C42.8393 48.5321 49.1675 42.2037 49.1675 34.3974V29.9351L48.5389 22.7158Z" fill="#FFBE82"/>
<path d="M28.9258 29.1152V30.1119C28.9258 30.7621 29.4529 31.2892 30.103 31.2892C30.7532 31.2892 31.2803 30.7621 31.2803 30.1119V29.1152H28.9258Z" fill="#FF965A"/>
<path d="M38.5181 29.1152V30.1119C38.5181 30.7621 39.0452 31.2892 39.6953 31.2892C40.3455 31.2892 40.8726 30.7621 40.8726 30.1119V29.1152H38.5181Z" fill="#FF965A"/>
<path d="M30.103 30.3457C29.4529 30.3457 28.9258 29.8186 28.9258 29.1685V27.6541L29.3598 26.997L28.9258 26.3398V25.9487C28.9258 25.2986 29.4529 24.7715 30.103 24.7715C30.7532 24.7715 31.2803 25.2986 31.2803 25.9487V29.1685C31.2802 29.8186 30.7532 30.3457 30.103 30.3457Z" fill="#373C41"/>
<path d="M39.6953 30.3457C39.0452 30.3457 38.5181 29.8186 38.5181 29.1685V27.6541L38.952 26.997L38.5181 26.3398V25.9487C38.5181 25.2986 39.0452 24.7715 39.6953 24.7715C40.3455 24.7715 40.8726 25.2986 40.8726 25.9487V29.1685C40.8726 29.8186 40.3455 30.3457 39.6953 30.3457Z" fill="#373C41"/>
<path d="M46.8712 17.7985C47.0062 17.7987 47.1397 17.7921 47.2723 17.7822C46.0032 15.5558 43.8442 14.0176 41.0808 14.0176H28.985C27.6886 14.0176 26.5012 14.3569 25.4653 14.9459V15.2468C22.806 16.4876 21.0698 19.1442 21.0698 22.4043L20.7583 29.935V34.2574C20.7583 42.4158 27.5939 48.9461 35.799 48.5114C29.8564 46.7857 25.5125 41.3016 25.5125 34.8022C25.5479 33.9991 25.5125 26.2168 25.5125 23.2606C25.5125 23.2395 25.5127 23.2185 25.5128 23.1974C25.5354 20.1909 28.0127 17.7798 31.0193 17.7828L46.8712 17.7985Z" fill="#FF965A"/>
<path d="M31.6539 24.1846H28.2207C27.5706 24.1846 27.0435 23.6575 27.0435 23.0073C27.0435 22.3572 27.5706 21.8301 28.2207 21.8301H31.6539C32.304 21.8301 32.8311 22.3572 32.8311 23.0073C32.8311 23.6575 32.304 24.1846 31.6539 24.1846Z" fill="#B22E06"/>
<path d="M41.4644 24.1846H38.0313C37.3811 24.1846 36.854 23.6575 36.854 23.0073C36.854 22.3572 37.3811 21.8301 38.0313 21.8301H41.4644C42.1146 21.8301 42.6417 22.3572 42.6417 23.0073C42.6417 23.6575 42.1146 24.1846 41.4644 24.1846Z" fill="#B22E06"/>
<path d="M39.3676 36.8594H38.1554L34.963 37.5221L31.7705 36.8594H30.6982C30.3384 36.8594 30.051 37.1733 30.099 37.5299C30.1908 38.212 30.4208 38.8502 30.7597 39.4157L37.2239 41.3313C38.6838 40.6147 39.7415 39.2042 39.9668 37.5299C40.0147 37.1733 39.7274 36.8594 39.3676 36.8594Z" fill="#BE1423"/>
<path d="M33.1253 32.0179C32.8327 33.1865 33.3645 34.4595 34.3816 34.8432C34.5863 34.9205 34.8052 34.9622 35.0328 34.9622C35.2604 34.9622 35.4794 34.9205 35.6841 34.8432C36.7012 34.4595 37.2331 33.1865 36.9404 32.0179L35.9702 28.1436C35.726 27.1683 34.3398 27.1683 34.0956 28.1436L33.1253 32.0179Z" fill="#FF965A"/>
<path d="M49.1674 14.873V22.7898V22.7902V29.9344C48.1218 29.9344 47.2741 29.0867 47.2741 28.0411V19.6814C47.2741 17.835 46.235 16.133 44.5746 15.3254C44.5339 15.3055 44.4932 15.2862 44.4526 15.2674V14.8732L49.1674 14.873Z" fill="#B22E06"/>
<path d="M30.7603 39.4158C31.6303 40.8669 33.2179 41.8386 35.0329 41.8386C35.8192 41.8386 36.5624 41.6557 37.2235 41.3312C36.9393 39.5483 35.3952 38.1855 33.5323 38.1855C32.4329 38.1855 31.4444 38.6602 30.7603 39.4158Z" fill="#FF3C3C"/>
<path d="M37.4532 38.185H32.4728C32.085 38.185 31.7705 37.8706 31.7705 37.4827V36.8594H38.1556V37.4827C38.1554 37.8705 37.8411 38.185 37.4532 38.185Z" fill="white"/>
<path d="M28.8135 4.11344C24.3635 4.11755 20.7583 7.72618 20.7583 12.176V22.7915V22.7919V29.9362C21.8039 29.9362 22.6516 29.0885 22.6516 28.0429V19.6832C22.6516 19.6721 22.6516 19.661 22.6517 19.65C22.663 17.9997 24.0357 16.6812 25.6861 16.6829L46.8713 16.7037C49.8034 16.7066 52.1817 14.3306 52.1817 11.3985V4.0918L28.8135 4.11344Z" fill="#CD5014"/>
<path d="M30.0741 12.176C30.0741 7.72604 33.6793 4.11755 38.1293 4.11344L52.1816 4.10043V4.0918L28.8135 4.11344C24.3635 4.11755 20.7583 7.72618 20.7583 12.176V22.7915V22.7919V29.9362C21.8039 29.9362 22.6516 29.0885 22.6516 28.0429V19.6832C22.6516 19.6721 22.6516 19.661 22.6517 19.65C22.663 17.9997 24.0357 16.6812 25.6861 16.6829L30.0741 16.6871V12.176Z" fill="#B22E06"/>
<path d="M22.6396 27.2051C22.6396 28.3574 23.0017 29.4252 23.6181 30.3008L24.9979 31.659C25.5384 32.027 26.1494 32.299 26.8062 32.4508L28.3723 32.5778C31.1832 32.3981 33.4073 30.0612 33.4073 27.2051H22.6396Z" fill="#0540E5"/>
<path d="M26.7141 27.2051L23.6191 30.3C23.9933 30.8315 24.4602 31.2927 24.9979 31.6586L29.4515 27.2051H26.7141Z" fill="#2896FF"/>
<path d="M33.4075 27.2051H32.0507L26.8066 32.4492C27.1979 32.5396 27.6049 32.589 28.0235 32.589C28.1408 32.589 28.2568 32.584 28.3723 32.5766L33.395 27.5538C33.4024 27.4384 33.4075 27.3223 33.4075 27.2051Z" fill="#2896FF"/>
<path d="M36.6172 27.2051C36.6172 28.3574 36.9792 29.4252 37.5957 30.3008L38.9376 31.633C39.4873 32.0141 40.1114 32.2955 40.7839 32.4508L42.3499 32.5778C45.1609 32.3981 47.385 30.0612 47.385 27.2051H36.6172Z" fill="#0540E5"/>
<path d="M40.6921 27.2051L37.5972 30.3C37.9713 30.8315 38.4383 31.2927 38.9759 31.6586L43.4295 27.2051H40.6921Z" fill="#2896FF"/>
<path d="M47.3855 27.2051H46.0288L40.7847 32.4492C41.1759 32.5396 41.5829 32.589 42.0015 32.589C42.1188 32.589 42.2348 32.584 42.3503 32.5766L47.373 27.5538C47.3804 27.4384 47.3855 27.3223 47.3855 27.2051Z" fill="#2896FF"/>
<path d="M47.8212 27.3144H36.8848C36.5822 27.3144 36.3368 27.0691 36.3368 26.7665C36.3368 26.0727 35.7723 25.508 35.0782 25.508C34.3844 25.508 33.8197 26.0725 33.8197 26.7665C33.8197 27.0691 33.5744 27.3144 33.2718 27.3144H21.9874C21.6848 27.3144 21.4395 27.0691 21.4395 26.7665C21.4395 26.4639 21.6848 26.2185 21.9874 26.2185H32.7884C33.036 25.1838 33.9688 24.4121 35.0784 24.4121C36.1881 24.4121 37.1208 25.1838 37.3685 26.2185H47.8214C48.124 26.2185 48.3693 26.4639 48.3693 26.7665C48.3693 27.0691 48.1238 27.3144 47.8212 27.3144Z" fill="#1E2D64"/>
<path d="M32.6274 69.9183C33.4117 69.9709 34.2024 70.0002 34.9999 70.0002C35.7091 70.0002 36.4132 69.9773 37.1126 69.9354V56.3145H32.6274V69.9183Z" fill="white"/>
<path d="M34.8698 65.1704C35.4951 65.1704 36.0019 64.6635 36.0019 64.0383C36.0019 63.4131 35.4951 62.9062 34.8698 62.9062C34.2446 62.9062 33.7378 63.4131 33.7378 64.0383C33.7378 64.6635 34.2446 65.1704 34.8698 65.1704Z" fill="#55C7A6"/>
<path d="M48.189 13.307C48.7662 14.878 49.0836 16.5734 49.0836 18.342V21.6231H52.7823V18.342C52.7823 16.5966 52.537 14.9075 52.0795 13.307L51.7005 11.9277L48.189 13.307Z" fill="#373C41"/>
<path d="M37.3172 0.208082C36.4156 0.0712329 35.4926 0 34.5533 0C24.4393 0 16.2109 8.22836 16.2109 18.3425V21.6236H19.9096V18.3425C19.9096 10.2678 26.4787 3.69863 34.5534 3.69863C35.4981 3.69863 36.4219 3.78973 37.3172 3.96137V0.208082Z" fill="#373C41"/>
<path d="M15.1606 19.0254H20.9598V24.4354H15.1606V19.0254Z" fill="#232628"/>
<path d="M49.106 19.0254H54.9051V24.4354H49.106V19.0254Z" fill="#232628"/>
<path d="M49.2432 31.2062V22.8047C51.0734 22.8047 52.5573 24.2885 52.5573 26.1188V27.8922C52.5573 29.7224 51.0734 31.2062 49.2432 31.2062Z" fill="#FF965A"/>
<path d="M49.2432 28.3878V25.623C49.8455 25.623 50.3337 26.1113 50.3337 26.7136V27.2972C50.3337 27.8996 49.8455 28.3878 49.2432 28.3878Z" fill="#EF6A30"/>
<path d="M19.7944 27.2827C19.7944 27.8567 20.2596 28.3219 20.8336 28.3219V25.6875C20.2596 25.6875 19.7944 26.1527 19.7944 26.7267V27.2827Z" fill="#EF6A30"/>
<path d="M13.8543 29.1587V24.6406H12.0999C11.374 24.6406 10.7856 25.2291 10.7856 25.9549V29.1586L13.8543 29.1587Z" fill="#DC1428"/>
<path d="M13.8543 32.4723H12.0999C11.374 32.4723 10.7856 31.8838 10.7856 31.1581V29.1133H13.8543V32.4723Z" fill="#BE1423"/>
<path d="M14.0474 33.5977H12.0204V23.5181H14.0474V33.5977Z" fill="#373C41"/>
<path d="M13.6118 23.5176H17.5611V29.3659H13.6118V23.5176Z" fill="#DC1428"/>
<path d="M13.6118 29.2734H17.5611V33.5965H13.6118V29.2734Z" fill="#BE1423"/>
<path d="M18.5975 30.7877V22.2617H16.5137C15.7664 22.2617 15.1606 22.8675 15.1606 23.6147V30.7877H18.5975Z" fill="#FF3C3C"/>
<path d="M18.5975 34.8531H16.5137C15.7664 34.8531 15.1606 34.2474 15.1606 33.5001V30.6953H18.5975V34.8531Z" fill="#DC1428"/>
<path d="M20.9601 30.9607V22.274C20.9601 21.2305 20.1582 20.3325 19.1158 20.2835C18.0028 20.231 17.084 21.1178 17.084 22.2194V30.9609C17.084 31.9815 17.9114 32.8089 18.9321 32.8089H19.1121C20.1328 32.8088 20.9601 31.9814 20.9601 30.9607Z" fill="#373C41"/>
<path d="M19.0221 32.6939C17.9517 32.6939 17.084 31.8263 17.084 30.7559V34.93C17.084 36.0002 17.9517 36.8681 19.0221 36.8681C20.0925 36.8681 20.9601 36.0004 20.9601 34.93V30.7559C20.9601 31.8263 20.0923 32.6939 19.0221 32.6939Z" fill="#232628"/>
<path d="M59.2805 29.1577V25.9549C59.2805 25.229 58.6921 24.6406 57.9663 24.6406H56.2119V29.1579H59.2805V29.1577Z" fill="#DC1428"/>
<path d="M56.2114 32.4723H57.9658C58.6917 32.4723 59.2801 31.8838 59.2801 31.1581V29.1133H56.2114V32.4723Z" fill="#BE1423"/>
<path d="M56.0186 23.5176H58.0455V33.5972H56.0186V23.5176Z" fill="#373C41"/>
<path d="M56.4541 29.3438H52.5048V23.518H56.4541V29.3438Z" fill="#DC1428"/>
<path d="M56.4536 33.5957H52.5043V29.2727H56.4536V33.5957Z" fill="#BE1423"/>
<path d="M54.9051 30.7643V23.6147C54.9051 22.8675 54.2994 22.2617 53.5521 22.2617H51.4683V30.7643H54.9051Z" fill="#FF3C3C"/>
<path d="M51.4683 34.8531H53.5521C54.2994 34.8531 54.9051 34.2474 54.9051 33.5001V30.6953H51.4683V34.8531Z" fill="#DC1428"/>
<path d="M51.044 32.8006C52.1145 32.8006 52.9821 31.9329 52.9821 30.8625V22.2193C52.9821 21.1489 52.1145 20.2812 51.044 20.2812C49.9736 20.2812 49.106 21.1489 49.106 22.2193V30.8625C49.106 31.9329 49.9736 32.8006 51.044 32.8006Z" fill="#373C41"/>
<path d="M51.044 32.6939C52.1145 32.6939 52.9821 31.8263 52.9821 30.7559V34.93C52.9821 36.0002 52.1145 36.8681 51.044 36.8681C49.9736 36.8681 49.106 36.0004 49.106 34.93V30.7559C49.106 31.8263 49.9736 32.6939 51.044 32.6939Z" fill="#232628"/>
<path d="M19.9096 19.0262H16.2109V18.3433C16.2109 14.2769 17.5144 10.4248 19.9801 7.20344C22.3663 4.08617 25.7487 1.77823 29.5045 0.705078L30.5207 4.26138C24.2731 6.04672 19.9096 11.8374 19.9096 18.3434V19.0262Z" fill="#373C41"/>
<path d="M41.4196 1.33302C40.1108 0.804256 38.7307 0.420147 37.2983 0.205078L36.749 3.86261C38.4096 4.11206 39.9834 4.64357 41.4196 5.40672V1.33302Z" fill="#50555A"/>
<path d="M46.1499 9.39804C44.5464 7.32243 42.4183 5.71243 39.9956 4.74188L41.3709 1.30859C44.4056 2.52421 47.0701 4.53955 49.0768 7.13681L46.1499 9.39804Z" fill="#696E73"/>
<path d="M36.8364 4.10604V16.6937L46.8711 16.7036C49.8031 16.7065 52.1815 14.3304 52.1815 11.3984V4.0918L36.8364 4.10604Z" fill="#CD5014"/>
<circle cx="58" cy="58" r="12" fill="#191B21"/>
<path d="M57.9995 68C63.5224 68 67.9995 63.5228 67.9995 58C67.9995 52.4772 63.5224 48 57.9995 48C52.4767 48 47.9995 52.4772 47.9995 58C47.9995 63.5228 52.4767 68 57.9995 68Z" fill="#4C9540"/>
<path d="M58.0002 51.334C56.2535 51.334 54.8335 52.754 54.8335 54.5007C54.8335 56.214 56.1735 57.6007 57.9202 57.6607C57.9735 57.654 58.0268 57.654 58.0668 57.6607C58.0802 57.6607 58.0868 57.6607 58.1002 57.6607C58.1068 57.6607 58.1068 57.6607 58.1135 57.6607C59.8202 57.6007 61.1602 56.214 61.1668 54.5007C61.1668 52.754 59.7468 51.334 58.0002 51.334Z" fill="white"/>
<path d="M61.3866 59.4339C59.5266 58.1939 56.4933 58.1939 54.62 59.4339C53.7733 60.0006 53.3066 60.7672 53.3066 61.5872C53.3066 62.4072 53.7733 63.1672 54.6133 63.7272C55.5466 64.3539 56.7733 64.6672 58 64.6672C59.2266 64.6672 60.4533 64.3539 61.3866 63.7272C62.2266 63.1606 62.6933 62.4006 62.6933 61.5739C62.6866 60.7539 62.2266 59.9939 61.3866 59.4339Z" fill="white"/>
</g>
<defs>
<clipPath id="clip0_474_6809">
<rect width="70" height="70" fill="white"/>
</clipPath>
</defs>
</svg>
