<svg width="66" height="66" viewBox="0 0 66 66" fill="none" xmlns="http://www.w3.org/2000/svg">
<g clip-path="url(#clip0_474_10309)">
<path d="M33.1999 4.08984C21.3837 4.08984 14.1049 10.755 14.0849 10.7661C14.0849 10.7661 13.7823 11.1438 13.7257 11.3949C13.266 13.4357 12.8364 16.1708 12.8364 18.1667C12.8364 35.1246 27.1369 48.8684 44.0949 48.8684C50.6251 48.8684 57.8902 45.7387 62.7527 41.9756C62.8615 41.8914 63.2066 41.3258 63.2066 41.3258C63.228 41.1949 63.9051 38.499 63.9051 34.7949C63.9049 17.837 50.1577 4.08984 33.1999 4.08984Z" fill="#52BA41"/>
<path d="M44.0921 48.0011C27.1342 48.0011 13.387 34.2539 13.387 17.296C13.387 15.0546 13.6287 12.8706 14.0847 10.7656C7.02313 16.3912 2.49463 25.0641 2.49463 34.7944C2.49463 41.922 4.92316 48.4824 8.99806 53.6932L57.4003 53.6954C60.1866 50.1339 62.2083 45.9322 63.2063 41.3254C57.9614 45.5031 51.3189 48.0011 44.0921 48.0011Z" fill="#4C9540"/>
<path d="M35.5173 7.67977H30.8817L30.2359 4.0348C29.9094 2.19127 31.3273 0.5 33.1996 0.5C35.0719 0.5 36.4898 2.19127 36.1631 4.0348L35.5173 7.67977Z" fill="#373C41"/>
<path d="M35.0944 5.46484H31.2309C30.9833 5.46484 30.7375 5.47209 30.4932 5.48545L30.882 7.68019H35.5176L35.9057 5.49016C35.6373 5.474 35.3669 5.46484 35.0944 5.46484Z" fill="#BE1423"/>
<path d="M35.0942 6.60938H31.2307C31.2057 6.60938 31.1811 6.61014 31.1562 6.61027V25.5992H48.4401V19.9554C48.4403 12.5845 42.465 6.60938 35.0942 6.60938Z" fill="#373C41"/>
<path d="M31.2367 6.60938H31.2309C23.8601 6.60938 17.8848 12.5847 17.8848 19.9555V25.5993H31.2366V6.60938H31.2367Z" fill="#1F2123"/>
<path d="M50.6219 47.848L33.162 43.9844L24.6304 45.878V64.2857C27.3503 65.0749 30.225 65.5004 33.1994 65.5004C42.9686 65.5004 51.7534 60.9124 57.3994 53.6957C56.2916 50.7996 53.7929 48.5496 50.6219 47.848Z" fill="#58A804"/>
<path d="M24.7107 45.8594L15.7713 47.8435C12.6019 48.5469 10.1049 50.7971 8.99854 53.6928C12.9347 58.7262 18.4078 62.4978 24.7107 64.3077V45.8594Z" fill="#4F9300"/>
<path d="M46.3555 31.5612H46.2283L45.3589 27.2864L46.2283 23.7598H46.3555C48.0551 23.7598 49.4329 25.1376 49.4329 26.8372V28.4839C49.4329 30.1834 48.0552 31.5612 46.3555 31.5612Z" fill="#FF965A"/>
<path d="M33.2302 40.5156C27.7367 40.5156 23.2832 44.9691 23.2832 50.4627C23.2832 54.1192 25.2575 57.313 28.1971 59.0414L33.2884 53.9501L38.3373 58.999C41.2363 57.2608 43.1774 54.0889 43.1774 50.4627C43.1773 44.9691 38.7238 40.5156 33.2302 40.5156Z" fill="#64BC0F"/>
<path d="M33.2301 53.6694C35.7834 53.6694 37.8531 51.5996 37.8531 49.0464V38.6914H28.6069V49.0464C28.6069 51.5996 30.6768 53.6694 33.2301 53.6694Z" fill="#FF965A"/>
<path d="M45.7716 22.4714C45.7716 18.2524 43.0651 14.3945 38.8462 14.3945H27.6145C26.4107 14.3945 25.3081 14.7096 24.3462 15.2566V37.5562C24.3462 42.4233 28.2609 46.4065 33.1279 46.4433C33.162 46.4436 33.1962 46.4437 33.2303 46.4437C40.4792 46.4437 46.3554 40.5674 46.3554 33.3187V29.1751L45.7716 22.4714Z" fill="#FFBE82"/>
<path d="M46.3555 29.1398V26.1816C46.9999 26.1816 47.5224 26.7041 47.5224 27.3486V27.973C47.5224 28.6174 47 29.1398 46.3555 29.1398Z" fill="#FA735F"/>
<path d="M16.8981 28.4838C16.8981 30.1833 18.2759 31.5612 19.9755 31.5612H20.173L21.7484 28.2422L20.1993 23.7598H19.9753C18.2758 23.7598 16.8979 25.1376 16.8979 26.8372L16.8981 28.4838Z" fill="#FF965A"/>
<path d="M18.7236 27.996C18.7236 28.6873 19.2841 29.2478 19.9754 29.2478V26.0742C19.2841 26.0742 18.7236 26.6347 18.7236 27.326V27.996Z" fill="#FA735F"/>
<path d="M17.8833 29.4084C17.8833 30.5638 18.82 31.5005 19.9754 31.5005V27.3418C18.82 27.3418 17.8833 28.2785 17.8833 29.4339V29.4084Z" fill="white"/>
<path d="M27.5596 28.4141V29.3396C27.5596 29.9433 28.049 30.4328 28.6527 30.4328C29.2564 30.4328 29.7459 29.9433 29.7459 29.3396V28.4141H27.5596Z" fill="#FF965A"/>
<path d="M36.4663 28.4141V29.3396C36.4663 29.9433 36.9558 30.4328 37.5595 30.4328C38.1632 30.4328 38.6526 29.9433 38.6526 29.3396V28.4141H36.4663Z" fill="#FF965A"/>
<path d="M28.6527 29.5569C28.049 29.5569 27.5596 29.0675 27.5596 28.4638V27.0576L27.9625 26.4474L27.5596 25.8372V25.474C27.5596 24.8703 28.049 24.3809 28.6527 24.3809C29.2564 24.3809 29.7459 24.8703 29.7459 25.474V28.4638C29.7458 29.0675 29.2563 29.5569 28.6527 29.5569Z" fill="#373C41"/>
<path d="M37.5595 29.5569C36.9558 29.5569 36.4663 29.0675 36.4663 28.4638V27.0576L36.8693 26.4474L36.4663 25.8372V25.474C36.4663 24.8703 36.9558 24.3809 37.5595 24.3809C38.1632 24.3809 38.6526 24.8703 38.6526 25.474V28.4638C38.6526 29.0675 38.1632 29.5569 37.5595 29.5569Z" fill="#373C41"/>
<path d="M35.0036 8.93555H31.3267C25.0574 8.93555 19.9751 14.0179 19.9751 20.2871V26.1027V26.1031V32.737C20.946 32.737 21.7332 31.9499 21.7332 30.9789V23.2163H44.5973V30.9789C44.5973 31.9499 45.3844 32.737 46.3553 32.737V26.1031C46.3553 26.1029 46.3553 26.1028 46.3553 26.1027V20.2871C46.3552 14.0179 41.273 8.93555 35.0036 8.93555Z" fill="#FFBE82"/>
<path d="M27.9625 27.4619C27.7399 27.4619 27.5596 27.2815 27.5596 27.0589V25.8385C27.5596 25.6159 27.7399 25.4355 27.9625 25.4355C28.1851 25.4355 28.3655 25.6159 28.3655 25.8385V27.0589C28.3655 27.2815 28.185 27.4619 27.9625 27.4619Z" fill="white"/>
<path d="M36.8693 27.4619C36.6467 27.4619 36.4663 27.2815 36.4663 27.0589V25.8385C36.4663 25.6159 36.6467 25.4355 36.8693 25.4355C37.0919 25.4355 37.2723 25.6159 37.2723 25.8385V27.0589C37.2723 27.2815 37.0919 27.4619 36.8693 27.4619Z" fill="white"/>
<path d="M19.3956 34.4151C19.0796 34.4151 18.8232 34.1588 18.8232 33.8427V29.5568C18.8232 29.2407 19.0796 28.9844 19.3956 28.9844C19.7117 28.9844 19.9681 29.2407 19.9681 29.5568V33.8427C19.9681 34.1589 19.7119 34.4151 19.3956 34.4151Z" fill="white"/>
<path d="M48.4476 29.7268C48.4476 30.8822 47.5108 31.8189 46.3555 31.8189V27.6602C47.5108 27.6602 48.4476 28.5969 48.4476 29.7522V29.7268Z" fill="white"/>
<path d="M46.9352 34.7334C46.6191 34.7334 46.3628 34.477 46.3628 34.1609V29.8751C46.3628 29.559 46.6191 29.3027 46.9352 29.3027C47.2513 29.3027 47.5076 29.559 47.5076 29.8751V34.1609C47.5076 34.4772 47.2514 34.7334 46.9352 34.7334Z" fill="white"/>
<path d="M24.3902 37.2566C24.4228 36.5154 24.4279 20.2871 24.4279 20.2871C24.4279 14.1476 29.3021 9.14734 35.3918 8.9428C35.2631 8.93847 35.1339 8.93555 35.0041 8.93555H31.3272C25.0579 8.93555 19.9756 14.0179 19.9756 20.2871V36.7506C19.9756 44.3262 26.3229 50.39 33.9419 49.9864C28.4238 48.3839 24.3902 43.2917 24.3902 37.2566Z" fill="#FF965A"/>
<path d="M25.8115 17.8457H40.2956V19.1177H25.8115V17.8457Z" fill="#FF965A"/>
<path d="M25.8115 15.248H40.2956V16.5201H25.8115V15.248Z" fill="#FF965A"/>
<path d="M46.2557 28.0391C45.4212 28.0391 44.745 28.7169 44.7476 29.552C44.7523 31.0714 43.4114 32.313 41.892 32.313H27.0674V40.6901C27.0674 46.2774 31.2905 50.9605 36.8479 51.5364C42.3374 49.9658 46.3556 44.9106 46.3556 38.9166V28.1388L46.2557 28.0391Z" fill="#373C41"/>
<path d="M36.8474 51.5357C31.3048 49.9586 27.2261 44.8591 27.2261 38.7867C27.2261 38.7867 27.2261 35.7697 27.2261 32.313H24.4788C22.9512 32.313 21.7128 31.0747 21.7128 29.5472C21.7128 28.7142 21.0376 28.0391 20.2047 28.0391H19.9751V38.7867C19.9751 46.3282 26.2801 52.4189 33.9414 52.0225C33.9412 52.0225 33.9409 52.0224 33.9408 52.0223C34.9438 51.9689 35.9165 51.8021 36.8474 51.5357Z" fill="#1F2123"/>
<path d="M37.2555 35.6055H36.1299L33.1655 36.2209L30.201 35.6055H29.2053C28.8713 35.6055 28.6044 35.897 28.6489 36.2281C28.7341 36.8615 28.9477 37.4541 29.2624 37.9792L35.2649 39.758C36.6205 39.0926 37.6026 37.7828 37.8119 36.2281C37.8564 35.897 37.5895 35.6055 37.2555 35.6055Z" fill="#BE1423"/>
<path d="M29.2627 37.9783C30.0706 39.3258 31.5448 40.228 33.2301 40.228C33.9602 40.228 34.6504 40.0582 35.2643 39.7569C35.0004 38.1013 33.5666 36.8359 31.8367 36.8359C30.8158 36.8359 29.8979 37.2768 29.2627 37.9783Z" fill="#FF3C3C"/>
<path d="M35.4775 36.8364H30.8528C30.4927 36.8364 30.2007 36.5445 30.2007 36.1842V35.6055H36.1297V36.1842C36.1295 36.5445 35.8376 36.8364 35.4775 36.8364Z" fill="white"/>
<path d="M32.6258 34.8775C32.8158 34.9493 33.0191 34.9881 33.2305 34.9881C33.4419 34.9881 33.6452 34.9493 33.8352 34.8775C34.7628 34.5276 35.2539 33.3814 35.0138 32.3125H31.4472C31.2071 33.3814 31.6982 34.5276 32.6258 34.8775Z" fill="#1F2123"/>
<path d="M31.459 31.1088C31.1873 32.194 31.6811 33.376 32.6255 33.7323C32.8156 33.8041 33.0188 33.8429 33.2302 33.8429C33.4415 33.8429 33.6449 33.8041 33.835 33.7323C34.7794 33.376 35.2733 32.194 35.0015 31.1088L34.1007 27.5113C33.8739 26.6056 32.5867 26.6056 32.3599 27.5113L31.459 31.1088Z" fill="#FF965A"/>
<path d="M30.0926 23.8348H26.9047C26.301 23.8348 25.8115 23.3453 25.8115 22.7416C25.8115 22.1379 26.301 21.6484 26.9047 21.6484H30.0926C30.6963 21.6484 31.1858 22.1379 31.1858 22.7416C31.1858 23.3453 30.6963 23.8348 30.0926 23.8348Z" fill="#373C41"/>
<path d="M39.2025 23.8348H36.0146C35.4109 23.8348 34.9214 23.3453 34.9214 22.7416C34.9214 22.1379 35.4109 21.6484 36.0146 21.6484H39.2025C39.8062 21.6484 40.2957 22.1379 40.2957 22.7416C40.2957 23.3453 39.8062 23.8348 39.2025 23.8348Z" fill="#373C41"/>
</g>
<defs>
<clipPath id="clip0_474_10309">
<rect width="65" height="65" fill="white" transform="translate(0.699707 0.5)"/>
</clipPath>
</defs>
</svg>
