<svg width="66" height="66" viewBox="0 0 66 66" fill="none" xmlns="http://www.w3.org/2000/svg">
<g clip-path="url(#clip0_474_10419)">
<path d="M32.9998 3.625C21.0941 3.625 13.7601 10.3406 13.7398 10.3519C13.7398 10.3519 13.4349 10.7325 13.3779 10.9855C12.9147 13.0417 12.4819 15.7977 12.4819 17.8086C12.4819 34.8952 26.8909 48.7431 43.9774 48.7431C50.5571 48.7431 57.8774 45.5897 62.7767 41.7981C62.8863 41.7132 63.234 41.1434 63.234 41.1434C63.2555 41.0116 63.9378 38.2951 63.9378 34.5628C63.9378 17.4765 50.0864 3.625 32.9998 3.625Z" fill="#52BA41"/>
<path d="M43.9749 47.8694C26.8883 47.8694 13.037 34.0181 13.037 16.9314C13.037 14.673 13.2806 12.4724 13.74 10.3516C6.62486 16.0198 2.06201 24.7584 2.06201 34.5625C2.06201 42.646 5.16217 50.0054 10.2384 55.5166L55.7604 55.5178C59.4083 51.5602 62.0439 46.6375 63.2341 41.143C57.9493 45.3525 51.2565 47.8694 43.9749 47.8694Z" fill="#4C9540"/>
<path d="M33.2326 0.5C24.0829 0.5 16.6655 7.91738 16.6655 17.0671V30.5898C16.6655 32.6043 18.2985 34.2373 20.313 34.2373L49.7996 17.0671C49.7998 7.91738 42.3824 0.5 33.2326 0.5Z" fill="#373C41"/>
<path d="M29.3518 28.999C29.3518 28.8614 29.3657 28.7286 29.3864 28.5983V15.9222C29.3864 9.564 32.9688 4.04345 38.2245 1.26601C36.6491 0.768777 34.9724 0.5 33.2326 0.5C24.0829 0.5 16.6655 7.91738 16.6655 17.0671V30.5898C16.6655 32.6043 18.2985 34.2373 20.313 34.2373H29.3518V28.999Z" fill="#1F2123"/>
<path d="M19.9973 29.4616L20.4131 26.1534L19.9973 21.6602C18.2978 21.6602 16.6655 23.0379 16.6655 24.7375V26.3843C16.6655 28.0838 18.2978 29.4616 19.9973 29.4616Z" fill="#FF965A"/>
<path d="M19.8632 27.1348L20.031 25.7997L19.8632 23.9863C19.1773 23.9863 18.5186 24.5423 18.5186 25.2283V25.8928C18.5187 26.5788 19.1773 27.1348 19.8632 27.1348Z" fill="#EF6A30"/>
<path d="M48.9749 47.0671L39.8455 45.0469L32.7457 45.2654C27.8136 45.4173 23.894 49.4594 23.894 54.3938V64.1377C26.7731 65.0232 29.8308 65.5008 33.0001 65.5008C41.9509 65.5008 50.082 61.6785 55.7604 55.518C55.7602 51.4583 52.9386 47.9443 48.9749 47.0671Z" fill="#2477F9"/>
<path d="M10.2397 55.5127V55.5147C13.9225 59.5131 18.6447 62.5383 23.9784 64.1619V55.5127C23.9784 51.455 26.7972 47.9419 30.7585 47.0627L39.8453 45.0458L32.9656 43.5234L17.0197 47.0627C13.0587 47.9419 10.2397 51.455 10.2397 55.5127Z" fill="#0540E5"/>
<path d="M33.0309 54.6635C36.7931 54.6635 39.8432 51.6136 39.8432 47.8512V45.0453L32.966 43.5234L26.2188 45.021V47.8511C26.2186 51.6136 29.2685 54.6635 33.0309 54.6635Z" fill="#0540E5"/>
<path d="M33.0307 52.2631C30.4774 52.2631 28.4077 50.1933 28.4077 47.6401L37.6539 37.2852V47.6401C37.6537 50.1933 35.5839 52.2631 33.0307 52.2631Z" fill="#FFBE82"/>
<path d="M45.5719 21.0632C45.5719 16.8442 42.8653 12.9863 38.6464 12.9863H27.4148C26.211 12.9863 25.1084 13.3014 24.1465 13.8484V36.148C24.1465 41.0151 28.0612 44.9983 32.9282 45.0351C32.9623 45.0354 32.9965 45.0355 33.0306 45.0355C40.2795 45.0355 46.1557 39.1592 46.1557 31.9105V27.7669L45.5719 21.0632Z" fill="#FFBE82"/>
<path d="M28.4077 37.2852V47.6401C33.5483 48.6385 36.67 46.9274 37.6539 44.3536V37.2852H28.4077Z" fill="#EF6A30"/>
<path d="M45.5719 21.0632C45.5719 16.8442 42.8653 12.9863 38.6464 12.9863H27.4148C26.211 12.9863 25.1084 13.3014 24.1465 13.8484V36.148C24.1465 41.0151 28.0612 44.9983 32.9282 45.0351C32.9623 45.0354 32.9965 45.0355 33.0306 45.0355C40.2795 45.0355 46.1557 39.1592 46.1557 31.9105V27.7669L45.5719 21.0632Z" fill="#FFBE82"/>
<path d="M27.3599 27.0059V27.9314C27.3599 28.5351 27.8493 29.0245 28.453 29.0245C29.0567 29.0245 29.5462 28.5351 29.5462 27.9314V27.0059H27.3599Z" fill="#FF965A"/>
<path d="M36.2666 27.0059V27.9314C36.2666 28.5351 36.7561 29.0245 37.3598 29.0245C37.9635 29.0245 38.4529 28.5351 38.4529 27.9314V27.0059H36.2666Z" fill="#FF965A"/>
<path d="M28.453 28.1487C27.8493 28.1487 27.3599 27.6593 27.3599 27.0556V25.6494L27.7628 25.0392L27.3599 24.429V24.0658C27.3599 23.4621 27.8493 22.9727 28.453 22.9727C29.0567 22.9727 29.5462 23.4621 29.5462 24.0658V27.0556C29.5461 27.6593 29.0567 28.1487 28.453 28.1487Z" fill="#373C41"/>
<path d="M37.3598 28.1487C36.7561 28.1487 36.2666 27.6593 36.2666 27.0556V25.6494L36.6696 25.0392L36.2666 24.429V24.0658C36.2666 23.4621 36.7561 22.9727 37.3598 22.9727C37.9635 22.9727 38.4529 23.4621 38.4529 24.0658V27.0556C38.4529 27.6593 37.9635 28.1487 37.3598 28.1487Z" fill="#373C41"/>
<path d="M24.1905 32.2864C24.201 32.0489 24.3493 13.7812 24.3493 13.7812C21.8877 14.9361 20.065 17.7524 20.065 20.774L19.7759 27.7668V31.7805C19.7759 39.356 26.1232 45.42 33.7422 45.0164C28.2241 43.4137 24.1905 38.3215 24.1905 32.2864Z" fill="#FF965A"/>
<path d="M31.2592 29.7006C30.9875 30.7858 31.4813 31.9678 32.4258 32.3241C32.6159 32.3959 32.8191 32.4347 33.0305 32.4347C33.2418 32.4347 33.4452 32.3959 33.6352 32.3241C34.5797 31.9678 35.0736 30.7858 34.8018 29.7006L33.901 26.1031C33.6742 25.1974 32.387 25.1974 32.1602 26.1031L31.2592 29.7006Z" fill="#FF965A"/>
<path d="M27.7628 26.0537C27.5402 26.0537 27.3599 25.8733 27.3599 25.6507V24.4303C27.3599 24.2077 27.5402 24.0273 27.7628 24.0273C27.9854 24.0273 28.1658 24.2077 28.1658 24.4303V25.6507C28.1658 25.8733 27.9853 26.0537 27.7628 26.0537Z" fill="white"/>
<path d="M36.6696 26.0537C36.447 26.0537 36.2666 25.8733 36.2666 25.6507V24.4303C36.2666 24.2077 36.447 24.0273 36.6696 24.0273C36.8922 24.0273 37.0726 24.2077 37.0726 24.4303V25.6507C37.0726 25.8733 36.8922 26.0537 36.6696 26.0537Z" fill="white"/>
<path d="M19.8195 17.9777L19.7759 27.7669C20.7468 27.7669 21.5339 26.9798 21.5339 26.0088C21.5339 25.2749 21.5339 23.1072 21.5339 21.0556C21.5339 18.8333 23.3355 17.032 25.5578 17.032H34.8789C38.2749 17.032 41.1758 14.5824 41.7446 11.2344H26.5929C22.8638 11.2344 19.836 14.2485 19.8195 17.9777Z" fill="#373C41"/>
<path d="M47.8425 40.0808L40.7534 43.7399V10.707L49.7995 17.105V36.8683C49.7996 38.221 49.0445 39.4604 47.8425 40.0808Z" fill="#373C41"/>
<path d="M37.037 36.0383L34.6261 34.1118C34.387 33.9207 34.0574 33.8894 33.7867 34.0322L33.4003 34.2358C33.1756 34.3541 32.9071 34.3541 32.6826 34.2358L32.2962 34.0322C32.0253 33.8894 31.6958 33.9207 31.4567 34.1118L29.0459 36.0383L31.0082 38.0006C31.5474 38.5398 32.2789 38.8428 33.0416 38.8428C33.8041 38.8428 34.5355 38.5398 35.0749 38.0006L37.037 36.0383Z" fill="#373C41"/>
<path d="M37.0366 36.038L36.4856 35.5977C35.6549 35.9524 34.8168 36.1596 33.9961 36.3572C33.938 36.3249 33.8485 36.262 33.7902 36.2212C33.584 36.0766 33.3883 35.9447 33.1533 35.9421C32.8608 35.9449 32.6406 36.1198 32.4638 36.2604C32.4142 36.2998 32.3429 36.3564 32.3009 36.3807C31.4025 36.2921 30.4762 36.0459 29.5337 35.6479L29.0454 36.0382L29.6856 36.6784C30.5569 37.0016 31.4177 37.204 32.26 37.2824C32.2827 37.2845 32.3051 37.2855 32.327 37.2855C32.6226 37.2855 32.8531 37.1025 33.0245 36.9663C33.0603 36.9379 33.1073 36.9005 33.1466 36.8729C33.1875 36.8996 33.2353 36.9331 33.2723 36.9591C33.5207 37.1335 33.8025 37.3313 34.1253 37.2534C34.8789 37.0723 35.6926 36.8757 36.5188 36.556L37.0366 36.038Z" fill="#1F2123"/>
<path d="M27.6935 29.8846L20.1094 27.6199C20.001 27.5875 19.8919 27.5722 19.784 27.5703L19.7759 27.7682V30.0425L27.0019 32.2002C27.1173 32.2347 27.2337 32.2511 27.3482 32.2511C27.8686 32.2511 28.3491 31.9122 28.5056 31.388C28.6967 30.7487 28.333 30.0755 27.6935 29.8846Z" fill="#FF3C3C"/>
<path d="M27.6935 33.9436L20.1094 31.6788C19.9984 31.6456 19.8863 31.6301 19.7759 31.6289V31.7815C19.7759 32.5958 19.8497 33.3923 19.9901 34.1653L27.0021 36.2592C27.1174 36.2936 27.2338 36.3101 27.3483 36.3101C27.8687 36.3101 28.3491 35.9712 28.5057 35.4471C28.6967 34.8078 28.333 34.1345 27.6935 33.9436Z" fill="#FF3C3C"/>
<path d="M17.6836 27.6428C17.6836 28.7982 18.6203 29.7349 19.7757 29.7349V25.5762C18.6203 25.5762 17.6836 26.5129 17.6836 27.6683V27.6428Z" fill="white"/>
<path d="M19.2033 32.6494C18.8872 32.6494 18.6309 32.3931 18.6309 32.077V27.7912C18.6309 27.4751 18.8872 27.2188 19.2033 27.2188C19.5194 27.2188 19.7757 27.4751 19.7757 27.7912V32.077C19.7757 32.3931 19.5195 32.6494 19.2033 32.6494Z" fill="white"/>
</g>
<defs>
<clipPath id="clip0_474_10419">
<rect width="65" height="65" fill="white" transform="translate(0.5 0.5)"/>
</clipPath>
</defs>
</svg>
