<svg width="66" height="66" viewBox="0 0 66 66" fill="none" xmlns="http://www.w3.org/2000/svg">
<g clip-path="url(#clip0_474_10498)">
<path d="M32.7996 3.625C20.8939 3.625 13.5599 10.3406 13.5396 10.3519C13.5396 10.3519 13.2347 10.7325 13.1777 10.9855C12.7145 13.0417 12.2817 15.7977 12.2817 17.8086C12.2817 34.8952 26.6908 48.7431 43.7772 48.7431C50.3569 48.7431 57.6772 45.5897 62.5765 41.7981C62.6861 41.7132 63.0338 41.1434 63.0338 41.1434C63.0553 41.0116 63.7376 38.2951 63.7376 34.5628C63.7376 17.4765 49.8862 3.625 32.7996 3.625Z" fill="#52BA41"/>
<path d="M43.7747 47.8694C26.6881 47.8694 12.8368 34.018 12.8368 16.9314C12.8368 14.673 13.0804 12.4724 13.5398 10.3516C6.42466 16.0198 1.86182 24.7584 1.86182 34.5625C1.86182 41.4849 4.13529 47.8763 7.9764 53.0307L57.6228 53.0321C60.204 49.5695 62.0816 45.5392 63.0339 41.143C57.7491 45.3525 51.0563 47.8694 43.7747 47.8694Z" fill="#4C9540"/>
<path d="M21.0233 23.5394H17.9775V13.4653C17.9775 12.4899 18.7682 11.6992 19.7436 11.6992H21.0233V23.5394Z" fill="#601A0A"/>
<path d="M44.4561 23.7874H47.5018V13.7133C47.5018 12.7379 46.7111 11.9473 45.7357 11.9473H44.4561V23.7874Z" fill="#70250E"/>
<path d="M41.8616 41.1243L39.1754 40.5299L26.4861 40.5039L23.6699 41.129L22.4619 50.4256L23.6703 64.1292C26.5564 65.0196 29.6218 65.5008 32.8001 65.5008C35.9457 65.5008 38.9892 65.027 41.8614 64.1471L42.0585 55.5681L41.8616 41.1243Z" fill="white"/>
<path d="M7.97705 52.1846V53.0287C11.8534 58.2305 17.3261 62.1721 23.6698 64.1287V41.127L15.3715 42.9687C11.0513 43.9277 7.97705 47.7591 7.97705 52.1846Z" fill="#373C41"/>
<path d="M50.2223 42.9732L41.8613 41.123V64.1465C48.2116 62.2016 53.7211 58.2654 57.6227 53.0311V52.1903C57.6227 47.7626 54.5454 43.9299 50.2223 42.9732Z" fill="#373C41"/>
<path d="M32.7625 39.1094L26.4858 40.5025V53.2441C26.4858 56.7482 29.3264 59.5888 32.8305 59.5888C36.3345 59.5888 39.1752 56.7483 39.1752 53.2441V40.5284L32.7625 39.1094Z" fill="#E4F2F6"/>
<path d="M45.9556 26.6881H45.8284L44.959 22.4134L45.8284 18.8867H45.9556C47.6552 18.8867 49.033 20.2646 49.033 21.9641V23.6109C49.033 25.3103 47.6553 26.6881 45.9556 26.6881Z" fill="#FF965A"/>
<path d="M32.8307 48.7963C35.384 48.7963 37.4537 46.7265 37.4537 44.1733V33.8184H28.2075V44.1733C28.2075 46.7265 30.2773 48.7963 32.8307 48.7963Z" fill="#FF965A"/>
<path d="M28.2076 43.9959C28.3912 44.0087 28.5758 44.0179 28.7624 44.0193C28.7965 44.0195 28.8307 44.0197 28.8648 44.0197C32.1491 44.0197 35.1518 42.8133 37.4537 40.8194V33.8184H28.2075L28.2076 43.9959Z" fill="#EF6A30"/>
<path d="M45.3717 17.5981C44.5286 8.71484 42.6651 9.52117 38.4463 9.52117H27.2146C26.0108 9.52117 24.9082 8.3097 23.9463 8.85667V32.6828C23.9463 37.55 27.861 41.5331 32.728 41.57C32.7621 41.5702 32.7963 41.5704 32.8304 41.5704C40.0793 41.5704 45.9555 35.694 45.9555 28.4453V24.3017L45.3717 17.5981Z" fill="#FFBE82"/>
<path d="M45.9556 24.2668V21.3086C46.6 21.3086 47.1225 21.831 47.1225 22.4755V23.1C47.1225 23.7444 46.6001 24.2668 45.9556 24.2668Z" fill="#FA735F"/>
<path d="M16.4982 23.6107C16.4982 25.3103 17.876 26.6881 19.5756 26.6881H19.7731L21.3485 23.3692L19.7994 18.8867H19.5754C17.8759 18.8867 16.498 20.2646 16.498 21.9641L16.4982 23.6107Z" fill="#FF965A"/>
<path d="M18.3237 23.121C18.3237 23.8123 18.8842 24.3728 19.5755 24.3728V21.1992C18.8842 21.1992 18.3237 21.7597 18.3237 22.451V23.121Z" fill="#FA735F"/>
<path d="M17.4834 24.5334C17.4834 25.6888 18.4201 26.6255 19.5755 26.6255V22.4668C18.4201 22.4668 17.4834 23.4035 17.4834 24.5589V24.5334Z" fill="white"/>
<path d="M27.1597 23.541V24.4665C27.1597 25.0702 27.6491 25.5597 28.2528 25.5597C28.8565 25.5597 29.346 25.0702 29.346 24.4665V23.541H27.1597Z" fill="#FF965A"/>
<path d="M36.0669 23.541V24.4665C36.0669 25.0702 36.5564 25.5597 37.1601 25.5597C37.7638 25.5597 38.2532 25.0702 38.2532 24.4665V23.541H36.0669Z" fill="#FF965A"/>
<path d="M28.2528 24.6839C27.6491 24.6839 27.1597 24.1944 27.1597 23.5907V22.1845L27.5626 21.5743L27.1597 20.9641V20.601C27.1597 19.9973 27.6491 19.5078 28.2528 19.5078C28.8565 19.5078 29.346 19.9973 29.346 20.601V23.5907C29.3459 24.1944 28.8565 24.6839 28.2528 24.6839Z" fill="#373C41"/>
<path d="M37.1601 24.6839C36.5564 24.6839 36.0669 24.1944 36.0669 23.5907V22.1845L36.4699 21.5743L36.0669 20.9641V20.601C36.0669 19.9973 36.5564 19.5078 37.1601 19.5078C37.7638 19.5078 38.2532 19.9973 38.2532 20.601V23.5907C38.2532 24.1944 37.7638 24.6839 37.1601 24.6839Z" fill="#373C41"/>
<path d="M29.6932 18.9617H26.5053C25.9016 18.9617 25.4121 18.4723 25.4121 17.8686C25.4121 17.2649 25.9016 16.7754 26.5053 16.7754H29.6932C30.2969 16.7754 30.7864 17.2649 30.7864 17.8686C30.7864 18.4723 30.2969 18.9617 29.6932 18.9617Z" fill="#823214"/>
<path d="M38.8026 18.9617H35.6147C35.011 18.9617 34.5215 18.4723 34.5215 17.8686C34.5215 17.2649 35.011 16.7754 35.6147 16.7754H38.8026C39.4063 16.7754 39.8958 17.2649 39.8958 17.8686C39.8958 18.4723 39.4063 18.9617 38.8026 18.9617Z" fill="#823214"/>
<path d="M27.5626 22.5869C27.34 22.5869 27.1597 22.4065 27.1597 22.1839V20.9635C27.1597 20.7409 27.34 20.5605 27.5626 20.5605C27.7852 20.5605 27.9656 20.7409 27.9656 20.9635V22.1839C27.9656 22.4064 27.7851 22.5869 27.5626 22.5869Z" fill="white"/>
<path d="M36.4699 22.5869C36.2473 22.5869 36.0669 22.4065 36.0669 22.1839V20.9635C36.0669 20.7409 36.2473 20.5605 36.4699 20.5605C36.6925 20.5605 36.8728 20.7409 36.8728 20.9635V22.1839C36.8728 22.4064 36.6925 22.5869 36.4699 22.5869Z" fill="white"/>
<path d="M18.9957 29.5419C18.6797 29.5419 18.4233 29.2856 18.4233 28.9695V24.6837C18.4233 24.3676 18.6797 24.1113 18.9957 24.1113C19.3118 24.1113 19.5682 24.3676 19.5682 24.6837V28.9695C19.5682 29.2858 19.3118 29.5419 18.9957 29.5419Z" fill="white"/>
<path d="M48.0476 24.8518C48.0476 26.0072 47.1109 26.9439 45.9556 26.9439V22.7852C47.1109 22.7852 48.0476 23.7219 48.0476 24.8772V24.8518Z" fill="white"/>
<path d="M46.5353 29.8604C46.2192 29.8604 45.9629 29.6041 45.9629 29.288V25.0021C45.9629 24.686 46.2192 24.4297 46.5353 24.4297C46.8514 24.4297 47.1077 24.686 47.1077 25.0021V29.288C47.1077 29.6042 46.8515 29.8604 46.5353 29.8604Z" fill="white"/>
<path d="M36.8556 30.7305H35.73L32.7656 31.3459L29.8011 30.7305H28.8054C28.4714 30.7305 28.2045 31.022 28.249 31.3531C28.3342 31.9865 28.5478 32.5791 28.8625 33.1042L34.865 34.883C36.2206 34.2176 37.2027 32.9078 37.412 31.3531C37.4565 31.022 37.1896 30.7305 36.8556 30.7305Z" fill="#BE1423"/>
<path d="M28.8628 33.1033C29.6707 34.4508 31.1449 35.353 32.8302 35.353C33.5603 35.353 34.2505 35.1832 34.8644 34.8819C34.6005 33.2263 33.1667 31.9609 31.4368 31.9609C30.4159 31.9609 29.498 32.4017 28.8628 33.1033Z" fill="#FF3C3C"/>
<path d="M35.0776 31.9614H30.4529C30.0928 31.9614 29.8008 31.6695 29.8008 31.3092V30.7305H35.7298V31.3092C35.7296 31.6693 35.4377 31.9614 35.0776 31.9614Z" fill="white"/>
<path d="M31.0595 26.2358C30.7878 27.3209 31.2816 28.503 32.2261 28.8593C32.4161 28.931 32.6194 28.9698 32.8308 28.9698C33.0421 28.9698 33.2455 28.931 33.4355 28.8593C34.38 28.503 34.8739 27.3209 34.6021 26.2358L33.7013 22.6382C33.4745 21.7326 32.1873 21.7326 31.9605 22.6382L31.0595 26.2358Z" fill="#FF965A"/>
<path d="M27.2751 50.9374L32.8091 49.0464V46.378L27.253 44.5576C26.2158 44.4054 25.2852 45.2093 25.2852 46.2575V49.2409C25.2852 50.2982 26.231 51.1047 27.2751 50.9374Z" fill="#FF3C3C"/>
<path d="M38.2557 50.9374L32.7217 49.0464V46.378L38.2778 44.5576C39.315 44.4054 40.2457 45.2093 40.2457 46.2575V49.2409C40.2457 50.2982 39.2997 51.1047 38.2557 50.9374Z" fill="#FF3C3C"/>
<path d="M33.7786 49.7482H31.8881C31.5112 49.7482 31.2056 49.4426 31.2056 49.0656V46.1005C31.2056 45.7236 31.5111 45.418 31.8881 45.418H33.7786C34.1555 45.418 34.4612 45.7235 34.4612 46.1005V49.0656C34.4612 49.4426 34.1555 49.7482 33.7786 49.7482Z" fill="#DC1428"/>
<path d="M44.495 21.7732V8.93359H25.1063C24.9394 8.9701 24.7689 8.98956 24.5975 8.98956H20.6083V22.9413C20.374 23.2972 19.9878 23.5052 19.5757 23.5651V28.3152C19.5757 35.8908 25.923 41.9546 33.542 41.551C28.0239 39.9485 23.9903 34.8561 23.9903 28.821C24.0347 27.8125 24.0032 19.0719 24.0281 14.1004C24.043 11.1445 28.1946 10.4622 29.1339 13.2649C29.1411 13.2868 29.1484 13.3087 29.1554 13.3308C29.7724 15.2765 31.1047 16.7622 32.8336 16.7622C34.651 16.7622 35.94 15.1924 36.529 13.2647C37.019 11.6609 38.5232 10.5829 40.2001 10.5829H40.3438C42.4723 10.5829 44.1978 12.3084 44.1978 14.437V23.4338C44.1978 24.4047 44.985 25.1919 45.9559 25.1919V24.096C45.1016 23.6681 44.495 22.7352 44.495 21.7732Z" fill="#FF965A"/>
<path d="M34.6042 0.5L34.4725 0.512975C30.1337 0.939354 26.8262 4.58788 26.8262 8.94771C26.8619 9.11244 26.8818 9.2806 26.8821 9.44977C26.8826 9.6234 26.884 9.79691 26.8857 9.97028C27.9487 10.399 28.7919 11.2943 29.1555 12.4403C29.7725 14.386 31.1049 15.8717 32.8338 15.8717C34.6511 15.8717 35.9402 14.3019 36.5291 12.3741C37.0191 10.7704 38.5234 9.69235 40.2003 9.69235H40.3439C42.4725 9.69235 44.198 11.4178 44.198 13.5464V22.5433C44.198 23.5142 44.9851 24.3013 45.956 24.3013V11.8516C45.9558 5.58234 40.8736 0.5 34.6042 0.5Z" fill="#823214"/>
<path d="M36.3912 0.640431C35.809 0.548337 35.2123 0.5 34.6042 0.5H30.9273C24.658 0.5 19.5757 5.58234 19.5757 11.8516V17.6671V17.6675V24.3014C20.5466 24.3014 21.3337 23.5143 21.3337 22.5434V13.5466C21.3337 11.418 23.0592 9.69248 25.1878 9.69248H25.4635C25.998 9.69248 26.5099 9.80365 26.9769 10.006C27.7635 5.19577 31.5728 1.4025 36.3912 0.640431Z" fill="#70250E"/>
</g>
<defs>
<clipPath id="clip0_474_10498">
<rect width="65" height="65" fill="white" transform="translate(0.299805 0.5)"/>
</clipPath>
</defs>
</svg>
