<svg width="66" height="66" viewBox="0 0 66 66" fill="none" xmlns="http://www.w3.org/2000/svg">
<g clip-path="url(#clip0_474_10604)">
<path d="M32.5999 3.17969C20.6087 3.17969 13.222 9.9435 13.2016 9.95495C13.2016 9.95495 12.8946 10.3382 12.8371 10.5931C12.3705 12.6642 11.9346 15.4398 11.9346 17.4652C11.9346 34.6744 26.447 48.6217 43.6561 48.6217C50.2829 48.6217 57.6558 45.4456 62.5903 41.6269C62.7007 41.5414 63.0509 40.9675 63.0509 40.9675C63.0727 40.8347 63.7597 38.0987 63.7597 34.3397C63.7598 17.1305 49.8091 3.17969 32.5999 3.17969Z" fill="#52BA41"/>
<path d="M43.6536 47.7422C26.4443 47.7422 12.4936 33.7914 12.4936 16.5823C12.4936 14.3077 12.7389 12.0913 13.2018 9.95508C6.03561 15.664 1.43994 24.4655 1.43994 34.3399C1.43994 41.4176 3.79978 47.9443 7.77547 53.1759L57.4241 53.177C60.115 49.6373 62.0702 45.4952 63.051 40.9676C57.7283 45.2072 50.9874 47.7422 43.6536 47.7422Z" fill="#4C9540"/>
<path d="M50.0224 42.973L32.5626 39.1094L24.917 40.8064V64.5415C27.3749 65.1651 29.9482 65.4994 32.6001 65.4994C42.6682 65.4994 51.7054 60.6969 57.423 53.1756V52.1901C57.4228 47.7624 54.3455 43.9297 50.0224 42.973Z" fill="#FFA50A"/>
<path d="M25.0026 40.7871L15.1715 42.9691C10.8512 43.928 7.77686 47.7594 7.77686 52.1849V53.174C11.9956 58.7253 18.034 62.8168 25.0025 64.5634V40.7871H25.0026Z" fill="#FA870A"/>
<path d="M45.7554 26.6881H45.6282L44.7588 22.4134L45.6282 18.8867H45.7554C47.455 18.8867 48.8328 20.2646 48.8328 21.9641V23.6109C48.8328 25.3103 47.4551 26.6881 45.7554 26.6881Z" fill="#FF965A"/>
<path d="M32.6306 37.4219C27.137 37.4219 22.6836 41.8753 22.6836 47.3689C22.6836 51.0254 24.6579 54.2192 27.5975 55.9476L32.6888 50.8564L37.7376 55.9053C40.6367 54.1671 42.5778 50.9952 42.5778 47.3689C42.5777 41.8753 38.1242 37.4219 32.6306 37.4219Z" fill="#FA870A"/>
<path d="M32.6306 35.6406C27.137 35.6406 22.6836 40.0941 22.6836 45.5877C22.6836 49.2442 24.6579 52.438 27.5975 54.1664L32.6888 49.0751L37.7376 54.124C40.6367 52.3858 42.5778 49.2139 42.5778 45.5877C42.5777 40.0941 38.1242 35.6406 32.6306 35.6406Z" fill="#FFC305"/>
<path d="M32.6305 48.7963C35.1838 48.7963 37.2535 46.7265 37.2535 44.1733V33.8184H28.0073V44.1733C28.0073 46.7265 30.0771 48.7963 32.6305 48.7963Z" fill="#FF965A"/>
<path d="M45.172 17.5984C45.172 13.3794 42.4654 9.52148 38.2465 9.52148H27.0149C25.8111 9.52148 24.7085 9.83656 23.7466 10.3835V32.6831C23.7466 37.5503 27.6613 41.5334 32.5283 41.5703C32.5624 41.5706 32.5966 41.5707 32.6307 41.5707C39.8796 41.5707 45.7558 35.6943 45.7558 28.4456V24.3021L45.172 17.5984Z" fill="#FFBE82"/>
<path d="M45.7554 24.2668V21.3086C46.3998 21.3086 46.9223 21.831 46.9223 22.4755V23.1C46.9223 23.7444 46.3999 24.2668 45.7554 24.2668Z" fill="#FA735F"/>
<path d="M16.298 23.6107C16.298 25.3103 17.6758 26.6881 19.3754 26.6881H19.5729L21.1483 23.3692L19.5992 18.8867H19.3752C17.6757 18.8867 16.2979 20.2646 16.2979 21.9641L16.298 23.6107Z" fill="#FF965A"/>
<path d="M18.1235 23.121C18.1235 23.8123 18.684 24.3728 19.3753 24.3728V21.1992C18.684 21.1992 18.1235 21.7597 18.1235 22.451V23.121Z" fill="#FA735F"/>
<path d="M17.2832 24.5334C17.2832 25.6888 18.2199 26.6255 19.3753 26.6255V22.4668C18.2199 22.4668 17.2832 23.4035 17.2832 24.5589V24.5334Z" fill="white"/>
<path d="M26.9595 23.541V24.4665C26.9595 25.0702 27.4489 25.5597 28.0526 25.5597C28.6563 25.5597 29.1458 25.0702 29.1458 24.4665V23.541H26.9595Z" fill="#FF965A"/>
<path d="M35.8667 23.541V24.4665C35.8667 25.0702 36.3562 25.5597 36.9599 25.5597C37.5636 25.5597 38.053 25.0702 38.053 24.4665V23.541H35.8667Z" fill="#FF965A"/>
<path d="M28.0526 24.6839C27.4489 24.6839 26.9595 24.1944 26.9595 23.5907V22.1845L27.3624 21.5743L26.9595 20.9641V20.601C26.9595 19.9973 27.4489 19.5078 28.0526 19.5078C28.6563 19.5078 29.1458 19.9973 29.1458 20.601V23.5907C29.1458 24.1944 28.6563 24.6839 28.0526 24.6839Z" fill="#373C41"/>
<path d="M36.9599 24.6839C36.3562 24.6839 35.8667 24.1944 35.8667 23.5907V22.1845L36.2697 21.5743L35.8667 20.9641V20.601C35.8667 19.9973 36.3562 19.5078 36.9599 19.5078C37.5636 19.5078 38.053 19.9973 38.053 20.601V23.5907C38.053 24.1944 37.5636 24.6839 36.9599 24.6839Z" fill="#373C41"/>
<path d="M29.493 18.9617H26.3051C25.7014 18.9617 25.2119 18.4723 25.2119 17.8686C25.2119 17.2649 25.7014 16.7754 26.3051 16.7754H29.493C30.0967 16.7754 30.5862 17.2649 30.5862 17.8686C30.5862 18.4723 30.0967 18.9617 29.493 18.9617Z" fill="#823214"/>
<path d="M38.6024 18.9617H35.4145C34.8108 18.9617 34.3213 18.4723 34.3213 17.8686C34.3213 17.2649 34.8108 16.7754 35.4145 16.7754H38.6024C39.2061 16.7754 39.6956 17.2649 39.6956 17.8686C39.6956 18.4723 39.2061 18.9617 38.6024 18.9617Z" fill="#823214"/>
<path d="M34.404 0.5H30.7271C24.4578 0.5 19.3755 5.58234 19.3755 11.8516V17.6671V17.6675V24.3014C20.3464 24.3014 21.1335 23.5143 21.1335 22.5434V14.7808H43.9976V22.5434C43.9976 23.5143 44.7848 24.3014 45.7557 24.3014V17.6675C45.7557 17.6674 45.7557 17.6673 45.7557 17.6671V11.8516C45.7556 5.58234 40.6734 0.5 34.404 0.5Z" fill="#FFBE82"/>
<path d="M27.3624 22.5869C27.1398 22.5869 26.9595 22.4065 26.9595 22.1839V20.9635C26.9595 20.7409 27.1398 20.5605 27.3624 20.5605C27.585 20.5605 27.7654 20.7409 27.7654 20.9635V22.1839C27.7654 22.4065 27.5849 22.5869 27.3624 22.5869Z" fill="white"/>
<path d="M36.2697 22.5869C36.0471 22.5869 35.8667 22.4065 35.8667 22.1839V20.9635C35.8667 20.7409 36.0471 20.5605 36.2697 20.5605C36.4923 20.5605 36.6726 20.7409 36.6726 20.9635V22.1839C36.6726 22.4065 36.4923 22.5869 36.2697 22.5869Z" fill="white"/>
<path d="M18.796 29.5419C18.4799 29.5419 18.2236 29.2856 18.2236 28.9695V24.6837C18.2236 24.3676 18.4799 24.1113 18.796 24.1113C19.1121 24.1113 19.3684 24.3676 19.3684 24.6837V28.9695C19.3684 29.2856 19.1123 29.5419 18.796 29.5419Z" fill="white"/>
<path d="M47.8475 24.8518C47.8475 26.0072 46.9107 26.9439 45.7554 26.9439V22.7852C46.9107 22.7852 47.8475 23.7219 47.8475 24.8772V24.8518Z" fill="white"/>
<path d="M46.3351 29.8603C46.019 29.8603 45.7627 29.604 45.7627 29.2879V25.0021C45.7627 24.686 46.019 24.4297 46.3351 24.4297C46.6512 24.4297 46.9075 24.686 46.9075 25.0021V29.2879C46.9075 29.6041 46.6513 29.8603 46.3351 29.8603Z" fill="white"/>
<path d="M23.7901 28.821C23.8227 28.0798 23.8278 11.8516 23.8278 11.8516C23.8278 5.71208 28.702 0.711791 34.7917 0.50725C34.663 0.502926 34.5338 0.5 34.404 0.5H30.7271C24.4578 0.5 19.3755 5.58234 19.3755 11.8516V28.315C19.3755 35.8907 25.7228 41.9545 33.3418 41.5509C27.8238 39.9484 23.7901 34.856 23.7901 28.821Z" fill="#FF965A"/>
<path d="M25.2119 12.9727H39.696V14.2447H25.2119V12.9727Z" fill="#FF965A"/>
<path d="M25.2119 10.375H39.696V11.647H25.2119V10.375Z" fill="#FF965A"/>
<path d="M45.6558 23.1641C44.8229 23.1641 44.1477 23.8392 44.1477 24.6722V27.4382C44.1477 31.0637 41.2086 34.0028 37.5831 34.0028H27.6778C24.0523 34.0028 21.1132 31.0637 21.1132 27.4382V24.6722C21.1132 23.8392 20.438 23.1641 19.6051 23.1641H19.3755V33.9117C19.3755 41.1997 25.2504 47.0875 32.4802 47.1647C32.4962 47.165 32.512 47.1661 32.528 47.1662C32.5621 47.1665 32.5963 47.1666 32.6304 47.1666C32.7492 47.1666 32.8675 47.1648 32.9854 47.1617H32.9872C33.1022 47.1586 33.2168 47.1539 33.331 47.1479C33.3346 47.1478 33.3381 47.1477 33.3417 47.1475C33.3415 47.1475 33.3411 47.1473 33.3411 47.1473C40.2593 46.778 45.7554 41.0518 45.7554 34.0416V23.2637C45.7168 23.225 45.6946 23.2029 45.6558 23.1641Z" fill="#823214"/>
<path d="M35.4865 46.8541C29.5582 45.5458 25.0999 40.2605 25.0999 33.9118C25.0999 33.9118 25.0999 33.7563 25.0999 33.4767C22.756 32.4747 21.1132 30.1486 21.1132 27.4382V24.6722C21.1132 23.8392 20.438 23.1641 19.6051 23.1641H19.3755V33.9117C19.3755 41.1997 25.2504 47.0875 32.4802 47.1647C32.4962 47.165 32.512 47.1661 32.528 47.1662C32.5621 47.1665 32.5963 47.1666 32.6304 47.1666C32.7492 47.1666 32.8675 47.1648 32.9854 47.1617H32.9872C33.1022 47.1586 33.2168 47.1539 33.331 47.1479C33.3346 47.1478 33.3382 47.1477 33.3417 47.1475C33.3415 47.1475 33.3411 47.1473 33.3411 47.1473C34.074 47.1084 34.7905 47.0085 35.4865 46.8541Z" fill="#69280F"/>
<path d="M38.2962 39.6364H26.9644V30.5165C26.9644 29.295 27.9546 28.3047 29.1761 28.3047H36.0843C37.3058 28.3047 38.2961 29.295 38.2961 30.5165V39.6364H38.2962Z" fill="#823214"/>
<path d="M36.6559 30.7305H35.5303L32.5658 31.3459L29.6014 30.7305H28.6057C28.2717 30.7305 28.0048 31.022 28.0493 31.3531C28.1345 31.9865 28.3481 32.5791 28.6628 33.1042L34.6653 34.883C36.0209 34.2176 37.003 32.9078 37.2123 31.3531C37.2568 31.022 36.9899 30.7305 36.6559 30.7305Z" fill="#BE1423"/>
<path d="M28.6631 33.1033C29.4709 34.4508 30.9452 35.353 32.6305 35.353C33.3606 35.353 34.0508 35.1832 34.6647 34.8819C34.4008 33.2263 32.9669 31.9609 31.2371 31.9609C30.2162 31.9609 29.2983 32.4017 28.6631 33.1033Z" fill="#FF3C3C"/>
<path d="M34.8779 31.9614H30.2532C29.8931 31.9614 29.6011 31.6695 29.6011 31.3092V30.7305H35.5301V31.3092C35.5299 31.6693 35.238 31.9614 34.8779 31.9614Z" fill="white"/>
<path d="M30.8593 26.2358C30.5876 27.3209 31.0814 28.503 32.0259 28.8593C32.216 28.931 32.4192 28.9698 32.6306 28.9698C32.8419 28.9698 33.0453 28.931 33.2353 28.8593C34.1798 28.503 34.6737 27.3209 34.4019 26.2358L33.5011 22.6382C33.2743 21.7326 31.9871 21.7326 31.7603 22.6382L30.8593 26.2358Z" fill="#FF965A"/>
<path d="M19.3984 12.4004V18.9034C20.6049 18.9034 21.583 17.9254 21.583 16.7189V14.585C21.5831 13.3784 20.6049 12.4004 19.3984 12.4004Z" fill="#69280F"/>
<path d="M45.7556 12.4004V18.9034C44.7491 18.9034 43.9331 18.0874 43.9331 17.0809V14.2228C43.9332 13.2163 44.7491 12.4004 45.7556 12.4004Z" fill="#823214"/>
<path d="M46.0514 42.0944L45.4305 41.957C44.3861 46.7352 41.1466 50.8498 36.5877 52.9325L19.2957 60.8325V42.0541L18.6597 42.1953V61.8224L36.8522 53.5111C41.5944 51.3446 44.9643 47.0648 46.0514 42.0944Z" fill="#FA870A"/>
<path d="M18.6597 61.0606V28.8239C18.6597 28.6482 18.802 28.5059 18.9777 28.5059C19.1533 28.5059 19.2957 28.6482 19.2957 28.8239V60.0707L36.5877 52.1707C42.2005 49.6066 45.8134 43.9626 45.7921 37.792L45.7628 29.1925C45.7621 29.0168 45.904 28.874 46.0796 28.8733H46.0808C46.2559 28.8733 46.3981 29.0149 46.3988 29.1902L46.4282 37.7897C46.4503 44.2095 42.6914 50.0815 36.852 52.7492L18.6597 61.0606Z" fill="white"/>
<path d="M18.9777 60.2461C18.802 60.2461 18.6597 60.3884 18.6597 60.5641V62.2125C18.8703 62.3181 19.0824 62.4215 19.2957 62.5224V60.5641C19.2957 60.3884 19.1533 60.2461 18.9777 60.2461Z" fill="white"/>
</g>
<defs>
<clipPath id="clip0_474_10604">
<rect width="65" height="65" fill="white" transform="translate(0.100098 0.5)"/>
</clipPath>
</defs>
</svg>
