<svg width="28" height="28" viewBox="0 0 28 28" fill="none" xmlns="http://www.w3.org/2000/svg">
<g clip-path="url(#clip0_474_32453)">
<path d="M13.9993 1.229C8.84821 1.229 5.67506 4.13454 5.66634 4.13947C5.66634 4.13947 5.5344 4.30413 5.50974 4.41361C5.3093 5.30325 5.12207 6.49558 5.12207 7.36566C5.12207 14.7583 11.3562 20.7497 18.7488 20.7497C21.5954 20.7497 24.7626 19.3853 26.8823 17.7448C26.9297 17.7081 27.0802 17.4616 27.0802 17.4616C27.0895 17.4045 27.3847 16.2292 27.3847 14.6145C27.3848 7.22183 21.3919 1.229 13.9993 1.229Z" fill="#52BA41"/>
<path d="M18.7481 20.372C11.3555 20.372 5.36264 14.3791 5.36264 6.9865C5.36264 6.00935 5.46801 5.05729 5.66681 4.13965C2.58839 6.59209 0.614258 10.3729 0.614258 14.6147C0.614258 17.37 1.44675 19.9309 2.87398 22.0595L19.8315 26.6645C20.0898 26.5393 20.3436 26.4059 20.5925 26.2649L25.4802 21.5016C26.2185 20.2731 26.7663 18.9136 27.0808 17.4618C24.7942 19.283 21.8985 20.372 18.7481 20.372Z" fill="#4C9540"/>
<path d="M19.8307 26.6642V25.6352C19.8307 23.8864 18.6153 22.3725 16.9077 21.9947L16.8125 21.9736V27.7021C17.8686 27.4757 18.8804 27.1249 19.8307 26.6642Z" fill="white"/>
<path d="M16.8488 21.9817L10.0118 20.4688L3.14285 21.9933C3.14224 21.9934 2.98909 22.0309 2.87402 22.059C5.276 25.6415 9.36208 27.9999 13.9993 27.9999C14.9755 27.9999 15.929 27.8944 16.8488 27.6946V21.9817Z" fill="#FFC305"/>
<path d="M15.7067 23.9737L16.8494 22.8778V22.1186L15.7067 23.2145L14.564 22.1186L13.4215 23.2145L12.279 22.1186L11.1365 23.2145L9.99405 22.1186L8.8517 23.2145L7.7094 22.1186L6.56715 23.2145L5.42474 22.1186L4.28271 23.2144L3.13263 22.1108L3.00293 22.246C3.4112 22.8333 3.86501 23.3863 4.35981 23.8999L5.42496 22.8779L6.56737 23.9737L7.70956 22.8779L8.85186 23.9737L9.99422 22.8779L11.1367 23.9737L12.2792 22.8779L13.4217 23.9737L14.5642 22.8778L15.7067 23.9737Z" fill="#FFA50A"/>
<path d="M15.7598 25.6037L16.8492 24.5588V23.7997L15.7598 24.8445L14.6171 23.7486L13.4746 24.8444L12.3321 23.7485L11.1896 24.8444L10.0471 23.7485L8.90479 24.8444L7.76249 23.7485L6.6203 24.8444L5.47788 23.7485L4.83301 24.3673C4.96638 24.4927 5.10183 24.616 5.2403 24.7359L5.47799 24.5079L6.62041 25.6038L7.76254 24.5079L8.90484 25.6038L10.0472 24.5079L11.1897 25.6038L12.3322 24.5079L13.4747 25.6038L14.6172 24.5078L15.7598 25.6037Z" fill="#FFA50A"/>
<path d="M15.8133 27.2341L16.8494 26.2404V25.4812L15.8133 26.4749L14.6706 25.379L13.5281 26.4748L12.3856 25.3789L11.2431 26.4748L10.1007 25.3789L8.95831 26.4748L7.81601 25.3789L7.08691 26.0785C7.2496 26.1768 7.41458 26.2716 7.58165 26.3631L7.81601 26.1382L8.55141 26.8438C8.73798 26.927 8.92664 27.0064 9.11765 27.0813L10.1007 26.1382L11.2431 27.2341L12.3856 26.1382L13.5281 27.2341L14.6706 26.1382L15.8133 27.2341Z" fill="#FFA50A"/>
<path d="M12.4387 27.0093L11.625 27.7898C11.8508 27.8302 12.0784 27.8651 12.3079 27.894L12.4387 27.7686L12.6047 27.9278C12.8872 27.9571 13.1725 27.9775 13.46 27.9889L12.4387 27.0093Z" fill="#FFA50A"/>
<path d="M14.7233 27.0093L13.6943 27.9962C13.7958 27.9985 13.8974 28 13.9994 28C14.1645 28 14.3287 27.9959 14.4925 27.9899L14.7234 27.7685L14.9301 27.9667C15.1716 27.95 15.4114 27.9269 15.6495 27.8974L14.7233 27.0093Z" fill="#FFA50A"/>
<path d="M16.1572 27.8259C16.3897 27.7881 16.6204 27.7443 16.8488 27.6946V27.1626L16.1572 27.8259Z" fill="#FFA50A"/>
<path d="M10.7799 27.6098L10.1538 27.0093L9.81641 27.333C10.1325 27.4369 10.4539 27.5293 10.7799 27.6098Z" fill="#FFA50A"/>
<path d="M10.0401 25.6507C11.8847 25.6507 13.38 24.1553 13.38 22.3108V21.214L10.0121 20.4688L6.7002 21.2039V22.3108C6.7002 24.1553 8.19554 25.6507 10.0401 25.6507Z" fill="#FFA50A"/>
<path d="M10.0403 24.2333C8.94039 24.2333 8.04883 23.3417 8.04883 22.2419V17.7812H12.0318V22.2419C12.0317 23.3417 11.1401 24.2333 10.0403 24.2333Z" fill="#FAB9AF"/>
<path d="M8.04883 17.7808V22.2414C10.2632 22.6714 11.608 21.9344 12.0318 20.8256V17.7808H8.04883Z" fill="#FA735F"/>
<path d="M7.55556 19.8633L10.0402 24.2329C10.0402 24.2329 8.56558 26.3575 7.83545 26.2227C6.81665 26.0347 5.8669 22.248 6.20712 21.2695C6.42487 20.6431 7.55556 19.8633 7.55556 19.8633Z" fill="white"/>
<path d="M12.512 19.8633L10.0273 24.2329C10.0273 24.2329 11.502 26.3575 12.2321 26.2227C13.2509 26.0347 14.2007 22.248 13.8604 21.2695C13.6427 20.6431 12.512 19.8633 12.512 19.8633Z" fill="white"/>
<path d="M15.5844 14.7092L15.4053 13.2842L15.5844 11.3486C16.3165 11.3486 17.0196 11.9422 17.0196 12.6743V13.3836C17.0196 14.1157 16.3165 14.7092 15.5844 14.7092Z" fill="#FA968C"/>
<path d="M15.5844 14.7092L15.4053 13.2842L15.5844 11.3486C16.3165 11.3486 17.0196 11.9422 17.0196 12.6743V13.3836C17.0196 14.1157 16.3165 14.7092 15.5844 14.7092Z" fill="#FA968C"/>
<path d="M15.6416 13.7073L15.5693 13.1322L15.6416 12.3511C15.9371 12.3511 16.2208 12.5906 16.2208 12.8861V13.1723C16.2208 13.4678 15.9371 13.7073 15.6416 13.7073Z" fill="#FA735F"/>
<path d="M4.42547 14.4114L4.60459 12.9863L4.42547 11.0508C3.69336 11.0508 2.99023 11.6443 2.99023 12.3764V13.0858C2.99023 13.8179 3.6933 14.4114 4.42547 14.4114Z" fill="#FA968C"/>
<path d="M4.3683 13.4095L4.44057 12.8344L4.3683 12.0532C4.07284 12.0532 3.78906 12.2927 3.78906 12.5882V12.8745C3.78906 13.1699 4.07284 13.4095 4.3683 13.4095Z" fill="#FA735F"/>
<path d="M15.4423 10.7937C15.4423 8.97632 14.2764 7.31445 12.459 7.31445H7.62078C7.10221 7.31445 6.62725 7.45018 6.21289 7.6858V17.2918C6.21289 19.3884 7.89925 21.1042 9.99579 21.1201C10.0105 21.1202 10.0252 21.1203 10.0399 21.1203C13.1625 21.1203 15.6938 18.5889 15.6938 15.4664V13.6815L15.4423 10.7937Z" fill="#FAB9AF"/>
<path d="M14.7752 8.82684C14.8293 8.82689 14.8826 8.82426 14.9357 8.82032C14.4281 7.92974 13.5644 7.31445 12.4591 7.31445H7.62076C7.10219 7.31445 6.62723 7.45018 6.21287 7.6858V7.80612C5.14915 8.30245 4.45468 9.36508 4.45468 10.6691L4.33008 13.6814V15.4104C4.33008 18.6737 7.06432 21.2858 10.3464 21.112C7.96931 20.4217 6.23178 18.228 6.23178 15.6283C6.24591 15.3071 6.23178 12.1941 6.23178 11.0117C6.23178 11.0032 6.23183 10.9948 6.23189 10.9864C6.24093 9.78377 7.23183 8.81933 8.43446 8.82053L14.7752 8.82684Z" fill="#FA968C"/>
<path d="M6.23583 15.8202C6.23369 15.7564 6.23183 15.6926 6.23183 15.6282C6.24465 15.3366 6.23419 12.7445 6.23216 11.3843C5.62202 11.3979 5.01737 11.4525 4.4183 11.5486L4.33008 13.6813V15.3915C4.76975 15.6518 5.49397 15.7975 6.23583 15.8202Z" fill="#FFDCD7"/>
<path d="M8.34637 11.4993C7.62779 11.4062 6.91667 11.368 6.21289 11.3847V15.8194C7.18275 15.8524 8.18692 15.6756 8.62664 15.27C9.00117 14.9245 9.26955 13.8773 9.4347 13.0097C9.57201 12.2881 9.07481 11.5937 8.34637 11.4993Z" fill="#FFEDEB"/>
<path d="M7.59668 13.3535V13.7522C7.59668 14.0123 7.80753 14.2231 8.06758 14.2231C8.32764 14.2231 8.53849 14.0123 8.53849 13.7522V13.3535H7.59668Z" fill="#FFDCD7"/>
<path d="M15.567 11.5366L15.4053 13.2841L15.5844 14.7092C15.839 14.7092 16.0899 14.6373 16.3091 14.5129C16.5949 13.4378 16.5602 11.7261 16.5602 11.7261C16.2309 11.6499 15.8997 11.5873 15.567 11.5366Z" fill="#FFDCD7"/>
<path d="M11.747 11.5026C11.0198 11.5968 10.5234 12.2902 10.6605 13.0106C10.8254 13.8768 11.0933 14.9224 11.4672 15.2673C12.2229 15.9643 14.6474 15.9849 15.6935 15.4235V13.6814L15.506 11.5277C14.2763 11.3462 13.0234 11.3372 11.747 11.5026Z" fill="#FFEDEB"/>
<path d="M11.4336 13.3535V13.7522C11.4336 14.0123 11.6444 14.2231 11.9045 14.2231C12.1646 14.2231 12.3754 14.0123 12.3754 13.7522V13.3535H11.4336Z" fill="#FFDCD7"/>
<path d="M3.70948 14.2205C3.92657 14.3417 4.17419 14.4116 4.42531 14.4116L4.60443 12.9865L4.47068 11.541C4.15419 11.5905 3.83917 11.6509 3.52575 11.7233C3.52575 11.7233 3.49671 13.1522 3.70948 14.2205Z" fill="#FFDCD7"/>
<path d="M8.06758 13.8459C7.80753 13.8459 7.59668 13.6351 7.59668 13.375V12.7693L7.77027 12.5064L7.59668 12.2436V12.0871C7.59668 11.8271 7.80753 11.6162 8.06758 11.6162C8.32764 11.6162 8.53849 11.8271 8.53849 12.0871V13.375C8.53849 13.6351 8.32764 13.8459 8.06758 13.8459Z" fill="#373C41"/>
<path d="M11.9045 13.8459C11.6444 13.8459 11.4336 13.6351 11.4336 13.375V12.7693L11.6072 12.5064L11.4336 12.2436V12.0871C11.4336 11.8271 11.6444 11.6162 11.9045 11.6162C12.1646 11.6162 12.3754 11.8271 12.3754 12.0871V13.375C12.3754 13.6351 12.1646 13.8459 11.9045 13.8459Z" fill="#373C41"/>
<path d="M8.10325 10.8833L6.80686 10.4302C6.56133 10.3444 6.4319 10.0758 6.51771 9.8303C6.60352 9.58477 6.87212 9.45534 7.1176 9.54115L8.41399 9.99425C8.65952 10.0801 8.78895 10.3487 8.70314 10.5941C8.61733 10.8397 8.34873 10.9691 8.10325 10.8833Z" fill="#C1400E"/>
<path d="M12.6127 11.3808H11.2395C10.9794 11.3808 10.7686 11.1699 10.7686 10.9099C10.7686 10.6498 10.9794 10.439 11.2395 10.439H12.6127C12.8728 10.439 13.0836 10.6498 13.0836 10.9099C13.0836 11.1699 12.8728 11.3808 12.6127 11.3808Z" fill="#C1400E"/>
<path d="M11.774 16.4512H11.2891L10.0121 16.7163L8.73515 16.4512H8.30622C8.16233 16.4512 8.04737 16.5768 8.06655 16.7194C8.10326 16.9922 8.19526 17.2475 8.33082 17.4737L10.9165 18.2399C11.5005 17.9533 11.9235 17.3891 12.0137 16.7194C12.0329 16.5768 11.9179 16.4512 11.774 16.4512Z" fill="#961E0F"/>
<path d="M9.27708 14.5147C9.16004 14.9821 9.37275 15.4913 9.7796 15.6448C9.86146 15.6757 9.94902 15.6924 10.0401 15.6924C10.1311 15.6924 10.2187 15.6757 10.3006 15.6448C10.7074 15.4913 10.9202 14.9821 10.8031 14.5147L10.415 12.965C10.3173 12.5748 9.76288 12.5748 9.66519 12.965L9.27708 14.5147Z" fill="#FA968C"/>
<path d="M14.3966 4.42383C15.1132 4.42383 15.6941 5.00476 15.6941 5.72131V10.8236V10.8238V13.6815C15.2758 13.6815 14.9368 13.3424 14.9368 12.9242V9.58246C14.9368 9.15862 14.8006 8.7527 14.5588 8.42301C14.3171 8.09347 13.9479 7.8864 13.5452 7.81731C13.5397 7.81638 13.5359 7.8155 13.5342 7.81468L13.8082 4.42388L14.3966 4.42383Z" fill="#C1400E"/>
<path d="M14.9365 11.5059V12.9242C14.9365 13.3425 15.2756 13.6815 15.6938 13.6815V11.5059H14.9365Z" fill="#FF640A"/>
<path d="M7.77027 12.9432C7.67438 12.9432 7.59668 12.8655 7.59668 12.7696V12.2439C7.59668 12.148 7.67438 12.0703 7.77027 12.0703C7.86616 12.0703 7.94386 12.148 7.94386 12.2439V12.7696C7.94386 12.8655 7.8661 12.9432 7.77027 12.9432Z" fill="white"/>
<path d="M11.6072 12.9432C11.5113 12.9432 11.4336 12.8655 11.4336 12.7696V12.2439C11.4336 12.148 11.5113 12.0703 11.6072 12.0703C11.7031 12.0703 11.7808 12.148 11.7808 12.2439V12.7696C11.7808 12.8655 11.7031 12.9432 11.6072 12.9432Z" fill="white"/>
<path d="M8.33105 17.4736C8.67905 18.054 9.31412 18.4427 10.0401 18.4427C10.3546 18.4427 10.6519 18.3695 10.9164 18.2397C10.8027 17.5265 10.185 16.9814 9.43988 16.9814C9.0001 16.9814 8.6047 17.1713 8.33105 17.4736Z" fill="#FF3C3C"/>
<path d="M11.0084 16.9814H9.01628C8.86116 16.9814 8.73535 16.8557 8.73535 16.7005V16.4512H11.2894V16.7005C11.2893 16.8556 11.1636 16.9814 11.0084 16.9814Z" fill="white"/>
<path d="M12.2694 0C12.2694 1.84942 10.7711 3.34921 8.92164 3.35101L7.55216 3.35233C5.77216 3.35458 4.33008 4.79737 4.33008 6.57737V10.8236V10.8237V13.6814C4.74832 13.6814 5.08739 13.3424 5.08739 12.9241V9.58022C5.08739 9.57507 5.08739 9.56992 5.08745 9.56471C5.09282 8.90537 5.64175 8.37912 6.30115 8.38005L11.3385 8.38707C11.8042 8.38773 12.2734 8.31644 12.7256 8.18192C14.529 7.64537 15.7504 5.96592 15.7504 4.08438C15.9184 1.93638 14.4395 0 12.2694 0Z" fill="#CD5014"/>
<path d="M6.248 6.57758C6.248 4.79758 7.69008 3.35418 9.47008 3.35254H7.55216C5.77216 3.35418 4.33008 4.79764 4.33008 6.57758V10.8238V10.8239V13.6816C4.74832 13.6816 5.08739 13.3426 5.08739 12.9243V9.58043C5.08739 9.57599 5.08739 9.57155 5.08745 9.56717C5.09183 8.92487 5.61183 8.40837 6.24805 8.38158L6.248 6.57758Z" fill="#C1400E"/>
<path d="M4.33008 11.5543V13.6817C4.74832 13.6817 5.08739 13.3426 5.08739 12.9243V11.5542L4.33008 11.5543Z" fill="#FF640A"/>
<path d="M6.53811 11.8026C7.16003 11.8026 7.79668 11.8442 8.43038 11.9263C8.64112 11.9536 8.82655 12.0644 8.95247 12.2382C9.0803 12.4146 9.1283 12.6293 9.08775 12.8425C8.75499 14.591 8.43219 14.9304 8.39647 14.9634C8.06962 15.2648 7.1517 15.4021 6.43712 15.4021C5.37674 15.4021 4.61044 15.1647 4.34797 14.9447C4.34518 14.9421 4.06879 14.6733 3.94019 13.1853C3.9037 12.7629 3.88929 12.3566 3.88403 12.0573C4.75597 11.8882 5.64649 11.8026 6.53811 11.8026ZM6.53811 11.186C5.43071 11.186 4.34003 11.3101 3.26611 11.5584C3.26611 11.5584 3.20036 14.7873 3.95115 15.4165C4.42337 15.8123 5.4363 16.0186 6.43707 16.0186C7.4111 16.0186 8.37362 15.8231 8.81438 15.4165C9.22178 15.0407 9.51373 13.9016 9.69334 12.9578C9.84271 12.1729 9.30189 11.4175 8.50956 11.3149C7.84666 11.229 7.18951 11.186 6.53811 11.186Z" fill="#373C41"/>
<path d="M2.74707 11.6475L3.53229 11.4979L3.65524 12.1436L2.87002 12.2931L2.74707 11.6475Z" fill="#373C41"/>
<path d="M13.5531 11.8026C14.4447 11.8026 15.3353 11.8882 16.2072 12.0573C16.202 12.3566 16.1876 12.7629 16.1511 13.1853C16.0225 14.6733 15.7461 14.9421 15.7441 14.944C15.4808 15.1646 14.7145 15.4021 13.6542 15.4021C12.6348 15.4021 11.9239 15.1746 11.6948 14.9634C11.6591 14.9304 11.3363 14.591 11.0035 12.8425C10.9629 12.6293 11.011 12.4146 11.1388 12.2382C11.2647 12.0644 11.4502 11.9536 11.6609 11.9263C12.2945 11.8442 12.9312 11.8026 13.5531 11.8026ZM13.5531 11.186C12.9017 11.186 12.2446 11.2289 11.5817 11.3149C10.7893 11.4175 10.2485 12.1729 10.3979 12.9578C10.5775 13.9015 10.8694 15.0407 11.2768 15.4165C11.7177 15.8231 12.6801 16.0186 13.6542 16.0186C14.6549 16.0186 15.6679 15.8123 16.1401 15.4165C16.8909 14.7873 16.8252 11.5584 16.8252 11.5584C15.7512 11.3102 14.6605 11.186 13.5531 11.186Z" fill="#373C41"/>
<path d="M16.4277 12.1514L16.5507 11.5057L17.3359 11.6553L17.213 12.3009L16.4277 12.1514Z" fill="#373C41"/>
<path d="M9.44531 12.2852H10.6508V12.9017H9.44531V12.2852Z" fill="#373C41"/>
<path d="M21.0225 10.5674H25.0593V17.91H21.0225V10.5674Z" fill="#FAB9AF"/>
<path d="M22.0615 17.2324V25.2987C23.4272 24.2673 24.5915 22.9791 25.4798 21.5008V17.2324H22.0615Z" fill="white"/>
<path d="M22.1159 17.2324H20.5918V26.2644C21.1235 25.9631 21.6321 25.6252 22.1159 25.2559V17.2324Z" fill="#E4F2F6"/>
<path d="M25.2463 12.9971C26.2425 12.0009 25.7277 9.8709 24.0964 8.23963C22.4652 6.60836 20.3352 6.09355 19.339 7.08976C18.3427 8.08597 18.8576 10.216 20.4888 11.8472C22.1201 13.4785 24.2501 13.9933 25.2463 12.9971Z" fill="#FFA50A"/>
<path d="M19.3317 9.51477C20.8158 8.62743 21.746 7.45179 21.4095 6.8889C21.0729 6.326 19.597 6.58901 18.1129 7.47635C16.6289 8.36368 15.6986 9.53932 16.0352 10.1022C16.3717 10.6651 17.8476 10.4021 19.3317 9.51477Z" fill="#FFA50A"/>
<path d="M24.8463 14.2103C25.7336 12.7262 25.9966 11.2503 25.4337 10.9138C24.8708 10.5772 23.6952 11.5075 22.8078 12.9915C21.9205 14.4756 21.6575 15.9515 22.2204 16.2881C22.7833 16.6247 23.9589 15.6944 24.8463 14.2103Z" fill="#FFA50A"/>
<path d="M20.4551 9.76527C21.0598 9.76527 21.5499 9.27512 21.5499 8.67048C21.5499 8.06584 21.0598 7.57568 20.4551 7.57568C19.8505 7.57568 19.3604 8.06584 19.3604 8.67048C19.3604 9.27512 19.8505 9.76527 20.4551 9.76527Z" fill="#2477F9"/>
<path d="M23.6329 12.9425C24.2375 12.9425 24.7277 12.4524 24.7277 11.8477C24.7277 11.2431 24.2375 10.7529 23.6329 10.7529C23.0282 10.7529 22.5381 11.2431 22.5381 11.8477C22.5381 12.4524 23.0282 12.9425 23.6329 12.9425Z" fill="#2477F9"/>
<path d="M25.1182 9.54608C24.8547 9.09583 24.5135 8.65101 24.1007 8.23813C23.6731 7.81062 23.2114 7.45994 22.7448 7.19287L22.2708 7.66684C22.0894 7.84821 22.0894 8.14224 22.2708 8.32361L23.9773 10.0301C24.1587 10.2115 24.4527 10.2115 24.6341 10.0301L25.1182 9.54608Z" fill="white"/>
<path d="M21.6055 8.73588C21.3121 8.73588 21.0447 8.53813 20.9688 8.24076C20.879 7.88887 21.0915 7.53084 21.4434 7.44103L23.3134 6.96394C23.6651 6.87413 24.0233 7.08662 24.113 7.43851C24.2028 7.7904 23.9904 8.14843 23.6385 8.23824L21.7685 8.71534C21.714 8.72925 21.6593 8.73588 21.6055 8.73588Z" fill="#FAB9AF"/>
<path d="M22.2754 9.87114C21.982 9.87114 21.7146 9.67338 21.6387 9.37601C21.5489 9.02412 21.7614 8.6661 22.1133 8.57629L23.9833 8.09919C24.335 8.00938 24.6932 8.22188 24.783 8.57377C24.8727 8.92566 24.6603 9.28369 24.3084 9.37349L22.4384 9.85059C22.3839 9.86451 22.3292 9.87114 22.2754 9.87114Z" fill="#FAB9AF"/>
<path d="M23.9912 10.5597C23.6979 10.5597 23.4305 10.3619 23.3546 10.0645C23.2648 9.71264 23.4772 9.35461 23.8291 9.2648L25.6991 8.78771C26.0509 8.69779 26.409 8.91034 26.4988 9.26228C26.5886 9.61417 26.3761 9.9722 26.0242 10.062L24.1542 10.5391C24.0998 10.553 24.045 10.5597 23.9912 10.5597Z" fill="#FAB9AF"/>
<path d="M24.9896 11.5803C24.7125 11.5803 24.4548 11.4037 24.3645 11.126C24.2521 10.7807 24.441 10.4097 24.7863 10.2973L26.3483 9.78923C26.6937 9.67701 27.0647 9.86572 27.177 10.2111C27.2893 10.5564 27.1005 10.9274 26.7551 11.0397L25.1932 11.5479C25.1256 11.5699 25.057 11.5803 24.9896 11.5803Z" fill="#FAB9AF"/>
<path d="M21.6586 13.6233C21.4463 13.6233 21.2341 13.5417 21.0733 13.3785L18.8528 11.1263C18.557 10.8262 18.536 10.3511 18.8042 10.0261L19.791 8.83009C20.0799 8.4799 20.598 8.43036 20.9481 8.71924C21.2982 9.00812 21.3478 9.5262 21.0589 9.87634L20.5441 10.5003L22.2439 12.2244C22.4964 12.4805 22.5465 12.8604 22.3957 13.1657C22.3561 13.2457 22.3028 13.3206 22.2357 13.3867C22.0756 13.5446 21.867 13.6233 21.6586 13.6233Z" fill="#FAB9AF"/>
</g>
<defs>
<clipPath id="clip0_474_32453">
<rect width="28" height="28" fill="white"/>
</clipPath>
</defs>
</svg>
