<svg width="30" height="30" viewBox="0 0 30 30" fill="none" xmlns="http://www.w3.org/2000/svg">
<g clip-path="url(#clip0_236_3242)">
<path d="M15 30C6.71573 30 0 23.2843 0 15C0 6.71573 6.71573 0 15 0C23.2843 0 30 6.71573 30 15C30 23.2843 23.2843 30 15 30Z" fill="#007A36"/>
<path d="M19 15C20.1046 15 21 14.1046 21 13C21 11.8954 20.1046 11 19 11C17.8954 11 17 11.8954 17 13C17 14.1046 17.8954 15 19 15Z" fill="white"/>
<path d="M15 19C13.4087 19 11.8826 18.3679 10.7574 17.2426C9.63214 16.1174 9 14.5913 9 13C9 12.7348 9.10536 12.4804 9.29289 12.2929C9.48043 12.1054 9.73478 12 10 12C10.2652 12 10.5196 12.1054 10.7071 12.2929C10.8946 12.4804 11 12.7348 11 13C11 14.0609 11.4214 15.0783 12.1716 15.8284C12.9217 16.5786 13.9391 17 15 17C16.0609 17 17.0783 16.5786 17.8284 15.8284C18.5786 15.0783 19 14.0609 19 13C19 12.7348 19.1054 12.4804 19.2929 12.2929C19.4804 12.1054 19.7348 12 20 12C20.2652 12 20.5196 12.1054 20.7071 12.2929C20.8946 12.4804 21 12.7348 21 13C21 14.5913 20.3679 16.1174 19.2426 17.2426C18.1174 18.3679 16.5913 19 15 19Z" fill="white"/>
<path d="M17.777 6.30694L17.3174 6.76656C16.9113 7.17271 16.9113 7.8312 17.3174 8.23734L17.777 8.69696C18.1832 9.10311 18.8417 9.10311 19.2478 8.69696L19.7074 8.23734C20.1136 7.8312 20.1136 7.17271 19.7074 6.76656L19.2478 6.30694C18.8417 5.9008 18.1832 5.9008 17.777 6.30694Z" fill="white"/>
<path d="M15 25C14.7348 25 14.4804 24.8946 14.2929 24.7071C14.1054 24.5196 14 24.2652 14 24V22C14 21.7348 14.1054 21.4804 14.2929 21.2929C14.4804 21.1054 14.7348 21 15 21C15.2652 21 15.5196 21.1054 15.7071 21.2929C15.8946 21.4804 16 21.7348 16 22V24C16 24.2652 15.8946 24.5196 15.7071 24.7071C15.5196 24.8946 15.2652 25 15 25Z" fill="white"/>
</g>
<defs>
<clipPath id="clip0_236_3242">
<rect width="30" height="30" fill="white"/>
</clipPath>
</defs>
</svg>
