<svg width="30" height="30" viewBox="0 0 30 30" fill="none" xmlns="http://www.w3.org/2000/svg">
<g clip-path="url(#clip0_236_2860)">
<circle cx="15" cy="15" r="15" fill="#F5EADC"/>
<path d="M13.5322 6.52374C13.7698 6.81156 13.916 7.16334 14.0439 7.51055C14.2586 8.14101 14.3591 8.80345 14.4322 9.46132C14.5008 10.1603 14.5327 10.8593 14.5693 11.5583C14.5784 11.7593 14.6013 11.9557 14.5876 12.1568C14.5236 12.1613 14.4596 12.1613 14.4003 12.1705C14.3728 10.576 14.0987 8.99533 13.7424 7.44659C13.6784 7.13136 13.5825 6.8344 13.5322 6.52374Z" fill="#D26B7F"/>
<path d="M20.0533 11.0234C20.9122 10.6168 21.9082 10.4843 22.831 10.7356C22.63 10.7858 22.4244 10.7493 22.2188 10.763C21.5244 10.8087 20.8437 10.9914 20.2178 11.2929C19.2036 11.7726 18.3584 12.5447 17.6503 13.399C17.5361 13.5407 17.431 13.6914 17.3076 13.8285C17.2711 13.7554 17.23 13.6823 17.1934 13.6092C17.1797 13.5589 17.2163 13.5178 17.2391 13.4767C17.6274 12.9605 18.0569 12.4853 18.532 12.0513C18.9843 11.6401 19.496 11.2929 20.0533 11.0234Z" fill="#D26B7F"/>
<path d="M6.80236 13.8697C7.46937 13.5545 8.23232 13.5043 8.95415 13.6048C9.97293 13.7647 10.9141 14.2078 11.8323 14.6555C11.8323 14.7058 11.8278 14.756 11.8278 14.8063C11.8232 14.8885 11.8186 14.9708 11.8141 15.053C11.1608 14.7606 10.5166 14.4454 9.82674 14.2398C9.178 14.0388 8.48358 13.9246 7.80287 14.0114C7.45109 14.0616 7.10845 14.1621 6.79322 14.3175C6.65617 14.3906 6.52368 14.4728 6.37748 14.5322C6.30439 14.2352 6.54652 13.9657 6.80236 13.8697Z" fill="#D26B7F"/>
<path d="M17.0101 16.8483C17.0558 16.7798 17.1015 16.7113 17.1472 16.6428C19.2259 17.4194 21.0944 18.6575 22.8396 20.0143C22.9767 20.1057 23.0224 20.2793 23.0452 20.4347C23.0589 20.5123 22.9949 20.5671 22.963 20.6311C22.666 20.357 22.3965 20.0509 22.0812 19.7996C20.5782 18.5296 18.8102 17.6113 16.9873 16.8986L17.0101 16.8483Z" fill="#D26B7F"/>
<path d="M13.5737 18.338C13.6742 18.1918 13.7382 18.009 13.8752 17.8903L13.9163 17.8948C13.962 17.9085 14.0077 17.9222 14.058 17.9405C14.0808 17.9725 14.0625 18.009 14.0442 18.041C13.3498 19.1146 12.8199 20.2887 12.0478 21.3121C11.7782 21.6456 11.4859 21.9791 11.0975 22.1801C10.9102 22.2761 10.6955 22.3172 10.4854 22.3035C10.7686 22.1025 11.0336 21.8786 11.2803 21.6319C12.2077 20.6542 12.8656 19.471 13.5737 18.338Z" fill="#D26B7F"/>
<path d="M12.6189 13.0519C13.0849 12.5539 13.7199 12.2387 14.4006 12.1656C14.4646 12.161 14.5285 12.1564 14.5879 12.1519C15.6433 12.0925 16.6803 12.6955 17.192 13.6138C17.2286 13.6869 17.2697 13.76 17.3062 13.8331C17.7174 14.7194 17.6626 15.8113 17.1463 16.6427C17.1006 16.7113 17.055 16.7844 17.0093 16.8483C16.6118 17.392 16.0362 17.7757 15.3874 17.9448C14.9534 18.0453 14.492 18.0681 14.0626 17.9356C14.0169 17.9174 13.9712 17.9037 13.9209 17.8899C13.3179 17.6798 12.8062 17.2503 12.427 16.7341C12.0752 16.2453 11.8148 15.6605 11.8194 15.0483C11.824 14.9661 11.8285 14.8838 11.8331 14.8016C11.8925 14.1483 12.1712 13.5316 12.6189 13.0519Z" fill="#FEECAC"/>
<path d="M12.2492 5.06584C12.866 4.77345 13.565 4.74604 14.2365 4.79629C14.7711 4.83741 15.3147 4.92421 15.8036 5.16178C16.2695 5.38107 16.6624 5.72371 16.9366 6.15772C17.3203 6.76077 17.4756 7.47346 17.5442 8.17702C17.5716 8.60646 17.599 9.03591 17.5716 9.46535C17.6949 9.37855 17.8137 9.28261 17.9371 9.19581C18.7548 8.62931 19.7005 8.23641 20.6919 8.10849C20.8061 8.09479 20.9158 8.08108 21.03 8.07194C21.1533 8.07194 21.2767 8.07194 21.4 8.07194C21.5782 8.07651 21.7518 8.09022 21.9254 8.11306C22.4508 8.19073 22.9488 8.3826 23.3919 8.67042C23.9082 9.00849 24.3285 9.47906 24.6483 9.99987C24.9361 10.475 25.1828 11.0004 25.2148 11.5669C25.2559 12.1791 25.1143 12.7913 24.8036 13.3258C24.3741 14.0887 23.7071 14.6872 22.9899 15.1715C23.8762 15.8385 24.63 16.7248 24.9909 17.7847C25.2056 18.4151 25.2742 19.0867 25.1828 19.7492C25.0914 20.4299 24.8401 21.0832 24.4975 21.6771C24.2051 22.1796 23.7802 22.6182 23.2549 22.8695C22.5924 23.203 21.8158 23.2487 21.0939 23.1207C20.034 22.9426 19.0472 22.4537 18.1792 21.837C17.8366 21.5903 17.5122 21.3207 17.2107 21.0329C17.1239 20.9507 17.0508 20.8593 16.9503 20.7953C16.5802 21.9055 15.8904 22.8969 15.0315 23.6827C14.5335 24.1304 13.967 24.5141 13.3411 24.7517C12.7518 24.9756 12.103 25.0624 11.4771 24.9527C10.8193 24.8431 10.2117 24.5279 9.69541 24.1121C9.31165 23.8015 8.95073 23.4497 8.69033 23.0248C8.32484 22.4355 8.16494 21.7273 8.19692 21.0375C8.2289 20.2106 8.49388 19.4111 8.8685 18.6801C8.98271 18.4517 9.1152 18.237 9.24312 18.0177C8.5487 18.0405 7.84514 17.9811 7.18727 17.7527C6.65732 17.5791 6.18219 17.273 5.79844 16.8664C5.33701 16.3684 5.04463 15.7334 4.90757 15.071C4.79792 14.6598 4.74767 14.2349 4.75224 13.81C4.73396 12.9557 4.78422 12.0649 5.1497 11.2745C5.3096 10.9227 5.55173 10.6075 5.85326 10.3608C6.11823 10.1689 6.41519 10.0364 6.73042 9.96789C7.33804 9.83997 7.9685 9.91764 8.55784 10.0821C9.41672 10.3197 10.2117 10.74 10.9563 11.2242C10.8056 10.4384 10.6731 9.64809 10.6548 8.8486C10.632 7.99428 10.7005 7.11712 11.0523 6.32676C11.2853 5.80138 11.701 5.32168 12.2492 5.06584ZM13.533 6.52321C13.5832 6.83387 13.6792 7.13082 13.7431 7.43691C14.0995 8.99022 14.3736 10.5664 14.401 12.1608C13.7203 12.2339 13.0898 12.5491 12.6193 13.0471C12.167 13.5268 11.8883 14.1435 11.8289 14.8014C11.8289 14.7512 11.8335 14.7009 11.8335 14.6507C10.9152 14.2029 9.97409 13.7598 8.9553 13.5999C8.23347 13.4994 7.47052 13.5496 6.80352 13.8649C6.54311 13.9608 6.30554 14.2349 6.38321 14.5273C6.52483 14.4679 6.65732 14.3857 6.79895 14.3126C7.11875 14.1572 7.46139 14.0567 7.8086 14.0065C8.48931 13.9197 9.17916 14.0339 9.83246 14.2349C10.5177 14.4405 11.1665 14.7557 11.8198 15.0481C11.8152 15.6603 12.0756 16.2451 12.4274 16.7339C12.802 17.2456 13.3137 17.675 13.9213 17.8898L13.8802 17.8852C13.7431 18.004 13.6792 18.1821 13.5787 18.3329C12.8705 19.4659 12.2127 20.6492 11.2853 21.6223C11.0386 21.8644 10.7736 22.0928 10.4903 22.2938C10.7005 22.3075 10.9152 22.2664 11.1025 22.1705C11.4863 21.9695 11.7832 21.6405 12.0528 21.3025C12.8249 20.2791 13.3548 19.105 14.0492 18.0314C14.0675 17.9994 14.0903 17.9674 14.0629 17.9309C14.4924 18.0634 14.9538 18.0405 15.3878 17.94C16.0411 17.7755 16.6122 17.3872 17.0142 16.8436L16.9822 16.8892C18.8051 17.6019 20.5731 18.5248 22.0762 19.7903C22.3914 20.0461 22.6609 20.3522 22.9579 20.6217C22.9899 20.5624 23.0584 20.503 23.0401 20.4253C23.0173 20.27 22.9716 20.0964 22.8345 20.005C21.0894 18.6481 19.2208 17.4101 17.1421 16.6334C17.6538 15.8019 17.7132 14.71 17.302 13.8237C17.4254 13.6867 17.5305 13.5359 17.6447 13.3943C18.3574 12.54 19.198 11.7679 20.2168 11.2882C20.8427 10.9867 21.5234 10.8039 22.2178 10.7582C22.4234 10.74 22.629 10.7765 22.83 10.7308C21.9117 10.4841 20.9112 10.6121 20.0523 11.0187C19.4949 11.2836 18.9833 11.6308 18.531 12.0466C18.0558 12.4806 17.6264 12.9603 17.2381 13.472C17.2152 13.5131 17.1787 13.5542 17.1924 13.6045C16.6807 12.6907 15.6437 12.0831 14.5883 12.1425C14.602 11.9415 14.5792 11.7451 14.57 11.544C14.5335 10.8451 14.5015 10.1461 14.433 9.44708C14.3599 8.7892 14.264 8.12677 14.0447 7.49631C13.9167 7.1628 13.7705 6.81102 13.533 6.52321Z" fill="#EA8397"/>
</g>
<defs>
<clipPath id="clip0_236_2860">
<rect width="30" height="30" fill="white"/>
</clipPath>
</defs>
</svg>
