<svg width="30" height="30" viewBox="0 0 30 30" fill="none" xmlns="http://www.w3.org/2000/svg">
<g clip-path="url(#clip0_474_4228)">
<path fill-rule="evenodd" clip-rule="evenodd" d="M15 0C23.2849 0 30 6.71514 30 15C30 23.2849 23.2849 30 15 30C6.71514 30 0 23.2849 0 15C0 6.71514 6.71514 0 15 0Z" fill="#2A3447"/>
<path d="M5.98926 10.6882V19.3122C5.98926 19.8666 6.27966 20.3682 6.76366 20.6498L14.2349 24.9618C14.7101 25.2346 15.2997 25.2346 15.7749 24.9618L23.2461 20.6498C23.7213 20.377 24.0205 19.8666 24.0205 19.3122V10.6882C24.0205 10.1338 23.7301 9.63218 23.2461 9.35058L15.7749 5.03858C15.2997 4.76578 14.7101 4.76578 14.2349 5.03858L6.76366 9.35058C6.28846 9.62338 5.99806 10.1338 5.99806 10.6882H5.98926Z" fill="#213147"/>
<path d="M16.6285 16.6715L15.5637 19.5931C15.5373 19.6723 15.5373 19.7603 15.5637 19.8483L17.3941 24.8731L19.5149 23.6499L16.9717 16.6715C16.9101 16.5131 16.6901 16.5131 16.6285 16.6715Z" fill="#12AAFF"/>
<path d="M18.7667 11.7614C18.7051 11.603 18.4851 11.603 18.4235 11.7614L17.3587 14.683C17.3323 14.7622 17.3323 14.8502 17.3587 14.9382L20.3595 23.1662L22.4803 21.943L18.7667 11.7702V11.7614Z" fill="#12AAFF"/>
<path d="M15.0004 5.364C15.0532 5.364 15.106 5.3816 15.15 5.408L23.2284 10.072C23.3252 10.1248 23.378 10.2304 23.378 10.336V19.664C23.378 19.7696 23.3164 19.8752 23.2284 19.928L15.15 24.592C15.106 24.6184 15.0532 24.636 15.0004 24.636C14.9476 24.636 14.8948 24.6184 14.8508 24.592L6.7724 19.928C6.6756 19.8752 6.6228 19.7696 6.6228 19.664V10.3272C6.6228 10.2216 6.6844 10.116 6.7724 10.0632L14.8508 5.3992C14.8948 5.3728 14.9476 5.3552 15.0004 5.3552V5.364ZM15.0004 4C14.71 4 14.4284 4.0704 14.1644 4.22L6.086 8.884C5.5668 9.1832 5.25 9.7288 5.25 10.3272V19.6552C5.25 20.2536 5.5668 20.7992 6.086 21.0984L14.1644 25.7624C14.4196 25.912 14.71 25.9824 15.0004 25.9824C15.2908 25.9824 15.5724 25.912 15.8364 25.7624L23.9148 21.0984C24.434 20.7992 24.7508 20.2536 24.7508 19.6552V10.3272C24.7508 9.7288 24.434 9.1832 23.9148 8.884L15.8276 4.22C15.5724 4.0704 15.282 4 14.9916 4H15.0004Z" fill="#9DCCED"/>
<path d="M9.65039 23.1744L10.3984 21.1328L11.8944 22.3736L10.4952 23.6584L9.65039 23.1744Z" fill="#213147"/>
<path d="M14.3141 9.667H12.2637C12.1141 9.667 11.9733 9.7638 11.9205 9.9046L7.5293 21.943L9.6501 23.1662L14.4901 9.9046C14.5341 9.7814 14.4461 9.6582 14.3229 9.6582L14.3141 9.667Z" fill="white"/>
<path d="M17.9047 9.667H15.8543C15.7047 9.667 15.5639 9.7638 15.5111 9.9046L10.4951 23.6502L12.6159 24.8734L18.0719 9.9046C18.1159 9.7814 18.0279 9.6582 17.9047 9.6582V9.667Z" fill="white"/>
</g>
<defs>
<clipPath id="clip0_474_4228">
<rect width="30" height="30" fill="white"/>
</clipPath>
</defs>
</svg>
