<svg width="30" height="30" viewBox="0 0 30 30" fill="none" xmlns="http://www.w3.org/2000/svg">
<g clip-path="url(#clip0_236_3262)">
<mask id="mask0_236_3262" style="mask-type:luminance" maskUnits="userSpaceOnUse" x="0" y="-1" width="31" height="32">
<path d="M30.0013 15.0002C30.0013 6.71553 23.2853 -0.000488281 15.0007 -0.000488281C6.71602 -0.000488281 0 6.71553 0 15.0002C0 23.2848 6.71602 30.0008 15.0007 30.0008C23.2853 30.0008 30.0013 23.2848 30.0013 15.0002Z" fill="white"/>
</mask>
<g mask="url(#mask0_236_3262)">
<path d="M30.0013 15.0002C30.0013 6.71553 23.2853 -0.000488281 15.0007 -0.000488281C6.71602 -0.000488281 0 6.71553 0 15.0002C0 23.2848 6.71602 30.0008 15.0007 30.0008C23.2853 30.0008 30.0013 23.2848 30.0013 15.0002Z" fill="#FFCD00"/>
<path d="M21.188 12.6877C21.6568 12.6877 22.1256 12.3127 22.1256 11.7502C22.1256 11.1876 21.6568 10.8126 21.188 10.8126H19.8755C19.1254 9.12505 17.4379 8 15.5628 8H11.8126C11.2501 8 10.8751 8.37502 10.8751 8.93754V10.8126H9.93754C9.37502 10.8126 9 11.1876 9 11.7502C9 12.3127 9.37502 12.6877 9.93754 12.6877H10.8751V13.6252H9.93754C9.37502 13.6252 9 14.0003 9 14.5628C9 15.1253 9.37502 15.5003 9.93754 15.5003H10.8751V16.4379V22.0631C10.8751 22.5319 11.2501 23.0007 11.8126 23.0007C12.3751 23.0007 12.7502 22.5319 12.7502 22.0631V17.3754H15.5628C17.0628 17.3754 18.4692 16.6254 19.3129 15.5003H21.188C21.6568 15.5003 22.1256 15.1253 22.1256 14.5628C22.1256 14.0003 21.6568 13.6252 21.188 13.6252H20.1567C20.2505 13.344 20.2505 12.969 20.2505 12.6877H21.188ZM12.7502 9.87508H15.5628C16.4066 9.87508 17.1566 10.2501 17.6254 10.8126H12.7502V9.87508ZM18.0004 14.094C17.5316 14.9378 16.5941 15.5003 15.5628 15.5003H12.7502V12.6877H18.3754C18.3754 13.1565 18.2817 13.6252 18.0004 14.094Z" fill="black"/>
</g>
</g>
<defs>
<clipPath id="clip0_236_3262">
<rect width="30" height="30" fill="white"/>
</clipPath>
</defs>
</svg>
