<svg width="30" height="30" viewBox="0 0 30 30" fill="none" xmlns="http://www.w3.org/2000/svg">
<g clip-path="url(#clip0_236_3283)">
<path d="M15 30C6.71573 30 0 23.2843 0 15C0 6.71573 6.71573 0 15 0C23.2843 0 30 6.71573 30 15C30 23.2843 23.2843 30 15 30Z" fill="#5CA7F7"/>
<path d="M15.8889 9.80267V8.86667C15.8889 8.63681 15.7952 8.41637 15.6285 8.25384C15.4618 8.09131 15.2357 8 15 8C14.7643 8 14.5382 8.09131 14.3715 8.25384C14.2048 8.41637 14.1111 8.63681 14.1111 8.86667V9.80267C10.12 10.3747 7 14.786 7 20.1333C7 20.3632 7.09365 20.5836 7.26035 20.7462C7.42705 20.9087 7.65314 21 7.88889 21C8.12464 21 8.35073 20.9087 8.51743 20.7462C8.68413 20.5836 8.77778 20.3632 8.77778 20.1333C8.77778 15.8 11.0978 12.1687 14.1111 11.562V18.4C14.1111 18.6299 14.2048 18.8503 14.3715 19.0128C14.5382 19.1754 14.7643 19.2667 15 19.2667C15.2357 19.2667 15.4618 19.1754 15.6285 19.0128C15.7952 18.8503 15.8889 18.6299 15.8889 18.4V11.562C18.9022 12.1687 21.2222 15.774 21.2222 20.1333C21.2222 20.3632 21.3159 20.5836 21.4826 20.7462C21.6493 20.9087 21.8754 21 22.1111 21C22.3469 21 22.573 20.9087 22.7397 20.7462C22.9064 20.5836 23 20.3632 23 20.1333C23 14.786 19.88 10.3747 15.8889 9.80267Z" fill="#D9304E"/>
</g>
<defs>
<clipPath id="clip0_236_3283">
<rect width="30" height="30" fill="white"/>
</clipPath>
</defs>
</svg>
