<svg width="30" height="30" viewBox="0 0 30 30" fill="none" xmlns="http://www.w3.org/2000/svg">
<g clip-path="url(#clip0_236_3274)">
<path d="M15 30C6.71573 30 0 23.2843 0 15C0 6.71573 6.71573 0 15 0C23.2843 0 30 6.71573 30 15C30 23.2843 23.2843 30 15 30Z" fill="url(#paint0_linear_236_3274)"/>
<path fill-rule="evenodd" clip-rule="evenodd" d="M22.5873 10.7337C23.7315 10.8588 24.7016 11.5778 24.9976 12.5889L23.6266 12.9903C23.5132 12.6031 23.1106 12.2803 22.5873 12.1773V14.3161C23.9351 14.5013 24.9976 15.5113 24.9976 16.7857C24.9976 18.0602 23.9351 19.0701 22.5873 19.2553V20H21.873V19.2749C20.6901 19.1785 19.6768 18.4486 19.373 17.4111L20.7441 17.0097C20.8638 17.4188 21.3064 17.7559 21.873 17.838V15.6959C20.483 15.5432 19.373 14.5169 19.373 13.2143C19.373 11.9117 20.483 10.8854 21.873 10.7337V10H22.5873V10.7337ZM22.5873 15.7682V17.8032C23.1696 17.6577 23.569 17.2375 23.569 16.7857C23.569 16.3339 23.1696 15.9138 22.5873 15.7682ZM21.873 14.2517V12.1769C21.2425 12.2999 20.8016 12.7397 20.8016 13.2143C20.8016 13.6889 21.2425 14.1287 21.873 14.2517ZM8.76467 16.4286H6.5744L5.74628 19.3166L4.37305 18.9228L6.73565 10.6834H8.60342L10.966 18.9228L9.5928 19.3166L8.76467 16.4286ZM8.35504 15L7.66954 12.6094L6.98404 15H8.35504ZM16.5159 10.7143H17.9445V16.1905C17.9445 17.8841 16.683 19.2857 15.0873 19.2857C13.4916 19.2857 12.2302 17.8841 12.2302 16.1905V10.7143H13.6588V16.1905C13.6588 17.1268 14.3161 17.8571 15.0873 17.8571C15.8585 17.8571 16.5159 17.1268 16.5159 16.1905V10.7143Z" fill="white"/>
</g>
<defs>
<linearGradient id="paint0_linear_236_3274" x1="1500" y1="0" x2="1500" y2="3000" gradientUnits="userSpaceOnUse">
<stop stop-color="#5B86E5"/>
<stop offset="1" stop-color="#36D1DC"/>
</linearGradient>
<clipPath id="clip0_236_3274">
<rect width="30" height="30" fill="white"/>
</clipPath>
</defs>
</svg>
