<svg width="30" height="30" viewBox="0 0 30 30" fill="none" xmlns="http://www.w3.org/2000/svg">
<g clip-path="url(#clip0_474_4221)">
<path fill-rule="evenodd" clip-rule="evenodd" d="M15 0C23.2849 0 30 6.71514 30 15C30 23.2849 23.2849 30 15 30C6.71514 30 0 23.2849 0 15C0 6.71514 6.71514 0 15 0Z" fill="#F0B90B"/>
<path d="M8.24399 14.9994L8.25481 18.9657L11.625 20.9489V23.271L6.28245 20.1376V13.8395L8.24399 14.9994ZM8.24399 11.0331V13.3444L6.28125 12.1833V9.872L8.24399 8.71094L10.2163 9.872L8.24399 11.0331ZM13.0325 9.872L14.9952 8.71094L16.9675 9.872L14.9952 11.0331L13.0325 9.872Z" fill="white"/>
<path d="M9.66211 18.1436V15.8215L11.6248 16.9826V19.2939L9.66211 18.1436ZM13.0323 21.7806L14.995 22.9417L16.9674 21.7806V24.0919L14.995 25.253L13.0323 24.0919V21.7806ZM19.7823 9.872L21.745 8.71094L23.7174 9.872V12.1833L21.745 13.3444V11.0331L19.7823 9.872ZM21.745 18.9657L21.7559 14.9994L23.7186 13.8383V20.1364L18.3761 23.2698V20.9477L21.745 18.9657Z" fill="white"/>
<path d="M20.3377 18.1444L18.375 19.2946V16.9833L20.3377 15.8223V18.1444Z" fill="white"/>
<path d="M20.3376 11.8555L20.3484 14.1776L16.9686 16.1608V20.1367L15.0059 21.287L13.0431 20.1367V16.1608L9.66331 14.1776V11.8555L11.6345 10.6944L14.9938 12.6872L18.3736 10.6944L20.346 11.8555H20.3376ZM9.66211 7.89032L14.995 4.74609L20.3376 7.89032L18.3748 9.05138L14.995 7.05859L11.6248 9.05138L9.66211 7.89032Z" fill="white"/>
</g>
<defs>
<clipPath id="clip0_474_4221">
<rect width="30" height="30" fill="white"/>
</clipPath>
</defs>
</svg>
