<svg width="30" height="30" viewBox="0 0 30 30" fill="none" xmlns="http://www.w3.org/2000/svg">
<g clip-path="url(#clip0_236_3292)">
<path d="M15 30C6.71573 30 0 23.2843 0 15C0 6.71573 6.71573 0 15 0C23.2843 0 30 6.71573 30 15C30 23.2843 23.2843 30 15 30Z" fill="#0F8F62"/>
<path fill-rule="evenodd" clip-rule="evenodd" d="M19.6358 20.7001H17.1358V9.27148H19.6358C21.411 9.27148 22.8501 10.7106 22.8501 12.4858C22.8501 13.4955 22.3845 14.3965 21.6563 14.9858C22.3845 15.575 22.8501 16.476 22.8501 17.4858C22.8501 19.261 21.411 20.7001 19.6358 20.7001ZM18.5644 19.2715H19.6358C20.622 19.2715 21.4215 18.472 21.4215 17.4858C21.4215 16.4995 20.622 15.7001 19.6358 15.7001H18.5644V19.2715ZM18.5644 14.2715H19.6358C20.622 14.2715 21.4215 13.472 21.4215 12.4858C21.4215 11.4995 20.622 10.7001 19.6358 10.7001H18.5644V14.2715ZM10.7072 16.3257C10.7072 17.9347 10.1431 19.4927 9.11308 20.7288L8.01562 19.8142C8.83172 18.8349 9.27864 17.6005 9.27864 16.3257V9.27148H14.9929V20.7001H13.5644V10.7001H10.7072V16.3257Z" fill="white"/>
</g>
<defs>
<clipPath id="clip0_236_3292">
<rect width="30" height="30" fill="white"/>
</clipPath>
</defs>
</svg>
