<svg width="30" height="30" viewBox="0 0 30 30" fill="none" xmlns="http://www.w3.org/2000/svg">
<g clip-path="url(#clip0_236_2836)">
<path d="M15 30C23.2843 30 30 23.2843 30 15C30 6.71573 23.2843 0 15 0C6.71573 0 0 6.71573 0 15C0 23.2843 6.71573 30 15 30Z" fill="#F0B90B"/>
<path d="M14.9547 4.99994L17.425 7.52974L11.2046 13.7501L8.73438 11.2798L14.9547 4.99994Z" fill="white"/>
<path d="M18.7048 8.75015L21.175 11.2799L11.2046 21.2503L8.73438 18.7801L18.7048 8.75015Z" fill="white"/>
<path d="M7.45465 12.5L9.92492 15.0298L7.45465 17.5001L4.98438 15.0298L7.45465 12.5Z" fill="white"/>
<path d="M22.4557 12.5L24.926 15.0298L14.9556 25.0002L12.4854 22.5299L22.4557 12.5Z" fill="white"/>
</g>
<defs>
<clipPath id="clip0_236_2836">
<rect width="29.9102" height="30" fill="white"/>
</clipPath>
</defs>
</svg>
