<svg width="22" height="22" viewBox="0 0 22 22" fill="none" xmlns="http://www.w3.org/2000/svg">
<g clip-path="url(#clip0_191_5834)">
<path d="M11 0.6875C8.96038 0.6875 6.96657 1.29232 5.27069 2.42547C3.5748 3.55862 2.25303 5.16921 1.4725 7.05358C0.691968 8.93794 0.487746 11.0114 0.885656 13.0119C1.28357 15.0123 2.26574 16.8498 3.70797 18.292C5.1502 19.7343 6.98771 20.7164 8.98814 21.1143C10.9886 21.5123 13.0621 21.308 14.9464 20.5275C16.8308 19.747 18.4414 18.4252 19.5745 16.7293C20.7077 15.0334 21.3125 13.0396 21.3125 11C21.3125 8.26496 20.226 5.64193 18.292 3.70796C16.3581 1.77399 13.735 0.6875 11 0.6875ZM11.6875 14.96V15.7369C11.6875 15.9192 11.6151 16.0941 11.4861 16.223C11.3572 16.3519 11.1823 16.4244 11 16.4244C10.8177 16.4244 10.6428 16.3519 10.5139 16.223C10.3849 16.0941 10.3125 15.9192 10.3125 15.7369V14.9669C9.97113 14.8654 9.65653 14.6895 9.39141 14.4517C9.12629 14.2139 8.91725 13.9202 8.77938 13.5919C8.74204 13.4886 8.72998 13.3779 8.7442 13.2691C8.75842 13.1602 8.7985 13.0563 8.86111 12.9661C8.92371 12.8759 9.007 12.802 9.10402 12.7506C9.20104 12.6992 9.30896 12.6718 9.41875 12.6706C9.55449 12.6669 9.6883 12.7034 9.80331 12.7756C9.91833 12.8477 10.0094 12.9524 10.065 13.0763C10.1387 13.2638 10.2674 13.4247 10.4344 13.5376C10.6013 13.6505 10.7985 13.7102 11 13.7088C11.1333 13.7097 11.2655 13.6842 11.3889 13.6338C11.5123 13.5834 11.6245 13.5091 11.7191 13.4152C11.8136 13.3213 11.8887 13.2095 11.9399 13.0865C11.9911 12.9634 12.0175 12.8314 12.0175 12.6981C12.0212 12.5616 11.9976 12.4256 11.9483 12.2982C11.899 12.1708 11.8248 12.0545 11.7302 11.956C11.6355 11.8575 11.5222 11.7787 11.3969 11.7244C11.2715 11.67 11.1366 11.6411 11 11.6394C10.592 11.634 10.1919 11.5261 9.83649 11.3256C9.48109 11.1251 9.1818 10.8385 8.96615 10.4921C8.7505 10.1456 8.62541 9.75057 8.60239 9.34317C8.57936 8.93578 8.65914 8.52913 8.83438 8.16062C8.97357 7.85765 9.17842 7.58943 9.43407 7.3754C9.68972 7.16137 9.98978 7.00688 10.3125 6.92312V6.1325C10.3125 5.95016 10.3849 5.7753 10.5139 5.64636C10.6428 5.51743 10.8177 5.445 11 5.445C11.1823 5.445 11.3572 5.51743 11.4861 5.64636C11.6151 5.7753 11.6875 5.95016 11.6875 6.1325V6.94375C12.0619 7.05218 12.4041 7.25042 12.6844 7.52125C12.9184 7.75483 13.1031 8.03304 13.2275 8.33938C13.2568 8.43964 13.2629 8.54527 13.2453 8.64825C13.2277 8.75123 13.1869 8.84884 13.1259 8.93367C13.065 9.0185 12.9854 9.08832 12.8935 9.13783C12.8015 9.18733 12.6994 9.21522 12.595 9.21937C12.4596 9.2257 12.3254 9.19187 12.2092 9.12215C12.093 9.05243 12 8.94992 11.9419 8.8275C11.8857 8.70533 11.8089 8.59372 11.715 8.4975C11.5309 8.31635 11.2856 8.21086 11.0275 8.20188C10.7594 8.20547 10.5034 8.31404 10.3144 8.50428C10.1255 8.69451 10.0187 8.95125 10.0169 9.21937C10.0179 9.48454 10.1191 9.73953 10.3001 9.9333C10.4811 10.1271 10.7286 10.2453 10.9931 10.2644C11.5715 10.2773 12.1275 10.4897 12.5673 10.8656C13.007 11.2414 13.3034 11.7576 13.4063 12.3269C13.4832 12.899 13.352 13.4796 13.0365 13.963C12.721 14.4464 12.2422 14.8002 11.6875 14.96Z" fill="#777786"/>
</g>
<defs>
<clipPath id="clip0_191_5834">
<rect width="22" height="22" fill="white"/>
</clipPath>
</defs>
</svg>
