<svg width="58" height="58" viewBox="0 0 58 58" fill="none" xmlns="http://www.w3.org/2000/svg">
<rect x="0.75" y="0.75" width="56.5" height="56.5" rx="28.25" fill="#1E1F1D"/>
<path d="M29.0001 34.3498C29.9003 34.3498 30.6301 33.6201 30.6301 32.7198C30.6301 31.8196 29.9003 31.0898 29.0001 31.0898C28.0999 31.0898 27.3701 31.8196 27.3701 32.7198C27.3701 33.6201 28.0999 34.3498 29.0001 34.3498Z" fill="#FFD600"/>
<path d="M35.28 26.53V25.28C35.28 22.58 34.63 19 29 19C23.37 19 22.72 22.58 22.72 25.28V26.53C19.92 26.88 19 28.3 19 31.79V33.65C19 37.75 20.25 39 24.35 39H33.65C37.75 39 39 37.75 39 33.65V31.79C39 28.3 38.08 26.88 35.28 26.53ZM29 35.74C27.33 35.74 25.98 34.38 25.98 32.72C25.98 31.05 27.34 29.7 29 29.7C30.66 29.7 32.02 31.06 32.02 32.72C32.02 34.39 30.67 35.74 29 35.74ZM24.35 26.44C24.27 26.44 24.2 26.44 24.12 26.44V25.28C24.12 22.35 24.95 20.4 29 20.4C33.05 20.4 33.88 22.35 33.88 25.28V26.45C33.8 26.45 33.73 26.45 33.65 26.45H24.35V26.44Z" fill="#FFD600"/>
<rect x="0.75" y="0.75" width="56.5" height="56.5" rx="28.25" stroke="#4B4417" stroke-width="1.5"/>
</svg>
