<svg width="22" height="22" viewBox="0 0 22 22" fill="none" xmlns="http://www.w3.org/2000/svg">
<path d="M11 21.0827C5.43777 21.0827 0.916687 16.5616 0.916687 10.9993C0.916687 5.4371 5.43777 0.916016 11 0.916016C16.5623 0.916016 21.0834 5.4371 21.0834 10.9993C21.0834 16.5616 16.5623 21.0827 11 21.0827ZM11 2.32299C6.2163 2.32299 2.32366 6.21563 2.32366 10.9993C2.32366 15.7831 6.2163 19.6757 11 19.6757C15.7837 19.6757 19.6764 15.7831 19.6764 10.9993C19.6764 6.21563 15.7837 2.32299 11 2.32299Z" fill="#D91C1C"/>
<path d="M8.09944 14.6673C7.90471 14.6673 7.70997 14.5956 7.55623 14.4419C7.25901 14.1448 7.25901 13.653 7.55623 13.3559L13.3573 7.55683C13.6545 7.2597 14.1465 7.2597 14.4437 7.55683C14.741 7.85395 14.741 8.34574 14.4437 8.64287L8.64265 14.4419C8.49916 14.5956 8.29418 14.6673 8.09944 14.6673Z" fill="#D91C1C"/>
<path d="M13.9005 14.6673C13.7058 14.6673 13.511 14.5956 13.3573 14.4419L7.55623 8.64287C7.25901 8.34574 7.25901 7.85395 7.55623 7.55683C7.85346 7.2597 8.34543 7.2597 8.64265 7.55683L14.4437 13.3559C14.741 13.653 14.741 14.1448 14.4437 14.4419C14.29 14.5956 14.0953 14.6673 13.9005 14.6673Z" fill="#D91C1C"/>
</svg>
