<svg width="30" height="30" viewBox="0 0 30 30" fill="none" xmlns="http://www.w3.org/2000/svg">
<g clip-path="url(#clip0_474_4329)">
<path d="M28.0895 13.3969C28.0834 13.3213 28.0729 13.2351 28.0604 13.1582L27.9658 13.2931L28.0895 13.3969Z" fill="#FF7040"/>
<path d="M30.0003 15L28.0896 13.3967C28.1073 13.617 28.0872 13.747 27.9658 13.2929C27.9658 12.7736 28.0221 12.9217 28.0604 13.158L29.4917 11.1171C29.1491 9.83537 28.6416 8.62113 27.9924 7.499L25.3751 7.03922L25.6068 4.39342C24.6831 3.46975 23.6393 2.66631 22.5012 2.00783L20.005 2.91721L18.8832 0.508535C17.6446 0.177539 16.3432 0 15.0003 0L10.5723 15L16.6036 27.742L18.8833 29.4915C20.1649 29.1489 21.3792 28.6414 22.5013 27.9922L22.9611 25.3749L25.6069 25.6066C26.5306 24.6829 27.334 23.6391 27.9925 22.501L27.0831 20.0048L29.4917 18.8829C29.8227 17.6443 30.0003 16.343 30.0003 15Z" fill="#FF7040"/>
<path d="M22.501 2.00711C21.3789 1.35783 20.1646 0.85041 18.8829 0.507812L15 14.9993L22.501 2.00711Z" fill="#FF4F42"/>
<path d="M30 15.0001C30 13.6572 29.8225 12.3558 29.4915 11.1172L15 15.0001H30Z" fill="#FF4F42"/>
<path d="M27.9922 7.49816C27.3337 6.36004 26.5303 5.31625 25.6066 4.39258L15 14.9992L27.9922 7.49816Z" fill="#FF4F42"/>
<path d="M15.0003 30C16.3433 30 17.6446 29.8225 18.8832 29.4915L15.0003 15L13.1895 28.1892L15.0003 30Z" fill="#FF4F42"/>
<path d="M22.501 27.9922C23.6391 27.3337 24.6829 26.5303 25.6066 25.6066L15 15L22.501 27.9922Z" fill="#FF4F42"/>
<path d="M15 15L27.9922 22.5011C28.6414 21.3789 29.1489 20.1647 29.4915 18.883L15 15Z" fill="#FF4F42"/>
<path d="M11.117 0.508535C11.117 0.508535 10.0819 2.60982 9.9951 2.91709C9.99428 2.92014 9.99352 2.92271 9.9927 2.92559C9.99422 2.92031 9.9951 2.91709 9.9951 2.91709L7.49889 2.00771C6.36076 2.66625 5.31697 3.46969 4.39336 4.39336L4.62504 7.03916L2.00777 7.49895C1.3585 8.62107 0.851074 9.83531 0.508477 11.117L2.03438 13.2929L0 15C0 16.343 0.177539 17.6443 0.508535 18.8829L2.91715 20.0048L2.00777 22.5011C2.66625 23.6392 3.46969 24.683 4.39336 25.6066L7.03916 25.375L7.49895 27.9922C8.62107 28.6415 9.83531 29.1489 11.117 29.4915L13.5315 28.2843L15 15V0C13.657 0 12.3557 0.177539 11.117 0.508535ZM9.98754 2.94416C9.98631 2.94838 9.98531 2.95207 9.9842 2.956C9.98537 2.95189 9.98648 2.94785 9.98754 2.94416ZM9.98086 2.96777C9.98004 2.97064 9.97934 2.97316 9.97857 2.97592C9.97934 2.97322 9.9801 2.97047 9.98086 2.96777ZM9.9723 2.99813C9.97113 3.00229 9.97002 3.00621 9.96896 3.00984C9.97008 3.00598 9.97119 3.00211 9.9723 2.99813ZM9.96445 3.02584C9.9634 3.02959 9.96246 3.03287 9.9617 3.03574C9.96252 3.0327 9.96346 3.02947 9.96445 3.02584ZM9.95953 3.04348C9.95859 3.04699 9.95777 3.04969 9.9573 3.05133C9.95777 3.04957 9.95848 3.04693 9.95953 3.04348Z" fill="#FF903D"/>
<path d="M4.3934 4.39258C3.46973 5.31625 2.66629 6.36004 2.00781 7.49816L15 14.9992L4.3934 4.39258Z" fill="#FF7040"/>
<path d="M11.1171 0.507812C9.83539 0.850352 8.62115 1.35783 7.49902 2.00711L15.0001 14.9993L11.1171 0.507812Z" fill="#FF7040"/>
<path d="M0.508535 11.1172C0.177539 12.3559 0 13.6572 0 15.0002H15L0.508535 11.1172Z" fill="#FF7040"/>
<path d="M11.1172 29.4915C12.3559 29.8225 13.6572 30 15.0002 30V15L11.1172 29.4915Z" fill="#FF7040"/>
<path d="M0.508789 18.8829C0.851328 20.1646 1.35881 21.3789 2.00809 22.501L15.0003 15L0.508789 18.8829Z" fill="#FF7040"/>
<path d="M4.39355 25.6066C5.31723 26.5303 6.36102 27.3337 7.49914 27.9922L15.0001 15L4.39355 25.6066Z" fill="#FF7040"/>
<path d="M15.0003 1.81055L10.5723 14.9997L15.0003 28.1889C22.2844 28.1889 28.1894 22.2839 28.1894 14.9997C28.1894 7.71551 22.2844 1.81055 15.0003 1.81055Z" fill="#FF903D"/>
<path d="M1.81055 14.9997C1.81055 22.2838 7.71551 28.1889 14.9997 28.1889V1.81055C7.71557 1.81055 1.81055 7.71557 1.81055 14.9997Z" fill="#FFB03B"/>
<path d="M15 4.22461V25.7739C20.9507 25.7739 25.7746 20.95 25.7746 14.9993C25.7746 9.04863 20.9507 4.22461 15 4.22461Z" fill="#FFB03B"/>
<path d="M23.964 14.9992C23.964 9.04857 19.9507 4.22461 15.0002 4.22461C9.04955 4.22461 4.22559 9.04857 4.22559 14.9992C4.22559 20.9499 9.04955 25.7739 15.0002 25.7739C19.9507 25.7739 23.964 20.9499 23.964 14.9992Z" fill="#FFC46C"/>
<path d="M15.0001 8.66211L14.3965 15.0001L15.0001 21.3382H16.811V8.66211H15.0001Z" fill="#FF7040"/>
<path d="M13.1888 8.66211L11.3779 10.4729V12.2838H13.1888V21.3382H14.9997V8.66211H13.1888Z" fill="#FF903D"/>
<path d="M17.1122 21.7902H14.9996C14.7496 21.7902 14.5469 21.5875 14.5469 21.3375C14.5469 21.0874 14.7496 20.8848 14.9996 20.8848H17.1122C17.3623 20.8848 17.5649 21.0874 17.5649 21.3375C17.5649 21.5875 17.3623 21.7902 17.1122 21.7902Z" fill="#FF7040"/>
<path d="M12.8873 20.8848C12.6372 20.8848 12.4346 21.0875 12.4346 21.3375C12.4346 21.5875 12.6372 21.7902 12.8873 21.7902H14.9999V20.8848H12.8873V20.8848Z" fill="#FF903D"/>
</g>
<defs>
<clipPath id="clip0_474_4329">
<rect width="30" height="30" fill="white"/>
</clipPath>
</defs>
</svg>
