<svg width="14" height="14" viewBox="0 0 14 14" fill="none" xmlns="http://www.w3.org/2000/svg">
<path d="M9.33317 7.52435V9.97435C9.33317 12.016 8.5165 12.8327 6.47484 12.8327H4.02484C1.98317 12.8327 1.1665 12.016 1.1665 9.97435V7.52435C1.1665 5.48268 1.98317 4.66602 4.02484 4.66602H6.47484C8.5165 4.66602 9.33317 5.48268 9.33317 7.52435Z" stroke="#4C9540" stroke-width="1.5" stroke-linecap="round" stroke-linejoin="round"/>
<path d="M12.8332 4.02435V6.47435C12.8332 8.51602 12.0165 9.33268 9.97484 9.33268H9.33317V7.52435C9.33317 5.48268 8.5165 4.66602 6.47484 4.66602H4.6665V4.02435C4.6665 1.98268 5.48317 1.16602 7.52484 1.16602H9.97484C12.0165 1.16602 12.8332 1.98268 12.8332 4.02435Z" stroke="#4C9540" stroke-width="1.5" stroke-linecap="round" stroke-linejoin="round"/>
</svg>
