<svg width="22" height="22" viewBox="0 0 22 22" fill="none" xmlns="http://www.w3.org/2000/svg">
<g clip-path="url(#clip0_175_654)">
<path fill-rule="evenodd" clip-rule="evenodd" d="M11.0209 0.916382C5.45417 0.916382 0.914558 5.44884 0.914551 11.0156C0.914537 16.5824 5.45416 21.1202 11.0209 21.1202C16.5877 21.1202 21.1184 16.5824 21.1184 11.0156C21.1183 5.44884 16.5877 0.916382 11.0209 0.916382ZM11.0066 6.41249C11.1296 6.41104 11.2516 6.43431 11.3654 6.48093C11.4793 6.52755 11.5826 6.59656 11.6692 6.68386C11.7558 6.77117 11.824 6.875 11.8698 6.98917C11.9155 7.10335 11.9379 7.22556 11.9355 7.34853V10.0993H14.6862C14.9299 10.0993 15.1637 10.1961 15.336 10.3684C15.5084 10.5408 15.6052 10.7745 15.6052 11.0183C15.6052 11.262 15.5084 11.4958 15.336 11.6681C15.1637 11.8405 14.9299 11.9373 14.6862 11.9373H11.9355V14.688C11.9355 14.9318 11.8386 15.1655 11.6663 15.3379C11.4939 15.5102 11.2602 15.607 11.0165 15.607C10.7727 15.607 10.539 15.5102 10.3666 15.3379C10.1943 15.1655 10.0974 14.9318 10.0974 14.688V11.9373H7.3467C7.10302 11.9498 6.86434 11.865 6.68316 11.7016C6.50197 11.5382 6.39311 11.3095 6.38051 11.0658C6.36791 10.8221 6.4526 10.5834 6.61597 10.4022C6.77933 10.2209 7.00799 10.112 7.25166 10.0993C7.28332 10.0976 7.31504 10.0976 7.3467 10.0993H10.0974V7.34853C10.0951 7.22722 10.1168 7.10664 10.1613 6.99376C10.2058 6.88089 10.2723 6.77796 10.3568 6.69092C10.4414 6.60388 10.5423 6.53445 10.6538 6.48666C10.7654 6.43888 10.8853 6.41366 11.0066 6.41249Z" fill="#777786"/>
</g>
<defs>
<clipPath id="clip0_175_654">
<rect width="22" height="22" fill="white"/>
</clipPath>
</defs>
</svg>
