<svg width="16" height="16" viewBox="0 0 16 16" fill="none" xmlns="http://www.w3.org/2000/svg">
<g clip-path="url(#clip0_474_31726)">
<path d="M14.6688 3.99952C13.9323 3.99952 13.3353 4.59658 13.3353 5.33306C13.3355 5.47286 13.3581 5.61173 13.4019 5.74447L12.3204 6.43191C11.6084 6.8856 10.6695 6.73524 10.1348 6.08186L9.07461 4.78501C9.24332 4.55789 9.33452 4.2825 9.33465 3.99955C9.33465 3.26307 8.73759 2.66602 8.00111 2.66602C7.26463 2.66602 6.66757 3.26307 6.66757 3.99955C6.6677 4.2825 6.7589 4.55789 6.92761 4.78501L5.86745 6.08186C5.33278 6.73486 4.39439 6.8852 3.68248 6.43191L2.60038 5.74447C2.64429 5.61173 2.6668 5.47286 2.66705 5.33306C2.66717 4.59658 2.07024 3.99943 1.33373 3.9993C0.597275 3.99918 0.000125041 4.59614 2.21853e-08 5.33263C-0.000124996 6.02398 0.52814 6.60078 1.21683 6.66126L2.00495 11.3886C2.03167 11.5493 2.17069 11.6672 2.33365 11.6673H13.6687C13.8316 11.6672 13.9706 11.5493 13.9974 11.3886L14.7855 6.66126C15.519 6.59547 16.0604 5.94747 15.9946 5.21392C15.933 4.52729 15.3582 4.0008 14.6688 3.99952Z" fill="#FFC107"/>
<path d="M8.00147 13.0008C11.1315 13.0008 13.669 12.2545 13.669 11.3339C13.669 10.4133 11.1315 9.66699 8.00147 9.66699C4.8714 9.66699 2.33398 10.4133 2.33398 11.3339C2.33398 12.2545 4.8714 13.0008 8.00147 13.0008Z" fill="#FFA000"/>
<path d="M8.00088 13.3341C5.01844 13.3341 2 12.6473 2 11.3338C2 10.0203 5.01844 9.3335 8.00088 9.3335C10.9833 9.3335 14.0018 10.0203 14.0018 11.3338C14.0018 12.6473 10.9833 13.3341 8.00088 13.3341ZM8.00088 10.0003C4.49902 10.0003 2.66675 10.867 2.66675 11.3338C2.66675 11.8005 4.49902 12.6673 8.00088 12.6673C11.5027 12.6673 13.335 11.8005 13.335 11.3338C13.335 10.867 11.5027 10.0003 8.00088 10.0003Z" fill="#FFD54F"/>
</g>
<defs>
<clipPath id="clip0_474_31726">
<rect width="16" height="16" fill="white"/>
</clipPath>
</defs>
</svg>
