<svg width="30" height="30" viewBox="0 0 30 30" fill="none" xmlns="http://www.w3.org/2000/svg">
<g clip-path="url(#clip0_239_702)">
<path d="M15 30C6.71573 30 0 23.2843 0 15C0 6.71573 6.71573 0 15 0C23.2843 0 30 6.71573 30 15C30 23.2843 23.2843 30 15 30Z" fill="#0F8F62"/>
<path d="M20.5588 15.7287L19.4442 10.0144H20.8728L21.9596 15.4485C22.1143 16.2221 21.6126 16.9748 20.8389 17.1295C20.7467 17.1479 20.6528 17.1572 20.5588 17.1572H16.5871V15.7287H20.5588ZM10.8728 7.15723H12.3013V17.1572H10.8728V7.15723ZM13.7299 15.7287H15.1585V17.1572H13.7299V15.7287ZM12.3013 22.8364H8.01562V21.4078H8.72991V19.9792C8.72991 19.1903 9.3695 18.5507 10.1585 18.5507H12.3013V19.9792H10.4442C10.2864 19.9792 10.1585 20.1072 10.1585 20.265V21.4078H12.3013V22.8364Z" fill="white"/>
</g>
<defs>
<clipPath id="clip0_239_702">
<rect width="30" height="30" fill="white"/>
</clipPath>
</defs>
</svg>
