<svg width="28" height="30" viewBox="0 0 28 30" fill="none" xmlns="http://www.w3.org/2000/svg">
<g filter="url(#filter0_d_474_20041)">
<rect width="28" height="28" rx="4" fill="url(#paint0_linear_474_20041)"/>
<g filter="url(#filter1_d_474_20041)">
<rect x="2" y="2" width="24" height="15" rx="5" fill="url(#paint1_linear_474_20041)" fill-opacity="0.17" shape-rendering="crispEdges"/>
</g>
<path d="M18.8516 9.54865C17.9593 9.13923 17.0024 8.83757 16.002 8.66479C15.9838 8.66145 15.9655 8.66979 15.9562 8.68644C15.8331 8.90533 15.6968 9.19085 15.6013 9.41529C14.5253 9.25418 13.4547 9.25418 12.4007 9.41529C12.3052 9.18588 12.164 8.90533 12.0403 8.68644C12.031 8.67034 12.0128 8.662 11.9945 8.66479C10.9946 8.837 10.0378 9.13865 9.14489 9.54865C9.13715 9.55198 9.13054 9.55753 9.12613 9.56475C7.31117 12.2763 6.81395 14.9212 7.05785 17.5333C7.05895 17.5461 7.06614 17.5583 7.07606 17.5661C8.27353 18.4455 9.4335 18.9793 10.5719 19.3332C10.5901 19.3388 10.6094 19.3321 10.621 19.3171C10.8903 18.9494 11.1303 18.5616 11.3362 18.1538C11.3483 18.13 11.3367 18.1016 11.3119 18.0922C10.9311 17.9477 10.5686 17.7716 10.2198 17.5717C10.1922 17.5556 10.19 17.5161 10.2154 17.4972C10.2888 17.4422 10.3622 17.385 10.4323 17.3272C10.445 17.3167 10.4626 17.3144 10.4775 17.3211C12.7687 18.3672 15.2492 18.3672 17.5134 17.3211C17.5283 17.3139 17.5459 17.3161 17.5592 17.3266C17.6293 17.3844 17.7027 17.4422 17.7766 17.4972C17.802 17.5161 17.8003 17.5555 17.7727 17.5716C17.424 17.7755 17.0614 17.9477 16.6801 18.0916C16.6553 18.101 16.6442 18.1299 16.6564 18.1538C16.8667 18.561 17.1067 18.9488 17.371 19.3165C17.3821 19.3321 17.4019 19.3388 17.4201 19.3332C18.564 18.9793 19.724 18.4455 20.9215 17.5661C20.932 17.5583 20.9386 17.5466 20.9397 17.5338C21.2316 14.514 20.4508 11.8907 18.8698 9.5653C18.8659 9.55753 18.8593 9.55198 18.8516 9.54865ZM11.6784 15.9428C10.9886 15.9428 10.4202 15.3095 10.4202 14.5317C10.4202 13.754 10.9775 13.1207 11.6784 13.1207C12.3847 13.1207 12.9476 13.7596 12.9365 14.5317C12.9365 15.3095 12.3792 15.9428 11.6784 15.9428ZM16.3303 15.9428C15.6405 15.9428 15.0721 15.3095 15.0721 14.5317C15.0721 13.754 15.6295 13.1207 16.3303 13.1207C17.0366 13.1207 17.5995 13.7596 17.5885 14.5317C17.5885 15.3095 17.0367 15.9428 16.3303 15.9428Z" fill="white"/>
<rect x="0.5" y="0.5" width="27" height="27" rx="3.5" stroke="#35762A"/>
</g>
<defs>
<filter id="filter0_d_474_20041" x="0" y="0" width="28" height="30" filterUnits="userSpaceOnUse" color-interpolation-filters="sRGB">
<feFlood flood-opacity="0" result="BackgroundImageFix"/>
<feColorMatrix in="SourceAlpha" type="matrix" values="0 0 0 0 0 0 0 0 0 0 0 0 0 0 0 0 0 0 127 0" result="hardAlpha"/>
<feOffset dy="2"/>
<feComposite in2="hardAlpha" operator="out"/>
<feColorMatrix type="matrix" values="0 0 0 0 0.207843 0 0 0 0 0.462745 0 0 0 0 0.164706 0 0 0 1 0"/>
<feBlend mode="normal" in2="BackgroundImageFix" result="effect1_dropShadow_474_20041"/>
<feBlend mode="normal" in="SourceGraphic" in2="effect1_dropShadow_474_20041" result="shape"/>
</filter>
<filter id="filter1_d_474_20041" x="1" y="2" width="26" height="17" filterUnits="userSpaceOnUse" color-interpolation-filters="sRGB">
<feFlood flood-opacity="0" result="BackgroundImageFix"/>
<feColorMatrix in="SourceAlpha" type="matrix" values="0 0 0 0 0 0 0 0 0 0 0 0 0 0 0 0 0 0 127 0" result="hardAlpha"/>
<feOffset dy="1"/>
<feGaussianBlur stdDeviation="0.5"/>
<feComposite in2="hardAlpha" operator="out"/>
<feColorMatrix type="matrix" values="0 0 0 0 0 0 0 0 0 0 0 0 0 0 0 0 0 0 0.01 0"/>
<feBlend mode="normal" in2="BackgroundImageFix" result="effect1_dropShadow_474_20041"/>
<feBlend mode="normal" in="SourceGraphic" in2="effect1_dropShadow_474_20041" result="shape"/>
</filter>
<linearGradient id="paint0_linear_474_20041" x1="14" y1="0" x2="14" y2="28" gradientUnits="userSpaceOnUse">
<stop stop-color="#69C05A"/>
<stop offset="1" stop-color="#469239"/>
</linearGradient>
<linearGradient id="paint1_linear_474_20041" x1="14" y1="2" x2="14" y2="17" gradientUnits="userSpaceOnUse">
<stop stop-color="white" stop-opacity="0"/>
<stop offset="1" stop-color="white"/>
</linearGradient>
</defs>
</svg>
