<svg width="26" height="26" viewBox="0 0 26 26" fill="none" xmlns="http://www.w3.org/2000/svg">
<rect x="0.5" y="0.5" width="25" height="25" rx="12.5" fill="#191B21"/>
<path d="M17.5051 8.86632C16.6765 8.48615 15.788 8.20604 14.859 8.0456C14.8421 8.0425 14.8251 8.05024 14.8164 8.0657C14.7022 8.26896 14.5756 8.53409 14.4869 8.74249C13.4877 8.59289 12.4937 8.59289 11.5149 8.74249C11.4263 8.52946 11.2951 8.26896 11.1803 8.0657C11.1716 8.05075 11.1547 8.04301 11.1378 8.0456C10.2093 8.20551 9.32079 8.48561 8.49169 8.86632C8.4845 8.86942 8.47836 8.87457 8.47427 8.88128C6.78894 11.3991 6.32724 13.8551 6.55372 16.2806C6.55474 16.2925 6.56141 16.3038 6.57063 16.3111C7.68256 17.1277 8.75968 17.6234 9.81677 17.952C9.83368 17.9572 9.85161 17.951 9.86237 17.937C10.1124 17.5956 10.3353 17.2355 10.5264 16.8569C10.5377 16.8347 10.5269 16.8084 10.5039 16.7996C10.1503 16.6655 9.81367 16.5019 9.48982 16.3163C9.4642 16.3013 9.46214 16.2647 9.48573 16.2471C9.55388 16.1961 9.62205 16.1429 9.68713 16.0893C9.69891 16.0795 9.71531 16.0774 9.72915 16.0836C11.8567 17.0549 14.16 17.0549 16.2624 16.0836C16.2762 16.0769 16.2927 16.079 16.3049 16.0887C16.37 16.1424 16.4382 16.196 16.5068 16.2471C16.5304 16.2646 16.5289 16.3013 16.5033 16.3162C16.1794 16.5055 15.8428 16.6655 15.4887 16.7991C15.4656 16.8078 15.4554 16.8347 15.4667 16.8568C15.6619 17.2349 15.8848 17.595 16.1302 17.9365C16.1405 17.951 16.1589 17.9572 16.1758 17.952C17.238 17.6234 18.3152 17.1276 19.4271 16.3111C19.4368 16.3038 19.443 16.293 19.444 16.2811C19.7151 13.477 18.99 11.0411 17.5219 8.88178C17.5184 8.87457 17.5122 8.86942 17.5051 8.86632ZM10.8442 14.8037C10.2037 14.8037 9.67588 14.2157 9.67588 13.4935C9.67588 12.7713 10.1934 12.1832 10.8442 12.1832C11.5001 12.1832 12.0228 12.7765 12.0125 13.4935C12.0125 14.2157 11.4949 14.8037 10.8442 14.8037ZM15.1638 14.8037C14.5233 14.8037 13.9955 14.2157 13.9955 13.4935C13.9955 12.7713 14.5131 12.1832 15.1638 12.1832C15.8197 12.1832 16.3424 12.7765 16.3322 13.4935C16.3322 14.2157 15.8197 14.8037 15.1638 14.8037Z" fill="white"/>
<rect x="0.5" y="0.5" width="25" height="25" rx="12.5" stroke="#30333C"/>
</svg>
