<svg width="30" height="30" viewBox="0 0 30 30" fill="none" xmlns="http://www.w3.org/2000/svg">
<g clip-path="url(#clip0_239_709)">
<circle cx="15" cy="15" r="15" fill="#4C9540"/>
<path d="M15.909 21.6817V23.4181C15.909 23.689 15.6982 23.8861 15.4266 23.8861H14.2693C13.9977 23.8861 13.779 23.689 13.779 23.4181V21.8345C12.7137 21.7862 11.6392 21.559 10.8259 21.2496C10.3853 21.0825 10.1398 20.6105 10.2567 20.1536L10.4453 19.4186C10.5113 19.1607 10.6836 18.9453 10.9192 18.8245C11.1549 18.7018 11.4317 18.6894 11.6791 18.7841C12.4539 19.0837 13.3691 19.3017 14.3463 19.3017C15.5905 19.3017 16.4423 18.8213 16.4423 17.9479C16.4423 17.1182 15.7439 16.594 14.1276 16.0477C11.7913 15.2617 10.1914 14.1703 10.1914 12.0521C10.1914 10.131 11.5511 8.62436 13.8756 8.16547V6.58185C13.8756 6.31095 14.1074 6.06812 14.3789 6.06812H15.5363C15.8078 6.06812 16.0069 6.31095 16.0069 6.58185V8.01206C17.0233 8.0558 17.757 8.20659 18.3706 8.40634C18.8347 8.55778 19.1089 9.04409 18.9868 9.518L18.821 10.176C18.7564 10.4267 18.5906 10.6395 18.3634 10.7622C18.1363 10.8849 17.868 10.9071 17.6225 10.8229C17.0651 10.6316 16.3379 10.458 15.4162 10.458C13.9971 10.458 13.5382 11.0696 13.5382 11.6813C13.5382 12.4019 14.3026 12.8602 16.1584 13.5593C18.7564 14.4764 19.8002 15.6775 19.8002 17.6417C19.7995 19.585 18.4268 21.2457 15.909 21.6817Z" fill="white"/>
</g>
<defs>
<clipPath id="clip0_239_709">
<rect width="30" height="30" fill="white"/>
</clipPath>
</defs>
</svg>
