<svg width="30" height="30" viewBox="0 0 30 30" fill="none" xmlns="http://www.w3.org/2000/svg">
<g clip-path="url(#clip0_236_3254)">
<path d="M15 30C6.71573 30 0 23.2843 0 15C0 6.71573 6.71573 0 15 0C23.2843 0 30 6.71573 30 15C30 23.2843 23.2843 30 15 30Z" fill="#F8D511"/>
<path d="M19.6875 17.3438C19.8118 17.3438 19.931 17.3931 20.019 17.481C20.1069 17.569 20.1562 17.6882 20.1562 17.8125C20.1562 17.9368 20.1069 18.056 20.019 18.144C19.931 18.2319 19.8118 18.2812 19.6875 18.2812H17.8125V20.625C17.8125 20.8736 17.7137 21.1121 17.5379 21.2879C17.3621 21.4637 17.1236 21.5625 16.875 21.5625C16.6264 21.5625 16.3879 21.4637 16.2121 21.2879C16.0363 21.1121 15.9375 20.8736 15.9375 20.625V18.2812H14.0625C13.9382 18.2812 13.819 18.2319 13.731 18.144C13.6431 18.056 13.5938 17.9368 13.5938 17.8125C13.5938 17.6882 13.6431 17.569 13.731 17.481C13.819 17.3931 13.9382 17.3438 14.0625 17.3438H15.9375V15.4688H14.0625C13.9382 15.4688 13.819 15.4194 13.731 15.3315C13.6431 15.2435 13.5938 15.1243 13.5938 15C13.5938 14.8757 13.6431 14.7565 13.731 14.6685C13.819 14.5806 13.9382 14.5312 14.0625 14.5312H15.9375V12.6562C15.9375 12.0346 15.6906 11.4385 15.251 10.999C14.8115 10.5594 14.2154 10.3125 13.5938 10.3125C12.9721 10.3125 12.376 10.5594 11.9365 10.999C11.4969 11.4385 11.25 12.0346 11.25 12.6562C11.25 12.9049 11.1512 13.1433 10.9754 13.3192C10.7996 13.495 10.5611 13.5938 10.3125 13.5938C10.0639 13.5938 9.8254 13.495 9.64959 13.3192C9.47377 13.1433 9.375 12.9049 9.375 12.6562C9.375 11.5374 9.81947 10.4643 10.6106 9.67314C11.4018 8.88197 12.4749 8.4375 13.5938 8.4375C14.7126 8.4375 15.7857 8.88197 16.5769 9.67314C17.368 10.4643 17.8125 11.5374 17.8125 12.6562V14.5312H19.6875C19.8118 14.5312 19.931 14.5806 20.019 14.6685C20.1069 14.7565 20.1562 14.8757 20.1562 15C20.1562 15.1243 20.1069 15.2435 20.019 15.3315C19.931 15.4194 19.8118 15.4688 19.6875 15.4688H17.8125V17.3438H19.6875Z" fill="#1773EB"/>
</g>
<defs>
<clipPath id="clip0_236_3254">
<rect width="30" height="30" fill="white"/>
</clipPath>
</defs>
</svg>
