<svg width="18" height="18" viewBox="0 0 18 18" fill="none" xmlns="http://www.w3.org/2000/svg">
<g clip-path="url(#clip0_474_23586)">
<path d="M0.527302 16.769H1.5819C1.87312 16.769 2.10921 16.5329 2.10921 16.2417V10.4414H0.527302C0.23609 10.4414 0 10.6775 0 10.9687V16.2417C0 16.5329 0.23609 16.769 0.527302 16.769Z" fill="#4C9540"/>
<path d="M13.7801 0.950195C11.4503 0.950195 9.56171 2.83881 9.56171 5.16861C9.56171 7.49833 11.4503 9.38702 13.7801 9.38702C16.1099 9.38702 17.9985 7.49833 17.9985 5.16861C17.9985 2.83881 16.1099 0.950195 13.7801 0.950195ZM14.6638 7.0664C14.5496 7.12349 14.4299 7.16845 14.3073 7.20248V7.34819C14.3073 7.6394 14.0713 7.87549 13.78 7.87549C13.4888 7.87549 13.2527 7.6394 13.2527 7.34819V7.21897C13.0332 7.1637 12.8286 7.0708 12.6551 6.94076C12.4222 6.76605 12.3749 6.43554 12.5497 6.20254C12.7244 5.96961 13.0549 5.92233 13.2879 6.09708C13.4988 6.25527 13.9045 6.26701 14.1922 6.12316C14.3078 6.06534 14.3702 5.99573 14.3702 5.95963C14.3702 5.89653 14.3702 5.88679 14.3 5.84935C14.1624 5.77592 13.9192 5.73078 13.6839 5.68716C13.3698 5.62887 13.045 5.56862 12.7636 5.41841C12.3526 5.19905 12.1353 4.83918 12.1353 4.37773C12.1353 3.91574 12.4124 3.51225 12.8954 3.27074C13.0099 3.21348 13.1299 3.16817 13.2527 3.1341V2.98916C13.2527 2.69795 13.4888 2.46186 13.78 2.46186C14.0713 2.46186 14.3073 2.69795 14.3073 2.98916V3.11828C14.5269 3.17358 14.7315 3.26656 14.905 3.39659C15.138 3.57134 15.1852 3.90185 15.0104 4.13481C14.8357 4.36778 14.5052 4.41502 14.2722 4.24028C14.061 4.08184 13.6549 4.0701 13.367 4.21398C13.2507 4.27212 13.1899 4.34036 13.1899 4.37769C13.1899 4.44083 13.1899 4.45053 13.2601 4.488C13.3977 4.56144 13.641 4.60657 13.8762 4.6502C14.1903 4.70848 14.5151 4.76874 14.7966 4.91895C15.2075 5.1383 15.4248 5.49817 15.4248 5.95963C15.4248 6.42116 15.1474 6.82458 14.6638 7.0664Z" fill="#4C9540"/>
<path d="M9.51959 17.0503H9.6356C11.4073 17.0291 13.1052 16.5265 14.6028 15.6195L17.5451 13.563C18.0408 13.215 18.1357 12.5612 17.8088 12.0971C17.4713 11.612 16.8174 11.496 16.3429 11.8335L13.5165 13.8161C12.6096 14.3434 11.5023 14.4594 10.5004 14.1219L7.24868 13.0462C6.97449 12.9619 6.82681 12.656 6.92176 12.3819C7.00609 12.1182 7.28029 11.9706 7.55448 12.0444C7.56503 12.0444 11.2069 13.2256 11.2069 13.2256C11.8202 13.4094 12.3651 13.0624 12.5357 12.5506C12.715 11.9916 12.4092 11.4011 11.8608 11.2218L6.90063 9.59773C5.81572 9.20278 4.35373 9.28437 3.16382 9.94975V15.8528L7.30138 16.7901C8.05932 16.9569 8.80303 17.0503 9.51959 17.0503Z" fill="#4C9540"/>
</g>
<defs>
<clipPath id="clip0_474_23586">
<rect width="18" height="18" fill="white"/>
</clipPath>
</defs>
</svg>
