<svg width="17" height="17" viewBox="0 0 17 17" fill="none" xmlns="http://www.w3.org/2000/svg">
<path d="M14.875 15.584H2.125C1.83458 15.584 1.59375 15.3432 1.59375 15.0527C1.59375 14.7623 1.83458 14.5215 2.125 14.5215H14.875C15.1654 14.5215 15.4062 14.7623 15.4062 15.0527C15.4062 15.3432 15.1654 15.584 14.875 15.584Z" fill="#4C9540"/>
<path d="M13.4727 2.46582C12.0985 1.09166 10.7527 1.05624 9.34307 2.46582L8.48599 3.32291C8.41515 3.39374 8.38682 3.50707 8.41515 3.60624C8.95349 5.48332 10.4552 6.98499 12.3322 7.52332C12.3606 7.53041 12.3889 7.53749 12.4172 7.53749C12.4952 7.53749 12.566 7.50916 12.6227 7.45249L13.4727 6.59541C14.1739 5.90124 14.5139 5.22832 14.5139 4.54832C14.521 3.84707 14.181 3.16707 13.4727 2.46582Z" fill="#4C9540"/>
<path d="M11.0569 8.16682C10.8515 8.06766 10.6532 7.96849 10.4619 7.85516C10.3061 7.76307 10.1573 7.66391 10.0086 7.55766C9.88815 7.47974 9.74649 7.36641 9.6119 7.25307C9.59774 7.24599 9.54815 7.20349 9.49149 7.14682C9.25774 6.94849 8.99565 6.69349 8.7619 6.41016C8.74065 6.39599 8.70524 6.34641 8.65565 6.28266C8.58482 6.19766 8.4644 6.05599 8.35815 5.89307C8.27315 5.78682 8.17399 5.63099 8.0819 5.47516C7.96857 5.28391 7.8694 5.09266 7.77024 4.89432C7.64022 4.61571 7.27454 4.53294 7.05713 4.75035L3.07399 8.73349C2.9819 8.82557 2.8969 9.00266 2.87565 9.12307L2.49315 11.836C2.42232 12.3177 2.5569 12.771 2.8544 13.0756C3.1094 13.3235 3.46357 13.4581 3.84607 13.4581C3.93107 13.4581 4.01607 13.451 4.10107 13.4368L6.82107 13.0543C6.94857 13.0331 7.12565 12.9481 7.21065 12.856L11.2004 8.86627C11.4134 8.65321 11.3334 8.28663 11.0569 8.16682Z" fill="#4C9540"/>
</svg>
