<svg width="54" height="26" viewBox="0 0 54 26" fill="none" xmlns="http://www.w3.org/2000/svg">
<g clip-path="url(#clip0_474_7054)">
<path d="M41 1C47.6279 1 53 6.37208 53 13C53 19.6279 47.6279 25 41 25C34.3721 25 29 19.6279 29 13C29 6.37208 34.3721 1 41 1Z" fill="#2A3447" stroke="#191B21" stroke-width="2"/>
<path d="M33.1904 9.26309V16.7372C33.1904 17.2177 33.4421 17.6524 33.8616 17.8965L40.3366 21.6336C40.7485 21.87 41.2594 21.87 41.6713 21.6336L48.1463 17.8965C48.5582 17.6601 48.8175 17.2177 48.8175 16.7372V9.26309C48.8175 8.78261 48.5658 8.34789 48.1463 8.10384L41.6713 4.36677C41.2594 4.13035 40.7485 4.13035 40.3366 4.36677L33.8616 8.10384C33.4497 8.34027 33.1981 8.78261 33.1981 9.26309H33.1904Z" fill="#213147"/>
<path d="M42.4112 14.4487L41.4884 16.9807C41.4655 17.0494 41.4655 17.1256 41.4884 17.2019L43.0747 21.5567L44.9127 20.4966L42.7086 14.4487C42.6552 14.3114 42.4646 14.3114 42.4112 14.4487Z" fill="#12AAFF"/>
<path d="M44.2643 10.1928C44.2109 10.0555 44.0202 10.0555 43.9668 10.1928L43.044 12.7249C43.0211 12.7935 43.0211 12.8698 43.044 12.946L45.6447 20.077L47.4827 19.0169L44.2643 10.2004V10.1928Z" fill="#12AAFF"/>
<path d="M41.0002 4.64893C41.0459 4.64893 41.0917 4.66418 41.1298 4.68706L48.1311 8.7292C48.215 8.77496 48.2607 8.86648 48.2607 8.958V17.0423C48.2607 17.1338 48.2074 17.2253 48.1311 17.2711L41.1298 21.3132C41.0917 21.3361 41.0459 21.3513 41.0002 21.3513C40.9544 21.3513 40.9086 21.3361 40.8705 21.3132L33.8692 17.2711C33.7853 17.2253 33.7396 17.1338 33.7396 17.0423V8.95037C33.7396 8.85885 33.793 8.76733 33.8692 8.72157L40.8705 4.67944C40.9086 4.65656 40.9544 4.6413 41.0002 4.6413V4.64893ZM41.0002 3.4668C40.7485 3.4668 40.5044 3.52781 40.2756 3.65746L33.2743 7.6996C32.8244 7.9589 32.5498 8.43176 32.5498 8.95037V17.0346C32.5498 17.5533 32.8244 18.0261 33.2743 18.2854L40.2756 22.3275C40.4968 22.4572 40.7485 22.5182 41.0002 22.5182C41.2518 22.5182 41.4959 22.4572 41.7247 22.3275L48.726 18.2854C49.1759 18.0261 49.4505 17.5533 49.4505 17.0346V8.95037C49.4505 8.43176 49.1759 7.9589 48.726 7.6996L41.7171 3.65746C41.4959 3.52781 41.2442 3.4668 40.9925 3.4668H41.0002Z" fill="#9DCCED"/>
<path d="M36.3633 20.0858L37.0115 18.3164L38.3081 19.3918L37.0954 20.5053L36.3633 20.0858Z" fill="#213147"/>
<path d="M40.4051 8.37872H38.628C38.4984 8.37872 38.3764 8.46261 38.3306 8.58464L34.5249 19.0179L36.3629 20.078L40.5576 8.58464C40.5957 8.47787 40.5195 8.37109 40.4127 8.37109L40.4051 8.37872Z" fill="white"/>
<path d="M43.5169 8.37872H41.7399C41.6102 8.37872 41.4882 8.46261 41.4424 8.58464L37.0952 20.4975L38.9332 21.5576L43.6618 8.58464C43.6999 8.47787 43.6236 8.37109 43.5169 8.37109V8.37872Z" fill="white"/>
</g>
<g clip-path="url(#clip1_474_7054)">
<path d="M27 1C33.6279 1 39 6.37208 39 13C39 19.6279 33.6279 25 27 25C20.3721 25 15 19.6279 15 13C15 6.37208 20.3721 1 27 1Z" fill="#F0B90B" stroke="#191B21" stroke-width="2"/>
<path d="M21.1449 13.0008L21.1543 16.4383L24.0751 18.157V20.1695L19.4449 17.4539V11.9956L21.1449 13.0008ZM21.1449 9.56328V11.5664L19.4438 10.5602V8.55703L21.1449 7.55078L22.8543 8.55703L21.1449 9.56328ZM25.2949 8.55703L26.9959 7.55078L28.7053 8.55703L26.9959 9.56328L25.2949 8.55703Z" fill="white"/>
<path d="M22.374 15.7258V13.7133L24.0751 14.7195V16.7227L22.374 15.7258ZM25.2949 18.8779L26.9959 19.8841L28.7053 18.8779V20.881L26.9959 21.8872L25.2949 20.881V18.8779ZM31.1449 8.55703L32.8459 7.55078L34.5553 8.55703V10.5602L32.8459 11.5664V9.56328L31.1449 8.55703ZM32.8459 16.4383L32.8553 13.0008L34.5563 11.9945V17.4529L29.9261 20.1685V18.156L32.8459 16.4383Z" fill="white"/>
<path d="M31.6258 15.7254L29.9248 16.7223V14.7191L31.6258 13.7129V15.7254Z" fill="white"/>
<path d="M31.6261 10.2747L31.6355 12.2872L28.7063 14.006V17.4518L27.0053 18.4487L25.3042 17.4518V14.006L22.3751 12.2872V10.2747L24.0834 9.26849L26.9949 10.9956L29.924 9.26849L31.6334 10.2747H31.6261ZM22.374 6.83828L26.9959 4.11328L31.6261 6.83828L29.9251 7.84453L26.9959 6.11745L24.0751 7.84453L22.374 6.83828Z" fill="white"/>
</g>
<g clip-path="url(#clip2_474_7054)">
<path d="M25 13C25 19.6274 19.6274 25 13 25C6.37258 25 1 19.6274 1 13C1 6.37258 6.37258 1 13 1C19.6274 1 25 6.37258 25 13Z" fill="#627EEA" stroke="#191B21" stroke-width="2"/>
<path d="M13.4048 3.25V10.4569L19.4961 13.1787L13.4048 3.25Z" fill="white" fill-opacity="0.602"/>
<path d="M13.4046 3.25L7.3125 13.1787L13.4046 10.4569V3.25Z" fill="white"/>
<path d="M13.4048 17.8485V22.7454L19.5002 14.3125L13.4048 17.8485Z" fill="white" fill-opacity="0.602"/>
<path d="M13.4046 22.7454V17.8477L7.3125 14.3125L13.4046 22.7454Z" fill="white"/>
<path d="M13.4048 16.716L19.4961 13.1792L13.4048 10.459V16.716Z" fill="white" fill-opacity="0.2"/>
<path d="M7.3125 13.1792L13.4046 16.716V10.459L7.3125 13.1792Z" fill="white" fill-opacity="0.602"/>
</g>
<defs>
<clipPath id="clip0_474_7054">
<rect width="26" height="26" fill="white" transform="translate(28)"/>
</clipPath>
<clipPath id="clip1_474_7054">
<rect width="26" height="26" fill="white" transform="translate(14)"/>
</clipPath>
<clipPath id="clip2_474_7054">
<rect width="26" height="26" fill="white"/>
</clipPath>
</defs>
</svg>
