<svg width="43" height="20" viewBox="0 0 43 20" fill="none" xmlns="http://www.w3.org/2000/svg">
<path d="M16.4371 3.97045L11.2002 16.0606H7.78354L5.20667 6.41211C5.05021 5.81783 4.91417 5.60011 4.43833 5.34973C3.66167 4.94192 2.37875 4.5595 1.25 4.32203L1.32667 3.97045H6.82646C7.5275 3.97045 8.15771 4.42202 8.31687 5.20318L9.67792 12.1992L13.0417 3.97045H16.4371ZM29.8244 12.1133C29.8381 8.92232 25.2644 8.74653 25.2958 7.32108C25.3056 6.88726 25.7325 6.42602 26.6669 6.3083C27.13 6.24963 28.406 6.20488 29.8533 6.84936L30.421 4.28554C29.6433 4.01239 28.6427 3.74951 27.3977 3.74951C24.2029 3.74951 21.9546 5.39287 21.9356 7.74604C21.915 9.48657 23.5404 10.4578 24.765 11.0362C26.0248 11.6285 26.4475 12.0091 26.4427 12.5388C26.4338 13.3498 25.4379 13.7079 24.5073 13.722C22.8827 13.7462 21.94 13.2966 21.1885 12.9586L20.6027 15.6072C21.3579 15.9425 22.7519 16.235 24.1971 16.2497C27.5927 16.2497 29.814 14.6267 29.8244 12.1133ZM38.2606 16.0608H41.25L38.6406 3.97045H35.8815C35.261 3.97045 34.7377 4.32001 34.506 4.85745L29.6558 16.0606H33.0498L33.7238 14.2546H37.8706L38.2608 16.0606L38.2606 16.0608ZM34.6542 11.7768L36.3554 7.23742L37.3346 11.7768H34.6544H34.6542ZM21.0554 3.97045L18.3827 16.0606H15.1506L17.8244 3.97045H21.0554Z" fill="#1434CB"/>
</svg>
