<svg width="28" height="28" viewBox="0 0 28 28" fill="none" xmlns="http://www.w3.org/2000/svg">
<g clip-path="url(#clip0_474_32079)">
<path d="M27.9726 14.0273C27.9726 6.31041 21.7169 0.0546875 14 0.0546875C8.62293 0.0546875 5.31066 3.08767 5.30151 3.09277C5.30151 3.09277 5.16381 3.26466 5.13806 3.37891C4.92885 4.30756 4.7334 5.55222 4.7334 6.46044C4.7334 14.1773 11.241 20.4315 18.9578 20.4315C21.9294 20.4315 25.2355 19.0073 27.4482 17.2949C27.4977 17.2566 27.6547 16.9992 27.6547 16.9992C27.6645 16.9397 27.9726 15.7129 27.9726 14.0273Z" fill="#52BA41"/>
<path d="M18.9566 20.0371C11.2397 20.0371 4.984 13.7814 4.984 6.0645C4.984 5.0445 5.09397 4.05064 5.30154 3.09277C2.08811 5.65277 0.0273438 9.59946 0.0273438 14.0273C0.0273438 17.8857 1.59129 21.3789 4.11984 23.9074L23.8467 23.9403C25.7185 22.0824 27.0712 19.6929 27.6547 16.9993C25.2679 18.9004 22.2452 20.0371 18.9566 20.0371Z" fill="#4C9540"/>
<path d="M9.4514 2.93826L6.66971 5.71996L4.30757 3.35782C3.5394 2.58966 3.5394 1.34429 4.30757 0.576123C5.07573 -0.192041 6.3211 -0.192041 7.08927 0.576123L9.4514 2.93826Z" fill="#823214"/>
<path d="M8.38739 4.00245L7.15522 5.23456L5.3304 3.40973C4.99013 3.06946 4.99013 2.51784 5.3304 2.17757C5.67067 1.83729 6.22229 1.83729 6.56257 2.17757L8.38739 4.00245Z" fill="#DCBE82"/>
<path d="M5.70312 18.1241C5.70312 21.6238 8.54017 24.4608 12.0398 24.4608L12.7522 1.4458H10.3157C7.76822 1.4458 5.70312 3.5109 5.70312 6.05835V18.1241Z" fill="#823214"/>
<path d="M6.20508 12.3706C6.20508 13.3451 6.99511 14.1351 7.96963 14.1351V10.606C6.99511 10.606 6.20508 11.396 6.20508 12.3706Z" fill="#FA968C"/>
<path d="M17.2012 2.93826L19.9829 5.71996L22.345 3.35782C23.1132 2.58966 23.1132 1.34429 22.345 0.576123C21.5768 -0.192041 20.3315 -0.192041 19.5633 0.576123L17.2012 2.93826Z" fill="#934D34"/>
<path d="M18.2656 4.00239L19.4978 5.23456L21.3226 3.40973C21.6629 3.06946 21.6629 2.51784 21.3226 2.17757C20.9823 1.83729 20.4307 1.83729 20.0904 2.17757L18.2656 4.00239Z" fill="#DCBE82"/>
<path d="M21.4732 17.3581C21.4732 20.814 19.6373 24.8224 16.1815 24.8224L15.3493 22.5259C12.6179 22.2661 10.5303 18.6707 10.5303 15.927V3.29544C10.5303 2.27391 11.3584 1.4458 12.3799 1.4458H16.1738C19.1006 1.4458 21.4732 3.8184 21.4732 6.74514V17.3581Z" fill="#934D34"/>
<path d="M19.9318 21.8223C19.9318 21.8223 16.4837 21.8223 13.4655 21.8223C11.0164 21.8223 9.03125 23.8076 9.03125 26.2567V27.0895C9.31881 27.199 9.61092 27.2993 9.90719 27.3899L18.0917 27.3895C20.283 26.7183 22.2526 25.5217 23.846 23.94C23.0105 22.665 21.57 21.8223 19.9318 21.8223Z" fill="#A55A3C"/>
<path d="M21.2831 12.2451C21.2831 13.2196 20.4931 14.0096 19.5186 14.0096V10.4805C20.4931 10.4805 21.2831 11.2706 21.2831 12.2451Z" fill="#FA968C"/>
<path d="M9.8623 17.7315C9.8623 19.846 11.5612 21.5809 13.6757 21.5968C13.6905 21.5969 13.7053 21.597 13.7201 21.597C16.9534 21.597 19.5746 18.9758 19.5746 15.7425V14.7163L9.8623 17.7315Z" fill="#823214"/>
<path d="M16.0418 22.141C16.0418 23.2688 15.1277 24.1829 13.9999 24.1829C12.8722 24.1829 11.958 23.2688 11.958 22.141V21.043L16.0419 17.5674L16.0418 22.141Z" fill="#FAB9AF"/>
<path d="M19.5185 8.77243C19.505 7.41396 18.3999 6.31982 17.0414 6.31982H14.0984C12.4585 6.31982 10.9681 6.95928 9.8623 8.00213V16.4165C9.8623 18.5311 11.5612 20.266 13.6757 20.2819C13.6905 20.282 13.7053 20.282 13.7201 20.282C16.9534 20.282 19.5746 17.6609 19.5746 14.4275L19.5185 8.77243Z" fill="#FFBE82"/>
<path d="M11.9581 21.043C12.1682 21.0805 12.3839 21.102 12.6045 21.1036C12.6193 21.1037 12.6341 21.1038 12.6489 21.1038C13.9137 21.1038 15.0847 20.5383 16.0419 19.8564V17.5674H11.958V21.043H11.9581Z" fill="#FA735F"/>
<path d="M19.5185 8.77243C19.505 7.41396 18.3999 6.31982 17.0414 6.31982H14.0984C12.4585 6.31982 10.9681 6.95928 9.8623 8.00213V16.4165C9.8623 18.5311 11.5612 20.266 13.6757 20.2819C13.6905 20.282 13.7053 20.282 13.7201 20.282C16.9534 20.282 19.5746 17.6609 19.5746 14.4275L19.5185 8.77243Z" fill="#FAB9AF"/>
<path d="M11.2725 12.2451V12.7431C11.2725 13.0097 11.4887 13.2259 11.7553 13.2259C12.0219 13.2259 12.2382 13.0098 12.2382 12.7431V12.2451H11.2725Z" fill="#FA968C"/>
<path d="M15.2158 12.2451V12.7431C15.2158 13.0097 15.432 13.2259 15.6987 13.2259C15.9653 13.2259 16.1815 13.0098 16.1815 12.7431V12.2451H15.2158Z" fill="#FA968C"/>
<path d="M11.7553 12.8234C11.4887 12.8234 11.2725 12.6072 11.2725 12.3406V11.9845L11.4663 11.6933L11.2725 11.4021V11.02C11.2725 10.7533 11.4886 10.5371 11.7553 10.5371C12.0219 10.5371 12.2382 10.7533 12.2382 11.02V12.3405C12.2382 12.6072 12.022 12.8234 11.7553 12.8234Z" fill="#373C41"/>
<path d="M15.6987 12.8234C15.432 12.8234 15.2158 12.6072 15.2158 12.3406V11.8888L15.4096 11.5977L15.2158 11.3065V11.02C15.2158 10.7533 15.432 10.5371 15.6987 10.5371C15.9653 10.5371 16.1815 10.7533 16.1815 11.02V12.3405C16.1815 12.6072 15.9653 12.8234 15.6987 12.8234Z" fill="#373C41"/>
<path d="M15.4102 6.52051V8.36051H15.6879C17.0834 8.36051 18.3065 7.62478 18.9921 6.52051H15.4102Z" fill="#FA968C"/>
<path d="M12.3919 10.2958H10.9838C10.7171 10.2958 10.501 10.0796 10.501 9.81293C10.501 9.54624 10.7171 9.33008 10.9838 9.33008H12.3919C12.6586 9.33008 12.8747 9.54624 12.8747 9.81293C12.8747 10.0796 12.6585 10.2958 12.3919 10.2958Z" fill="#FFC305"/>
<path d="M16.4153 10.2958H15.0073C14.7406 10.2958 14.5244 10.0796 14.5244 9.81293C14.5244 9.54624 14.7406 9.33008 15.0073 9.33008H16.4153C16.682 9.33008 16.8982 9.54624 16.8982 9.81293C16.8982 10.0796 16.682 10.2958 16.4153 10.2958Z" fill="#FFC305"/>
<path d="M12.9957 13.6507C12.8756 14.0736 13.0938 14.5343 13.5109 14.6733C13.5949 14.7012 13.6847 14.7163 13.778 14.7163C13.8713 14.7163 13.9611 14.7012 14.045 14.6733C14.4622 14.5344 14.6803 14.0736 14.5603 13.6507L13.9749 11.5878C13.9186 11.3894 13.6374 11.3894 13.5811 11.5878L12.9957 13.6507Z" fill="#FA968C"/>
<path d="M14.2607 6.33009C10.7626 6.3234 7.92285 9.15661 7.92285 12.6547V14.4849C7.92285 18.0482 11.1208 20.8047 14.7037 20.1981C11.9684 19.7328 9.88532 17.3528 9.88532 14.4849C9.8868 11.9177 9.8851 10.7262 9.88482 10.1455C9.88466 9.68593 10.2605 9.30905 10.7201 9.30806H10.7207H13.5306C15.1658 9.30806 16.4915 7.98247 16.4915 6.34724C16.4914 6.3473 16.0643 6.33354 14.2607 6.33009Z" fill="#FA968C"/>
<path d="M10.9174 3.97998C9.26351 3.97998 7.92285 5.32069 7.92285 6.9745V8.90562V12.6546C8.35167 12.6546 8.69934 12.307 8.69934 11.8781V10.927C8.69934 9.81061 9.60433 8.90562 10.7207 8.90562H13.5306C15.1658 8.90562 16.4915 7.58004 16.4915 5.9448V3.97998H10.9174Z" fill="#FFC305"/>
<path d="M16.3867 6.31964C17.7112 6.31964 18.7982 7.45345 18.7982 8.77794V11.8781C18.7982 12.3069 19.1458 12.6546 19.5747 12.6546V7.1421C19.5747 6.57372 19.0923 6.12484 18.5254 6.16567L16.3867 6.31964Z" fill="#FFC305"/>
<path d="M15.6247 15.5356H11.9979C11.8475 15.5356 11.7272 15.667 11.7473 15.8161C11.7857 16.1015 11.8819 16.3685 12.0237 16.605L12.0241 16.6051C12.388 17.212 13.0521 17.6184 13.8113 17.6184C14.1401 17.6184 14.4509 17.5419 14.7274 17.4062L14.7279 17.4063C15.3386 17.1065 15.781 16.5165 15.8753 15.8161C15.8954 15.667 15.7752 15.5356 15.6247 15.5356Z" fill="white"/>
<path d="M11.4663 12.1784C11.3593 12.1784 11.2725 12.0916 11.2725 11.9846V11.4023C11.2725 11.2953 11.3593 11.2085 11.4663 11.2085C11.5733 11.2085 11.6601 11.2953 11.6601 11.4023V11.9846C11.6601 12.0916 11.5733 12.1784 11.4663 12.1784Z" fill="white"/>
<path d="M15.4096 12.0827C15.3026 12.0827 15.2158 11.9959 15.2158 11.8889V11.3066C15.2158 11.1996 15.3026 11.1128 15.4096 11.1128C15.5166 11.1128 15.6034 11.1996 15.6034 11.3066V11.8889C15.6034 11.9959 15.5166 12.0827 15.4096 12.0827Z" fill="white"/>
<path d="M9.94266 15.5359C10.6774 15.5359 11.273 15.0367 11.273 14.421C11.273 13.8053 10.6774 13.3062 9.94266 13.3062C9.20792 13.3062 8.6123 13.8053 8.6123 14.421C8.6123 15.0367 9.20792 15.5359 9.94266 15.5359Z" fill="#FA968C"/>
<path d="M17.4925 15.5359C18.2272 15.5359 18.8228 15.0367 18.8228 14.421C18.8228 13.8053 18.2272 13.3062 17.4925 13.3062C16.7577 13.3062 16.1621 13.8053 16.1621 14.421C16.1621 15.0367 16.7577 15.5359 17.4925 15.5359Z" fill="#FA968C"/>
<path d="M7.02148 12.6676C7.02148 13.1653 7.42499 13.5688 7.92269 13.5688V11.7773C7.42499 11.7773 7.02148 12.1809 7.02148 12.6785V12.6676Z" fill="white"/>
<path d="M7.67333 14.8247C7.53717 14.8247 7.42676 14.7143 7.42676 14.5781V12.7319C7.42676 12.5958 7.53717 12.4854 7.67333 12.4854C7.8095 12.4854 7.91991 12.5958 7.91991 12.7319V14.5781C7.91991 14.7143 7.8095 14.8247 7.67333 14.8247Z" fill="white"/>
<path d="M20.4491 12.5524C20.4491 13.0501 20.0456 13.4536 19.5479 13.4536V11.6621C20.0456 11.6621 20.4491 12.0656 20.4491 12.5633V12.5524Z" fill="white"/>
<path d="M19.7974 14.7095C19.9335 14.7095 20.0439 14.5991 20.0439 14.4629V12.6167C20.0439 12.4805 19.9335 12.3701 19.7974 12.3701C19.6612 12.3701 19.5508 12.4805 19.5508 12.6167V14.4629C19.5508 14.5991 19.6611 14.7095 19.7974 14.7095Z" fill="white"/>
<path d="M16.1023 26.0498H11.8972C10.9968 26.0498 10.2262 26.6043 9.90723 27.3902C11.2017 27.7861 12.5757 27.9998 13.9998 27.9998C15.4202 27.9998 16.7947 27.786 18.0917 27.3888C17.7724 26.6036 17.0022 26.0498 16.1023 26.0498Z" fill="#DCBE82"/>
<path d="M10.3157 3.9668C7.76822 3.9668 5.70312 6.03189 5.70312 8.57935V20.645C5.70312 22.5793 6.57003 24.3108 7.93622 25.4731V23.7212C7.29156 22.8634 6.9086 21.7983 6.9086 20.645V8.57935C6.9086 6.70072 8.43699 5.17228 10.3157 5.17228H11.0726C11.1375 5.15726 11.2037 5.14866 11.2705 5.14866H12.7157L12.7522 3.9668H10.3157Z" fill="#934D34"/>
<path d="M9.80894 21.8222C7.9525 21.8231 7.95146 21.8163 7.71896 21.8365C6.22631 21.9466 4.9291 22.7572 4.15332 23.9403C5.54433 25.322 7.22466 26.4125 9.09529 27.1139V26.4998C9.09529 24.56 10.2763 22.8969 11.9584 22.1886L11.9579 21.8221H9.80894V21.8222Z" fill="#823214"/>
<path d="M15.587 5.17228H16.1742C18.4315 5.17228 20.268 7.00877 20.268 9.26614V20.701C20.268 21.2925 20.1656 21.8604 19.9779 22.3883H21.243C21.393 21.8515 21.4735 21.2856 21.4735 20.701V9.26614C21.4735 6.3394 19.1009 3.9668 16.1741 3.9668H12.3802C11.5951 3.9668 10.9247 4.45622 10.6562 5.14641H15.3718C15.4467 5.14641 15.5183 5.15595 15.587 5.17228Z" fill="#A55A3C"/>
<path d="M15.4509 5.17871L15.3711 5.20085L15.4093 7.92183H15.687C17.4356 7.92183 18.9143 6.76715 19.4028 5.17871H15.4509Z" fill="#FFC305"/>
</g>
<defs>
<clipPath id="clip0_474_32079">
<rect width="28" height="28" fill="white"/>
</clipPath>
</defs>
</svg>
