<svg width="379" height="379" viewBox="0 0 379 379" fill="none" xmlns="http://www.w3.org/2000/svg">
<g filter="url(#filter0_d_474_31663)">
<path d="M359 169.787C359 76.3327 283.24 0.573322 189.787 0.573326C96.3326 0.57333 20.5732 76.3327 20.5732 169.787C20.5732 263.241 96.3326 339 189.787 339C283.241 339 359 263.241 359 169.787Z" fill="#4C9540"/>
</g>
<path d="M355.031 169.387C355.029 201.829 345.501 233.557 327.63 260.633C309.759 287.708 284.331 308.941 254.502 321.696C224.673 334.451 191.754 338.167 159.832 332.382C127.91 326.597 98.3893 311.567 74.9323 289.156C51.4754 266.745 35.1151 237.94 27.8815 206.314C20.6478 174.689 22.8592 141.636 34.2413 111.256C45.6234 80.8763 65.6751 54.5071 91.9084 35.4205C118.142 16.334 149.402 5.37012 181.81 3.88942C184.325 3.77584 186.84 3.71094 189.371 3.71094C192.21 3.71094 195.034 3.71094 197.857 3.92187C240.272 6.0974 280.231 24.4801 309.481 55.273C338.731 86.0658 355.037 126.917 355.031 169.387Z" fill="#15181D"/>
<path d="M78.7031 274.474L189.781 169.772L43.543 213.581C50.3508 236.344 62.392 257.198 78.7031 274.474Z" fill="#00376E"/>
<path d="M189.782 322.436C201.615 322.442 213.408 321.076 224.926 318.363L189.782 169.772L154.654 318.347C166.166 321.065 177.954 322.437 189.782 322.436Z" fill="#F8B214"/>
<path d="M336.036 213.581L189.781 169.772L300.876 274.458C317.176 257.18 329.216 236.334 336.036 213.581Z" fill="#00376E"/>
<path d="M300.876 65.0874L189.781 169.773L336.036 125.965C329.216 103.211 317.176 82.365 300.876 65.0874Z" fill="#F8B214"/>
<path d="M43.543 125.965L189.781 169.773L78.7031 65.0874C62.3975 82.3614 50.357 103.209 43.543 125.965Z" fill="#F8B214"/>
<path d="M189.782 17.1251C177.955 17.1186 166.166 18.4852 154.654 21.1976L189.782 169.772L224.926 21.1814C213.408 18.4745 201.614 17.1133 189.782 17.1251Z" fill="#00376E"/>
<path d="M342.445 170.471C342.426 155.385 340.24 140.38 335.955 125.916L189.7 170.471L335.955 215.009C340.241 200.55 342.426 185.551 342.445 170.471Z" fill="#4C9540"/>
<path d="M37.1338 169.773C37.1243 184.61 39.2834 199.368 43.5428 213.581L189.781 169.773L43.5428 125.964C39.285 140.177 37.1259 154.936 37.1338 169.773Z" fill="#F84B25"/>
<path d="M211.864 18.7798C216.191 19.418 220.431 20.2238 224.585 21.1974L189.295 169.772L300.876 65.0705C277.238 40.0928 245.887 23.789 211.864 18.7798Z" fill="#F84B25"/>
<path d="M167.309 320.781C163.026 320.148 158.807 319.353 154.654 318.363L189.781 169.772L78.7031 274.474C102.178 299.451 133.4 315.769 167.309 320.781Z" fill="#4C9540"/>
<path d="M189.781 169.772L224.925 318.347C220.755 319.337 216.537 320.132 212.253 320.765C246.165 315.748 277.392 299.432 300.876 274.458L189.781 169.772Z" fill="#F84B25"/>
<path d="M167.31 18.7798C131.984 24.0336 99.6213 41.5182 75.8643 68.1857C76.8053 67.1473 77.7464 66.1089 78.7199 65.0867L189.782 169.772L154.654 21.1974C158.808 20.2238 163.026 19.418 167.31 18.7798Z" fill="#4C9540"/>
<g style="mix-blend-mode:color-burn">
<path d="M189.781 169.772L43.543 213.581C44.2569 215.998 45.0519 218.448 45.8956 220.752L189.781 169.772Z" fill="#CCCCCC"/>
<path d="M189.781 169.772L154.653 318.347C157.087 318.931 159.521 319.434 162.036 319.889L189.781 169.772Z" fill="#CCCCCC"/>
<path d="M189.782 169.772L300.877 274.458C302.597 272.641 304.268 270.759 305.89 268.844L189.782 169.772Z" fill="#CCCCCC"/>
<path d="M333.684 118.76L189.782 169.773L336.037 125.964C335.307 123.498 334.512 121.097 333.684 118.76Z" fill="#CCCCCC"/>
<path d="M189.782 169.772L78.7037 65.0869C76.9676 66.9204 75.3126 68.7863 73.6738 70.7009L189.782 169.772Z" fill="#CCCCCC"/>
<path d="M217.544 19.6562L189.782 169.772L224.926 21.1814C222.476 20.6298 220.026 20.1268 217.544 19.6562Z" fill="#CCCCCC"/>
<path d="M189.815 170.471H189.993H189.782L336.037 215.009C336.751 212.608 337.383 210.142 337.968 207.708L189.815 170.471Z" fill="#CCCCCC"/>
<path d="M189.782 169.772L43.5433 125.964C42.8132 128.365 42.1804 130.831 41.5801 133.249L189.782 169.772Z" fill="#CCCCCC"/>
<path d="M189.538 169.545L300.876 65.087C299.145 63.2698 297.366 61.4958 295.538 59.7651L189.538 169.545Z" fill="#CCCCCC"/>
<path d="M189.311 169.675L189.295 169.788V169.772L189.311 169.675Z" fill="#CCCCCC"/>
<path d="M189.781 169.772L78.7031 274.474C80.423 276.308 82.2078 278.076 84.0088 279.828L189.781 169.772Z" fill="#CCCCCC"/>
<path d="M224.91 318.347L225.786 318.153L227.733 317.633C229.161 317.276 230.589 316.903 232 316.498H232.195L189.782 169.772L224.91 318.347Z" fill="#CCCCCC"/>
<path d="M189.782 169.773L154.654 21.2305L153.405 21.5063L152.61 21.7172L151.344 22.058C150.014 22.3987 148.683 22.7556 147.369 23.1288L189.782 169.773Z" fill="#CCCCCC"/>
</g>
<path style="mix-blend-mode:multiply" d="M189.786 323.165C274.494 323.165 343.163 254.495 343.163 169.787C343.163 85.0791 274.494 16.4097 189.786 16.4097C105.078 16.4097 36.4082 85.0791 36.4082 169.787C36.4082 254.495 105.078 323.165 189.786 323.165Z" fill="url(#paint0_radial_474_31663)"/>
<path d="M239.43 73.8031L240.499 74.4202C240.885 74.6433 241.202 74.7217 241.45 74.6554C241.705 74.5769 241.943 74.3445 242.167 73.958L245.357 68.4328C245.58 68.0463 245.658 67.7292 245.592 67.4816C245.532 67.2219 245.309 66.9805 244.923 66.7573L243.854 66.1402C243.468 65.9171 243.147 65.8448 242.893 65.9232C242.645 65.9896 242.41 66.216 242.186 66.6024L238.996 72.1277C238.773 72.5142 238.691 72.8373 238.751 73.097C238.817 73.3446 239.044 73.58 239.43 73.8031ZM239.711 76.6221L237.899 75.5762C236.945 75.0254 236.355 74.3464 236.128 73.5394C235.902 72.7323 236.064 71.8517 236.615 70.8976L239.93 65.155C240.481 64.2009 241.163 63.6201 241.975 63.4127C242.787 63.2053 243.67 63.377 244.624 63.9279L246.436 64.9738C247.378 65.5177 247.959 66.1992 248.178 67.0183C248.405 67.8254 248.246 68.6999 247.702 69.6419L244.386 75.3846C243.843 76.3266 243.161 76.9073 242.342 77.1268C241.53 77.3342 240.653 77.166 239.711 76.6221Z" fill="white"/>
<path d="M281.475 97.661L282.919 96.7345C283.118 96.6065 283.327 96.5966 283.546 96.7049L285.577 97.6629C285.915 97.8274 286.144 98.0035 286.264 98.1913L287.168 99.5997C287.326 99.8462 287.282 100.048 287.036 100.207L276.455 106.997C276.315 107.087 276.196 107.122 276.1 107.101C276.022 107.084 275.943 107.011 275.86 106.882L274.888 105.368C274.73 105.121 274.774 104.919 275.021 104.761L283.594 99.2588L281.501 98.1662C281.237 97.9876 281.228 97.8191 281.475 97.661Z" fill="white"/>
<path d="M281.457 111.343L282.123 112.381C282.364 112.757 282.61 112.972 282.86 113.027C283.123 113.074 283.441 112.977 283.817 112.736L289.186 109.29C289.562 109.049 289.777 108.803 289.832 108.553C289.898 108.295 289.811 107.978 289.57 107.602L288.903 106.564C288.662 106.188 288.411 105.977 288.148 105.93C287.898 105.875 287.585 105.968 287.209 106.209L281.84 109.655C281.464 109.896 281.243 110.146 281.177 110.404C281.122 110.654 281.216 110.967 281.457 111.343ZM280.413 113.976L279.283 112.216C278.688 111.289 278.475 110.414 278.644 109.593C278.813 108.772 279.361 108.064 280.288 107.469L285.869 103.888C286.796 103.293 287.668 103.09 288.485 103.278C289.302 103.466 290.008 104.024 290.603 104.951L291.732 106.712C292.32 107.627 292.523 108.499 292.342 109.328C292.173 110.149 291.631 110.853 290.716 111.44L285.135 115.022C284.22 115.609 283.348 115.813 282.519 115.632C281.702 115.444 281 114.892 280.413 113.976Z" fill="white"/>
<path d="M287.514 120.781L288.18 121.82C288.421 122.195 288.667 122.41 288.918 122.465C289.18 122.512 289.499 122.415 289.874 122.174L295.244 118.728C295.619 118.487 295.834 118.242 295.889 117.991C295.955 117.733 295.868 117.416 295.627 117.041L294.96 116.002C294.719 115.627 294.468 115.415 294.206 115.368C293.955 115.313 293.642 115.407 293.267 115.648L287.897 119.093C287.522 119.335 287.301 119.584 287.234 119.842C287.179 120.093 287.273 120.406 287.514 120.781ZM286.47 123.415L285.34 121.654C284.745 120.727 284.532 119.853 284.701 119.032C284.87 118.211 285.418 117.503 286.345 116.908L291.926 113.326C292.853 112.731 293.725 112.528 294.542 112.716C295.359 112.905 296.065 113.462 296.66 114.39L297.79 116.15C298.377 117.066 298.58 117.938 298.4 118.766C298.231 119.587 297.688 120.291 296.773 120.879L291.192 124.46C290.277 125.048 289.405 125.251 288.576 125.07C287.759 124.882 287.057 124.33 286.47 123.415Z" fill="white"/>
<path d="M305.352 159.125L307.068 159.125C307.305 159.125 307.486 159.23 307.612 159.439L308.804 161.342C308.999 161.663 309.097 161.935 309.097 162.158V163.832C309.097 164.124 308.95 164.271 308.658 164.271L296.086 164.271C295.918 164.271 295.8 164.236 295.73 164.166C295.674 164.11 295.646 164.006 295.646 163.852L295.646 162.054C295.646 161.761 295.793 161.614 296.086 161.614L306.273 161.614L305.101 159.564C304.976 159.271 305.06 159.125 305.352 159.125Z" fill="white"/>
<path d="M295.646 169.207L295.646 167.429C295.646 167.136 295.793 166.99 296.086 166.99L308.658 166.99C308.95 166.99 309.097 167.136 309.097 167.429V169.207C309.097 169.5 308.95 169.646 308.658 169.646H302.696V169.688C303.031 169.8 303.463 170.016 303.993 170.337L308.658 173.516C308.95 173.698 309.097 173.97 309.097 174.332V176.382C309.097 176.535 309.048 176.626 308.95 176.654C308.867 176.696 308.755 176.661 308.616 176.549L303.114 172.575L296.169 177.01C296.002 177.107 295.87 177.121 295.772 177.051C295.688 176.996 295.646 176.87 295.646 176.675L295.646 175.148C295.646 174.66 295.793 174.332 296.086 174.165L301.211 170.964L299.663 169.646L296.086 169.646C295.793 169.646 295.646 169.5 295.646 169.207Z" fill="white"/>
<path d="M287.819 212.811L289.577 213.739C290.28 214.11 290.718 214.728 290.893 215.593L291.981 220.52C292.145 221.316 292.492 221.854 293.022 222.134L293.577 222.427C293.959 222.629 294.279 222.679 294.537 222.579C294.801 222.498 295.04 222.253 295.255 221.846L295.597 221.199C295.805 220.804 295.865 220.481 295.777 220.23C295.702 219.985 295.473 219.761 295.09 219.56L294.499 219.247C294.227 219.104 294.16 218.903 294.297 218.644L295.127 217.071C295.264 216.812 295.468 216.755 295.739 216.898L296.368 217.23C297.33 217.738 297.93 218.393 298.168 219.197C298.406 220.001 298.267 220.89 297.753 221.864L297.011 223.27C296.497 224.244 295.84 224.86 295.042 225.117C294.245 225.373 293.365 225.248 292.403 224.74L291.663 224.349C290.701 223.842 290.101 223.052 289.862 221.98L288.739 216.939C288.681 216.72 288.572 216.568 288.412 216.483L288.116 216.327L285.782 220.748C285.645 221.007 285.447 221.068 285.188 220.931L283.894 220.248C283.635 220.111 283.573 219.913 283.71 219.654L287.226 212.995C287.363 212.736 287.561 212.675 287.819 212.811Z" fill="white"/>
<path d="M281.404 224.023L282.234 222.45C282.371 222.191 282.568 222.13 282.827 222.267L293.945 228.137C294.204 228.273 294.265 228.471 294.128 228.73L293.298 230.302C293.161 230.561 292.964 230.623 292.705 230.486L287.433 227.702L287.413 227.739C287.657 227.994 287.938 228.387 288.257 228.918L290.898 233.908C291.072 234.205 291.075 234.514 290.905 234.835L289.948 236.647C289.877 236.783 289.791 236.84 289.692 236.819C289.598 236.817 289.516 236.735 289.445 236.571L286.435 230.488L278.223 231.167C278.03 231.175 277.906 231.126 277.852 231.018C277.804 230.93 277.826 230.799 277.917 230.627L278.63 229.276C278.858 228.845 279.141 228.623 279.478 228.612L285.504 228.174L284.75 226.286L281.587 224.616C281.328 224.48 281.267 224.282 281.404 224.023Z" fill="white"/>
<path d="M250.701 258.006L251.728 259.707C252.139 260.388 252.196 261.144 251.899 261.974L250.291 266.757C250.021 267.523 250.04 268.163 250.35 268.676L250.675 269.213C250.898 269.584 251.146 269.792 251.419 269.839C251.687 269.905 252.018 269.82 252.412 269.582L253.039 269.203C253.421 268.973 253.639 268.727 253.693 268.466C253.755 268.217 253.674 267.908 253.45 267.538L253.104 266.965C252.946 266.702 252.992 266.495 253.242 266.344L254.765 265.425C255.015 265.273 255.22 265.329 255.378 265.592L255.746 266.2C256.308 267.132 256.484 268.003 256.273 268.814C256.063 269.626 255.486 270.316 254.543 270.885L253.182 271.707C252.239 272.276 251.359 272.465 250.543 272.274C249.727 272.082 249.038 271.521 248.476 270.59L248.043 269.874C247.481 268.942 247.374 267.956 247.723 266.915L249.36 262.017C249.424 261.799 249.409 261.613 249.315 261.458L249.142 261.171L244.862 263.755C244.612 263.906 244.41 263.857 244.259 263.606L243.502 262.353C243.351 262.102 243.401 261.901 243.651 261.749L250.098 257.857C250.349 257.706 250.55 257.756 250.701 258.006Z" fill="white"/>
<path d="M239.394 267.008L238.337 267.646C237.955 267.876 237.734 268.116 237.672 268.365C237.618 268.626 237.706 268.947 237.937 269.329L241.234 274.791C241.465 275.173 241.705 275.395 241.953 275.456C242.21 275.53 242.529 275.451 242.911 275.221L243.967 274.583C244.349 274.352 244.567 274.106 244.622 273.845C244.683 273.597 244.599 273.281 244.368 272.899L241.07 267.437C240.84 267.055 240.596 266.828 240.34 266.754C240.091 266.693 239.776 266.777 239.394 267.008ZM236.79 265.892L238.581 264.811C239.524 264.242 240.403 264.053 241.219 264.244C242.035 264.436 242.728 265.003 243.298 265.946L246.725 271.623C247.294 272.566 247.474 273.443 247.263 274.254C247.053 275.066 246.476 275.756 245.533 276.325L243.742 277.407C242.811 277.969 241.933 278.148 241.11 277.945C240.294 277.753 239.605 277.192 239.043 276.261L235.615 270.584C235.053 269.653 234.874 268.776 235.077 267.952C235.288 267.141 235.859 266.454 236.79 265.892Z" fill="white"/>
<path d="M194.674 282.486H195.657C196.02 282.486 196.299 282.34 196.494 282.047C196.675 281.754 196.871 281.608 197.08 281.608H198.816C199.109 281.608 199.255 281.747 199.255 282.026L199.255 288.657C199.255 288.95 199.109 289.096 198.816 289.096L191.536 289.096C191.244 289.096 191.097 288.95 191.097 288.657V287.067C191.097 286.774 191.244 286.628 191.536 286.628L196.599 286.628V283.553C196.362 284.25 195.776 284.599 194.842 284.599H193.963C191.801 284.599 190.721 283.518 190.721 281.357V279.056C190.721 277.968 191.021 277.124 191.62 276.525C192.22 275.939 193.064 275.646 194.151 275.646L195.992 275.646C197.094 275.646 197.944 275.939 198.544 276.525C199.144 277.11 199.444 277.954 199.444 279.056V279.474C199.444 279.781 199.297 279.934 199.004 279.934L197.226 279.934C196.933 279.934 196.787 279.781 196.787 279.474V279.077C196.787 278.644 196.696 278.33 196.515 278.135C196.32 277.954 196.006 277.863 195.574 277.863H194.591C194.144 277.863 193.817 277.954 193.607 278.135C193.398 278.33 193.294 278.644 193.294 279.077V280.959C193.294 281.545 193.391 281.942 193.586 282.152C193.782 282.375 194.144 282.486 194.674 282.486Z" fill="white"/>
<path d="M184.804 277.947H183.57C183.123 277.947 182.81 278.038 182.628 278.219C182.447 278.414 182.356 278.735 182.356 279.181L182.356 285.561C182.356 286.007 182.447 286.321 182.628 286.502C182.81 286.698 183.123 286.795 183.57 286.795H184.804C185.25 286.795 185.564 286.698 185.745 286.502C185.926 286.321 186.017 286.007 186.017 285.561L186.017 279.181C186.017 278.735 185.926 278.414 185.745 278.219C185.564 278.038 185.25 277.947 184.804 277.947ZM183.151 275.646L185.243 275.646C186.345 275.646 187.195 275.939 187.795 276.525C188.395 277.11 188.695 277.954 188.695 279.056L188.695 285.687C188.695 286.788 188.395 287.632 187.795 288.218C187.195 288.803 186.345 289.096 185.243 289.096H183.151C182.064 289.096 181.22 288.797 180.62 288.197C180.021 287.611 179.721 286.774 179.721 285.687L179.721 279.056C179.721 277.968 180.021 277.124 180.62 276.525C181.22 275.939 182.064 275.646 183.151 275.646Z" fill="white"/>
<path d="M141.202 271.701L142.067 272.169C142.386 272.342 142.701 272.346 143.012 272.181C143.311 272.01 143.552 271.974 143.736 272.074L145.263 272.9C145.521 273.039 145.583 273.232 145.45 273.477L142.294 279.309C142.154 279.566 141.956 279.625 141.698 279.486L135.297 276.021C135.039 275.882 134.98 275.683 135.119 275.425L135.876 274.027C136.015 273.77 136.214 273.711 136.471 273.85L140.923 276.26L142.387 273.555C141.847 274.056 141.166 274.084 140.344 273.639L139.571 273.221C137.67 272.192 137.234 270.727 138.263 268.826L139.358 266.802C139.876 265.846 140.541 265.246 141.354 265.005C142.16 264.775 143.042 264.919 143.998 265.437L145.617 266.313C146.586 266.837 147.195 267.5 147.443 268.3C147.692 269.101 147.554 269.985 147.03 270.954L146.831 271.322C146.684 271.592 146.483 271.657 146.225 271.518L144.661 270.672C144.404 270.532 144.348 270.328 144.494 270.058L144.683 269.708C144.889 269.328 144.959 269.009 144.892 268.751C144.807 268.499 144.574 268.269 144.194 268.064L143.329 267.596C142.937 267.383 142.605 267.307 142.335 267.367C142.058 267.439 141.817 267.665 141.611 268.045L140.715 269.701C140.436 270.216 140.333 270.612 140.405 270.889C140.471 271.178 140.736 271.449 141.202 271.701Z" fill="white"/>
<path d="M137.029 261.664L138.592 262.511C138.85 262.65 138.909 262.849 138.77 263.106L132.786 274.162C132.646 274.42 132.448 274.479 132.19 274.34L130.626 273.493C130.369 273.354 130.31 273.155 130.449 272.898L133.287 267.655L133.25 267.635C132.993 267.876 132.597 268.154 132.062 268.467L127.046 271.056C126.747 271.227 126.438 271.226 126.119 271.054L124.316 270.078C124.182 270.005 124.125 269.919 124.147 269.82C124.15 269.726 124.234 269.645 124.398 269.575L130.512 266.629L129.918 258.41C129.912 258.217 129.963 258.094 130.07 258.041C130.159 257.994 130.289 258.017 130.461 258.11L131.804 258.837C132.233 259.069 132.452 259.354 132.46 259.691L132.835 265.721L134.731 264.987L136.433 261.842C136.573 261.584 136.771 261.525 137.029 261.664Z" fill="white"/>
<path d="M97.728 241.875L96.2426 242.732C96.0373 242.851 95.828 242.851 95.6147 242.733L93.6303 241.68C93.3009 241.5 93.0804 241.313 92.9688 241.12L92.1321 239.671C91.9856 239.417 92.0392 239.217 92.2929 239.071L103.18 232.785C103.325 232.701 103.445 232.672 103.541 232.698C103.617 232.718 103.693 232.795 103.77 232.928L104.669 234.486C104.816 234.739 104.762 234.939 104.509 235.086L95.6863 240.179L97.7258 241.369C97.9809 241.56 97.9817 241.728 97.728 241.875Z" fill="white"/>
<path d="M98.3887 228.209L97.7716 227.14C97.5484 226.754 97.3131 226.527 97.0654 226.461C96.8057 226.401 96.4826 226.483 96.0961 226.706L90.5709 229.896C90.1844 230.12 89.958 230.355 89.8916 230.603C89.8132 230.857 89.8855 231.178 90.1087 231.564L90.7258 232.633C90.9489 233.02 91.1903 233.242 91.45 233.302C91.6977 233.368 92.0147 233.29 92.4012 233.067L97.9265 229.877C98.3129 229.654 98.5454 229.415 98.6238 229.16C98.6902 228.912 98.6118 228.595 98.3887 228.209ZM99.5551 225.627L100.601 227.439C101.152 228.393 101.324 229.276 101.116 230.088C100.909 230.9 100.328 231.582 99.3739 232.133L93.6313 235.448C92.6772 235.999 91.7966 236.161 90.9895 235.935C90.1825 235.708 89.5035 235.118 88.9527 234.164L87.9068 232.352C87.3629 231.41 87.2007 230.53 87.4202 229.711C87.6276 228.899 88.2023 228.221 89.1443 227.677L94.887 224.361C95.829 223.817 96.7096 223.655 97.5287 223.875C98.3358 224.101 99.0112 224.685 99.5551 225.627Z" fill="white"/>
<path d="M95.4851 218.578L96.3742 220.118C96.5206 220.371 96.467 220.571 96.2134 220.718L85.3259 227.004C85.0723 227.15 84.8723 227.097 84.7258 226.843L83.8368 225.303C83.6904 225.049 83.744 224.849 83.9976 224.703L89.1605 221.722L89.1396 221.686C88.794 221.757 88.3115 221.786 87.6922 221.773L82.0627 221.352C81.7184 221.341 81.4556 221.179 81.2743 220.865L80.2494 219.089C80.1727 218.957 80.1696 218.854 80.2402 218.781C80.2917 218.703 80.4058 218.677 80.5823 218.704L87.334 219.395L91.131 212.082C91.2271 211.914 91.3349 211.836 91.4543 211.847C91.5547 211.854 91.6536 211.942 91.7513 212.111L92.5148 213.433C92.7588 213.856 92.7959 214.213 92.6259 214.504L89.7878 219.838L91.7873 220.206L94.8851 218.417C95.1387 218.271 95.3387 218.324 95.4851 218.578Z" fill="white"/>
<path d="M76.4033 179.07V178.003C76.4033 177.543 76.3127 177.215 76.1314 177.02C75.9362 176.811 75.6224 176.706 75.1901 176.706H74.2069C73.7746 176.706 73.4678 176.811 73.2865 177.02C73.0913 177.215 72.9937 177.543 72.9937 178.003V179.007C72.9937 179.454 73.0913 179.767 73.2865 179.949C73.4678 180.13 73.7746 180.221 74.2069 180.221H74.7299C75.0227 180.221 75.1692 180.367 75.1692 180.66V182.438C75.1692 182.731 75.0227 182.877 74.7299 182.877H74.1651C73.0774 182.877 72.2406 182.577 71.6549 181.978C71.0692 181.378 70.7764 180.527 70.7764 179.426L70.7764 177.564C70.7764 176.462 71.0692 175.612 71.6549 175.012C72.2406 174.412 73.0774 174.113 74.1651 174.113H75.211C76.3824 174.113 77.1424 174.663 77.4911 175.765C77.7281 174.663 78.4882 174.113 79.7711 174.113H80.838C81.9257 174.113 82.7624 174.412 83.3481 175.012C83.9338 175.612 84.2267 176.462 84.2267 177.564V179.426C84.2267 180.527 83.9338 181.378 83.3481 181.978C82.7624 182.577 81.9257 182.877 80.838 182.877H80.2523C79.9455 182.877 79.7921 182.731 79.7921 182.438V180.66C79.7921 180.367 79.9455 180.221 80.2523 180.221H80.7961C81.2424 180.221 81.5562 180.13 81.7374 179.949C81.9187 179.767 82.0094 179.454 82.0094 179.007V178.003C82.0094 177.543 81.9187 177.215 81.7374 177.02C81.5422 176.811 81.2284 176.706 80.7961 176.706H79.7711C79.3388 176.706 79.032 176.811 78.8508 177.02C78.6555 177.215 78.5579 177.543 78.5579 178.003V179.07C78.5579 179.363 78.4115 179.509 78.1186 179.509H76.8635C76.5567 179.509 76.4033 179.363 76.4033 179.07Z" fill="white"/>
<path d="M81.9257 168.009V166.775C81.9257 166.328 81.8351 166.015 81.6538 165.833C81.4585 165.652 81.1378 165.561 80.6915 165.561L74.3115 165.561C73.8653 165.561 73.5515 165.652 73.3702 165.833C73.175 166.015 73.0774 166.328 73.0774 166.775V168.009C73.0774 168.455 73.175 168.769 73.3702 168.95C73.5515 169.131 73.8653 169.222 74.3115 169.222H80.6915C81.1378 169.222 81.4585 169.131 81.6538 168.95C81.8351 168.769 81.9257 168.455 81.9257 168.009ZM84.2267 166.356V168.448C84.2267 169.55 83.9338 170.401 83.3481 171C82.7624 171.6 81.9187 171.9 80.8171 171.9L74.186 171.9C73.0843 171.9 72.2406 171.6 71.6549 171C71.0692 170.401 70.7764 169.55 70.7764 168.448L70.7764 166.356C70.7764 165.269 71.0762 164.425 71.6758 163.825C72.2616 163.226 73.0983 162.926 74.186 162.926L80.8171 162.926C81.9048 162.926 82.7485 163.226 83.3481 163.825C83.9338 164.425 84.2267 165.269 84.2267 166.356Z" fill="white"/>
<path d="M90.3022 121.157L84.7045 117.926L88.6079 124.092L90.3022 121.157ZM95.4499 121.738L94.6341 123.151C94.4877 123.405 94.2877 123.458 94.034 123.312L92.2949 122.308L89.7011 126.801C89.5826 127.006 89.428 127.134 89.2375 127.185C89.0471 127.236 88.8491 127.202 88.6438 127.084L87.9373 126.676C87.575 126.467 87.314 126.236 87.1543 125.982L82.5328 118.508C82.3852 118.261 82.303 118.069 82.2863 117.93C82.2645 117.773 82.3129 117.592 82.4314 117.386L83.6133 115.339C83.7319 115.134 83.8864 115.006 84.0769 114.955C84.2743 114.891 84.4757 114.919 84.681 115.038L91.5469 119.002L92.2999 117.697C92.4394 117.456 92.6299 117.405 92.8714 117.544L94.0851 118.245C94.3629 118.405 94.4321 118.606 94.2926 118.848L93.5396 120.152L95.2787 121.156C95.4236 121.24 95.5088 121.329 95.5343 121.425C95.5548 121.501 95.5266 121.605 95.4499 121.738Z" fill="white"/>
<path d="M97.254 114.011L97.8711 112.943C98.0942 112.556 98.1726 112.239 98.1062 111.991C98.0278 111.737 97.7953 111.498 97.4089 111.275L91.8836 108.085C91.4972 107.862 91.1801 107.783 90.9325 107.85C90.6727 107.909 90.4313 108.132 90.2082 108.518L89.5911 109.587C89.368 109.974 89.2956 110.294 89.3741 110.549C89.4404 110.797 89.6668 111.032 90.0533 111.255L95.5785 114.445C95.965 114.668 96.2881 114.75 96.5478 114.691C96.7955 114.624 97.0309 114.398 97.254 114.011ZM100.073 113.731L99.0271 115.542C98.4762 116.496 97.7973 117.087 96.9902 117.313C96.1831 117.54 95.3026 117.378 94.3485 116.827L88.6058 113.511C87.6518 112.96 87.071 112.279 86.8636 111.467C86.6562 110.654 86.8279 109.771 87.3787 108.817L88.4246 107.006C88.9685 106.064 89.65 105.483 90.4692 105.263C91.2762 105.037 92.1508 105.196 93.0928 105.74L98.8354 109.055C99.7774 109.599 100.358 110.28 100.578 111.1C100.785 111.912 100.617 112.789 100.073 113.731Z" fill="white"/>
<path d="M127.934 81.2082L129.151 80.472C129.533 80.241 129.754 80.0011 129.816 79.7521C129.877 79.5032 129.796 79.1937 129.572 78.8238L129.074 78.0005C128.843 77.6187 128.596 77.3852 128.333 77.3C128.069 77.2149 127.747 77.2878 127.365 77.5187L126.148 78.2549C125.766 78.4859 125.551 78.7378 125.505 79.0106C125.458 79.2834 125.55 79.6107 125.781 79.9926L126.279 80.8159C126.503 81.1858 126.739 81.4014 126.988 81.4627C127.237 81.524 127.552 81.4391 127.934 81.2082ZM125.076 76.483L126.293 75.7468C126.675 75.5158 126.889 75.2639 126.936 74.9911C126.983 74.7183 126.891 74.391 126.66 74.0091L126.205 73.2574C125.981 72.8875 125.745 72.6719 125.496 72.6106C125.247 72.5493 124.932 72.6342 124.55 72.8651L123.333 73.6013C122.951 73.8323 122.729 74.0722 122.668 74.3212C122.607 74.5701 122.688 74.8796 122.912 75.2495L123.366 76.0012C123.597 76.383 123.845 76.6165 124.108 76.7017C124.371 76.7868 124.694 76.7139 125.076 76.483ZM130.671 82.2172L128.774 83.3648C127.819 83.9422 126.945 84.1534 126.15 83.9984C125.36 83.8243 124.688 83.2778 124.132 82.359L123.634 81.5357C122.97 80.4379 122.927 79.4778 123.505 78.6554C122.523 78.8096 121.689 78.3199 121.003 77.1863L120.537 76.4167C119.982 75.4979 119.814 74.6543 120.033 73.8858C120.265 73.1101 120.858 72.4335 121.813 71.8561L123.71 70.7085C124.653 70.1383 125.515 69.9343 126.298 70.0965C127.092 70.2515 127.768 70.7884 128.323 71.7072L128.789 72.4769C129.128 73.0377 129.309 73.5799 129.333 74.1036C129.356 74.6273 129.227 75.0475 128.946 75.3642C129.91 75.2053 130.738 75.6986 131.43 76.8441L131.918 77.6495C132.473 78.5683 132.639 79.4215 132.415 80.2092C132.195 80.9777 131.614 81.647 130.671 82.2172Z" fill="white"/>
<path d="M137.66 75.3008L138.716 74.662C139.098 74.4311 139.319 74.1911 139.38 73.9422C139.435 73.6813 139.346 73.3599 139.115 72.9781L135.813 67.5191C135.582 67.1372 135.342 66.9157 135.093 66.8544C134.837 66.7812 134.518 66.86 134.136 67.091L133.08 67.7297C132.698 67.9607 132.48 68.2066 132.426 68.4675C132.365 68.7165 132.45 69.0319 132.681 69.4137L135.983 74.8727C136.214 75.2546 136.457 75.4821 136.714 75.5553C136.963 75.6166 137.278 75.5318 137.66 75.3008ZM140.265 76.4143L138.475 77.497C137.532 78.0672 136.653 78.2569 135.837 78.0661C135.02 77.8753 134.327 77.3085 133.757 76.3659L130.325 70.6921C129.755 69.7494 129.575 68.8723 129.785 68.0608C129.994 67.2493 130.571 66.5585 131.513 65.9883L133.303 64.9056C134.234 64.3427 135.111 64.1625 135.935 64.3653C136.751 64.5561 137.44 65.1168 138.003 66.0475L141.435 71.7214C141.998 72.6521 142.178 73.5292 141.976 74.3526C141.766 75.1641 141.195 75.8514 140.265 76.4143Z" fill="white"/>
<path d="M181.391 54.5212V52.8059C181.391 52.5688 181.495 52.3875 181.704 52.262L183.608 51.0697C183.929 50.8745 184.201 50.7769 184.424 50.7769H186.097C186.39 50.7769 186.536 50.9233 186.536 51.2161V63.7879C186.536 63.9553 186.502 64.0738 186.432 64.1435C186.376 64.1993 186.272 64.2272 186.118 64.2272H184.319C184.026 64.2272 183.88 64.0808 183.88 63.7879V53.6008L181.83 54.7722C181.537 54.8977 181.391 54.814 181.391 54.5212Z" fill="white"/>
<path d="M192.895 61.9262H194.129C194.576 61.9262 194.889 61.8356 195.071 61.6543C195.252 61.459 195.343 61.1383 195.343 60.692V54.312C195.343 53.8658 195.252 53.552 195.071 53.3707C194.889 53.1755 194.576 53.0778 194.129 53.0778H192.895C192.449 53.0778 192.135 53.1755 191.954 53.3707C191.773 53.552 191.682 53.8658 191.682 54.312V60.692C191.682 61.1383 191.773 61.459 191.954 61.6543C192.135 61.8356 192.449 61.9262 192.895 61.9262ZM194.548 64.2272H192.456C191.354 64.2272 190.504 63.9343 189.904 63.3486C189.304 62.7629 189.004 61.9192 189.004 60.8175V54.1865C189.004 53.0848 189.304 52.2411 189.904 51.6554C190.504 51.0697 191.354 50.7769 192.456 50.7769H194.548C195.636 50.7769 196.479 51.0767 197.079 51.6763C197.679 52.262 197.978 53.0988 197.978 54.1865V60.8175C197.978 61.9053 197.679 62.749 197.079 63.3486C196.479 63.9343 195.636 64.2272 194.548 64.2272Z" fill="white"/>
<path style="mix-blend-mode:multiply" opacity="0.7" d="M204.676 173.245C204.679 176.606 203.685 179.893 201.82 182.689C199.954 185.485 197.301 187.665 194.197 188.952C191.092 190.24 187.675 190.578 184.378 189.923C181.081 189.268 178.053 187.65 175.676 185.273C173.299 182.896 171.681 179.868 171.026 176.571C170.371 173.274 170.709 169.857 171.996 166.752C173.284 163.648 175.464 160.995 178.26 159.129C181.056 157.264 184.343 156.27 187.704 156.273C189.933 156.273 192.14 156.712 194.199 157.565C196.258 158.418 198.129 159.668 199.705 161.244C201.281 162.82 202.531 164.691 203.384 166.75C204.237 168.809 204.676 171.016 204.676 173.245Z" fill="url(#paint1_radial_474_31663)"/>
<path d="M200.085 169.773C200.085 171.811 199.48 173.803 198.348 175.497C197.216 177.191 195.607 178.512 193.724 179.292C191.842 180.071 189.77 180.275 187.772 179.878C185.773 179.48 183.937 178.499 182.496 177.058C181.055 175.617 180.074 173.781 179.676 171.783C179.279 169.784 179.483 167.713 180.263 165.83C181.043 163.947 182.363 162.338 184.058 161.206C185.752 160.074 187.744 159.47 189.782 159.47C191.135 159.468 192.476 159.733 193.727 160.25C194.978 160.767 196.115 161.526 197.072 162.483C198.029 163.44 198.788 164.576 199.305 165.827C199.822 167.078 200.087 168.419 200.085 169.773Z" fill="white"/>
<path d="M198.267 4.27467V26.2761L190.236 33.2205L182.221 26.2761V4.27467C184.736 4.16109 187.251 4.09619 189.782 4.09619C192.686 4.12864 195.444 4.27467 198.267 4.27467Z" fill="#F8B214"/>
<defs>
<filter id="filter0_d_474_31663" x="0.573242" y="0.573242" width="378.427" height="378.427" filterUnits="userSpaceOnUse" color-interpolation-filters="sRGB">
<feFlood flood-opacity="0" result="BackgroundImageFix"/>
<feColorMatrix in="SourceAlpha" type="matrix" values="0 0 0 0 0 0 0 0 0 0 0 0 0 0 0 0 0 0 127 0" result="hardAlpha"/>
<feOffset dy="20"/>
<feGaussianBlur stdDeviation="10"/>
<feComposite in2="hardAlpha" operator="out"/>
<feColorMatrix type="matrix" values="0 0 0 0 0 0 0 0 0 0 0 0 0 0 0 0 0 0 0.2 0"/>
<feBlend mode="normal" in2="BackgroundImageFix" result="effect1_dropShadow_474_31663"/>
<feBlend mode="normal" in="SourceGraphic" in2="effect1_dropShadow_474_31663" result="shape"/>
</filter>
<radialGradient id="paint0_radial_474_31663" cx="0" cy="0" r="1" gradientUnits="userSpaceOnUse" gradientTransform="translate(179.152 171.394) rotate(45) scale(161.669)">
<stop offset="0.89" stop-color="white"/>
<stop offset="0.91" stop-color="#FEFDFC"/>
<stop offset="0.92" stop-color="#FCF7F3"/>
<stop offset="0.94" stop-color="#F8EEE4"/>
<stop offset="0.95" stop-color="#F3E0CE"/>
<stop offset="0.96" stop-color="#EBCEB1"/>
<stop offset="0.97" stop-color="#E3B88E"/>
<stop offset="0.98" stop-color="#D89E65"/>
<stop offset="0.99" stop-color="#CD8136"/>
<stop offset="1" stop-color="#BF5F00"/>
</radialGradient>
<radialGradient id="paint1_radial_474_31663" cx="0" cy="0" r="1" gradientUnits="userSpaceOnUse" gradientTransform="translate(187.688 173.245) scale(16.9879 16.9879)">
<stop offset="0.34" stop-color="#400500"/>
<stop offset="0.37" stop-color="#4F1814"/>
<stop offset="0.47" stop-color="#7D5451"/>
<stop offset="0.57" stop-color="#A48886"/>
<stop offset="0.67" stop-color="#C5B3B2"/>
<stop offset="0.76" stop-color="#DED4D3"/>
<stop offset="0.85" stop-color="#F0ECEB"/>
<stop offset="0.93" stop-color="#FBFAFA"/>
<stop offset="1" stop-color="white"/>
</radialGradient>
</defs>
</svg>
