<svg width="28" height="28" viewBox="0 0 28 28" fill="none" xmlns="http://www.w3.org/2000/svg">
<g clip-path="url(#clip0_474_31935)">
<path d="M27.9726 14.0273C27.9726 6.31041 21.7169 0.0546875 14 0.0546875C8.62293 0.0546875 5.31066 3.08767 5.30151 3.09277C5.30151 3.09277 5.16381 3.26466 5.13806 3.37891C4.92885 4.30756 4.7334 5.55222 4.7334 6.46044C4.7334 14.1773 11.241 20.4315 18.9578 20.4315C21.9294 20.4315 25.2355 19.0073 27.4482 17.2949C27.4977 17.2566 27.6547 16.9992 27.6547 16.9992C27.6645 16.9397 27.9726 15.7129 27.9726 14.0273Z" fill="#52BA41"/>
<path d="M18.9566 20.0371C11.2397 20.0371 4.984 13.7814 4.984 6.0645C4.984 5.0445 5.09397 4.05064 5.30154 3.09277C2.08811 5.65277 0.0273438 9.59946 0.0273438 14.0273C0.0273438 17.4529 1.26011 20.5907 3.30625 23.021L24.6931 23.0219C26.1262 21.3206 27.1632 19.2679 27.6547 16.9993C25.2679 18.9004 22.2452 20.0371 18.9566 20.0371Z" fill="#4C9540"/>
<path d="M19.6666 11.3572H19.6118L19.2373 9.51576L19.6118 7.99658H19.6666C20.3987 7.99658 20.9923 8.59012 20.9923 9.32223V10.0316C20.9923 10.7637 20.3988 11.3572 19.6666 11.3572Z" fill="#FA968C"/>
<path d="M21.5044 18.3723L13.9832 16.708C9.96926 17.5989 7.59813 21.7567 8.87523 25.665L9.38301 27.219C10.8281 27.7248 12.3815 27.9998 13.9993 27.9998C18.2647 27.9998 22.1176 26.0779 24.6923 23.0216V22.3428C24.6923 20.4355 23.3666 18.7844 21.5044 18.3723Z" fill="#2477F9"/>
<path d="M14.1279 23.5785C18.269 23.5785 21.626 23.0147 21.626 19.6653C21.626 19.2173 21.5654 18.7809 21.4515 18.3606L13.9835 16.708L6.49201 18.3708C4.61607 18.7871 3.30664 20.4505 3.30664 22.3407V23.0204C4.90346 24.917 6.9953 26.3826 9.38346 27.2183C10.0834 25.2658 11.9184 23.5757 14.0696 23.5785H14.1279Z" fill="#0540E5"/>
<path d="M20.9923 18.8963C20.9923 21.9674 17.9142 22.4843 14.1173 22.4843C10.3203 22.4843 7.24219 21.9674 7.24219 18.8963C7.24219 15.8251 10.3203 13.3354 14.1173 13.3354C17.9142 13.3354 20.9923 15.8251 20.9923 18.8963Z" fill="#2477F9"/>
<path d="M18.8439 18.1445C18.8439 20.2559 16.7277 21.9675 14.1173 21.9675C11.5068 21.9675 9.39062 20.2559 9.39062 18.1445C9.39062 16.033 11.5068 16.5441 14.1173 16.5441C16.7277 16.5441 18.8439 16.033 18.8439 18.1445Z" fill="#0540E5"/>
<path d="M14.013 20.8808C15.1129 20.8808 16.0044 19.9892 16.0044 18.8893V14.4287H12.0215V18.8893C12.0215 19.9892 12.9131 20.8808 14.013 20.8808Z" fill="#FAB9AF"/>
<path d="M13.3581 18.5298C13.3583 18.5298 13.3583 18.5298 13.3584 18.5297C12.8956 18.505 12.4481 18.4237 12.0215 18.2942V14.4287H15.674L16.0044 17.4108C15.514 18.2003 14.1431 18.5719 13.3581 18.5298Z" fill="#FA735F"/>
<path d="M19.415 7.4412C19.415 5.62378 18.2491 3.96191 16.4317 3.96191H11.5934C11.0749 3.96191 10.5999 4.09764 10.1855 4.33326V13.9392C10.1855 16.0359 11.8719 17.7517 13.9685 17.7676C13.9831 17.7677 13.9979 17.7677 14.0126 17.7677C17.1351 17.7677 19.6664 15.2364 19.6664 12.1139V10.3289L19.415 7.4412Z" fill="#FAB9AF"/>
<path d="M19.667 10.3139V9.03955C19.9446 9.03955 20.1697 9.26459 20.1697 9.54224V9.81122C20.1697 10.0888 19.9446 10.3139 19.667 10.3139Z" fill="#FA735F"/>
<path d="M6.97759 10.0315C6.97759 10.7637 7.57113 11.3572 8.30324 11.3572H8.38833L9.06696 9.92749L8.39968 7.99658H8.30318C7.57107 7.99658 6.97754 8.59012 6.97754 9.32223L6.97759 10.0315Z" fill="#FA968C"/>
<path d="M7.76367 9.821C7.76367 10.1188 8.0051 10.3602 8.3029 10.3602V8.99316C8.0051 8.99316 7.76367 9.23459 7.76367 9.5324V9.821Z" fill="#FA735F"/>
<path d="M7.40137 10.4293C7.40137 10.927 7.80487 11.3305 8.30257 11.3305V9.53906C7.80487 9.53906 7.40137 9.94257 7.40137 10.4403V10.4293Z" fill="white"/>
<path d="M11.5703 10.0015V10.4001C11.5703 10.6602 11.7812 10.8711 12.0412 10.8711C12.3013 10.8711 12.5121 10.6602 12.5121 10.4001V10.0015H11.5703Z" fill="#FA968C"/>
<path d="M15.4072 10.0015V10.4001C15.4072 10.6602 15.6181 10.8711 15.8781 10.8711C16.1382 10.8711 16.349 10.6602 16.349 10.4001V10.0015H15.4072Z" fill="#FA968C"/>
<path d="M12.0412 10.4939C11.7812 10.4939 11.5703 10.283 11.5703 10.023V9.4172L11.7439 9.15435L11.5703 8.8915V8.73506C11.5703 8.47501 11.7812 8.26416 12.0412 8.26416C12.3013 8.26416 12.5121 8.47501 12.5121 8.73506V10.023C12.5121 10.283 12.3012 10.4939 12.0412 10.4939Z" fill="#373C41"/>
<path d="M15.8781 10.4939C15.6181 10.4939 15.4072 10.283 15.4072 10.023V9.4172L15.5808 9.15435L15.4072 8.8915V8.73506C15.4072 8.47501 15.6181 8.26416 15.8781 8.26416C16.1382 8.26416 16.349 8.47501 16.349 8.73506V10.023C16.349 10.283 16.1382 10.4939 15.8781 10.4939Z" fill="#373C41"/>
<path d="M12.6615 8.02872H11.2883C11.0282 8.02872 10.8174 7.81787 10.8174 7.55782C10.8174 7.29776 11.0282 7.08691 11.2883 7.08691H12.6615C12.9216 7.08691 13.1325 7.29776 13.1325 7.55782C13.1325 7.81793 12.9216 8.02872 12.6615 8.02872Z" fill="#C1400E"/>
<path d="M16.5854 8.02872H15.2121C14.9521 8.02872 14.7412 7.81787 14.7412 7.55782C14.7412 7.29776 14.9521 7.08691 15.2121 7.08691H16.5854C16.8454 7.08691 17.0563 7.29776 17.0563 7.55782C17.0563 7.81793 16.8454 8.02872 16.5854 8.02872Z" fill="#C1400E"/>
<path d="M15.7467 13.0986H15.2618L13.9848 13.3637L12.7078 13.0986H12.2789C12.135 13.0986 12.02 13.2242 12.0392 13.3669C12.0759 13.6397 12.1679 13.895 12.3035 14.1212L14.8892 14.8874C15.4731 14.6008 15.8962 14.0366 15.9863 13.3669C16.0055 13.2242 15.8905 13.0986 15.7467 13.0986Z" fill="#BE1423"/>
<path d="M18.7478 5.4743C18.8019 5.47435 18.8552 5.47172 18.9083 5.46778C18.4007 4.5772 17.537 3.96191 16.4317 3.96191H11.5934C11.0748 3.96191 10.5999 4.09764 10.1855 4.33326V4.45359C9.1218 4.94991 8.42734 6.01254 8.42734 7.3166L8.30273 10.3289V12.0579C8.30273 15.3212 11.037 17.9333 14.319 17.7594C11.942 17.0691 10.2044 14.8755 10.2044 12.2758C10.2186 11.9545 10.2044 7.91002 10.2044 6.72756C10.2044 6.71912 10.2045 5.23117 10.2045 5.22279C10.2136 4.02016 11.2045 5.46685 12.4071 5.46805L18.7478 5.4743Z" fill="#FA968C"/>
<path d="M17.2413 3.16914C16.6126 3.16914 16.058 3.43905 15.7273 3.85034C15.3053 3.32475 14.597 2.97977 13.794 2.97977C13.4116 2.97977 13.051 3.05845 12.7323 3.19708C12.3084 2.68355 11.6087 2.34766 10.8166 2.34766C9.52316 2.34766 8.47461 3.24223 8.47461 4.34579C8.47461 5.44935 9.52316 6.34393 10.8166 6.34393C11.1989 6.34393 11.5595 6.26525 11.8783 6.12662C12.3021 6.64015 13.0018 6.97604 13.794 6.97604C14.7351 6.97604 15.5461 6.50218 15.9183 5.819C16.2522 6.11555 16.7213 6.30037 17.2413 6.30037C18.2548 6.30037 19.0764 5.59938 19.0764 4.73472C19.0764 3.87012 18.2548 3.16914 17.2413 3.16914Z" fill="#FA968C"/>
<path d="M13.2497 11.1621C13.1327 11.6296 13.3454 12.1388 13.7523 12.2923C13.8341 12.3232 13.9217 12.3399 14.0127 12.3399C14.1038 12.3399 14.1914 12.3232 14.2732 12.2923C14.6801 12.1388 14.8929 11.6296 14.7758 11.1621L14.3877 9.61243C14.29 9.22229 13.7355 9.22229 13.6378 9.61243L13.2497 11.1621Z" fill="#FA968C"/>
<path d="M19.6662 4.30469V7.47137V7.47154V10.3292C19.2479 10.3292 18.9089 9.99017 18.9089 9.57192V6.22803C18.9089 5.48945 18.4932 4.80869 17.829 4.48562C17.8128 4.47767 17.7965 4.46995 17.7803 4.46244V4.30474L19.6662 4.30469Z" fill="#C1400E"/>
<path d="M11.7439 9.59065C11.648 9.59065 11.5703 9.51295 11.5703 9.41706V8.89136C11.5703 8.79547 11.648 8.71777 11.7439 8.71777C11.8398 8.71777 11.9175 8.79547 11.9175 8.89136V9.41706C11.9175 9.5129 11.8397 9.59065 11.7439 9.59065Z" fill="white"/>
<path d="M15.5808 9.59065C15.4849 9.59065 15.4072 9.51295 15.4072 9.41706V8.89136C15.4072 8.79547 15.4849 8.71777 15.5808 8.71777C15.6767 8.71777 15.7544 8.79547 15.7544 8.89136V9.41706C15.7544 9.5129 15.6767 9.59065 15.5808 9.59065Z" fill="white"/>
<path d="M12.3037 14.121C12.6517 14.7015 13.2868 15.0901 14.0128 15.0901C14.3273 15.0901 14.6246 15.017 14.889 14.8872C14.7753 14.174 14.1577 13.6289 13.4125 13.6289C12.9728 13.6289 12.5774 13.8188 12.3037 14.121Z" fill="#FF3C3C"/>
<path d="M14.9811 13.6289H12.9889C12.8338 13.6289 12.708 13.5031 12.708 13.3479V13.0986H15.262V13.3479C15.262 13.5031 15.1362 13.6289 14.9811 13.6289Z" fill="white"/>
<path d="M12.029 3.22504C12.029 1.44504 13.4711 0.00164384 15.2511 0H11.5248C9.74482 0.00164384 8.30273 1.4451 8.30273 3.22504V7.47123V7.4714V10.3291C8.72098 10.3291 9.06005 9.99003 9.06005 9.57178V6.22789C9.06005 6.22345 9.06005 6.21901 9.0601 6.21463C9.0646 5.55452 9.61369 5.02712 10.2739 5.02778L12.029 5.02948V3.22504H12.029Z" fill="#C1400E"/>
<path d="M11.4049 26.9175C11.2234 26.9175 11.0762 26.7703 11.0762 26.5888V22.7892C11.0762 22.6077 11.2234 22.4604 11.4049 22.4604C11.5865 22.4604 11.7337 22.6077 11.7337 22.7892V26.5888C11.7337 26.7703 11.5865 26.9175 11.4049 26.9175Z" fill="#0540E5"/>
<path d="M11.4049 26.0958C11.2234 26.0958 11.0762 25.9485 11.0762 25.767V21.9674C11.0762 21.7859 11.2234 21.6387 11.4049 21.6387C11.5865 21.6387 11.7337 21.7859 11.7337 21.9674V25.767C11.7337 25.9485 11.5865 26.0958 11.4049 26.0958Z" fill="white"/>
<path d="M16.7751 26.9175C16.5935 26.9175 16.4463 26.7703 16.4463 26.5888V22.7892C16.4463 22.6077 16.5935 22.4604 16.7751 22.4604C16.9566 22.4604 17.1038 22.6077 17.1038 22.7892V26.5888C17.1038 26.7703 16.9566 26.9175 16.7751 26.9175Z" fill="#0540E5"/>
<path d="M16.7751 26.0958C16.5935 26.0958 16.4463 25.9485 16.4463 25.767V21.9674C16.4463 21.7859 16.5935 21.6387 16.7751 21.6387C16.9566 21.6387 17.1038 21.7859 17.1038 21.9674V25.767C17.1038 25.9485 16.9566 26.0958 16.7751 26.0958Z" fill="white"/>
<path d="M8.05322 12.5864C7.91705 12.5864 7.80664 12.476 7.80664 12.3398V10.4936C7.80664 10.3575 7.91705 10.2471 8.05322 10.2471C8.18938 10.2471 8.29979 10.3575 8.29979 10.4936V12.3398C8.29979 12.476 8.18938 12.5864 8.05322 12.5864Z" fill="white"/>
<path d="M20.5682 10.566C20.5682 11.0637 20.1647 11.4672 19.667 11.4672V9.67578C20.1647 9.67578 20.5682 10.0793 20.5682 10.577V10.566Z" fill="white"/>
<path d="M19.9165 12.7237C19.7803 12.7237 19.6699 12.6133 19.6699 12.4772V10.6309C19.6699 10.4947 19.7803 10.3843 19.9165 10.3843C20.0527 10.3843 20.1631 10.4947 20.1631 10.6309V12.4771C20.1631 12.6133 20.0527 12.7237 19.9165 12.7237Z" fill="white"/>
<path d="M17.2422 5.91693C18.2557 5.91693 19.0773 5.21597 19.0773 4.35129C19.0773 3.48661 18.2557 2.78564 17.2422 2.78564C16.2288 2.78564 15.4072 3.48661 15.4072 4.35129C15.4072 5.21597 16.2288 5.91693 17.2422 5.91693Z" fill="#CD5014"/>
<path d="M13.7941 6.59247C15.0876 6.59247 16.1361 5.69787 16.1361 4.59433C16.1361 3.49079 15.0876 2.59619 13.7941 2.59619C12.5007 2.59619 11.4521 3.49079 11.4521 4.59433C11.4521 5.69787 12.5007 6.59247 13.7941 6.59247Z" fill="#CD5014"/>
<path d="M10.8166 5.96014C12.11 5.96014 13.1586 5.06554 13.1586 3.962C13.1586 2.85846 12.11 1.96387 10.8166 1.96387C9.52315 1.96387 8.47461 2.85846 8.47461 3.962C8.47461 5.06554 9.52315 5.96014 10.8166 5.96014Z" fill="#CD5014"/>
<path d="M21.0075 6.71587L20.5936 4.66162H12.5645V6.71587H21.0075Z" fill="#9CA2AD"/>
<path d="M20.411 2.77074L20.3341 1.91436C20.2367 0.830466 19.3283 0 18.2401 0H12.6416V2.77074H20.411Z" fill="#B4B9C3"/>
<path d="M20.4636 3.34989L20.4069 2.71729H14.2295V3.34989H20.4636Z" fill="white"/>
<path d="M15.7852 4.66154H20.5807L20.4537 3.24707H15.7852V4.66154Z" fill="#FFA50A"/>
<path d="M12.6882 2.77074V0H9.98921C8.90093 0 7.99255 0.830466 7.89524 1.91436L7.81836 2.77074H12.6882Z" fill="#9CA2AD"/>
<path d="M14.3319 2.71729H7.82301L7.64844 4.66172H14.3319V2.71729Z" fill="#E4F2F6"/>
<path d="M15.8115 3.2473H7.82214C7.80652 3.2473 7.79112 3.24631 7.77556 3.24609L7.64844 4.66176H15.8115V3.2473Z" fill="#FA870A"/>
<path d="M12.693 4.66162H7.64855L6.92285 8.26387H21.3193L20.9826 6.59225H14.2734C13.2551 6.59225 12.4919 5.65987 12.693 4.66162Z" fill="#7D8C9B"/>
</g>
<defs>
<clipPath id="clip0_474_31935">
<rect width="28" height="28" fill="white"/>
</clipPath>
</defs>
</svg>
