<svg width="28" height="28" viewBox="0 0 28 28" fill="none" xmlns="http://www.w3.org/2000/svg">
<g clip-path="url(#clip0_474_32623)">
<path d="M14.0001 0.720215C8.75103 0.720215 5.51761 3.68098 5.50868 3.68602C5.50868 3.68602 5.37427 3.8538 5.34912 3.96537C5.1449 4.87194 4.9541 6.08695 4.9541 6.97358C4.9541 14.5067 11.3068 20.6121 18.8399 20.6121C21.7407 20.6121 24.9681 19.2217 27.1282 17.5501C27.1765 17.5128 27.3298 17.2615 27.3298 17.2615C27.3393 17.2033 27.6401 16.0057 27.6401 14.3603C27.6401 6.82701 21.5332 0.720215 14.0001 0.720215Z" fill="#52BA41"/>
<path d="M18.839 20.227C11.3058 20.227 5.19898 14.1202 5.19898 6.58702C5.19898 5.5913 5.30638 4.6211 5.50895 3.68604C2.37208 6.1851 0.360352 10.0378 0.360352 14.3602C0.360352 18.1747 1.92616 21.6236 4.45016 24.099L23.5505 24.0986C25.4099 22.2763 26.754 19.9208 27.3301 17.2614C25.0001 19.1173 22.0493 20.227 18.839 20.227Z" fill="#4C9540"/>
<path d="M16.7927 2.27002H11.9395V22.3916H20.935V6.41238C20.935 4.12465 19.0804 2.27002 16.7927 2.27002Z" fill="#2477F9"/>
<path d="M16.7503 0.623535H13.1897C11.8493 0.623535 10.7627 1.71017 10.7627 3.05055V8.59789H16.7503C18.0961 8.59789 19.1871 8.33312 19.1871 6.98732V3.0603C19.1871 1.71449 18.0961 0.623535 16.7503 0.623535Z" fill="#2477F9"/>
<path d="M10.8528 6.98732V3.0603C10.8528 1.71449 11.9437 0.623535 13.2895 0.623535H10.7493C9.40346 0.623535 8.3125 1.71449 8.3125 3.0603V6.98732C8.3125 8.33312 9.40346 8.59789 10.7493 8.59789H13.2895C11.9437 8.59789 10.8528 8.33312 10.8528 6.98732Z" fill="#0540E5"/>
<path d="M12.4317 22.3916V6.41238C12.4317 4.1246 11.7355 2.27002 14.0232 2.27002H10.7068C8.41903 2.27002 6.56445 4.1246 6.56445 6.41238V22.3916H12.4317V22.3916Z" fill="#0540E5"/>
<path d="M19.4699 21.186C19.4699 21.186 16.3714 21.186 13.6123 21.186C11.2888 21.186 9.40527 23.0696 9.40527 25.3932V27.206C10.841 27.7196 12.3878 27.9998 14.0001 27.9998C17.6985 27.9998 21.0794 26.5198 23.5503 24.0981C22.9687 22.4038 21.3615 21.186 19.4699 21.186Z" fill="#FA870A"/>
<path d="M8.20915 21.1996C6.45869 21.3287 4.99852 22.5018 4.4502 24.0989C5.86192 25.4835 7.57337 26.5635 9.4782 27.2327V25.4994C9.4782 23.2257 11.238 21.3642 13.4698 21.1996C13.5732 21.1906 13.6275 21.1874 13.8479 21.1864H10.1362C8.4245 21.1872 8.42351 21.1809 8.20915 21.1996Z" fill="#FA690F"/>
<path d="M9.86328 17.0957C9.86328 19.2103 11.5622 20.9452 13.6767 20.9611C13.6914 20.9612 13.7062 20.9612 13.721 20.9612C16.9543 20.9612 19.5756 18.3401 19.5756 15.1068V14.0806L9.86328 17.0957Z" fill="#0540E5"/>
<path d="M14 24.8438C15.57 24.8438 16.8428 23.571 16.8428 22.001V21.186H11.1572V22.001C11.1572 23.571 12.43 24.8438 14 24.8438Z" fill="#F45700"/>
<path d="M16.0418 21.5048C16.0418 22.6325 15.1277 23.5467 13.9999 23.5467C12.8722 23.5467 11.958 22.6325 11.958 21.5048V20.4068L16.0419 16.9312L16.0418 21.5048Z" fill="#FFBE82"/>
<path d="M20.9448 11.7158C20.9448 12.4715 20.3322 13.0841 19.5765 13.0841H19.4931L19.4111 9.61523H19.5765C20.3322 9.61523 20.9448 10.2278 20.9448 10.9836V11.7158Z" fill="#FF965A"/>
<path d="M20.1358 11.4965C20.1358 11.7997 19.89 12.0455 19.5869 12.0455H19.5534L19.5205 10.6538H19.5869C19.89 10.6538 20.1358 10.8996 20.1358 11.2027V11.4965Z" fill="#EF6A30"/>
<path d="M19.5194 8.1362C19.506 6.77773 18.4009 5.68359 17.0424 5.68359H14.0993C12.4594 5.68359 10.969 6.32305 9.86328 7.36589V15.7803C9.86328 17.8948 11.5622 19.6298 13.6767 19.6456C13.6914 19.6457 13.7062 19.6458 13.721 19.6458C16.9544 19.6458 19.5756 17.0246 19.5756 13.7913L19.5194 8.1362Z" fill="#FFBE82"/>
<path d="M11.9581 20.4068C12.1682 20.4443 12.3839 20.4657 12.6045 20.4674C12.6193 20.4675 12.6341 20.4675 12.6489 20.4675C13.9137 20.4675 15.0847 19.9021 16.0419 19.2202V16.9312H11.958V20.4068H11.9581Z" fill="#EF6A30"/>
<path d="M19.5194 8.1362C19.506 6.77773 18.4009 5.68359 17.0424 5.68359H14.0993C12.4594 5.68359 10.969 6.32305 9.86328 7.36589V15.7803C9.86328 17.8948 11.5622 19.6298 13.6767 19.6456C13.6914 19.6457 13.7062 19.6458 13.721 19.6458C16.9544 19.6458 19.5756 17.0246 19.5756 13.7913L19.5194 8.1362Z" fill="#FFBE82"/>
<path d="M6.54883 11.7135C6.54883 12.4642 7.15738 13.0727 7.90806 13.0727H7.95798L7.98209 9.62695H7.90806C7.15738 9.62695 6.54883 10.2355 6.54883 10.9862V11.7135Z" fill="#FF965A"/>
<path d="M7.37603 11.4895C7.37603 11.7782 7.61006 12.0122 7.89877 12.0122H7.91795L7.92721 10.687H7.89872C7.61 10.687 7.37598 10.921 7.37598 11.2098L7.37603 11.4895Z" fill="#EF6A30"/>
<path d="M11.2734 11.6089V12.1069C11.2734 12.3735 11.4897 12.5897 11.7563 12.5897C12.0229 12.5897 12.2391 12.3735 12.2391 12.1069V11.6089H11.2734Z" fill="#FF965A"/>
<path d="M15.2168 11.6089V12.1069C15.2168 12.3735 15.433 12.5897 15.6996 12.5897C15.9663 12.5897 16.1825 12.3735 16.1825 12.1069V11.6089H15.2168Z" fill="#FF965A"/>
<path d="M11.7563 12.1872C11.4897 12.1872 11.2734 11.971 11.2734 11.7043V11.3482L11.4672 11.057L11.2734 10.7659V10.3837C11.2734 10.1171 11.4896 9.90088 11.7563 9.90088C12.0229 9.90088 12.2391 10.117 12.2391 10.3837V11.7043C12.2391 11.971 12.023 12.1872 11.7563 12.1872Z" fill="#373C41"/>
<path d="M15.6996 12.1872C15.433 12.1872 15.2168 11.971 15.2168 11.7043V11.2526L15.4106 10.9614L15.2168 10.6702V10.3837C15.2168 10.1171 15.433 9.90088 15.6996 9.90088C15.9663 9.90088 16.1825 10.117 16.1825 10.3837V11.7043C16.1824 11.971 15.9663 12.1872 15.6996 12.1872Z" fill="#373C41"/>
<path d="M12.9957 13.0149C12.8756 13.4379 13.0938 13.8986 13.5109 14.0375C13.5949 14.0655 13.6847 14.0806 13.778 14.0806C13.8713 14.0806 13.9611 14.0655 14.045 14.0375C14.4622 13.8987 14.6803 13.4379 14.5603 13.0149L13.9749 10.952C13.9186 10.7536 13.6374 10.7536 13.5811 10.952L12.9957 13.0149Z" fill="#FF965A"/>
<path d="M14.2616 5.69386C10.7636 5.68717 7.92383 8.52038 7.92383 12.0185V13.8487C7.92383 17.4119 11.1217 20.1684 14.7047 19.5619C11.9694 19.0965 9.88629 16.7166 9.88629 13.8487C9.88777 11.2815 9.88607 10.09 9.8858 9.50931C9.88564 9.0497 10.2615 8.67282 10.7211 8.67183H10.7217H13.5316C15.1668 8.67183 16.4924 7.34624 16.4924 5.71101C16.4924 5.71106 16.0653 5.69731 14.2616 5.69386Z" fill="#FF965A"/>
<path d="M10.9183 3.34375C9.26449 3.34375 7.92383 4.68446 7.92383 6.33827V8.26939V12.0184C8.35265 12.0184 8.70032 11.6708 8.70032 11.2419V10.2908C8.70032 9.17438 9.60531 8.26939 10.7217 8.26939H13.5316C15.1668 8.26939 16.4924 6.94381 16.4924 5.30857V3.34375H10.9183Z" fill="#2477F9"/>
<path d="M16.3877 5.68364C17.7122 5.68364 18.7992 6.81744 18.7992 8.14194V11.2421C18.7992 11.6709 19.1468 12.0186 19.5757 12.0186V5.4541L16.3877 5.68364Z" fill="#2477F9"/>
<path d="M15.6257 14.8999H15.1185L13.783 15.1772L12.4475 14.8999H11.9989C11.8485 14.8999 11.7282 15.0312 11.7483 15.1804C11.7867 15.4657 11.8829 15.7327 12.0247 15.9693L14.7288 16.7706C15.3396 16.4709 15.782 15.8808 15.8763 15.1804C15.8964 15.0313 15.7761 14.8999 15.6257 14.8999Z" fill="#BE1423"/>
<path d="M12.0244 15.9687C12.3884 16.5758 13.0525 16.9823 13.8118 16.9823C14.1407 16.9823 14.4516 16.9058 14.7282 16.77C14.6093 16.0242 13.9634 15.4541 13.1841 15.4541C12.7241 15.4541 12.3106 15.6527 12.0244 15.9687Z" fill="#FF3C3C"/>
<path d="M15.1183 15.1607C15.1183 15.3229 14.9868 15.4545 14.8245 15.4545H12.7411C12.5788 15.4545 12.4473 15.3229 12.4473 15.1607V14.8999H15.1183V15.1607H15.1183Z" fill="white"/>
<path d="M11.4672 11.5422C11.3602 11.5422 11.2734 11.4554 11.2734 11.3484V10.7661C11.2734 10.6591 11.3602 10.5723 11.4672 10.5723C11.5743 10.5723 11.6611 10.6591 11.6611 10.7661V11.3484C11.6611 11.4554 11.5743 11.5422 11.4672 11.5422Z" fill="white"/>
<path d="M15.4106 11.4465C15.3036 11.4465 15.2168 11.3597 15.2168 11.2527V10.6704C15.2168 10.5634 15.3036 10.4766 15.4106 10.4766C15.5176 10.4766 15.6044 10.5634 15.6044 10.6704V11.2527C15.6044 11.3597 15.5176 11.4465 15.4106 11.4465Z" fill="white"/>
<path d="M16.8131 2.22119H12.7236V3.35018H16.8131C18.1589 3.35018 19.2499 4.44114 19.2499 5.78694V4.65801C19.2499 3.31221 18.1589 2.22119 16.8131 2.22119Z" fill="#FF6196"/>
<path d="M12.742 2.22119H10.8108C9.46498 2.22119 8.37402 3.31215 8.37402 4.65796V5.78694C8.37402 4.44114 9.46498 3.35018 10.8108 3.35018H12.742V2.22119Z" fill="#FF4181"/>
<path d="M9.1416 3.31359C9.1416 3.31359 9.2513 0.172389 10.187 0.00685481C11.1228 -0.158679 12.4474 2.72877 12.4474 2.72877L9.1416 3.31359Z" fill="#FF4181"/>
<path d="M9.74219 3.20734C10.4306 2.73753 11.1247 2.62543 11.8237 2.83907C11.5034 2.24258 10.9091 1.27923 10.4479 1.36082C9.98668 1.44247 9.80821 2.54252 9.74219 3.20734Z" fill="white"/>
<path d="M18.42 3.31359C18.42 3.31359 18.3103 0.172389 17.3746 0.00685481C16.4389 -0.158679 15.1143 2.72877 15.1143 2.72877L18.42 3.31359Z" fill="#FF6196"/>
<path d="M17.8198 3.20734C17.0696 2.76192 16.38 2.66345 15.7383 2.83907C16.0585 2.24258 16.6528 1.27923 17.1141 1.36082C17.5753 1.44247 17.7537 2.54252 17.8198 3.20734Z" fill="white"/>
<path d="M15.8518 13.7725C16.045 13.7725 16.2017 13.6158 16.2017 13.4226C16.2017 13.2294 16.045 13.0728 15.8518 13.0728C15.6586 13.0728 15.502 13.2294 15.502 13.4226C15.502 13.6158 15.6586 13.7725 15.8518 13.7725Z" fill="#FF965A"/>
<path d="M17.1408 13.0727C17.2742 13.0727 17.3823 12.9646 17.3823 12.8313C17.3823 12.6979 17.2742 12.5898 17.1408 12.5898C17.0075 12.5898 16.8994 12.6979 16.8994 12.8313C16.8994 12.9646 17.0075 13.0727 17.1408 13.0727Z" fill="#FF965A"/>
<path d="M17.9473 14.3839C18.1161 14.3839 18.253 14.247 18.253 14.0782C18.253 13.9093 18.1161 13.7725 17.9473 13.7725C17.7785 13.7725 17.6416 13.9093 17.6416 14.0782C17.6416 14.247 17.7785 14.3839 17.9473 14.3839Z" fill="#FF965A"/>
<path d="M16.6747 14.384C16.7987 14.384 16.8992 14.2835 16.8992 14.1596C16.8992 14.0356 16.7987 13.9351 16.6747 13.9351C16.5507 13.9351 16.4502 14.0356 16.4502 14.1596C16.4502 14.2835 16.5507 14.384 16.6747 14.384Z" fill="#FF965A"/>
<path d="M11.803 13.8291C11.9962 13.8291 12.1529 13.6725 12.1529 13.4793C12.1529 13.286 11.9962 13.1294 11.803 13.1294C11.6098 13.1294 11.4531 13.286 11.4531 13.4793C11.4531 13.6725 11.6098 13.8291 11.803 13.8291Z" fill="#FF965A"/>
<path d="M10.5149 13.1293C10.6482 13.1293 10.7563 13.0212 10.7563 12.8879C10.7563 12.7546 10.6482 12.6465 10.5149 12.6465C10.3815 12.6465 10.2734 12.7546 10.2734 12.8879C10.2734 13.0212 10.3815 13.1293 10.5149 13.1293Z" fill="#FF965A"/>
<path d="M9.70804 14.4405C9.87687 14.4405 10.0137 14.3036 10.0137 14.1348C10.0137 13.966 9.87687 13.8291 9.70804 13.8291C9.53921 13.8291 9.40234 13.966 9.40234 14.1348C9.40234 14.3036 9.53921 14.4405 9.70804 14.4405Z" fill="#FF965A"/>
<path d="M10.9804 14.4407C11.1043 14.4407 11.2048 14.3402 11.2048 14.2162C11.2048 14.0922 11.1043 13.9917 10.9804 13.9917C10.8564 13.9917 10.7559 14.0922 10.7559 14.2162C10.7559 14.3402 10.8564 14.4407 10.9804 14.4407Z" fill="#FF965A"/>
<path d="M19.642 26.572C19.642 26.1774 19.3221 25.8574 18.9275 25.8574C18.5328 25.8574 18.2129 26.1774 18.2129 26.572C18.2129 26.8468 18.3681 27.0854 18.5956 27.205C18.9388 27.0821 19.2757 26.9459 19.6059 26.7968C19.6293 26.7261 19.642 26.6506 19.642 26.572Z" fill="#FA690F"/>
<path d="M15.8376 27.2866C16.2323 27.2866 16.5522 26.9666 16.5522 26.572C16.5522 26.1773 16.2323 25.8574 15.8376 25.8574C15.443 25.8574 15.123 26.1773 15.123 26.572C15.123 26.9666 15.443 27.2866 15.8376 27.2866Z" fill="#FA690F"/>
<path d="M12.7468 27.2866C13.1415 27.2866 13.4614 26.9666 13.4614 26.572C13.4614 26.1773 13.1415 25.8574 12.7468 25.8574C12.3522 25.8574 12.0322 26.1773 12.0322 26.572C12.0322 26.9666 12.3522 27.2866 12.7468 27.2866Z" fill="#FA690F"/>
<path d="M9.65694 25.8574C9.56823 25.8574 9.48368 25.8744 9.40527 25.9039V27.2401C9.48363 27.2696 9.56823 27.2865 9.65694 27.2865C10.0516 27.2865 10.3715 26.9666 10.3715 26.5719C10.3715 26.1773 10.0516 25.8574 9.65694 25.8574Z" fill="#FA690F"/>
<path d="M9.47794 25.8809C9.17011 25.9604 8.94238 26.2392 8.94238 26.5719C8.94238 26.9046 9.17011 27.1834 9.47794 27.263V25.8809Z" fill="#F45700"/>
<path d="M21.4106 21.6475C21.3426 21.7568 21.3027 21.8854 21.3027 22.0236C21.3027 22.4183 21.6227 22.7382 22.0173 22.7382C22.2337 22.7382 22.4273 22.6415 22.5584 22.4895C22.2266 22.1492 21.8391 21.8638 21.4106 21.6475Z" fill="#FA690F"/>
<path d="M18.9275 22.7382C19.3221 22.7382 19.642 22.4183 19.642 22.0237C19.642 21.629 19.3221 21.3091 18.9275 21.3091C18.5328 21.3091 18.2129 21.629 18.2129 22.0237C18.2129 22.4183 18.5328 22.7382 18.9275 22.7382Z" fill="#FA690F"/>
<path d="M9.65696 22.7382C10.0516 22.7382 10.3715 22.4183 10.3715 22.0237C10.3715 21.629 10.0516 21.3091 9.65696 21.3091C9.26231 21.3091 8.94238 21.629 8.94238 22.0237C8.94238 22.4183 9.26231 22.7382 9.65696 22.7382Z" fill="#F45700"/>
<path d="M6.56743 22.7383C6.96206 22.7383 7.282 22.4183 7.282 22.0237C7.282 21.7964 7.17548 21.5943 7.01001 21.4634C6.59138 21.6211 6.20436 21.8427 5.85938 22.1152C5.90442 22.4666 6.20387 22.7383 6.56743 22.7383Z" fill="#F45700"/>
<path d="M20.5271 25.1113C20.9217 25.1113 21.2417 24.7914 21.2417 24.3967C21.2417 24.0021 20.9217 23.6821 20.5271 23.6821C20.1324 23.6821 19.8125 24.0021 19.8125 24.3967C19.8125 24.7914 20.1324 25.1113 20.5271 25.1113Z" fill="#FA690F"/>
<path d="M17.4372 25.1113C17.8319 25.1113 18.1518 24.7914 18.1518 24.3967C18.1518 24.0021 17.8319 23.6821 17.4372 23.6821C17.0426 23.6821 16.7227 24.0021 16.7227 24.3967C16.7227 24.7914 17.0426 25.1113 17.4372 25.1113Z" fill="#FA690F"/>
<path d="M11.2575 25.1113C11.6522 25.1113 11.9721 24.7914 11.9721 24.3967C11.9721 24.0021 11.6522 23.6821 11.2575 23.6821C10.8629 23.6821 10.543 24.0021 10.543 24.3967C10.543 24.7914 10.8629 25.1113 11.2575 25.1113Z" fill="#FA690F"/>
<path d="M8.1677 25.1113C8.56235 25.1113 8.88228 24.7914 8.88228 24.3967C8.88228 24.0021 8.56235 23.6821 8.1677 23.6821C7.77305 23.6821 7.45312 24.0021 7.45312 24.3967C7.45312 24.7914 7.77305 25.1113 8.1677 25.1113Z" fill="#F45700"/>
</g>
<defs>
<clipPath id="clip0_474_32623">
<rect width="28" height="28" fill="white"/>
</clipPath>
</defs>
</svg>
