<svg width="28" height="28" viewBox="0 0 28 28" fill="none" xmlns="http://www.w3.org/2000/svg">
<g clip-path="url(#clip0_474_31731)">
<path d="M14 0.0546875C8.62293 0.0546875 5.31066 3.08767 5.30151 3.09277C5.30151 3.09277 5.16381 3.26466 5.13806 3.37891C4.92885 4.30756 4.7334 5.55222 4.7334 6.46044C4.7334 14.1773 11.241 20.4315 18.9578 20.4315C21.9294 20.4315 25.2355 19.0073 27.4482 17.2949C27.4977 17.2566 27.6547 16.9992 27.6547 16.9992C27.6645 16.9397 27.9725 15.7128 27.9725 14.0272C27.9726 6.31041 21.7169 0.0546875 14 0.0546875Z" fill="#52BA41"/>
<path d="M18.9566 20.0371C11.2397 20.0371 4.984 13.7814 4.984 6.0645C4.984 5.0445 5.09397 4.05064 5.30154 3.09277C2.08811 5.65277 0.0273438 9.59946 0.0273438 14.0273C0.0273438 17.3929 1.21726 20.4806 3.1994 22.8926L24.8001 22.8934C26.1779 21.2176 27.1756 19.211 27.6547 16.9993C25.2679 18.9004 22.2452 20.0371 18.9566 20.0371Z" fill="#4C9540"/>
<path d="M19.5571 13.0022L19.3779 11.5772L19.5571 9.6416C20.2892 9.6416 20.9923 10.2351 20.9923 10.9672V11.6766C20.9923 12.4087 20.2892 13.0022 19.5571 13.0022Z" fill="#FF965A"/>
<path d="M19.6152 11.9998L19.543 11.4247L19.6152 10.6436C19.9107 10.6436 20.1945 10.8831 20.1945 11.1786V11.4648C20.1945 11.7603 19.9107 11.9998 19.6152 11.9998Z" fill="#EF6A30"/>
<path d="M8.3991 12.7044L8.57822 11.2793L8.3991 9.34375C7.66699 9.34375 6.96387 9.93728 6.96387 10.6694V11.3788C6.96387 12.1108 7.66699 12.7044 8.3991 12.7044Z" fill="#FF965A"/>
<path d="M8.34095 11.702L8.41323 11.1269L8.34095 10.3457C8.0455 10.3457 7.76172 10.5852 7.76172 10.8807V11.167C7.76177 11.4625 8.0455 11.702 8.34095 11.702Z" fill="#EF6A30"/>
<path d="M21.8474 20.5014L13.9832 18.7612L9.95703 19.6549V27.4047C10.9466 27.7035 11.9821 27.8964 13.051 27.9681L13.8411 27.5525L14.8057 27.9768C18.8072 27.7483 22.3862 25.828 24.7997 22.8928C24.2594 21.7061 23.186 20.7977 21.8474 20.5014Z" fill="#39AE96"/>
<path d="M3.19922 22.8923C4.94262 25.0138 7.299 26.6118 9.99741 27.4172V24.6508C9.99741 22.6575 11.3821 20.9318 13.328 20.4998L17.5773 19.5567L13.9826 18.7612L6.14947 20.4998C4.81155 20.7968 3.73884 21.7056 3.19922 22.8923Z" fill="#1C9585"/>
<path d="M14.0148 24.6705C16.1183 24.6705 17.8235 22.9653 17.8235 20.8618V19.6111L13.9829 18.7612L10.2061 19.5995V20.8619C10.2061 22.9653 11.9113 24.6705 14.0148 24.6705Z" fill="#1C9585"/>
<path d="M12.0301 19.146H9.20357C8.94461 19.146 8.77864 19.4215 8.89974 19.6504L10.4579 22.5967C10.7006 23.0555 11.228 23.2857 11.7293 23.1515L14.0683 22.5258L12.0301 19.146Z" fill="white"/>
<path d="M15.9864 19.146H18.813C19.0719 19.146 19.2379 19.4215 19.1168 19.6504L17.5586 22.5967C17.316 23.0555 16.7885 23.2857 16.2872 23.1515L13.9482 22.5258L15.9864 19.146Z" fill="white"/>
<path d="M12.0215 20.5343C12.0215 21.6342 12.9131 22.5258 14.0129 22.5258C15.1128 22.5258 16.0044 21.6342 16.0044 20.5343V16.0737L12.0215 20.5343Z" fill="#FF965A"/>
<path d="M19.4159 9.08622C19.4159 7.2688 18.25 5.60693 16.4327 5.60693H11.5944C11.0758 5.60693 10.6009 5.74266 10.1865 5.97828V15.5842C10.1865 17.6809 11.8729 19.3967 13.9694 19.4126C13.9841 19.4127 13.9989 19.4127 14.0135 19.4127C17.1361 19.4127 19.6674 16.8814 19.6674 13.7589V11.9739L19.4159 9.08622Z" fill="#FFBE82"/>
<path d="M12.0215 16.0737V20.5343C14.2359 20.9644 15.5806 20.2273 16.0044 19.1186V16.0737H12.0215Z" fill="#EF6A30"/>
<path d="M19.4159 9.08622C19.4159 7.2688 18.25 5.60693 16.4327 5.60693H11.5944C11.0758 5.60693 10.6009 5.74266 10.1865 5.97828V15.5842C10.1865 17.6809 11.8729 19.3967 13.9694 19.4126C13.9841 19.4127 13.9989 19.4127 14.0135 19.4127C17.1361 19.4127 19.6674 16.8814 19.6674 13.7589V11.9739L19.4159 9.08622Z" fill="#FFBE82"/>
<path d="M11.5703 11.646V12.0447C11.5703 12.3047 11.7812 12.5156 12.0412 12.5156C12.3013 12.5156 12.5121 12.3047 12.5121 12.0447V11.646H11.5703Z" fill="#FF965A"/>
<path d="M15.4072 11.646V12.0447C15.4072 12.3047 15.6181 12.5156 15.8781 12.5156C16.1382 12.5156 16.349 12.3047 16.349 12.0447V11.646H15.4072Z" fill="#FF965A"/>
<path d="M12.0412 12.1384C11.7812 12.1384 11.5703 11.9275 11.5703 11.6675V11.0617L11.7439 10.7989L11.5703 10.536V10.3796C11.5703 10.1195 11.7812 9.90869 12.0412 9.90869C12.3013 9.90869 12.5121 10.1195 12.5121 10.3796V11.6675C12.5121 11.9275 12.3013 12.1384 12.0412 12.1384Z" fill="#373C41"/>
<path d="M15.8781 12.1384C15.6181 12.1384 15.4072 11.9275 15.4072 11.6675V11.0617L15.5808 10.7989L15.4072 10.536V10.3796C15.4072 10.1195 15.6181 9.90869 15.8781 9.90869C16.1382 9.90869 16.349 10.1195 16.349 10.3796V11.6675C16.349 11.9275 16.1382 12.1384 15.8781 12.1384Z" fill="#373C41"/>
<path d="M18.7489 7.11932C18.8029 7.11937 18.8563 7.11674 18.9093 7.1128C18.4017 6.22222 17.5381 5.60693 16.4327 5.60693H11.5944C11.0758 5.60693 10.6009 5.74266 10.1865 5.97828V6.0986C9.12278 6.59493 8.42831 7.65756 8.42831 8.96162L8.30371 11.9739V13.7029C8.30371 16.9662 11.038 19.5783 14.32 19.4045C11.9429 18.7142 10.2054 16.5205 10.2054 13.9208C10.2195 13.5995 10.2054 10.4866 10.2054 9.30414C10.2054 9.2957 10.2055 9.28732 10.2055 9.27888C10.2146 8.07625 11.2055 7.11181 12.4081 7.11302L18.7489 7.11932Z" fill="#FF965A"/>
<path d="M12.6615 9.67325H11.2883C11.0282 9.67325 10.8174 9.4624 10.8174 9.20235C10.8174 8.9423 11.0282 8.73145 11.2883 8.73145H12.6615C12.9216 8.73145 13.1325 8.9423 13.1325 9.20235C13.1325 9.4624 12.9216 9.67325 12.6615 9.67325Z" fill="#B22E06"/>
<path d="M16.5854 9.67325H15.2121C14.9521 9.67325 14.7412 9.4624 14.7412 9.20235C14.7412 8.9423 14.9521 8.73145 15.2121 8.73145H16.5854C16.8454 8.73145 17.0563 8.9423 17.0563 9.20235C17.0563 9.4624 16.8454 9.67325 16.5854 9.67325Z" fill="#B22E06"/>
<path d="M15.7467 14.7437H15.2618L13.9848 15.0087L12.7078 14.7437H12.2789C12.135 14.7437 12.02 14.8692 12.0392 15.0119C12.0759 15.2847 12.1679 15.54 12.3035 15.7662L14.8892 16.5324C15.4731 16.2458 15.8962 15.6816 15.9863 15.0119C16.0055 14.8692 15.8905 14.7437 15.7467 14.7437Z" fill="#BE1423"/>
<path d="M13.2497 12.8071C13.1327 13.2746 13.3454 13.7838 13.7523 13.9373C13.8341 13.9682 13.9217 13.9849 14.0127 13.9849C14.1038 13.9849 14.1914 13.9682 14.2732 13.9373C14.6801 13.7838 14.8929 13.2746 14.7758 12.8071L14.3877 11.2574C14.29 10.8673 13.7355 10.8673 13.6378 11.2574L13.2497 12.8071Z" fill="#FF965A"/>
<path d="M19.6672 5.94971V9.11639V9.11656V11.9743C19.2489 11.9743 18.9099 11.6352 18.9099 11.2169V7.87305C18.9099 7.13447 18.4942 6.45371 17.83 6.13064C17.8137 6.12269 17.7975 6.11497 17.7812 6.10746V5.94976L19.6672 5.94971Z" fill="#B22E06"/>
<path d="M12.3037 15.766C12.6517 16.3465 13.2868 16.7351 14.0128 16.7351C14.3273 16.7351 14.6246 16.662 14.889 16.5322C14.7753 15.819 14.1577 15.2739 13.4125 15.2739C12.9728 15.2739 12.5774 15.4638 12.3037 15.766Z" fill="#FF3C3C"/>
<path d="M14.9811 15.2739H12.9889C12.8338 15.2739 12.708 15.1481 12.708 14.993V14.7437H15.262V14.993C15.262 15.1481 15.1362 15.2739 14.9811 15.2739Z" fill="white"/>
<path d="M11.5258 1.64489C9.74579 1.64653 8.30371 3.08998 8.30371 4.86993V9.11612V9.11628V11.974C8.72196 11.974 9.06103 11.6349 9.06103 11.2167V7.87278C9.06103 7.86834 9.06103 7.8639 9.06108 7.85952C9.06557 7.19941 9.61467 6.67201 10.2748 6.67267L18.7489 6.681C19.9217 6.68215 20.8731 5.73174 20.8731 4.55892V1.63623L11.5258 1.64489Z" fill="#CD5014"/>
<path d="M12.03 4.86993C12.03 3.08993 13.4721 1.64653 15.2521 1.64489L20.873 1.63968V1.63623L11.5258 1.64489C9.74579 1.64653 8.30371 3.08998 8.30371 4.86993V9.11612V9.11628V11.974C8.72196 11.974 9.06103 11.6349 9.06103 11.2167V7.87278C9.06103 7.86834 9.06103 7.8639 9.06108 7.85952C9.06557 7.19941 9.61467 6.67201 10.2748 6.67267L12.03 6.67437V4.86993Z" fill="#B22E06"/>
<path d="M9.05566 10.8823C9.05566 11.3433 9.20049 11.7704 9.44706 12.1206L9.99895 12.6639C10.2152 12.8111 10.4596 12.9199 10.7223 12.9806L11.3487 13.0314C12.4731 12.9595 13.3627 12.0248 13.3627 10.8823H9.05566Z" fill="#0540E5"/>
<path d="M10.6852 10.8823L9.44727 12.1203C9.59691 12.3329 9.7837 12.5174 9.99877 12.6637L11.7802 10.8823H10.6852Z" fill="#2896FF"/>
<path d="M13.363 10.8823H12.8203L10.7227 12.98C10.8791 13.0161 11.0419 13.0359 11.2094 13.0359C11.2563 13.0359 11.3027 13.0339 11.3489 13.0309L13.358 11.0218C13.361 10.9756 13.363 10.9292 13.363 10.8823Z" fill="#2896FF"/>
<path d="M14.6465 10.8823C14.6465 11.3433 14.7913 11.7704 15.0379 12.1206L15.5746 12.6535C15.7945 12.8059 16.0442 12.9185 16.3132 12.9806L16.9396 13.0314C18.064 12.9595 18.9536 12.0248 18.9536 10.8823H14.6465Z" fill="#0540E5"/>
<path d="M16.277 10.8823L15.0391 12.1203C15.1887 12.3329 15.3755 12.5174 15.5906 12.6637L17.372 10.8823H16.277Z" fill="#2896FF"/>
<path d="M18.9538 10.8823H18.4111L16.3135 12.98C16.47 13.0161 16.6328 13.0359 16.8002 13.0359C16.8471 13.0359 16.8935 13.0339 16.9397 13.0309L18.9488 11.0218C18.9518 10.9756 18.9538 10.9292 18.9538 10.8823Z" fill="#2896FF"/>
<path d="M19.1289 10.9261H14.7543C14.6333 10.9261 14.5351 10.8279 14.5351 10.7069C14.5351 10.4294 14.3093 10.2035 14.0317 10.2035C13.7541 10.2035 13.5283 10.4293 13.5283 10.7069C13.5283 10.8279 13.4301 10.9261 13.3091 10.9261H8.79535C8.67431 10.9261 8.57617 10.8279 8.57617 10.7069C8.57617 10.5858 8.67431 10.4877 8.79535 10.4877H13.1157C13.2148 10.0738 13.5879 9.76514 14.0317 9.76514C14.4756 9.76514 14.8487 10.0738 14.9478 10.4877H19.1289C19.25 10.4877 19.3481 10.5858 19.3481 10.7069C19.3481 10.8279 19.2499 10.9261 19.1289 10.9261Z" fill="#1E2D64"/>
<path d="M13.0508 27.9674C13.3645 27.9885 13.6808 28.0002 13.9998 28.0002C14.2834 28.0002 14.5651 27.991 14.8449 27.9743V22.5259H13.0508V27.9674Z" fill="white"/>
<path d="M13.9479 26.0682C14.198 26.0682 14.4008 25.8655 14.4008 25.6154C14.4008 25.3653 14.198 25.1626 13.9479 25.1626C13.6979 25.1626 13.4951 25.3653 13.4951 25.6154C13.4951 25.8655 13.6979 26.0682 13.9479 26.0682Z" fill="#55C7A6"/>
<path d="M19.2754 5.32321C19.5063 5.95159 19.6333 6.62973 19.6333 7.33718V8.64962H21.1127V7.33718C21.1127 6.63905 21.0146 5.96337 20.8316 5.32321L20.68 4.77148L19.2754 5.32321Z" fill="#373C41"/>
<path d="M14.9269 0.0832329C14.5662 0.0284932 14.197 0 13.8213 0C9.77572 0 6.48438 3.29134 6.48438 7.33699V8.64943H7.96383V7.33699C7.96383 4.10712 10.5915 1.47945 13.8214 1.47945C14.1992 1.47945 14.5688 1.51589 14.9269 1.58455V0.0832329Z" fill="#373C41"/>
<path d="M6.06445 7.61035H8.38412V9.77435H6.06445V7.61035Z" fill="#232628"/>
<path d="M19.6426 7.61035H21.9622V9.77435H19.6426V7.61035Z" fill="#232628"/>
<path d="M19.6973 12.4822V9.12158C20.4294 9.12158 21.0229 9.71512 21.0229 10.4472V11.1566C21.0229 11.8887 20.4294 12.4822 19.6973 12.4822Z" fill="#FF965A"/>
<path d="M19.6973 11.3549V10.249C19.9382 10.249 20.1335 10.4443 20.1335 10.6852V10.9187C20.1335 11.1597 19.9382 11.3549 19.6973 11.3549Z" fill="#EF6A30"/>
<path d="M7.91797 10.913C7.91797 11.1426 8.10405 11.3287 8.33364 11.3287V10.2749C8.10405 10.2749 7.91797 10.461 7.91797 10.6906V10.913Z" fill="#EF6A30"/>
<path d="M5.54191 11.6637V9.85645H4.84015C4.5498 9.85645 4.31445 10.0918 4.31445 10.3821V11.6636L5.54191 11.6637Z" fill="#DC1428"/>
<path d="M5.54191 12.9891H4.84015C4.5498 12.9891 4.31445 12.7537 4.31445 12.4634V11.6455H5.54191V12.9891Z" fill="#BE1423"/>
<path d="M5.61914 13.4385H4.80835V9.40664H5.61914V13.4385Z" fill="#373C41"/>
<path d="M5.44531 9.40674H7.02504V11.7461H5.44531V9.40674Z" fill="#DC1428"/>
<path d="M5.44531 11.7095H7.02504V13.4387H5.44531V11.7095Z" fill="#BE1423"/>
<path d="M7.43919 12.3152V8.90479H6.60566C6.30675 8.90479 6.06445 9.14709 6.06445 9.44599V12.3152H7.43919Z" fill="#FF3C3C"/>
<path d="M7.43919 13.941H6.60566C6.30675 13.941 6.06445 13.6987 6.06445 13.3997V12.2778H7.43919V13.941Z" fill="#DC1428"/>
<path d="M8.38445 12.3841V8.90941C8.38445 8.49199 8.06368 8.13281 7.6467 8.11319C7.20149 8.0922 6.83398 8.44694 6.83398 8.88755V12.3841C6.83398 12.7924 7.16494 13.1234 7.57322 13.1234H7.64522C8.05349 13.1233 8.38445 12.7924 8.38445 12.3841Z" fill="#373C41"/>
<path d="M7.60922 13.0775C7.18105 13.0775 6.83398 12.7304 6.83398 12.3022V13.9719C6.83398 14.4 7.18105 14.7471 7.60922 14.7471C8.03738 14.7471 8.38445 14.4001 8.38445 13.9719V12.3022C8.38445 12.7304 8.03733 13.0775 7.60922 13.0775Z" fill="#232628"/>
<path d="M23.7128 11.6633V10.3821C23.7128 10.0918 23.4774 9.85645 23.1871 9.85645H22.4854V11.6633H23.7128V11.6633Z" fill="#DC1428"/>
<path d="M22.4844 12.9891H23.1861C23.4765 12.9891 23.7118 12.7537 23.7118 12.4634V11.6455H22.4844V12.9891Z" fill="#BE1423"/>
<path d="M22.4072 9.40674H23.218V13.4386H22.4072V9.40674Z" fill="#373C41"/>
<path d="M22.582 11.7368H21.0023V9.40652H22.582V11.7368Z" fill="#DC1428"/>
<path d="M22.582 13.4385H21.0023V11.7093H22.582V13.4385Z" fill="#BE1423"/>
<path d="M21.9626 12.3058V9.44599C21.9626 9.14709 21.7203 8.90479 21.4214 8.90479H20.5879V12.3058H21.9626Z" fill="#FF3C3C"/>
<path d="M20.5879 13.941H21.4214C21.7203 13.941 21.9626 13.6987 21.9626 13.3997V12.2778H20.5879V13.941Z" fill="#DC1428"/>
<path d="M20.4178 13.12C20.846 13.12 21.193 12.773 21.193 12.3448V8.88754C21.193 8.45937 20.846 8.1123 20.4178 8.1123C19.9896 8.1123 19.6426 8.45937 19.6426 8.88754V12.3448C19.6426 12.773 19.9896 13.12 20.4178 13.12Z" fill="#373C41"/>
<path d="M20.4178 13.0775C20.846 13.0775 21.193 12.7304 21.193 12.3022V13.9719C21.193 14.4 20.846 14.7471 20.4178 14.7471C19.9896 14.7471 19.6426 14.4001 19.6426 13.9719V12.3022C19.6426 12.7304 19.9896 13.0775 20.4178 13.0775Z" fill="#232628"/>
<path d="M7.96383 7.61018H6.48438V7.33703C6.48438 5.71045 7.00574 4.16963 7.99205 2.88108C8.94651 1.63418 10.2995 0.710999 11.8018 0.281738L12.2083 1.70426C9.70925 2.4184 7.96383 4.73467 7.96383 7.33708V7.61018Z" fill="#373C41"/>
<path d="M16.5684 0.532721C16.0449 0.321214 15.4929 0.16757 14.9199 0.081543L14.7002 1.54456C15.3644 1.64434 15.9939 1.85694 16.5684 2.1622V0.532721Z" fill="#50555A"/>
<path d="M18.4597 3.75971C17.8184 2.92946 16.9671 2.28546 15.998 1.89724L16.5482 0.523926C17.762 1.01017 18.8279 1.81631 19.6305 2.85521L18.4597 3.75971Z" fill="#696E73"/>
<path d="M14.7344 1.64193V6.677L18.7482 6.68094C19.9211 6.68209 20.8724 5.73168 20.8724 4.55886V1.63623L14.7344 1.64193Z" fill="#CD5014"/>
</g>
<defs>
<clipPath id="clip0_474_31731">
<rect width="28" height="28" fill="white"/>
</clipPath>
</defs>
</svg>
