<svg width="28" height="28" viewBox="0 0 28 28" fill="none" xmlns="http://www.w3.org/2000/svg">
<g clip-path="url(#clip0_474_32167)">
<path d="M14.0004 1.75586C8.95062 1.75586 5.83993 4.60424 5.83139 4.60901C5.83139 4.60901 5.70207 4.77043 5.67791 4.87772C5.48141 5.74989 5.29785 6.91876 5.29785 7.7717C5.29785 15.0188 11.4093 20.8924 18.6564 20.8924C21.4471 20.8924 24.552 19.5548 26.63 17.9467C26.6765 17.9107 26.824 17.669 26.824 17.669C26.8331 17.613 27.1225 16.4608 27.1225 14.8779C27.1225 7.63082 21.2475 1.75586 14.0004 1.75586Z" fill="#52BA41"/>
<path d="M18.655 20.5219C11.4078 20.5219 5.53289 14.6469 5.53289 7.39974C5.53289 6.44182 5.63618 5.5085 5.83108 4.60889C2.81322 7.01311 0.87793 10.7196 0.87793 14.8779C0.87793 18.2263 2.13212 21.2819 4.19634 23.6003L23.8034 23.6008C25.273 21.9512 26.3352 19.9236 26.8236 17.669C24.5821 19.4543 21.7434 20.5219 18.655 20.5219Z" fill="#4C9540"/>
<path d="M20.0605 14.0723H20.7729V15.5913H20.0605V14.0723Z" fill="#373C41"/>
<path d="M19.558 12.742L19.3789 11.3169L19.558 9.38135C20.2901 9.38135 20.9933 9.97488 20.9933 10.707V11.4164C20.9933 12.1484 20.2901 12.742 19.558 12.742Z" fill="#FF965A"/>
<path d="M19.6152 11.7396L19.543 11.1645L19.6152 10.3833C19.9107 10.3833 20.1945 10.6228 20.1945 10.9183V11.2046C20.1945 11.5001 19.9107 11.7396 19.6152 11.7396Z" fill="#EF6A30"/>
<path d="M8.3991 12.4441L8.57822 11.0191L8.3991 9.0835C7.66699 9.0835 6.96387 9.67703 6.96387 10.4091V11.1185C6.96387 11.8506 7.66699 12.4441 8.3991 12.4441Z" fill="#FF965A"/>
<path d="M8.34095 11.4417L8.41323 10.8666L8.34095 10.0854C8.0455 10.0854 7.76172 10.325 7.76172 10.6205V10.9067C7.76172 11.2022 8.0455 11.4417 8.34095 11.4417Z" fill="#EF6A30"/>
<path d="M20.8819 20.0275L13.9857 18.5015C11.948 18.9537 10.498 20.7608 10.498 22.848V27.5271C11.613 27.8353 12.7874 28.0001 14.0005 28.0001C16.2557 28.0001 18.3882 27.4279 20.2528 26.4155L20.4171 26.0514L20.5817 26.2308C21.7896 25.5293 22.8774 24.6399 23.8034 23.6005C23.7725 21.8805 22.5674 20.4005 20.8819 20.0275Z" fill="#50555A"/>
<path d="M4.19727 23.5998C5.86505 25.473 8.06132 26.8647 10.5524 27.5414V23.666C10.5524 21.9181 11.7666 20.4048 13.473 20.026L17.1685 19.2058L13.9854 18.5015L7.1165 20.0261C5.43173 20.4 4.22757 21.8801 4.19727 23.5998Z" fill="#373C41"/>
<path d="M14.0138 23.6834C15.8584 23.6834 17.3537 22.1881 17.3537 20.3435V19.2468L13.9858 18.5015L10.6738 19.2366V20.3435C10.6738 22.1881 12.1692 23.6834 14.0138 23.6834Z" fill="#373C41"/>
<path d="M14.0139 22.2655C12.914 22.2655 12.0225 21.3739 12.0225 20.2741L16.0054 15.8135V20.2741C16.0054 21.3739 15.1137 22.2655 14.0139 22.2655Z" fill="#FF965A"/>
<path d="M19.4159 8.82646C19.4159 7.00903 18.25 5.34717 16.4327 5.34717H11.5944C11.0758 5.34717 10.6009 5.48289 10.1865 5.71851V15.3245C10.1865 17.4211 11.8729 19.1369 13.9694 19.1528C13.9841 19.1529 13.9989 19.153 14.0135 19.153C17.1361 19.153 19.6674 16.6216 19.6674 13.4991V11.7142L19.4159 8.82646Z" fill="#FFBE82"/>
<path d="M12.0215 15.8135V20.2741C14.2359 20.7042 15.5806 19.9671 16.0044 18.8584V15.8135H12.0215Z" fill="#EF6A30"/>
<path d="M19.4159 8.82646C19.4159 7.00903 18.25 5.34717 16.4327 5.34717H11.5944C11.0758 5.34717 10.6009 5.48289 10.1865 5.71851V15.3245C10.1865 17.4211 11.8729 19.1369 13.9694 19.1528C13.9841 19.1529 13.9989 19.153 14.0135 19.153C17.1361 19.153 19.6674 16.6216 19.6674 13.4991V11.7142L19.4159 8.82646Z" fill="#FFBE82"/>
<path d="M11.5703 11.3862V11.7849C11.5703 12.045 11.7812 12.2558 12.0412 12.2558C12.3013 12.2558 12.5121 12.045 12.5121 11.7849V11.3862H11.5703Z" fill="#FF965A"/>
<path d="M15.4072 11.3862V11.7849C15.4072 12.045 15.6181 12.2558 15.8781 12.2558C16.1382 12.2558 16.349 12.045 16.349 11.7849V11.3862H15.4072Z" fill="#FF965A"/>
<path d="M12.0412 11.8786C11.7812 11.8786 11.5703 11.6678 11.5703 11.4077V10.802L11.7439 10.5391L11.5703 10.2763V10.1198C11.5703 9.85977 11.7812 9.64893 12.0412 9.64893C12.3013 9.64893 12.5121 9.85977 12.5121 10.1198V11.4077C12.5121 11.6678 12.3013 11.8786 12.0412 11.8786Z" fill="#373C41"/>
<path d="M15.8781 11.8786C15.6181 11.8786 15.4072 11.6678 15.4072 11.4077V10.802L15.5808 10.5391L15.4072 10.2763V10.1198C15.4072 9.85977 15.6181 9.64893 15.8781 9.64893C16.1382 9.64893 16.349 9.85977 16.349 10.1198V11.4077C16.349 11.6678 16.1382 11.8786 15.8781 11.8786Z" fill="#373C41"/>
<path d="M18.7489 6.85955C18.8029 6.85961 18.8563 6.85698 18.9093 6.85303C18.4017 5.96246 17.5381 5.34717 16.4327 5.34717H11.5944C11.0758 5.34717 10.6009 5.48289 10.1865 5.71851V5.83884C9.12278 6.33517 8.42831 7.3978 8.42831 8.70185L8.30371 11.7141V13.4431C8.30371 16.7065 11.038 19.3186 14.32 19.1447C11.9429 18.4544 10.2054 16.2608 10.2054 13.661C10.2195 13.3398 10.2054 10.2268 10.2054 9.04437C10.2054 9.03594 10.2055 9.02755 10.2055 9.01911C10.2146 7.81648 11.2055 6.85204 12.4081 6.85325L18.7489 6.85955Z" fill="#FF965A"/>
<path d="M12.6615 9.41349H11.2883C11.0282 9.41349 10.8174 9.20264 10.8174 8.94258C10.8174 8.68253 11.0282 8.47168 11.2883 8.47168H12.6615C12.9216 8.47168 13.1325 8.68253 13.1325 8.94258C13.1325 9.20264 12.9216 9.41349 12.6615 9.41349Z" fill="#783C28"/>
<path d="M16.5864 9.41349H15.2131C14.953 9.41349 14.7422 9.20264 14.7422 8.94258C14.7422 8.68253 14.953 8.47168 15.2131 8.47168H16.5864C16.8464 8.47168 17.0573 8.68253 17.0573 8.94258C17.0573 9.20264 16.8464 9.41349 16.5864 9.41349Z" fill="#783C28"/>
<path d="M19.3718 8.22059C19.1445 6.65599 18.0456 5.34717 16.4329 5.34717H11.5947C11.1634 5.34717 10.7625 5.4413 10.4014 5.60837C11.1648 7.15572 12.7576 8.22054 14.5997 8.22054L19.3718 8.22059Z" fill="#FF965A"/>
<path d="M13.2507 12.5469C13.1337 13.0143 13.3464 13.5235 13.7532 13.677C13.8351 13.7079 13.9227 13.7246 14.0137 13.7246C14.1047 13.7246 14.1924 13.7079 14.2742 13.677C14.6811 13.5235 14.8938 13.0143 14.7767 12.5469L14.3887 10.9972C14.291 10.6071 13.7365 10.6071 13.6388 10.9972L13.2507 12.5469Z" fill="#FF965A"/>
<path d="M19.6672 5.68945V8.85614V8.8563V11.714C19.2489 11.714 18.9099 11.3749 18.9099 10.9567V7.6128C18.9099 6.87422 18.4942 6.19345 17.83 5.87038C17.8137 5.86244 17.7975 5.85471 17.7812 5.84721V5.68951L19.6672 5.68945Z" fill="#6D3222"/>
<path d="M11.7439 10.9754C11.648 10.9754 11.5703 10.8977 11.5703 10.8018V10.2761C11.5703 10.1802 11.648 10.1025 11.7439 10.1025C11.8398 10.1025 11.9175 10.1802 11.9175 10.2761V10.8018C11.9175 10.8977 11.8397 10.9754 11.7439 10.9754Z" fill="white"/>
<path d="M15.5808 10.9754C15.4849 10.9754 15.4072 10.8977 15.4072 10.8018V10.2761C15.4072 10.1802 15.4849 10.1025 15.5808 10.1025C15.6767 10.1025 15.7544 10.1802 15.7544 10.2761V10.8018C15.7544 10.8977 15.6767 10.9754 15.5808 10.9754Z" fill="white"/>
<path d="M8.30371 6.46484V8.85613V8.8563V11.714C8.72196 11.714 9.06103 11.3749 9.06103 10.9567V7.61279C9.06103 7.60835 9.06103 7.60391 9.06108 7.59953C9.06475 7.06249 9.42881 6.61339 9.91988 6.4649L8.30371 6.46484Z" fill="#6D3222"/>
<path d="M8.30371 6.59717V8.85618C9.62886 8.85618 10.7239 7.8735 10.9014 6.59717H8.30371Z" fill="#6D3222"/>
<path d="M11.5518 6.59703C12.3706 7.30098 13.4349 7.72711 14.5994 7.72711L19.4582 7.72662C19.7338 7.72657 19.9572 7.50317 19.9572 7.22761L13.7861 3.34717L11.5518 6.59703Z" fill="#783C28"/>
<path d="M11.1771 14.2153C11.8715 14.2153 12.4343 13.8264 12.4343 13.3467C12.4343 12.8669 11.8715 12.478 11.1771 12.478C10.4828 12.478 9.91992 12.8669 9.91992 13.3467C9.91992 13.8264 10.4828 14.2153 11.1771 14.2153Z" fill="#FF965A"/>
<path d="M17.057 14.2153C17.7513 14.2153 18.3142 13.8264 18.3142 13.3467C18.3142 12.8669 17.7513 12.478 17.057 12.478C16.3627 12.478 15.7998 12.8669 15.7998 13.3467C15.7998 13.8264 16.3627 14.2153 17.057 14.2153Z" fill="#FF965A"/>
<path d="M14.0127 16.2299C13.4813 16.2299 12.9497 15.9943 12.4326 15.5231L12.8017 15.1182C13.6281 15.8712 14.3973 15.8714 15.2223 15.1183L15.5917 15.523C15.0755 15.9942 14.5441 16.2299 14.0127 16.2299Z" fill="#FF965A"/>
<path d="M13.6064 16.8369H14.4324V17.2205H13.6064V16.8369Z" fill="#FF965A"/>
<path d="M13.9998 0.560547C10.7099 0.560547 8.04297 3.22756 8.04297 6.51742V7.22794H19.9568V6.51748C19.9567 3.22756 17.2898 0.560547 13.9998 0.560547ZM15.2185 6.06668H12.7063V5.89397C12.7063 5.09419 13.2687 4.44581 13.9624 4.44581C14.6562 4.44581 15.2185 5.09419 15.2185 5.89397V6.06668Z" fill="#50555A"/>
<path d="M13.9938 6.06652H12.7063V5.89381C12.7063 5.09403 13.2687 4.44564 13.9624 4.44564C13.9729 4.44564 13.9834 4.44625 13.9938 4.44657V0.560547C10.7067 0.563725 8.04297 3.22942 8.04297 6.51731V7.22783H13.9938V6.06652Z" fill="#373C41"/>
<path d="M13.9999 0.560547C12.2763 0.560547 10.8789 3.22756 10.8789 6.51742V7.22794H17.1209V6.51748C17.121 3.22756 15.7236 0.560547 13.9999 0.560547Z" fill="#696E73"/>
<path d="M18.1243 10.2614C15.2706 9.4301 12.5248 9.46139 9.87426 10.2542C9.46012 10.3781 9.02275 10.148 8.88522 9.73816L8.04297 7.22769C12.0116 5.67827 15.9828 5.68035 19.9568 7.22769L19.1122 9.74523C18.9749 10.1546 18.5389 10.3822 18.1243 10.2614Z" fill="#82878C"/>
<path d="M14.0729 1.04964C14.5447 1.04964 14.9271 0.814673 14.9271 0.524822C14.9271 0.234971 14.5447 0 14.0729 0C13.6012 0 13.2188 0.234971 13.2188 0.524822C13.2188 0.814673 13.6012 1.04964 14.0729 1.04964Z" fill="#373C41"/>
<path d="M6.56055 10.8052C6.56055 11.775 7.34679 12.5613 8.31666 12.5613V8.10938C7.34679 8.10938 6.56055 8.89562 6.56055 9.86549V10.8052Z" fill="#FF965A"/>
<path d="M5.54093 11.4309V9.48828H4.83918C4.54882 9.48828 4.31348 9.72368 4.31348 10.014V11.4309H5.54093Z" fill="#39AE96"/>
<path d="M5.54093 12.621H4.83918C4.54882 12.621 4.31348 12.3856 4.31348 12.0953V11.2773H5.54093V12.621Z" fill="#1C9585"/>
<path d="M5.61816 13.0703H4.80737V9.03848H5.61816V13.0703Z" fill="white"/>
<path d="M5.44434 9.03857H7.02406V11.4307H5.44434V9.03857Z" fill="#39AE96"/>
<path d="M5.44434 11.3413H7.02406V13.0705H5.44434V11.3413Z" fill="#1C9585"/>
<path d="M7.43822 11.9859V8.53662H6.60468C6.30578 8.53662 6.06348 8.77892 6.06348 9.07783V11.9859H7.43822Z" fill="#55C7A6"/>
<path d="M7.43822 13.5728H6.60468C6.30578 13.5728 6.06348 13.3305 6.06348 13.0316V11.9097H7.43822V13.5728Z" fill="#39AE96"/>
<path d="M8.38347 11.9827V8.51937C8.38347 8.09121 8.03641 7.74414 7.60824 7.74414C7.18008 7.74414 6.83301 8.09121 6.83301 8.51937V11.9827C6.83301 12.4109 7.18008 12.7579 7.60824 12.7579C8.03641 12.7579 8.38347 12.4109 8.38347 11.9827Z" fill="#373C41"/>
<path d="M7.60824 12.7093C7.18008 12.7093 6.83301 12.3622 6.83301 11.9341V13.6037C6.83301 14.0318 7.18008 14.379 7.60824 14.379C8.03641 14.379 8.38347 14.0319 8.38347 13.6037V11.9341C8.38347 12.3622 8.03641 12.7093 7.60824 12.7093Z" fill="#232628"/>
<path d="M19.709 12.5613V8.10938C20.6788 8.10938 21.4651 8.89562 21.4651 9.86549V10.8052C21.4651 11.775 20.6788 12.5613 19.709 12.5613Z" fill="#FF965A"/>
<path d="M23.7118 11.4309V10.014C23.7118 9.72362 23.4764 9.48828 23.1861 9.48828H22.4844V11.4309H23.7118Z" fill="#39AE96"/>
<path d="M22.4844 12.621H23.1861C23.4765 12.621 23.7118 12.3856 23.7118 12.0953V11.2773H22.4844V12.621Z" fill="#1C9585"/>
<path d="M22.4062 9.03857H23.217V13.0704H22.4062V9.03857Z" fill="white"/>
<path d="M21.001 9.03857H22.5807V11.4307H21.001V9.03857Z" fill="#39AE96"/>
<path d="M22.5811 13.0703H21.0013V11.3411H22.5811V13.0703Z" fill="#1C9585"/>
<path d="M21.9617 11.9859V9.07783C21.9617 8.77892 21.7194 8.53662 21.4204 8.53662H20.5869V11.9859H21.9617Z" fill="#55C7A6"/>
<path d="M20.5869 13.5728H21.4204C21.7194 13.5728 21.9617 13.3305 21.9617 13.0316V11.9097H20.5869V13.5728Z" fill="#39AE96"/>
<path d="M21.1921 12.0309V8.54124C21.1921 8.12382 20.8713 7.76464 20.4543 7.74503C20.0091 7.72404 19.6416 8.07878 19.6416 8.51938V12.031C19.6416 12.4592 19.9887 12.8062 20.4168 12.8062C20.845 12.8062 21.1921 12.4591 21.1921 12.0309Z" fill="#373C41"/>
<path d="M20.4168 12.7093C20.845 12.7093 21.1921 12.3622 21.1921 11.9341V13.6037C21.1921 14.0318 20.845 14.379 20.4168 14.379C19.9887 14.379 19.6416 14.0319 19.6416 13.6037V11.9341C19.6416 12.3622 19.9887 12.7093 20.4168 12.7093Z" fill="#232628"/>
<path d="M20.5817 26.2306V15.5913H20.2529V26.4156C20.3635 26.3556 20.473 26.2937 20.5817 26.2306Z" fill="white"/>
</g>
<defs>
<clipPath id="clip0_474_32167">
<rect width="28" height="28" fill="white"/>
</clipPath>
</defs>
</svg>
