<svg width="22" height="22" viewBox="0 0 22 22" fill="none" xmlns="http://www.w3.org/2000/svg">
<path d="M19.8643 6.37095C19.2776 4.38178 17.6185 2.72262 15.6293 2.13595C14.1168 1.69595 13.0718 1.73262 12.3476 2.27345C11.4768 2.92428 11.376 4.09762 11.376 4.93178V7.21428C11.376 9.46928 12.4026 10.6151 14.4193 10.6151H17.0501C17.8751 10.6151 19.0576 10.5143 19.7085 9.64345C20.2676 8.92845 20.3135 7.88345 19.8643 6.37095Z" fill="#777786"/>
<path d="M17.3344 12.247C17.0961 11.972 16.7478 11.8162 16.3903 11.8162H13.1086C11.4953 11.8162 10.1844 10.5054 10.1844 8.89205V5.61038C10.1844 5.25288 10.0286 4.90455 9.75361 4.66622C9.48777 4.42788 9.12111 4.31788 8.77277 4.36372C6.61861 4.63872 4.63861 5.82121 3.34611 7.59955C2.04444 9.38705 1.56777 11.5687 1.98027 13.7504C2.57611 16.9037 5.09694 19.4245 8.25944 20.0204C8.76361 20.1212 9.26777 20.167 9.77194 20.167C11.4311 20.167 13.0353 19.6537 14.4011 18.6545C16.1794 17.362 17.3619 15.382 17.6369 13.2279C17.6828 12.8704 17.5728 12.5129 17.3344 12.247Z" fill="#777786"/>
</svg>
