<svg width="18" height="18" viewBox="0 0 18 18" fill="none" xmlns="http://www.w3.org/2000/svg">
<g clip-path="url(#clip0_474_23596)">
<path d="M9 0.5625C10.4538 0.5625 11.6367 1.78061 11.6367 3.23438C11.6367 4.68815 10.4538 5.8711 9 5.8711C7.54623 5.8711 6.36327 4.68815 6.36327 3.23438C6.36327 1.78061 7.54623 0.5625 9 0.5625Z" fill="#4C9540"/>
<path d="M5.30856 10.0899C4.14524 10.0899 3.19918 9.14379 3.19918 7.98047C3.19918 6.81716 4.14524 5.87109 5.30856 5.87109C6.47188 5.87109 7.41794 6.81716 7.41794 7.98047C7.41794 9.14379 6.47188 10.0899 5.30856 10.0899Z" fill="#4C9540"/>
<path d="M17.4727 16.418H16.9453C16.3628 16.418 15.8906 15.9457 15.8906 15.3633V9.03516C15.8906 8.45261 16.3628 7.98047 16.9453 7.98047H17.4727C17.7639 7.98047 18 8.21654 18 8.50781V15.8906C18 16.1819 17.7639 16.418 17.4727 16.418Z" fill="#4C9540"/>
<path d="M14.8359 9.03516V15.3633C14.8359 15.4696 14.8521 15.5715 14.8672 15.6735L11.7902 17.1946C11.4262 17.3764 11.0182 17.4727 10.6114 17.4727C10.4496 17.4727 5.84787 17.4727 5.84787 17.4727C5.45593 17.4727 5.07278 17.364 4.73907 17.158L0.421303 14.1055C-0.0436945 13.7553 -0.138452 13.093 0.21064 12.628C0.527321 12.2058 1.14105 12.0229 1.6872 12.4174L4.93312 14.2483C5.00879 14.288 5.0927 14.3086 5.17825 14.3086C5.36832 14.3086 11.4413 14.3086 11.2148 14.3086C11.5064 14.3086 11.7422 14.0728 11.7422 13.7813C11.7422 13.4898 11.5064 13.2539 11.2148 13.2539H6.36327C5.78072 13.2539 5.30858 12.7816 5.30858 12.1992C5.30858 11.6167 5.78072 11.1445 6.36327 11.1445H8.84041L11.3401 9.47804C11.7742 9.18814 12.28 9.03516 12.8026 9.03516H14.8359Z" fill="#4C9540"/>
</g>
<defs>
<clipPath id="clip0_474_23596">
<rect width="18" height="18" fill="white" transform="matrix(-1 0 0 1 18 0)"/>
</clipPath>
</defs>
</svg>
