<svg width="14" height="14" viewBox="0 0 14 14" fill="none" xmlns="http://www.w3.org/2000/svg">
<g clip-path="url(#clip0_474_7022)">
<path d="M12.3958 1.75H1.6042C0.719269 1.75 0 2.46927 0 3.3542V10.6458C0 11.5307 0.719269 12.25 1.6042 12.25H12.3958C13.2807 12.25 14 11.5307 14 10.6458V3.3542C14 2.46927 13.2807 1.75 12.3958 1.75ZM4.375 4.0833C5.17886 4.0833 5.8333 4.73784 5.8333 5.5417C5.8333 6.34546 5.17886 7 4.375 7C3.57114 7 2.9167 6.34546 2.9167 5.5417C2.9167 4.73784 3.57114 4.0833 4.375 4.0833ZM7 9.4792C7 9.7207 6.804 9.9167 6.5625 9.9167H2.1875C1.946 9.9167 1.75 9.7207 1.75 9.4792V9.1875C1.75 8.30257 2.46927 7.5833 3.3542 7.5833H5.3958C6.28073 7.5833 7 8.30257 7 9.1875V9.4792ZM11.8125 9.9167H8.6042C8.3627 9.9167 8.1667 9.7207 8.1667 9.4792C8.1667 9.2377 8.3627 9.0417 8.6042 9.0417H11.8125C12.054 9.0417 12.25 9.2377 12.25 9.4792C12.25 9.7207 12.054 9.9167 11.8125 9.9167ZM11.8125 7.5833H8.6042C8.3627 7.5833 8.1667 7.3873 8.1667 7.1458C8.1667 6.9043 8.3627 6.7083 8.6042 6.7083H11.8125C12.054 6.7083 12.25 6.9043 12.25 7.1458C12.25 7.3873 12.054 7.5833 11.8125 7.5833ZM11.8125 5.25H8.6042C8.3627 5.25 8.1667 5.054 8.1667 4.8125C8.1667 4.571 8.3627 4.375 8.6042 4.375H11.8125C12.054 4.375 12.25 4.571 12.25 4.8125C12.25 5.054 12.054 5.25 11.8125 5.25Z" fill="#4C9540"/>
</g>
<defs>
<clipPath id="clip0_474_7022">
<rect width="14" height="14" fill="white"/>
</clipPath>
</defs>
</svg>
