<svg width="26" height="26" viewBox="0 0 26 26" fill="none" xmlns="http://www.w3.org/2000/svg">
<rect x="0.5" y="0.5" width="25" height="25" rx="12.5" fill="#191B21"/>
<path d="M15.6884 5.9082H10.0586C7.77059 5.9082 5.90918 7.76961 5.90918 10.0576V15.6874C5.90918 17.9754 7.77059 19.8368 10.0586 19.8368H15.6884C17.9763 19.8368 19.8378 17.9754 19.8378 15.6874V10.0576C19.8377 7.76961 17.9763 5.9082 15.6884 5.9082ZM18.4365 15.6874C18.4365 17.2051 17.2061 18.4356 15.6884 18.4356H10.0586C8.54081 18.4356 7.31039 17.2051 7.31039 15.6874V10.0576C7.31039 8.53981 8.54081 7.30942 10.0586 7.30942H15.6884C17.2061 7.30942 18.4365 8.53981 18.4365 10.0576V15.6874Z" fill="white"/>
<path d="M12.8739 9.26953C10.8875 9.26953 9.27148 10.8856 9.27148 12.8719C9.27148 14.8583 10.8875 16.4744 12.8739 16.4744C14.8603 16.4744 16.4763 14.8583 16.4763 12.8719C16.4763 10.8855 14.8603 9.26953 12.8739 9.26953ZM12.8739 15.0732C11.6582 15.0732 10.6727 14.0877 10.6727 12.872C10.6727 11.6563 11.6582 10.6707 12.8739 10.6707C14.0896 10.6707 15.0751 11.6563 15.0751 12.872C15.0751 14.0876 14.0896 15.0732 12.8739 15.0732Z" fill="white"/>
<path d="M16.4833 10.16C16.9601 10.16 17.3465 9.77355 17.3465 9.29681C17.3465 8.82007 16.9601 8.43359 16.4833 8.43359C16.0066 8.43359 15.6201 8.82007 15.6201 9.29681C15.6201 9.77355 16.0066 10.16 16.4833 10.16Z" fill="white"/>
<rect x="0.5" y="0.5" width="25" height="25" rx="12.5" stroke="#30333C"/>
</svg>
