<svg width="28" height="30" viewBox="0 0 28 30" fill="none" xmlns="http://www.w3.org/2000/svg">
<g filter="url(#filter0_d_474_20035)">
<rect width="28" height="28" rx="4" fill="url(#paint0_linear_474_20035)"/>
<g filter="url(#filter1_d_474_20035)">
<rect x="2" y="2" width="24" height="15" rx="5" fill="url(#paint1_linear_474_20035)" fill-opacity="0.17" shape-rendering="crispEdges"/>
</g>
<path d="M17.5314 7H11.4686C9.0046 7 7 9.0046 7 11.4686V17.5314C7 19.9954 9.0046 22 11.4686 22H17.5314C19.9954 22 22 19.9954 22 17.5314V11.4686C22 9.0046 19.9954 7 17.5314 7ZM20.491 17.5314C20.491 19.1659 19.1659 20.491 17.5314 20.491H11.4686C9.83406 20.491 8.509 19.1659 8.509 17.5314V11.4686C8.509 9.83404 9.83406 8.509 11.4686 8.509H17.5314C19.1659 8.509 20.491 9.83404 20.491 11.4686V17.5314Z" fill="white"/>
<path d="M14.5006 10.6211C12.3614 10.6211 10.6211 12.3614 10.6211 14.5006C10.6211 16.6398 12.3614 18.3801 14.5006 18.3801C16.6398 18.3801 18.3802 16.6398 18.3802 14.5006C18.3802 12.3614 16.6398 10.6211 14.5006 10.6211ZM14.5006 16.8712C13.1914 16.8712 12.1301 15.8098 12.1301 14.5006C12.1301 13.1914 13.1914 12.1301 14.5006 12.1301C15.8098 12.1301 16.8712 13.1914 16.8712 14.5006C16.8712 15.8098 15.8098 16.8712 14.5006 16.8712Z" fill="white"/>
<path d="M18.3866 11.578C18.9001 11.578 19.3163 11.1618 19.3163 10.6484C19.3163 10.135 18.9001 9.71875 18.3866 9.71875C17.8732 9.71875 17.457 10.135 17.457 10.6484C17.457 11.1618 17.8732 11.578 18.3866 11.578Z" fill="white"/>
<rect x="0.5" y="0.5" width="27" height="27" rx="3.5" stroke="#35762A"/>
</g>
<defs>
<filter id="filter0_d_474_20035" x="0" y="0" width="28" height="30" filterUnits="userSpaceOnUse" color-interpolation-filters="sRGB">
<feFlood flood-opacity="0" result="BackgroundImageFix"/>
<feColorMatrix in="SourceAlpha" type="matrix" values="0 0 0 0 0 0 0 0 0 0 0 0 0 0 0 0 0 0 127 0" result="hardAlpha"/>
<feOffset dy="2"/>
<feComposite in2="hardAlpha" operator="out"/>
<feColorMatrix type="matrix" values="0 0 0 0 0.207843 0 0 0 0 0.462745 0 0 0 0 0.164706 0 0 0 1 0"/>
<feBlend mode="normal" in2="BackgroundImageFix" result="effect1_dropShadow_474_20035"/>
<feBlend mode="normal" in="SourceGraphic" in2="effect1_dropShadow_474_20035" result="shape"/>
</filter>
<filter id="filter1_d_474_20035" x="1" y="2" width="26" height="17" filterUnits="userSpaceOnUse" color-interpolation-filters="sRGB">
<feFlood flood-opacity="0" result="BackgroundImageFix"/>
<feColorMatrix in="SourceAlpha" type="matrix" values="0 0 0 0 0 0 0 0 0 0 0 0 0 0 0 0 0 0 127 0" result="hardAlpha"/>
<feOffset dy="1"/>
<feGaussianBlur stdDeviation="0.5"/>
<feComposite in2="hardAlpha" operator="out"/>
<feColorMatrix type="matrix" values="0 0 0 0 0 0 0 0 0 0 0 0 0 0 0 0 0 0 0.01 0"/>
<feBlend mode="normal" in2="BackgroundImageFix" result="effect1_dropShadow_474_20035"/>
<feBlend mode="normal" in="SourceGraphic" in2="effect1_dropShadow_474_20035" result="shape"/>
</filter>
<linearGradient id="paint0_linear_474_20035" x1="14" y1="0" x2="14" y2="28" gradientUnits="userSpaceOnUse">
<stop stop-color="#69C05A"/>
<stop offset="1" stop-color="#469239"/>
</linearGradient>
<linearGradient id="paint1_linear_474_20035" x1="14" y1="2" x2="14" y2="17" gradientUnits="userSpaceOnUse">
<stop stop-color="white" stop-opacity="0"/>
<stop offset="1" stop-color="white"/>
</linearGradient>
</defs>
</svg>
