<svg width="22" height="22" viewBox="0 0 22 22" fill="none" xmlns="http://www.w3.org/2000/svg">
<g clip-path="url(#clip0_191_5822)">
<path d="M21.549 0.00277459C17.2544 -0.0742254 12.3567 2.17069 9.25651 5.65311C6.29384 5.70902 3.40909 6.92361 1.28518 9.04753C1.16143 9.16944 1.11743 9.35186 1.17151 9.51686C1.22651 9.68278 1.36951 9.80286 1.54184 9.82761L5.07468 10.3336L4.63834 10.8222C4.47609 11.0037 4.48434 11.2796 4.65668 11.4519L10.5481 17.3434C10.637 17.4323 10.7543 17.4772 10.8726 17.4772C10.9817 17.4772 11.0908 17.4387 11.1778 17.3608L11.6664 16.9244L12.1724 20.4573C12.1972 20.6296 12.3328 20.7561 12.4969 20.8111C12.5391 20.8249 12.5831 20.8313 12.628 20.8313C12.7582 20.8313 12.8911 20.7744 12.9828 20.6837C15.0773 18.5891 16.2919 15.7044 16.3478 12.7417C19.8339 9.63511 22.0972 4.73919 21.9973 0.450108C21.9908 0.206275 21.7938 0.00919125 21.549 0.00277459ZM17.325 7.91544C16.8786 8.36186 16.2919 8.58553 15.7043 8.58553C15.1168 8.58553 14.5301 8.36186 14.0837 7.91544C13.1908 7.02169 13.1908 5.56786 14.0837 4.67411C14.9774 3.78036 16.4313 3.78036 17.325 4.67411C18.2188 5.56786 18.2188 7.02261 17.325 7.91544Z" fill="#777786"/>
<path d="M2.49699 15.4963C1.51616 16.4771 0.169575 20.9083 0.0192416 21.4097C-0.0293418 21.5711 0.0155749 21.7461 0.133825 21.8653C0.221825 21.9533 0.338242 22.0001 0.458325 22.0001C0.502325 22.0001 0.546325 21.9936 0.590325 21.9808C1.09174 21.8305 5.52291 20.4839 6.50374 19.5031C7.60833 18.3985 7.60833 16.6009 6.50374 15.4963C5.39824 14.3917 3.60158 14.3926 2.49699 15.4963Z" fill="#777786"/>
</g>
<defs>
<clipPath id="clip0_191_5822">
<rect width="22" height="22" fill="white"/>
</clipPath>
</defs>
</svg>
