<svg width="22" height="22" viewBox="0 0 22 22" fill="none" xmlns="http://www.w3.org/2000/svg">
<g clip-path="url(#clip0_175_638)">
<path d="M15.959 3.60138C15.8741 3.34086 15.6488 3.15086 15.378 3.11154L12.8005 2.73694L11.6475 0.40107C11.5266 0.155547 11.2764 0 11.0023 0C10.7282 0 10.478 0.155547 10.3572 0.40107L9.20409 2.73698L6.62622 3.11158C6.35539 3.15094 6.13002 3.34091 6.04524 3.60143C5.96047 3.86195 6.03119 4.14799 6.22752 4.33916L8.09326 6.15734L7.6524 8.72446C7.606 8.99456 7.71707 9.2675 7.9387 9.42846C8.16081 9.59011 8.45459 9.61 8.6968 9.48329L11.0025 8.27118L13.3077 9.48329C13.5555 9.61327 13.8482 9.58646 14.0658 9.42846C14.2874 9.26754 14.3985 8.99461 14.3521 8.72472L13.9117 6.15734L15.777 4.33916C15.973 4.14799 16.0433 3.8619 15.959 3.60138Z" fill="#777786"/>
<path d="M13.8787 10.965H8.1213C7.72383 10.965 7.40161 11.2872 7.40161 11.6846V22H14.5984V11.6846C14.5984 11.2872 14.2761 10.965 13.8787 10.965Z" fill="#777786"/>
<path d="M0.924579 13.8436C0.527118 13.8436 0.204895 14.1659 0.204895 14.5633V21.431C0.204895 21.7452 0.459657 22 0.773887 22H5.96232V13.8436H0.924579Z" fill="#777786"/>
<path d="M21.0754 16.7224H16.0377V22H21.2262C21.5404 22 21.7951 21.7453 21.7951 21.4311V17.4421C21.7951 17.0446 21.4729 16.7224 21.0754 16.7224Z" fill="#777786"/>
</g>
<defs>
<clipPath id="clip0_175_638">
<rect width="22" height="22" fill="white"/>
</clipPath>
</defs>
</svg>
