<svg width="22" height="22" viewBox="0 0 22 22" fill="none" xmlns="http://www.w3.org/2000/svg">
<path d="M11 15.9043C11.8252 15.9043 12.4942 15.2354 12.4942 14.4102C12.4942 13.585 11.8252 12.916 11 12.916C10.1748 12.916 9.50586 13.585 9.50586 14.4102C9.50586 15.2354 10.1748 15.9043 11 15.9043Z" fill="#777786"/>
<path d="M16.7563 8.73648V7.59065C16.7563 5.11565 16.1605 1.83398 10.9997 1.83398C5.83884 1.83398 5.24301 5.11565 5.24301 7.59065V8.73648C2.67634 9.05732 1.83301 10.359 1.83301 13.5582V15.2632C1.83301 19.0215 2.97884 20.1673 6.73717 20.1673H15.2622C19.0205 20.1673 20.1663 19.0215 20.1663 15.2632V13.5582C20.1663 10.359 19.323 9.05732 16.7563 8.73648ZM10.9997 17.179C9.46884 17.179 8.23134 15.9323 8.23134 14.4107C8.23134 12.8798 9.47801 11.6423 10.9997 11.6423C12.5213 11.6423 13.768 12.889 13.768 14.4107C13.768 15.9415 12.5305 17.179 10.9997 17.179ZM6.73717 8.65398C6.66384 8.65398 6.59967 8.65398 6.52634 8.65398V7.59065C6.52634 4.90482 7.28717 3.11732 10.9997 3.11732C14.7122 3.11732 15.473 4.90482 15.473 7.59065V8.66315C15.3997 8.66315 15.3355 8.66315 15.2622 8.66315H6.73717V8.65398Z" fill="#777786"/>
</svg>
