<svg width="22" height="22" viewBox="0 0 22 22" fill="none" xmlns="http://www.w3.org/2000/svg">
<g clip-path="url(#clip0_175_674)">
<path fill-rule="evenodd" clip-rule="evenodd" d="M9.25651 5.65311C12.3567 2.17069 17.2544 -0.0742254 21.549 0.00277459C21.7938 0.00919125 21.9908 0.206275 21.9973 0.450108C22.0821 4.0906 20.4644 8.16827 17.8415 11.2179L14.5 9.28868C14.1906 9.11004 13.8094 9.11004 13.5 9.28868L8.43782 12.2113C8.12842 12.39 7.93782 12.7201 7.93782 13.0773V14.7331L4.65668 11.4519C4.48434 11.2796 4.47609 11.0037 4.63834 10.8222L5.07468 10.3336L1.54184 9.82761C1.36951 9.80286 1.22651 9.68278 1.17151 9.51686C1.11743 9.35186 1.16143 9.16944 1.28518 9.04753C3.40909 6.92361 6.29384 5.70902 9.25651 5.65311ZM15.7043 8.58553C16.2919 8.58553 16.8786 8.36186 17.325 7.91544C18.2188 7.02261 18.2188 5.56786 17.325 4.67411C16.4313 3.78036 14.9774 3.78036 14.0837 4.67411C13.1908 5.56786 13.1908 7.02169 14.0837 7.91544C14.5301 8.36186 15.1168 8.58553 15.7043 8.58553Z" fill="#777786"/>
<path d="M2.49699 15.4962C1.51616 16.4771 0.169575 20.9082 0.0192416 21.4097C-0.0293418 21.571 0.0155749 21.7461 0.133825 21.8652C0.221825 21.9532 0.338242 22 0.458325 22C0.502325 22 0.546325 21.9936 0.590325 21.9807C1.09174 21.8304 5.52291 20.4838 6.50374 19.503C7.60833 18.3984 7.60833 16.6008 6.50374 15.4962C5.39824 14.3917 3.60158 14.3926 2.49699 15.4962Z" fill="#777786"/>
<path d="M19.0675 12.8713L14.1758 10.0471C14.067 9.9843 13.933 9.9843 13.8242 10.0471L8.93256 12.8713C8.82378 12.9341 8.75677 13.0502 8.75677 13.1758V18.8242C8.75677 18.9498 8.82378 19.0659 8.93256 19.1287L13.8242 21.9529C13.933 22.0157 14.067 22.0157 14.1758 21.9529L19.0675 19.1287C19.1763 19.0659 19.2433 18.9498 19.2433 18.8242V13.1758C19.2433 13.0502 19.1763 12.9341 19.0675 12.8713ZM12.6821 17.1297C12.6821 17.3238 12.5247 17.4813 12.3305 17.4813H11.9539C11.812 17.4813 11.684 17.3959 11.6294 17.2649L10.9875 15.7244V17.1297C10.9702 17.5956 10.3015 17.5953 10.2844 17.1297V14.8703C10.2844 14.6762 10.4418 14.5188 10.636 14.5188H11.0125C11.1545 14.5188 11.2825 14.6041 11.3371 14.7351L11.9789 16.2756V14.8703C11.9962 14.4044 12.6649 14.4047 12.6821 14.8703V17.1297ZM15.1297 15.2219H14V15.8367H14.7531C15.2191 15.854 15.2188 16.5227 14.7531 16.5398H14V17.1297C13.9827 17.5956 13.314 17.5953 13.2969 17.1297V14.8703C13.2969 14.6762 13.4543 14.5188 13.6485 14.5188H15.1297C15.5957 14.536 15.5953 15.2047 15.1297 15.2219ZM17.5774 15.2219H17.1758V17.1297C17.1585 17.5956 16.4898 17.5953 16.4727 17.1297V15.2219H16.0711C15.6052 15.2046 15.6055 14.5359 16.0711 14.5188H17.5774C18.0433 14.536 18.043 15.2047 17.5774 15.2219Z" fill="#777786"/>
</g>
<defs>
<clipPath id="clip0_175_674">
<rect width="22" height="22" fill="white"/>
</clipPath>
</defs>
</svg>
