<svg width="12" height="12" viewBox="0 0 12 12" fill="none" xmlns="http://www.w3.org/2000/svg">
<path d="M8.76502 3.885C8.73002 3.88 8.69502 3.88 8.66002 3.885C7.88502 3.86 7.27002 3.225 7.27002 2.445C7.27002 1.65 7.91502 1 8.71502 1C9.51002 1 10.16 1.645 10.16 2.445C10.155 3.225 9.54002 3.86 8.76502 3.885Z" fill="#4C9540"/>
<path d="M10.3948 7.3502C9.83481 7.7252 9.0498 7.8652 8.3248 7.7702C8.5148 7.3602 8.6148 6.9052 8.6198 6.4252C8.6198 5.9252 8.5098 5.4502 8.2998 5.0352C9.0398 4.9352 9.8248 5.0752 10.3898 5.4502C11.1798 5.9702 11.1798 6.8252 10.3948 7.3502Z" fill="#4C9540"/>
<path d="M3.22008 3.885C3.25508 3.88 3.29008 3.88 3.32508 3.885C4.10008 3.86 4.71508 3.225 4.71508 2.445C4.71508 1.645 4.07008 1 3.27008 1C2.47508 1 1.83008 1.645 1.83008 2.445C1.83008 3.225 2.44508 3.86 3.22008 3.885Z" fill="#4C9540"/>
<path d="M3.27506 6.4253C3.27506 6.9103 3.38006 7.3703 3.57006 7.7853C2.86506 7.8603 2.13006 7.7103 1.59006 7.3553C0.800059 6.8303 0.800059 5.9753 1.59006 5.4503C2.12506 5.0903 2.88006 4.9453 3.59006 5.0253C3.38506 5.4453 3.27506 5.9203 3.27506 6.4253Z" fill="#4C9540"/>
<path d="M6.0599 7.935C6.0199 7.93 5.9749 7.93 5.9299 7.935C5.0099 7.905 4.2749 7.15 4.2749 6.22C4.2799 5.27 5.0449 4.5 5.9999 4.5C6.9499 4.5 7.7199 5.27 7.7199 6.22C7.7149 7.15 6.9849 7.905 6.0599 7.935Z" fill="#4C9540"/>
<path d="M4.4349 8.97031C3.6799 9.47531 3.6799 10.3053 4.4349 10.8053C5.2949 11.3803 6.7049 11.3803 7.5649 10.8053C8.3199 10.3003 8.3199 9.47031 7.5649 8.97031C6.7099 8.39531 5.2999 8.39531 4.4349 8.97031Z" fill="#4C9540"/>
</svg>
