<svg width="22" height="22" viewBox="0 0 22 22" fill="none" xmlns="http://www.w3.org/2000/svg">
<g clip-path="url(#clip0_175_626)">
<path d="M20.3904 9.12917C20.3298 5.97097 19.8898 3.64163 19.8958 3.63948C19.7128 3.28241 19.3918 2.98378 18.9991 2.83124C16.4209 1.83136 13.8858 0.877022 11.4142 0.0627637C11.1616 -0.0205957 10.8952 -0.0205957 10.6429 0.0627637C8.17179 0.874873 5.63706 1.82749 3.05937 2.82608C2.71261 2.96058 2.42171 3.20937 2.23222 3.51187C2.24683 3.51358 1.70242 5.213 1.6096 8.96632C1.5546 12.7201 2.0221 13.8446 2.00663 13.8458C2.25972 14.6708 2.73324 15.51 3.41171 16.3634C4.17011 17.3164 5.19492 18.3008 6.43285 19.2685C8.48203 20.8768 10.3997 21.838 10.4801 21.872C10.6541 21.9571 10.8384 22.0005 11.0284 22C11.2187 22 11.403 21.9566 11.5766 21.8711C11.6574 21.8372 13.5773 20.873 15.6256 19.2651C16.8639 18.2966 17.8887 17.3121 18.6476 16.3595C19.3746 15.4456 19.8662 14.5488 20.1038 13.668C20.0943 13.6667 20.4381 12.2882 20.3904 9.1296V9.12917ZM12.0484 11.5926V13.5936C12.0484 14.1574 11.5917 14.6141 11.0279 14.6146C10.4642 14.6146 10.007 14.1578 10.007 13.5941V11.6209C9.27136 11.2553 8.76519 10.4964 8.76519 9.61944C8.76519 8.38538 9.7655 7.38464 10.9996 7.38464C12.2336 7.38464 13.2339 8.38495 13.2344 9.61901C13.2344 10.4741 12.754 11.217 12.0484 11.5926Z" fill="#777786"/>
</g>
<defs>
<clipPath id="clip0_175_626">
<rect width="22" height="22" fill="white"/>
</clipPath>
</defs>
</svg>
