<svg width="22" height="22" viewBox="0 0 22 22" fill="none" xmlns="http://www.w3.org/2000/svg">
<path d="M10.9997 1.83398C8.59801 1.83398 6.64551 3.78648 6.64551 6.18815C6.64551 8.54398 8.48801 10.4507 10.8897 10.5332C10.963 10.524 11.0363 10.524 11.0913 10.5332C11.1097 10.5332 11.1188 10.5332 11.1372 10.5332C11.1463 10.5332 11.1463 10.5332 11.1555 10.5332C13.5022 10.4507 15.3447 8.54398 15.3538 6.18815C15.3538 3.78648 13.4013 1.83398 10.9997 1.83398Z" fill="#777786"/>
<path d="M15.6569 12.9702C13.0994 11.2652 8.92854 11.2652 6.35271 12.9702C5.18854 13.7493 4.54688 14.8035 4.54688 15.931C4.54688 17.0585 5.18854 18.1035 6.34354 18.8735C7.62687 19.7352 9.31354 20.166 11.0002 20.166C12.6869 20.166 14.3735 19.7352 15.6569 18.8735C16.8119 18.0943 17.4535 17.0493 17.4535 15.9127C17.4444 14.7852 16.8119 13.7402 15.6569 12.9702Z" fill="#777786"/>
</svg>
