<svg width="26" height="26" viewBox="0 0 26 26" fill="none" xmlns="http://www.w3.org/2000/svg">
<rect x="0.5" y="0.5" width="25" height="25" rx="12.5" fill="#191B21"/>
<path d="M18.7725 11.3334C18.3032 11.3334 17.8903 11.5309 17.5864 11.8386C16.469 11.0536 14.9622 10.5485 13.2926 10.4946L14.1599 6.529L16.9215 7.15795C16.9215 7.84386 17.4725 8.4041 18.1485 8.4041C18.8375 8.4041 19.3915 7.829 19.3915 7.14248C19.3915 6.45595 18.8412 5.88086 18.1491 5.88086C17.6668 5.88086 17.2508 6.17615 17.0435 6.57976L13.9934 5.89386C13.8399 5.85238 13.6895 5.96381 13.6486 6.11981L12.6965 10.4915C11.0399 10.5615 9.54927 11.066 8.42817 11.8516C8.12422 11.5309 7.69522 11.3334 7.22598 11.3334C5.48522 11.3334 4.91508 13.7038 6.50912 14.5141C6.45279 14.7648 6.42741 15.0322 6.42741 15.2991C6.42741 17.9616 9.38336 20.119 13.0128 20.119C16.6578 20.119 19.6137 17.9616 19.6137 15.2991C19.6137 15.0322 19.5859 14.7524 19.5172 14.5011C21.079 13.6877 20.5039 11.3347 18.7725 11.3334ZM9.03855 14.6825C9.03855 13.9836 9.5895 13.4209 10.2816 13.4209C10.9576 13.4209 11.5092 13.9799 11.5092 14.6825C11.5092 15.369 10.9582 15.9286 10.2816 15.9286C9.5926 15.9317 9.03855 15.369 9.03855 14.6825ZM15.7484 17.6527C14.6087 18.8091 11.3928 18.8091 10.2525 17.6527C10.1268 17.5412 10.1268 17.3444 10.2525 17.2175C10.3621 17.1061 10.5565 17.1061 10.666 17.2175C11.5364 18.1231 14.4236 18.1386 15.3318 17.2175C15.4414 17.1061 15.6357 17.1061 15.7453 17.2175C15.8735 17.345 15.8735 17.5419 15.7484 17.6527ZM15.723 15.9311C15.047 15.9311 14.4961 15.3721 14.4961 14.6862C14.4961 13.9873 15.047 13.4246 15.723 13.4246C16.412 13.4246 16.9661 13.9836 16.9661 14.6862C16.963 15.369 16.412 15.9311 15.723 15.9311Z" fill="white"/>
<rect x="0.5" y="0.5" width="25" height="25" rx="12.5" stroke="#30333C"/>
</svg>
