<svg width="16" height="16" viewBox="0 0 16 16" fill="none" xmlns="http://www.w3.org/2000/svg">
<g clip-path="url(#clip0_474_26256)">
<path d="M15.5268 7.31286C14.5623 4.91406 11.9582 3.71464 7.71422 3.71464H5.71424V1.42896C5.71424 1.2741 5.65767 1.14016 5.54462 1.02711C5.43151 0.913994 5.29769 0.857422 5.14286 0.857422C4.988 0.857422 4.85406 0.913994 4.74101 1.02711L0.169622 5.59846C0.056572 5.71167 0 5.84555 0 6.00032C0 6.15505 0.056572 6.28893 0.169622 6.40207L4.74104 10.9736C4.85422 11.0865 4.98816 11.1433 5.14289 11.1433C5.2976 11.1433 5.43151 11.0866 5.54465 10.9736C5.65773 10.8605 5.71427 10.7266 5.71427 10.5718V8.28593H7.71425C8.29745 8.28593 8.8197 8.30369 9.28097 8.33934C9.74221 8.37509 10.2008 8.43907 10.656 8.53145C11.1114 8.62371 11.5073 8.75008 11.8437 8.91094C12.1799 9.07181 12.4939 9.27859 12.7857 9.53146C13.0774 9.78457 13.3155 10.085 13.5001 10.4333C13.6845 10.7816 13.8289 11.1936 13.9331 11.6698C14.0371 12.1461 14.0894 12.6848 14.0894 13.2858C14.0894 13.6131 14.0744 13.9793 14.0447 14.384C14.0447 14.4196 14.0374 14.4896 14.0224 14.5938C14.0076 14.6981 14.0001 14.7768 14.0001 14.8303C14.0001 14.9195 14.0254 14.9939 14.0759 15.0535C14.1266 15.1129 14.1966 15.1426 14.2859 15.1426C14.3811 15.1426 14.4644 15.0921 14.5359 14.9909C14.5774 14.9374 14.6159 14.8718 14.6519 14.7944C14.6876 14.7171 14.7279 14.6278 14.7724 14.5266C14.8171 14.4254 14.8484 14.3542 14.8662 14.3125C15.622 12.6163 16 11.2741 16 10.2859C16 9.10155 15.8423 8.11037 15.5268 7.31286Z" fill="#41414F"/>
</g>
<defs>
<clipPath id="clip0_474_26256">
<rect width="16" height="16" fill="white"/>
</clipPath>
</defs>
</svg>
