<svg width="22" height="22" viewBox="0 0 22 22" fill="none" xmlns="http://www.w3.org/2000/svg">
<path d="M19.2846 4.70898V10.2434C19.2846 15.2621 15.8814 19.6621 11.0002 20.8996C6.11895 19.6621 2.71582 15.2621 2.71582 10.2434V4.70898C6.53145 4.26211 8.73145 2.81836 11.0002 1.09961C13.2689 2.81836 15.4689 4.26211 19.2846 4.70898Z" fill="#5DAD50"/>
<path d="M11 18.7004C7.32188 17.5316 4.8125 14.1285 4.8125 10.2441V6.49727C7.39062 5.94727 9.28125 4.88164 11 3.71289C12.7531 4.91602 14.6094 5.94727 17.1875 6.49727V10.2441C17.1875 14.1285 14.6781 17.5316 11 18.7004Z" fill="#4C9540"/>
<path d="M9.625 14.368L7.5625 12.3398L8.62813 11.3086L9.625 12.3055L13.3719 8.55859L14.4375 9.58984L9.625 14.368Z" fill="white"/>
</svg>
