<svg width="148" height="72" viewBox="0 0 148 72" fill="none" xmlns="http://www.w3.org/2000/svg">
<g clip-path="url(#clip0_474_4358)">
<path d="M122.025 20.087L126.575 53.9957C130.701 84.7451 113.468 114.501 84.578 126.096C53.6537 122.527 29.1858 98.3661 25.06 67.6167L20.5102 33.7081C43.5208 27.8333 55.8131 17.179 68.3006 4.78324C83.614 13.4487 98.2801 20.4859 122.025 20.087Z" fill="#1E1F25"/>
<path d="M82.7694 112.617C59.2731 108.48 41.1007 89.6926 37.9074 65.8933L34.8271 42.9366C50.1709 37.4473 60.8785 29.3641 70.4483 20.7903C82.1787 26.7205 94.3995 31.5128 110.648 32.7632L113.728 55.72C116.921 79.5192 104.344 102.433 82.7694 112.617Z" fill="#22242A"/>
</g>
<defs>
<clipPath id="clip0_474_4358">
<rect width="136" height="136" fill="white" transform="translate(0 7.08594) rotate(-7.64214)"/>
</clipPath>
</defs>
</svg>
