<svg width="24" height="24" viewBox="0 0 24 24" fill="none" xmlns="http://www.w3.org/2000/svg">
<g clip-path="url(#clip0_474_25877)">
<path d="M12 24C18.6274 24 24 18.6274 24 12C24 5.37258 18.6274 0 12 0C5.37258 0 0 5.37258 0 12C0 18.6274 5.37258 24 12 24Z" fill="#41414F"/>
<path d="M18.7354 9.76465C18.3214 9.76465 17.9854 9.42865 17.9854 9.01465C17.9854 8.18815 17.3134 7.51465 16.4854 7.51465C15.6574 7.51465 14.9854 8.18815 14.9854 9.01465C14.9854 9.42865 14.6494 9.76465 14.2354 9.76465C13.8214 9.76465 13.4854 9.42865 13.4854 9.01465C13.4854 7.36015 14.8309 6.01465 16.4854 6.01465C18.1399 6.01465 19.4854 7.36015 19.4854 9.01465C19.4854 9.43015 19.1494 9.76465 18.7354 9.76465Z" fill="#191B21"/>
<path d="M9.73535 9.76465C9.32135 9.76465 8.98535 9.42865 8.98535 9.01465C8.98535 8.18815 8.31185 7.51465 7.48535 7.51465C6.65885 7.51465 5.98535 8.18815 5.98535 9.01465C5.98535 9.42865 5.64935 9.76465 5.23535 9.76465C4.82135 9.76465 4.48535 9.42865 4.48535 9.01465C4.48535 7.36015 5.83085 6.01465 7.48535 6.01465C9.13985 6.01465 10.4854 7.36015 10.4854 9.01465C10.4854 9.43015 10.1494 9.76465 9.73535 9.76465Z" fill="#191B21"/>
<path d="M20.5166 13.8131C20.3741 13.6256 20.1536 13.5146 19.9196 13.5146H4.04962C3.81412 13.5146 3.59362 13.6241 3.45262 13.8116C3.30862 14.0006 3.26362 14.2421 3.32662 14.4686C4.41112 18.3221 7.97212 21.0146 11.9831 21.0146C15.9941 21.0146 19.5551 18.3221 20.6396 14.4686C20.7041 14.2421 20.6591 14.0006 20.5166 13.8131Z" fill="#191B21"/>
</g>
<defs>
<clipPath id="clip0_474_25877">
<rect width="24" height="24" fill="white"/>
</clipPath>
</defs>
</svg>
