<svg width="22" height="22" viewBox="0 0 22 22" fill="none" xmlns="http://www.w3.org/2000/svg">
<g clip-path="url(#clip0_175_660)">
<path d="M6.39193 12.5629C7.01019 12.5629 7.60779 12.5229 8.17329 12.4486V6.2502C7.60785 6.17592 7.01019 6.13599 6.39193 6.13599C2.86181 6.13599 6.10352e-05 7.43391 6.10352e-05 9.03504V9.66376C6.10352e-05 11.2648 2.86181 12.5629 6.39193 12.5629Z" fill="#777786"/>
<path d="M6.39193 15.7994C7.01019 15.7994 7.60779 15.7595 8.17329 15.6852V13.8684C7.60768 13.9427 7.01035 13.9831 6.39193 13.9831C3.31052 13.9831 0.738615 12.9941 0.134493 11.6779C0.0465151 11.8696 6.10352e-05 12.0681 6.10352e-05 12.2716V12.9003C6.10352e-05 14.5015 2.86181 15.7994 6.39193 15.7994Z" fill="#777786"/>
<path d="M8.17323 17.2463V17.1051C7.60762 17.1794 7.01029 17.2198 6.39187 17.2198C3.31045 17.2198 0.738554 16.2308 0.134432 14.9146C0.0464541 15.1062 0 15.3048 0 15.5083V16.137C0 17.7382 2.86175 19.0361 6.39187 19.0361C7.09783 19.0361 7.77684 18.984 8.4118 18.8882C8.25442 18.5662 8.17323 18.2267 8.17323 17.875V17.2463Z" fill="#777786"/>
<path d="M15.6081 1.22595C12.078 1.22595 9.21625 2.52387 9.21625 4.125V4.75372C9.21625 6.35485 12.078 7.65277 15.6081 7.65277C19.1382 7.65277 22 6.35485 22 4.75372V4.125C22 2.52387 19.1382 1.22595 15.6081 1.22595Z" fill="#777786"/>
<path d="M15.6081 9.07311C12.5267 9.07311 9.9548 8.08415 9.35068 6.76782C9.2627 6.9595 9.21625 7.15803 9.21625 7.36159V7.99031C9.21625 9.59144 12.078 10.8894 15.6081 10.8894C19.1382 10.8894 22 9.59144 22 7.99031V7.36159C22 7.15803 21.9535 6.9595 21.8656 6.76782C21.2614 8.08415 18.6895 9.07311 15.6081 9.07311Z" fill="#777786"/>
<path d="M15.6081 12.3098C12.5267 12.3098 9.9548 11.3208 9.35068 10.0045C9.2627 10.1962 9.21625 10.3947 9.21625 10.5983V11.227C9.21625 12.8282 12.078 14.1261 15.6081 14.1261C19.1382 14.1261 22 12.8282 22 11.227V10.5983C22 10.3947 21.9535 10.1962 21.8656 10.0045C21.2614 11.3208 18.6895 12.3098 15.6081 12.3098Z" fill="#777786"/>
<path d="M15.6081 15.7212C12.5267 15.7212 9.9548 14.7322 9.35068 13.4159C9.2627 13.6076 9.21625 13.8061 9.21625 14.0096V14.6384C9.21625 16.2395 12.078 17.5374 15.6081 17.5374C19.1382 17.5374 22 16.2395 22 14.6384V14.0096C22 13.8061 21.9535 13.6075 21.8656 13.4159C21.2614 14.7321 18.6895 15.7212 15.6081 15.7212Z" fill="#777786"/>
<path d="M15.6081 18.9577C12.5267 18.9577 9.9548 17.9688 9.35068 16.6525C9.2627 16.8443 9.21625 17.0428 9.21625 17.2462V17.875C9.21625 19.4761 12.078 20.774 15.6081 20.774C19.1382 20.774 22 19.4761 22 17.875V17.2462C22 17.0427 21.9535 16.8441 21.8656 16.6525C21.2614 17.9687 18.6895 18.9577 15.6081 18.9577Z" fill="#777786"/>
</g>
<defs>
<clipPath id="clip0_175_660">
<rect width="22" height="22" fill="white"/>
</clipPath>
</defs>
</svg>
