<svg width="30" height="30" viewBox="0 0 30 30" fill="none" xmlns="http://www.w3.org/2000/svg">
<g clip-path="url(#clip0_474_4316)">
<path d="M15.0004 0L12.5859 15L15.0004 30L20.6896 20.6892L30.0004 15C30.0004 6.71572 23.2847 0 15.0004 0Z" fill="#FF7040"/>
<path d="M0 15C0 23.2843 6.71572 30 15 30V0C6.71572 0 0 6.71572 0 15Z" fill="#FF903D"/>
<path d="M14.9998 2.41406L10.7744 14.9996L14.9998 27.5851C15.3074 27.5851 15.6123 27.5735 15.9143 27.5518L27.552 15.9141C27.5737 15.6121 27.5854 15.3072 27.5854 14.9996C27.5853 8.04885 21.9505 2.41406 14.9998 2.41406Z" fill="#FFB03B"/>
<path d="M2.41406 14.9996C2.41406 21.9503 8.04879 27.5851 14.9996 27.5851V2.41406C8.04885 2.41406 2.41406 8.04885 2.41406 14.9996Z" fill="#FFC46C"/>
<path d="M15 4.22461V25.7739C15.4854 25.7739 15.9632 25.7413 16.4315 25.6791L25.6798 16.4309C25.7419 15.9625 25.7746 15.4847 25.7746 14.9994C25.7746 9.04857 20.9507 4.22461 15 4.22461Z" fill="#FFEBCE"/>
<path d="M23.964 14.9992C23.964 9.04857 19.9507 4.22461 15.0002 4.22461C9.04955 4.22461 4.22559 9.04857 4.22559 14.9992C4.22559 20.9499 9.04955 25.7739 15.0002 25.7739C19.9507 25.7739 23.964 20.9499 23.964 14.9992Z" fill="white"/>
<path d="M19.2148 11.7131L16.9316 18.6828L20.5534 17.4755L21.157 10.1113L19.2148 11.7131Z" fill="#FF903D"/>
<path d="M19.2145 11.7133L18.2291 12.526L14.9997 8.9043L11.7703 12.526L8.84277 10.1115L9.44635 17.4757L14.9997 18.683L18.7421 17.4757L19.2145 11.7133Z" fill="#FFB03B"/>
<path d="M18.7424 19.8891H20.5533V17.4746H18.7424L17.5352 18.6819L18.7424 19.8891Z" fill="#FF7040"/>
<path d="M18.7421 17.4746H9.44629V19.8891H18.7421V17.4746Z" fill="#FF903D"/>
<path d="M20.7039 17.9269H9.29547C9.04545 17.9269 8.84277 17.7243 8.84277 17.4742C8.84277 17.2241 9.04545 17.0215 9.29547 17.0215H20.7039C20.9539 17.0215 21.1566 17.2241 21.1566 17.4742C21.1566 17.7242 20.9539 17.9269 20.7039 17.9269Z" fill="#FF7040"/>
<path d="M15 30L30 15C21.7157 15 15 21.7157 15 30Z" fill="#FFA688"/>
</g>
<defs>
<clipPath id="clip0_474_4316">
<rect width="30" height="30" fill="white"/>
</clipPath>
</defs>
</svg>
