<svg width="22" height="22" viewBox="0 0 22 22" fill="none" xmlns="http://www.w3.org/2000/svg">
<path fill-rule="evenodd" clip-rule="evenodd" d="M8.29585 6.3916C8.84691 6.3916 9.29365 6.83835 9.29365 7.38941V13.1846C9.29365 14.5027 9.94071 15.6697 10.9345 16.3852C11.2398 16.6051 11.4582 16.9408 11.4582 17.3171V17.6245C11.4582 19.0848 10.2743 20.2687 8.81398 20.2687H3.69106C2.23072 20.2687 1.04688 19.0848 1.04688 17.6245V9.03579C1.04688 7.57545 2.23072 6.3916 3.69106 6.3916H8.29585ZM6.25256 17.6787C6.07211 17.6787 5.90889 17.605 5.7913 17.4861L3.94396 15.6388C3.69069 15.3855 3.69069 14.9748 3.94396 14.7215C4.19725 14.4683 4.6079 14.4683 4.86119 14.7215L5.60398 15.4643V9.63019C5.60398 9.272 5.89435 8.98161 6.25256 8.98161C6.61075 8.98161 6.90113 9.272 6.90113 9.63019V15.4643L7.64393 14.7215C7.89722 14.4683 8.30787 14.4683 8.56116 14.7215C8.81446 14.9748 8.81446 15.3855 8.56116 15.6388L6.71118 17.4887C6.69968 17.5002 6.68778 17.5113 6.67553 17.5218C6.56198 17.6196 6.41415 17.6787 6.25256 17.6787Z" fill="#777786"/>
<path fill-rule="evenodd" clip-rule="evenodd" d="M13.2341 15.8287C11.7737 15.8287 10.5898 14.6449 10.5898 13.1845V4.59585C10.5898 3.13551 11.7737 1.95166 13.234 1.95166H18.3553C19.8157 1.95166 20.9995 3.13551 20.9995 4.59585V13.1845C20.9995 14.6449 19.8157 15.8287 18.3553 15.8287H13.2341ZM15.7946 12.6333C15.4364 12.6333 15.1461 12.3429 15.1461 11.9847V7.36145L14.706 7.80156C14.4527 8.05485 14.042 8.05485 13.7887 7.80156C13.5354 7.54829 13.5354 7.13762 13.7887 6.88435L15.3257 5.34735C15.4438 5.2238 15.6102 5.14684 15.7946 5.14684C15.9782 5.14684 16.1439 5.22307 16.2619 5.3456L17.8006 6.88435C18.0539 7.13762 18.0539 7.54829 17.8006 7.80156C17.5473 8.05485 17.1367 8.05485 16.8834 7.80156L16.4432 7.3614V11.9847C16.4432 12.3429 16.1528 12.6333 15.7946 12.6333Z" fill="#777786"/>
</svg>
