<svg width="26" height="26" viewBox="0 0 26 26" fill="none" xmlns="http://www.w3.org/2000/svg">
<rect x="0.5" y="0.5" width="25" height="25" rx="12.5" fill="#191B21"/>
<path d="M20.0907 7.22521L17.8477 18.5339C17.8477 18.5339 17.5341 19.3181 16.6713 18.9417L11.472 14.9622C12.1709 14.334 17.5923 9.45992 17.8294 9.23889C18.1958 8.89681 17.9684 8.69323 17.5424 8.95193L9.53452 14.0374L6.44503 12.9973C6.44503 12.9973 5.95864 12.8247 5.91183 12.4483C5.86474 12.0719 6.46081 11.868 6.46081 11.868L19.0556 6.92717C19.0556 6.92717 20.0907 6.47236 20.0907 7.22521Z" fill="white"/>
<rect x="0.5" y="0.5" width="25" height="25" rx="12.5" stroke="#30333C"/>
</svg>
