<svg width="22" height="22" viewBox="0 0 22 22" fill="none" xmlns="http://www.w3.org/2000/svg">
<path d="M11 21.0827C5.43777 21.0827 0.916687 16.5616 0.916687 10.9993C0.916687 5.4371 5.43777 0.916016 11 0.916016C16.5623 0.916016 21.0834 5.4371 21.0834 10.9993C21.0834 16.5616 16.5623 21.0827 11 21.0827ZM11 2.32299C6.2163 2.32299 2.32366 6.21563 2.32366 10.9993C2.32366 15.7831 6.2163 19.6757 11 19.6757C15.7837 19.6757 19.6764 15.7831 19.6764 10.9993C19.6764 6.21563 15.7837 2.32299 11 2.32299Z" fill="#4DD337"/>
<path d="M9.6977 14.6673C9.51428 14.6673 9.34002 14.5855 9.21163 14.4422L6.61616 11.5468C6.3502 11.25 6.3502 10.7589 6.61616 10.4622C6.88213 10.1655 7.32235 10.1655 7.58831 10.4622L9.6977 12.8154L14.4117 7.55652C14.6777 7.25981 15.1179 7.25981 15.3839 7.55652C15.6498 7.85323 15.6498 8.34433 15.3839 8.64104L10.1838 14.4422C10.0554 14.5855 9.88113 14.6673 9.6977 14.6673Z" fill="#4DD337"/>
</svg>
