<svg width="14" height="15" viewBox="0 0 14 15" fill="none" xmlns="http://www.w3.org/2000/svg">
<path d="M7.00033 1.66602C3.78616 1.66602 1.16699 4.28518 1.16699 7.49935C1.16699 10.7135 3.78616 13.3327 7.00033 13.3327C10.2145 13.3327 12.8337 10.7135 12.8337 7.49935C12.8337 4.28518 10.2145 1.66602 7.00033 1.66602ZM9.78866 6.15768L6.48116 9.46518C6.39949 9.54685 6.28866 9.59352 6.17199 9.59352C6.05533 9.59352 5.94449 9.54685 5.86283 9.46518L4.21199 7.81435C4.04283 7.64518 4.04283 7.36518 4.21199 7.19602C4.38116 7.02685 4.66116 7.02685 4.83033 7.19602L6.17199 8.53768L9.17033 5.53935C9.33949 5.37018 9.61949 5.37018 9.78866 5.53935C9.95783 5.70852 9.95783 5.98268 9.78866 6.15768Z" fill="#00C708"/>
</svg>
