<svg width="28" height="30" viewBox="0 0 28 30" fill="none" xmlns="http://www.w3.org/2000/svg">
<g filter="url(#filter0_d_474_20028)">
<rect width="28" height="28" rx="4" fill="url(#paint0_linear_474_20028)"/>
<g filter="url(#filter1_d_474_20028)">
<rect x="2" y="2" width="24" height="15" rx="5" fill="url(#paint1_linear_474_20028)" fill-opacity="0.17" shape-rendering="crispEdges"/>
</g>
<path d="M10.7743 21.224C17.4846 21.224 21.2065 15.526 20.9803 10.549C21.4774 10.1898 21.9269 9.76873 22.3177 9.29602C22.3473 9.25945 22.3643 9.21427 22.3661 9.16724C22.3679 9.12021 22.3544 9.07387 22.3277 9.03515C22.3009 8.99642 22.2623 8.96741 22.2177 8.95245C22.1731 8.93748 22.1248 8.93738 22.0801 8.95214C21.7851 9.04693 21.4844 9.12306 21.1798 9.18008C21.1557 9.18435 21.1308 9.1804 21.1093 9.16884C21.0877 9.15729 21.0706 9.13881 21.0608 9.11638C21.051 9.09396 21.0491 9.06889 21.0552 9.04521C21.0614 9.02152 21.0754 9.00061 21.0949 8.98583C21.487 8.67565 21.8101 8.28722 22.0438 7.84527C22.064 7.80499 22.0711 7.75938 22.0639 7.71488C22.0568 7.67039 22.0359 7.62925 22.0041 7.59729C21.9724 7.56533 21.9314 7.54416 21.8869 7.53677C21.8425 7.52937 21.7968 7.53613 21.7564 7.55608C21.1999 7.82125 20.6122 8.01542 20.0073 8.13402C19.5147 7.60894 18.8757 7.24406 18.1732 7.08675C17.4706 6.92945 16.737 6.98698 16.0676 7.25189C15.3981 7.51679 14.8238 7.97683 14.4191 8.57228C14.0145 9.16773 13.7981 9.87108 13.7983 10.591C13.7993 10.8198 13.8208 11.0481 13.8626 11.2731C13.8657 11.2894 13.865 11.3063 13.8606 11.3224C13.8562 11.3384 13.8482 11.3533 13.8372 11.3658C13.8261 11.3782 13.8124 11.3881 13.797 11.3944C13.7817 11.4008 13.765 11.4036 13.7484 11.4026C11.1508 11.2365 8.71545 10.0819 6.94265 8.17602C6.89142 8.11917 6.8261 8.07686 6.75328 8.05334C6.68046 8.02983 6.60273 8.02596 6.52793 8.04212C6.45313 8.05827 6.38393 8.09389 6.32731 8.14536C6.27068 8.19684 6.22865 8.26235 6.20546 8.33527C5.96049 9.01693 5.93389 9.75796 6.12935 10.4554C6.32481 11.1529 6.73262 11.7722 7.29615 12.2273C7.31444 12.2419 7.32742 12.2621 7.3331 12.2848C7.33879 12.3075 7.33686 12.3315 7.32762 12.353C7.31838 12.3745 7.30234 12.3924 7.28195 12.4039C7.26157 12.4154 7.23797 12.4199 7.21478 12.4167C7.00965 12.3888 6.80745 12.3425 6.61059 12.2785C6.53874 12.2544 6.46184 12.2497 6.38759 12.2648C6.31334 12.2798 6.24435 12.3141 6.18753 12.3642C6.12924 12.4132 6.08555 12.4773 6.06124 12.5494C6.03694 12.6216 6.03295 12.699 6.04971 12.7733C6.81009 15.701 8.8694 15.3278 8.8694 15.5496C8.8694 15.6997 8.46209 15.6997 7.91609 15.701C7.84219 15.7014 7.76962 15.7207 7.70535 15.7572C7.64107 15.7936 7.58724 15.846 7.54903 15.9092C7.51081 15.9725 7.4895 16.0445 7.48712 16.1184C7.48475 16.1922 7.50139 16.2654 7.53546 16.331C7.82282 16.8251 8.22302 17.2442 8.70336 17.5539C9.1837 17.8637 9.73053 18.0554 10.2991 18.1134C10.3212 18.1151 10.3423 18.1235 10.3594 18.1376C10.3766 18.1516 10.389 18.1706 10.395 18.1919C10.401 18.2133 10.4004 18.2359 10.3931 18.2569C10.3858 18.2778 10.3722 18.296 10.3543 18.309C9.36105 19.0273 8.20008 19.4788 6.98246 19.6201C6.8882 19.6276 6.79914 19.6664 6.72946 19.7303C6.65977 19.7942 6.61348 19.8796 6.59793 19.9729C6.58239 20.0662 6.59849 20.1619 6.64367 20.245C6.68885 20.3281 6.76053 20.3936 6.84728 20.4313C8.08972 20.9567 9.42531 21.2263 10.7743 21.224Z" fill="white"/>
<rect x="0.5" y="0.5" width="27" height="27" rx="3.5" stroke="#35762A"/>
</g>
<defs>
<filter id="filter0_d_474_20028" x="0" y="0" width="28" height="30" filterUnits="userSpaceOnUse" color-interpolation-filters="sRGB">
<feFlood flood-opacity="0" result="BackgroundImageFix"/>
<feColorMatrix in="SourceAlpha" type="matrix" values="0 0 0 0 0 0 0 0 0 0 0 0 0 0 0 0 0 0 127 0" result="hardAlpha"/>
<feOffset dy="2"/>
<feComposite in2="hardAlpha" operator="out"/>
<feColorMatrix type="matrix" values="0 0 0 0 0.207843 0 0 0 0 0.462745 0 0 0 0 0.164706 0 0 0 1 0"/>
<feBlend mode="normal" in2="BackgroundImageFix" result="effect1_dropShadow_474_20028"/>
<feBlend mode="normal" in="SourceGraphic" in2="effect1_dropShadow_474_20028" result="shape"/>
</filter>
<filter id="filter1_d_474_20028" x="1" y="2" width="26" height="17" filterUnits="userSpaceOnUse" color-interpolation-filters="sRGB">
<feFlood flood-opacity="0" result="BackgroundImageFix"/>
<feColorMatrix in="SourceAlpha" type="matrix" values="0 0 0 0 0 0 0 0 0 0 0 0 0 0 0 0 0 0 127 0" result="hardAlpha"/>
<feOffset dy="1"/>
<feGaussianBlur stdDeviation="0.5"/>
<feComposite in2="hardAlpha" operator="out"/>
<feColorMatrix type="matrix" values="0 0 0 0 0 0 0 0 0 0 0 0 0 0 0 0 0 0 0.01 0"/>
<feBlend mode="normal" in2="BackgroundImageFix" result="effect1_dropShadow_474_20028"/>
<feBlend mode="normal" in="SourceGraphic" in2="effect1_dropShadow_474_20028" result="shape"/>
</filter>
<linearGradient id="paint0_linear_474_20028" x1="14" y1="0" x2="14" y2="28" gradientUnits="userSpaceOnUse">
<stop stop-color="#69C05A"/>
<stop offset="1" stop-color="#469239"/>
</linearGradient>
<linearGradient id="paint1_linear_474_20028" x1="14" y1="2" x2="14" y2="17" gradientUnits="userSpaceOnUse">
<stop stop-color="white" stop-opacity="0"/>
<stop offset="1" stop-color="white"/>
</linearGradient>
</defs>
</svg>
