<svg width="10" height="10" viewBox="0 0 10 10" fill="none" xmlns="http://www.w3.org/2000/svg">
<path d="M7.84 6.584H7.56C7.27067 6.584 7.07467 6.64 6.972 6.752C6.86933 6.864 6.818 7.06467 6.818 7.354V8.404C6.818 8.69333 6.86933 8.89867 6.972 9.02C7.07467 9.132 7.27067 9.188 7.56 9.188H7.84C8.12 9.188 8.31133 9.132 8.414 9.02C8.526 8.89867 8.582 8.69333 8.582 8.404V7.354C8.582 7.06467 8.526 6.864 8.414 6.752C8.31133 6.64 8.12 6.584 7.84 6.584ZM7.364 5.772H8.008C9.02533 5.772 9.534 6.28533 9.534 7.312V8.46C9.534 9.48667 9.02533 10 8.008 10H7.364C6.34667 10 5.838 9.48667 5.838 8.46V7.312C5.838 6.28533 6.34667 5.772 7.364 5.772ZM2.702 1.782H2.408C2.128 1.782 1.932 1.838 1.82 1.95C1.71733 2.062 1.666 2.26267 1.666 2.552V3.616C1.666 3.90533 1.71733 4.106 1.82 4.218C1.932 4.33 2.128 4.386 2.408 4.386H2.702C2.982 4.386 3.17333 4.33 3.276 4.218C3.37867 4.09667 3.43 3.896 3.43 3.616V2.552C3.43 2.272 3.37867 2.076 3.276 1.964C3.17333 1.84267 2.982 1.782 2.702 1.782ZM2.226 0.969999H2.87C3.88733 0.969999 4.396 1.48333 4.396 2.51V3.658C4.396 4.68467 3.88733 5.198 2.87 5.198H2.226C1.20867 5.198 0.7 4.68467 0.7 3.658V2.51C0.7 1.48333 1.20867 0.969999 2.226 0.969999ZM3.57 10H3.024C2.856 10 2.8 9.916 2.856 9.748C3.07067 9.188 3.654 7.76 4.606 5.464C5.558 3.168 6.13667 1.76333 6.342 1.25C6.41667 1.082 6.51933 0.998 6.65 0.998H7.21C7.38733 0.998 7.44333 1.08667 7.378 1.264L3.892 9.748C3.836 9.916 3.72867 10 3.57 10Z" fill="#4C9540"/>
</svg>
