<svg width="101" height="100" viewBox="0 0 101 100" fill="none" xmlns="http://www.w3.org/2000/svg">
<path d="M50.5 92C27.616 92 9 73.384 9 50.5C9 27.616 27.616 9 50.5 9C73.384 9 92 27.616 92 50.5C92 73.384 73.384 92 50.5 92ZM50.5 14.1875C30.4763 14.1875 14.1875 30.4763 14.1875 50.5C14.1875 70.5237 30.4763 86.8125 50.5 86.8125C70.5237 86.8125 86.8125 70.5237 86.8125 50.5C86.8125 30.4763 70.5237 14.1875 50.5 14.1875Z" fill="#DC1428"/>
<path d="M37.6634 65.9314C36.9992 65.9314 36.3349 65.6794 35.8302 65.1709C34.817 64.1577 34.817 62.5151 35.8302 61.5019L61.5081 35.8234C62.5219 34.8102 64.1645 34.8102 65.1777 35.8234C66.1909 36.8365 66.1909 38.4792 65.1777 39.493L39.4992 65.1709C38.9875 65.6794 38.3239 65.9314 37.6634 65.9314Z" fill="#DC1428"/>
<path d="M63.3353 65.931C62.6716 65.931 62.0074 65.679 61.5027 65.1705L35.8248 39.4958C34.811 38.4826 34.811 36.84 35.8248 35.8268C36.838 34.813 38.4806 34.813 39.4938 35.8268L65.1717 61.5046C66.1855 62.5178 66.1855 64.1604 65.1717 65.1736C64.6638 65.679 63.9996 65.931 63.3353 65.931Z" fill="#DC1428"/>
</svg>
